<svg xmlns="http://www.w3.org/2000/svg" viewBox="0 0 46 46"><path d="M17.381 22.994a5.619 5.619 0 115.613 5.625h-.001a5.625 5.625 0 01-5.612-5.625zM28.8 12H17.2a5.213 5.213 0 00-5.2 5.2v11.6a5.221 5.221 0 005.2 5.2h11.6a5.213 5.213 0 005.2-5.2V17.2a5.205 5.205 0 00-5.2-5.2zm-11.6 1.3h11.6a3.9 3.9 0 013.9 3.9v11.6a3.9 3.9 0 01-3.9 3.9H17.2a3.9 3.9 0 01-3.9-3.9V17.2a3.9 3.9 0 013.9-3.9zm12.755 1.64a1.142 1.142 0 10.006 2.284 1.142 1.142 0 00-.006-2.284zm.134 8.054a7.094 7.094 0 10-14.188.002 7.094 7.094 0 0014.188-.002z" fill-rule="evenodd" clip-rule="evenodd" fill="#fff"/></svg>