<?xml version="1.0" encoding="utf-8"?>
<!-- Generator: Adobe Illustrator 24.0.3, SVG Export Plug-In . SVG Version: 6.00 Build 0)  -->
<svg version="1.1" id="Layer_1" xmlns="http://www.w3.org/2000/svg" xmlns:xlink="http://www.w3.org/1999/xlink" x="0px" y="0px"
	 viewBox="0 0 46 46" style="enable-background:new 0 0 46 46;" xml:space="preserve">
<style type="text/css">
	.st0{fill-rule:evenodd;clip-rule:evenodd;fill:#FFFFFF;}
</style>
<path id="instagram" class="st0" d="M17.381,22.994c0.00331-3.10328,2.52171-5.61631,5.625-5.61299
	c3.10329,0.00331,5.61631,2.52171,5.61299,5.625s-2.52172,5.61631-5.625,5.61299c-0.00033,0-0.00066,0-0.00099,0
	C19.89148,28.61183,17.38099,26.09553,17.381,22.994z M28.8,12H17.2c-2.86892,0.00715-5.19285,2.33108-5.2,5.2v11.6
	c0.01151,2.8671,2.3329,5.18849,5.2,5.2h11.6c2.86892-0.00714,5.19286-2.33109,5.2-5.2V17.2
	C33.99725,14.32926,31.67074,12.00276,28.8,12z M17.2,13.3h11.6c2.15391,0,3.9,1.74609,3.9,3.9v11.6c0,2.15391-1.74609,3.9-3.9,3.9
	H17.2c-2.15391,0-3.9-1.74609-3.9-3.9V17.2C13.3,15.04609,15.04609,13.3,17.2,13.3z M29.955,14.94
	c-0.63071,0.00166-1.14065,0.51429-1.139,1.145c0.00166,0.63071,0.51429,1.14065,1.145,1.13899
	c0.62953-0.00165,1.139-0.51245,1.139-1.14199c0.00111-0.6296-0.50838-1.1409-1.13799-1.14201
	C29.95967,14.93999,29.95734,14.93999,29.955,14.94z M30.089,22.994c-0.00055-3.91791-3.17709-7.09355-7.095-7.093
	s-7.09355,3.17709-7.093,7.095c0.00055,3.91752,3.17648,7.093,7.094,7.093C26.91307,30.08845,30.089,26.91207,30.089,22.994z"/>
</svg>
