<?xml version="1.0" encoding="utf-8"?>
<!-- Generator: Adobe Illustrator 24.0.3, SVG Export Plug-In . SVG Version: 6.00 Build 0)  -->
<svg version="1.1" id="brand" xmlns="http://www.w3.org/2000/svg" xmlns:xlink="http://www.w3.org/1999/xlink" x="0px" y="0px"
	 viewBox="0 0 330 146" style="enable-background:new 0 0 330 146;" xml:space="preserve">
<style type="text/css">
	.st0{fill:none;stroke:#3E0538;stroke-miterlimit:10;}
	.st1{fill:#8918B3;}
	.st2{fill:#3E0538;}
	.st3{fill:#DC1947;}
	.st4{fill:#F76E1B;}
	.st5{fill:#E7134E;}
	.st6{fill:#FBC22C;}
	.st7{opacity:0.8;fill:#FFFFFF;enable-background:new    ;}
	.st8{opacity:0.7;fill:#FFFFFF;enable-background:new    ;}
	.st9{fill:#3FB94E;}
	.st10{fill:#FAC329;}
	.st11{fill:#1A86C9;}
</style>
<g id="Top_1_">
	<g id="Back_1_" transform="translate(18.865)">
		<g id="Grid_1_" transform="translate(121.742 65.508)">
			<path id="Path_160" class="st0" d="M0,7.748l64.495,0.256"/>
			<path id="Path_161" class="st0" d="M0,11.621l64.495,0.256"/>
			<path id="Path_162" class="st0" d="M0,15.494l64.495,0.256"/>
			<path id="Path_163" class="st0" d="M0,19.367l64.495,0.256"/>
			<path id="Path_164" class="st0" d="M0,27.37099c0.07867-9.12334,0.15732-18.24666,0.23599-27.37"/>
			<path id="Path_165" class="st0" d="M3.57101,27.37099c0.07867-9.12334,0.15732-18.24666,0.23599-27.37"/>
			<path id="Path_166" class="st0" d="M7.14001,27.37099c0.07867-9.12334,0.15735-18.24666,0.23599-27.37"/>
			<path id="Path_167" class="st0" d="M10.71002,27.37099c0.07867-9.12334,0.15732-18.24666,0.23599-27.37"/>
			<path id="Path_168" class="st0" d="M14.28,27.37099c0.07867-9.12334,0.15732-18.24666,0.23599-27.37"/>
			<path id="Path_169" class="st0" d="M17.85001,27.37099c0.07867-9.12334,0.15735-18.24666,0.23599-27.37"/>
			<path id="Path_170" class="st0" d="M21.42001,27.37099c0.07867-9.12334,0.15732-18.24666,0.23599-27.37"/>
			<path id="Path_171" class="st0" d="M24.99002,27.37099c0.0787-9.12334,0.15735-18.24666,0.23599-27.37"/>
			<path id="Path_172" class="st0" d="M28.56,27.37099c0.07867-9.12334,0.15732-18.24666,0.23599-27.37"/>
			<path id="Path_173" class="st0" d="M32.12903,27.37099c0.07867-9.12334,0.15732-18.24666,0.23599-27.37"/>
			<path id="Path_174" class="st0" d="M35.69897,27.37099c0.07867-9.12334,0.15735-18.24666,0.23599-27.37"/>
			<path id="Path_175" class="st0" d="M39.26498,27.37099c0.07867-9.12334,0.15735-18.24666,0.23602-27.37"/>
			<path id="Path_176" class="st0" d="M42.83899,27.37099c0.07867-9.12334,0.15729-18.24666,0.23602-27.37"/>
			<path id="Path_177" class="st0" d="M46.409,27.37099c0.07867-9.12334,0.15735-18.24666,0.23602-27.37"/>
			<path id="Path_178" class="st0" d="M49.97903,27.37099c0.07867-9.12334,0.15735-18.24666,0.23602-27.37"/>
			<path id="Path_179" class="st0" d="M53.54901,27.37099c0.07867-9.12334,0.15735-18.24666,0.23602-27.37"/>
			<path id="Path_180" class="st0" d="M57.11902,27.37099c0.07861-9.12334,0.15735-18.24666,0.23602-27.37"/>
			<path id="Path_181" class="st0" d="M60.68896,27.37099c0.07867-9.12334,0.15729-18.24666,0.23602-27.37"/>
			<path id="Path_182" class="st0" d="M64.25903,27.37099c0.07867-9.12334,0.15729-18.24666,0.23602-27.37"/>
			<path id="Path_183" class="st0" d="M0,3.87399l64.495,0.256"/>
			<path id="Path_184" class="st0" d="M0,0l64.495,0.256"/>
			<path id="Path_185" class="st0" d="M0,23.24101l64.495,0.25601"/>
			<path id="Path_186" class="st0" d="M0,27.11499L64.495,27.371"/>
		</g>
		<g id="Group_18" transform="translate(100.692 51.464)">
			<path id="Wall_1_" class="st1" d="M1.73099,1.731v69.22h101.44302V1.731H1.73099z M72.431,34.798
				c0,2.25388-1.82712,4.08099-4.08099,4.08099H34.59399c-2.25388,0-4.08099-1.82712-4.08099-4.08099V20.985
				c0-2.25388,1.82712-4.08099,4.08099-4.08099h33.74802c2.25388,0,4.08099,1.82712,4.08099,4.08099L72.431,34.798z"/>
			<path id="Path_187" class="st2" d="M104.905,72.68201H0V0h104.905V72.68201z M3.46201,69.22h97.98001v-65.758H3.46201V69.22z
				 M68.34601,40.61H34.59402c-3.20828-0.00385-5.80817-2.60371-5.81201-5.812V20.985
				c0.00385-3.20828,2.60373-5.80815,5.81201-5.812h33.75198c3.20828,0.00385,5.80817,2.60371,5.81201,5.812v13.813
				C74.15417,38.00629,71.55429,40.60616,68.34601,40.61z M34.59402,18.632c-1.29718,0.00165-2.34836,1.05281-2.35001,2.35001
				v13.813c0.00165,1.2972,1.05283,2.34836,2.35001,2.35001h33.75198c1.29718-0.00165,2.34836-1.05281,2.35001-2.35001V20.98399
				c-0.00165-1.2972-1.05283-2.34836-2.35001-2.35001L34.59402,18.632z"/>
		</g>
		<g id="_x30_3_Tower_1_" transform="translate(183.263)">
			<path id="Path_188" class="st2" d="M32.67395,38.384c-3.672-4.435-9.492-4.88-11.27399-4.907
				c-0.77863-0.11949-1.56531-0.179-2.35303-0.178c-2.88733-0.05832-5.71375,0.83417-8.04401,2.54
				c-3.18903,2.416-4.935,6.194-5.19098,11.231c-0.758,14.908-0.289,37.874,1.32098,64.66799
				c0.27496,6.4631,5.67175,11.51753,12.13898,11.369c6.07599,0,12.22803-4.31799,12.22803-12.571
				c0-11.726,1.28003-47.14799,3.65302-59.649C36.12598,45.753,35.29199,41.546,32.67395,38.384z"/>
			<path id="Path_189" class="st2" d="M41.573,40.868c-0.18085-2.49492-0.6507-4.96041-1.40002-7.347l-0.013-0.045
				c-0.146-0.532-0.29199-1.063-0.42999-1.595c-1.06-4.121-7.138-24.559-7.74298-26.518
				c-1.1214-3.92602-5.2132-6.1996-9.13922-5.07818c-2.03223,0.58048-3.71881,2.00298-4.63379,3.90818L2.58801,31.273l-0.073,0.132
				c-0.95123,1.76054-1.6817,3.63166-2.17499,5.571c-0.82312,3.36854-0.02765,6.92823,2.151,9.626
				c3.20001,4.378,8.68597,7.252,15.45502,8.092c1.013,0.126,2.03198,0.205,3.02698,0.237
				c0.33331,0.01067,0.6637,0.016,0.99103,0.016c3.26093,0.01728,6.50073-0.52387,9.57898-1.6c3.34497-1.188,7.008-2.862,8.81-6.264
				C41.31537,45.16016,41.73706,43.01194,41.573,40.868z"/>
			<path id="Path_190" class="st3" d="M21.00903,37.978c0,0,12.10797-0.5,9.72198,12.07C28.17804,63.50099,27,99.931,27,110.536
				S12.20599,121.136,11.625,111.468c-1.52002-25.285-2.09998-48.791-1.31897-64.17
				C10.89398,35.711,21.00903,37.978,21.00903,37.978z"/>
			<path id="Path_191" class="st2" d="M21.87897,52.918c-0.30463,0-0.60864-0.005-0.91199-0.015
				c-0.91498-0.029-1.85303-0.1-2.78601-0.218c-6.21503-0.771-11.24902-3.4-14.17603-7.411c-2.05798-2.818-0.59998-5.331,0.159-8.3
				c0.45374-1.78142,1.12549-3.50006,2-5.117l0.03302-0.063l14.10797-23.491c1.24701-2.365,1.78302-3.773,4.28998-3.773
				c2.91199,0,3.771,1.506,4.65802,4.378c0.56201,1.82,5.78101,19.1,6.76202,22.912c0.13098,0.509,2.021,5.835,2.12701,8.291
				c0.09998,2.21,0.58099,4.055-0.25897,5.639c-1.633,3.084-4.13501,4.61-7.19397,5.7
				C27.85779,52.43915,24.87799,52.93567,21.87897,52.918z"/>
			<path id="top_7_" class="st4" d="M27.68506,6.689c0.56897,1.842,6.65302,22.3,7.685,26.312
				c0.84772,2.62064,1.41943,5.32262,1.70599,8.062c0.11481,1.34319-0.12665,2.69292-0.70001,3.91299
				c-1.14203,2.15701-4.138,3.348-6.33899,4.12901c-2.86554,0.99365-5.89124,1.44435-8.922,1.32899
				c-0.87396-0.028-1.74561-0.09467-2.61499-0.2c-4.61401-0.57301-9.53802-2.394-12.37598-6.28
				c-1.36493-1.62239-1.89221-3.78993-1.42499-5.858c0.40448-1.59495,1.00647-3.13317,1.79199-4.57899L22.15411,6.373
				c0.57355-1.49955,2.25415-2.25021,3.75366-1.67665C26.78827,5.03312,27.45074,5.77591,27.68506,6.689z"/>
		</g>
		<g id="_x30_4_Tower_1_" transform="translate(79.409)">
			<path id="Path_192" class="st2" d="M35.77798,47.07c-0.25601-5.037-2-8.815-5.19101-11.231
				c-2.33029-1.70577-5.15671-2.59824-8.04401-2.54c-0.78772-0.00101-1.57437,0.05849-2.353,0.178
				c-1.78299,0.027-7.60001,0.472-11.27499,4.907c-2.61801,3.162-3.452,7.369-2.478,12.5
				c2.37299,12.5,3.65201,47.924,3.65201,59.649c0,8.252,6.151,12.56999,12.22699,12.571l0,0
				c6.46671,0.14798,11.86255-4.90645,12.13699-11.369C36.06601,84.94601,36.53598,61.98,35.77798,47.07z"/>
			<path id="Path_193" class="st2" d="M41.25101,36.975c-0.4935-1.94004-1.22433-3.81184-2.17599-5.573l-0.04401-0.081
				L23.39001,4.215C22.13519,1.65865,19.54657,0.02794,16.69901,0c-3.2905,0.02503-6.17563,2.20391-7.10001,5.362
				C8.99301,7.326,2.91,27.783,1.85599,31.88c-0.13699,0.532-0.28299,1.063-0.42999,1.6L1.414,33.525
				c-0.74945,2.38656-1.21927,4.85207-1.39999,7.347c-0.16357,2.14338,0.25848,4.29092,1.22101,6.213
				c1.79999,3.4,5.465,5.076,8.81,6.264c3.07788,1.07631,6.31738,1.61747,9.578,1.6c0.33334,0,0.66367-0.00533,0.991-0.016
				c1-0.031,2.01401-0.111,3.02701-0.237c6.76901-0.84,12.258-3.714,15.45599-8.092
				C41.27737,43.90589,42.07394,40.34494,41.25101,36.975z"/>
			<path id="Path_194" class="st4" d="M20.58398,37.978c0,0-12.108-0.5-9.72199,12.07c2.55301,13.453,3.73099,49.883,3.73099,60.488
				s14.79401,10.60001,15.375,0.93201c1.51999-25.285,2.10001-48.791,1.319-64.17C30.694,35.711,20.58398,37.978,20.58398,37.978z"
				/>
			<path id="Path_195" class="st2" d="M19.715,52.919c0.30466,0,0.60867-0.005,0.91199-0.015c0.91501-0.029,1.853-0.1,2.78601-0.218
				c5.48175-0.56157,10.47311-3.40704,13.74899-7.83801c2.05801-2.818,1.02399-5.331,0.26401-8.3
				c-0.4538-1.78139-1.12555-3.50002-2-5.117l-0.03299-0.063L20.86398,7.456c-1.24701-2.365-1.78201-3.35-4.29001-3.35
				c-2.91199,0-3.349,1.93-4.23499,4.8c-0.56201,1.82-6.20001,19.523-7.185,23.336c-0.13101,0.509-0.271,1.017-0.41101,1.527
				c-0.68741,2.19835-1.12122,4.46809-1.293,6.765c-0.15091,1.94461,0.22931,3.89368,1.10001,5.639
				c1.633,3.084,3.289,4.187,6.349,5.273C13.73184,52.43733,16.71375,52.93555,19.715,52.919z"/>
			<path id="top_6_" class="st5" d="M13.90201,6.689c-0.569,1.842-6.65301,22.3-7.685,26.312
				c-0.84766,2.62065-1.4194,5.32262-1.70599,8.062C4.39615,42.4062,4.6376,43.75594,5.21103,44.976
				c1.142,2.15701,4.138,3.348,6.33899,4.12901c2.86554,0.99365,5.89124,1.44435,8.922,1.32899
				c0.87399-0.028,1.74567-0.09467,2.61499-0.2c4.61301-0.57301,9.53799-2.394,12.37601-6.28
				c1.36508-1.62232,1.89236-3.78993,1.42499-5.858c-0.40439-1.59498-1.00638-3.13321-1.79199-4.57899L19.436,6.367
				c-0.57224-1.50005-2.25217-2.25219-3.7522-1.67995C14.79935,5.02446,14.13455,5.77138,13.90201,6.689z"/>
		</g>
		<g id="Group_19" transform="translate(0 64.368)">
			<path id="Stairs_2_" class="st6" d="M2.118,54.222l55.40001-35.383L49.384,6.104c0,0.009,0,0.021,0,0.03
				c-4.00131-0.67987-8.09644-0.57799-12.059,0.3l-0.012,0.009c-0.47096,4.01585-0.36759,8.07831,0.307,12.065
				c-4.00569-0.6788-8.105-0.57454-12.071,0.30701c-0.471,4.01785-0.36763,8.08229,0.307,12.071
				c-4.00556-0.68059-8.10521-0.57631-12.071,0.30701c-0.47099,4.01785-0.36762,8.08229,0.307,12.071
				c-4.00558-0.68037-8.10519-0.57611-12.071,0.30701C1.60131,47.11108,1.6339,50.69017,2.118,54.222z"/>
			<path id="Path_196" class="st2" d="M0.758,57.145l-0.356-2.7c-0.50044-3.67567-0.53404-7.39989-0.1-11.084l0.149-1.21899
				l1.2-0.26199c3.416-0.76065,6.93122-0.9733,10.414-0.63c-0.40295-3.41014-0.40295-6.85587,0-10.26601l0.149-1.21899l1.2-0.26199
				c3.41605-0.76031,6.93121-0.97296,10.414-0.63c-0.40296-3.41014-0.40296-6.85587,0-10.26601l0.149-1.22l1.2-0.26199
				c3.41597-0.75848,6.93057-0.97079,10.413-0.629c-0.40311-3.40846-0.40311-6.85254,0-10.261l0.087-0.71201l0.877-0.686
				l0.4-0.09399c3.49622-0.77466,7.09492-0.97729,10.656-0.60001l-0.077-4.146l12.369,19.366L0.758,57.145z M3.609,45.02501
				c-0.18296,2.0703-0.20069,4.15189-0.053,6.22501l9.909-6.32899c-3.26665-0.51691-6.59687-0.4821-9.852,0.10298L3.609,45.02501z
				 M15.373,32.646c-0.29468,3.4519-0.15087,6.92725,0.428,10.343l0.065,0.39999l39.258-25.075l-6.76-10.584
				c-3.14198-0.45384-6.33652-0.3988-9.461,0.16299c-0.28851,3.45168-0.14507,6.92586,0.427,10.342l0.388,2.382l-2.381-0.39999
				c-3.37737-0.57249-6.8284-0.55557-10.2,0.05c-0.29472,3.45157-0.1509,6.92657,0.428,10.342l0.388,2.382l-2.38-0.39999
				C22.19542,32.01935,18.74425,32.03795,15.373,32.646z"/>
		</g>
		<g id="Group_20" transform="translate(242.891 64.368)">
			<path id="Stairs_1_" class="st6" d="M57.789,54.22299L2.38898,18.84l8.13397-12.735c0,0.009,0,0.021,0,0.03
				c4.00128-0.67995,8.0965-0.57806,12.05902,0.3l0.01202,0.009c0.47095,4.01585,0.36761,8.07831-0.30701,12.065
				c4.00568-0.67883,8.10498-0.57457,12.07098,0.30701c0.47095,4.01785,0.36761,8.08229-0.30701,12.071
				c4.00555-0.68053,8.10522-0.57626,12.07098,0.30701c0.47089,4.01785,0.36749,8.08228-0.30701,12.071
				c4.00555-0.6804,8.10516-0.57614,12.07098,0.30701C58.30566,47.11208,58.27307,50.69116,57.789,54.22299z"/>
			<path id="Path_197" class="st2" d="M59.14905,57.14499L0,19.362L12.37-0.004l-0.07703,4.146
				c3.5611-0.37689,7.15973-0.17427,10.65601,0.60001L23.32996,4.825l0.88202,0.67999l0.09998,0.728
				c0.40308,3.40846,0.40308,6.85254,0,10.261c3.48242-0.34158,6.99701-0.12929,10.41302,0.629l1.20001,0.26199l0.14899,1.22
				c0.40332,3.41013,0.40332,6.85588,0,10.26601c3.48279-0.34262,6.99792-0.12996,10.414,0.63l1.20001,0.26199l0.14899,1.21899
				c0.40314,3.41013,0.40314,6.85588,0,10.26601c3.48273-0.34323,6.99786-0.13092,10.414,0.629l1.20001,0.26199l0.14899,1.21899
				c0.43378,3.68413,0.40021,7.40829-0.09998,11.084L59.14905,57.14499z M46.44208,44.91998l9.909,6.32899
				c0.14734-2.07312,0.12964-4.15469-0.05298-6.22501c-3.25684-0.58504-6.58868-0.61986-9.85706-0.10298L46.44208,44.91998z
				 M4.78204,18.312l39.258,25.075l0.065-0.39999c0.57886-3.41576,0.72266-6.8911,0.42798-10.343
				c-3.37158-0.60645-6.82281-0.62302-10.20001-0.049l-2.38,0.39999l0.388-2.382c0.57867-3.41544,0.72247-6.89043,0.42798-10.342
				c-3.37158-0.60559-6.82263-0.6225-10.20001-0.05l-2.38098,0.39999l0.388-2.382c0.57233-3.41611,0.71576-6.89034,0.427-10.342
				c-3.12451-0.56143-6.31903-0.61647-9.461-0.16299L4.78204,18.312z"/>
		</g>
		<path id="Path_198" class="st7" d="M93.39201,54.41c2.25299,20.40601,2.452,40.868,2.80499,56.21899
			c1.61197-18.59142,1.56113-37.28963-0.15201-55.87201L93.39201,54.41z"/>
		<path id="Path_199" class="st7" d="M198.61801,55.103c-1.47803,20.38901-1.414,40.89999-1.76599,56.21899
			c0,0-2.05701-27.147-1.23297-57.257L198.61801,55.103z"/>
		<path id="Path_200" class="st7" d="M85.923,40.266c0,0,7.33899-26.164,8.508-29.352c1.186-3.235,3.32199-2.768,4.44601,0
			c0,0-2.37701-0.421-4.70001,5.783C93.47601,18.567,85.923,40.266,85.923,40.266z"/>
		<path id="Path_201" class="st7" d="M190.366,37.622c0,0,13.23999-23.731,15.12097-26.558c1.90802-2.869,3.87598-1.917,4.323,1.037
			c0,0-2.21301-0.964-5.91901,4.527C202.77402,18.283,190.366,37.622,190.366,37.622z"/>
		<g id="Group_21" transform="translate(44.249 23.982)">
			<path id="Path_202" class="st6" d="M175.25299,21.415l1.98499-5.608c0.34052-1.33358-0.46094-2.69155-1.793-3.038
				c-5.26663-1.8-10.58566-3.38433-15.957-4.753c-1.2959-0.4366-2.70035,0.25999-3.13693,1.55588
				c-0.00137,0.00404-0.00272,0.00808-0.00406,0.01212l-1.392,5.785c-0.39496,1.27358-1.73492,1.99842-3.017,1.632
				c-3.94531-0.90067-7.91034-1.68201-11.89499-2.34401c-1.32391-0.14802-2.28748-1.32601-2.17001-2.653
				c0.29797-1.96133,0.59567-3.92233,0.89301-5.883c0.09415-1.36366-0.93503-2.54543-2.29868-2.63957
				c-0.00211-0.00014-0.00421-0.00029-0.00632-0.00043c-5.45999-0.76133-10.93866-1.30766-16.436-1.639
				c-1.35172-0.17955-2.59305,0.77068-2.77261,2.12241c-0.00046,0.00353-0.00092,0.00706-0.00137,0.0106
				c-0.09399,1.98133-0.18799,3.96266-0.28201,5.944c-0.14349,1.32254-1.31769,2.2879-2.64301,2.173
				c-4.02136-0.14066-8.04401-0.16-12.06799-0.058c-1.32681,0.10158-2.49158-0.87572-2.62201-2.2
				c-0.07532-1.982-0.15033-3.964-0.22501-5.946c-0.16046-1.35412-1.38828-2.32175-2.7424-2.16128
				c-0.00354,0.00041-0.00705,0.00084-0.01059,0.00127c-5.48935,0.278-10.96567,0.77-16.42902,1.476
				c-1.36365,0.07654-2.40707,1.24405-2.33054,2.6077c0.00018,0.0031,0.00037,0.0062,0.00055,0.00929
				c0.27866,1.964,0.55701,3.92767,0.83499,5.891c0.10397,1.32929-0.87332,2.49803-2.20001,2.631
				c-3.98868,0.61933-7.961,1.36001-11.91699,2.222c-1.28555,0.35382-2.61821-0.38448-3-1.662l-1.336-5.8
				c-0.41606-1.30205-1.80885-2.02028-3.1109-1.60422c-0.00436,0.00139-0.00873,0.0028-0.01309,0.00422
				c-5.37135,1.31467-10.69865,2.844-15.98199,4.588c-1.33667,0.33127-2.15187,1.68323-1.821,3.02l1.92999,5.628
				c0.34618,1.29415-0.4015,2.62855-1.686,3.009c-12.9903,4.6659-25.46437,10.65999-37.224,17.887l10.92599,17.875
				c57.66484-35.4408,130.36018-35.4408,188.02501,0l10.92599-17.875c-11.19119-6.87666-23.03067-12.63765-35.34799-17.2
				C175.62827,24.03838,174.8981,22.70196,175.25299,21.415z"/>
			<path id="Path_203" class="st2" d="M201.90799,61.89999L200.436,61C143.32083,25.89924,71.32016,25.89924,14.205,61
				l-1.472,0.89999L0.00101,41.073l1.47301-0.9C13.3351,32.88424,25.91507,26.83602,39.015,22.124
				c0.465-0.167,0.718-0.571,0.634-0.821l-1.92799-5.623c-0.32671-0.96562-0.25064-2.02213,0.211-2.931
				c0.55806-1.09543,1.52979-1.9232,2.7-2.3c5.285-1.746,10.707-3.3,16.11301-4.626c1.18381-0.30067,2.43866-0.11636,3.48601,0.512
				c0.87862,0.52847,1.50565,1.39037,1.73798,2.389l1.33501,5.794c0.05901,0.252,0.479,0.462,0.952,0.36
				c3.96001-0.863,8-1.617,12.02-2.241c0.47299-0.073,0.785-0.42,0.74899-0.681L76.19,6.068
				c-0.13989-1.01305,0.13443-2.03974,0.76099-2.848c0.74823-0.96095,1.84894-1.58366,3.05801-1.73
				c5.47601-0.709,11.048-1.209,16.564-1.488c1.21353-0.07078,2.40521,0.34528,3.311,1.156
				c0.76132,0.68513,1.21387,1.6486,1.255,2.672l0.224,5.942c0.01001,0.26,0.37601,0.545,0.853,0.533
				c4.03699-0.1,8.13199-0.082,12.172,0.059c0.47601,0.02,0.845-0.265,0.858-0.528l0.28201-5.94
				c0.05209-1.02167,0.51392-1.97919,1.28101-2.656c0.91382-0.80138,2.10934-1.20553,3.32199-1.123
				c5.522,0.333,11.10001,0.889,16.57098,1.652c1.20755,0.15842,2.30206,0.79188,3.04099,1.76
				c0.61957,0.81531,0.88385,1.84617,0.733,2.859l-0.892,5.879c-0.03799,0.257,0.271,0.606,0.74399,0.684
				c4,0.662,8.04102,1.456,12,2.359c0.47299,0.108,0.89401-0.1,0.957-0.354l1.39099-5.781
				c0.2421-0.99142,0.87421-1.84312,1.75299-2.362c1.05432-0.61795,2.31161-0.78965,3.49301-0.477
				c5.39999,1.378,10.81299,2.99,16.08801,4.791c1.16721,0.38725,2.13202,1.22358,2.681,2.324
				c0.45294,0.91444,0.51819,1.97285,0.181,2.936l-1.98199,5.6c-0.08701,0.249,0.16199,0.656,0.62799,0.828
				c12.42258,4.6059,24.36423,10.4173,35.65399,17.351l1.47198,0.9L201.90799,61.89999z M4.75299,42.224l9.123,14.924
				c57.49573-34.58409,129.39125-34.58409,186.88698,0l9.12299-14.924c-10.66159-6.42204-21.90094-11.83195-33.57095-16.159
				c-2.16241-0.72723-3.354-3.04266-2.689-5.225l0,0l1.98898-5.616c0.02237-0.09155,0.00879-0.18818-0.03799-0.27
				c-0.14795-0.26539-0.39319-0.46294-0.68399-0.551c-5.19-1.772-10.51501-3.358-15.828-4.713
				c-0.28537-0.08321-0.59192-0.05238-0.85501,0.086c-0.08444,0.04351-0.14914,0.11752-0.181,0.207l-1.39301,5.789
				c-0.62119,2.18915-2.87543,3.48293-5.07901,2.915c-3.89001-0.888-7.858-1.668-11.79401-2.319
				c-2.25168-0.31125-3.84711-2.35738-3.60001-4.617l0.89401-5.887c0.00571-0.09712-0.02615-0.19272-0.08899-0.267
				c-0.18716-0.22529-0.45477-0.36877-0.746-0.4c-5.38599-0.751-10.87-1.3-16.29999-1.626
				c-0.28772-0.02534-0.57416,0.06095-0.79999,0.241c-0.07608,0.05978-0.12653,0.14632-0.14099,0.242l-0.28201,5.947
				c-0.19031,2.26586-2.15768,3.96349-4.427,3.82c-3.97198-0.138-8-0.158-11.966-0.058
				c-2.26968,0.12115-4.22021-1.59351-4.39099-3.86L97.69,3.953c-0.01205-0.09745-0.06152-0.18639-0.138-0.248
				c-0.22409-0.18394-0.51108-0.27326-0.79999-0.249c-5.42599,0.274-10.909,0.767-16.29999,1.464
				c-0.29117,0.02766-0.56015,0.16753-0.75,0.39c-0.06299,0.0724-0.09589,0.16613-0.09201,0.262l0.836,5.9
				c0.23041,2.26244-1.38428,4.29631-3.64001,4.585c-3.94701,0.613-7.922,1.354-11.81599,2.2
				c-2.2074,0.54704-4.44817-0.76663-5.049-2.96l-1.33701-5.8c-0.03011-0.09165-0.09465-0.16802-0.17999-0.213
				c-0.26089-0.14118-0.5666-0.17491-0.85201-0.094C52.25,10.496,46.91499,12.024,41.715,13.744
				c-0.29108,0.08492-0.53777,0.27962-0.688,0.543c-0.04692,0.08024-0.06192,0.1752-0.04201,0.266l1.931,5.631
				c0.64441,2.18802-0.56776,4.49185-2.73599,5.2C27.84613,29.8191,15.9797,35.45973,4.75299,42.224z"/>
		</g>
		<path id="castle_7_" class="st8" d="M178.10901,29.918l-7.79999-0.865c-1.39999-0.155-3.29999-0.543-4.62799,0.136
			c-1.60999,0.826-1.19501,3.391-1.35901,4.885c-0.06714,1.28532-0.52408,2.51974-1.31,3.539
			c-1.56201,1.783-3.87299,1.5-5.99301,1.493c-1.94067-0.00866-3.88135-0.01299-5.82199-0.013
			c-1.73798,0.00001-3.47598,0.00001-5.21399,0c-0.95099,0-1.94199,0.089-2.89001,0.014
			c2.46667,0.19534,4.93332,0.38333,7.39999,0.564c1.87701,0.138,3.754,0.272,5.63199,0.394
			c1.87598,0.2791,3.78604,0.23207,5.646-0.139c0.56137-0.15704,1.0882-0.41824,1.55301-0.77
			c0.996-0.86715,1.66629-2.04824,1.89999-3.348c0.29401-1.276,0.34799-2.594,0.56201-3.885
			c0.04694-0.5108,0.23187-0.99921,0.535-1.413c0.57248-0.5351,1.35577-0.78347,2.13199-0.676
			C171.65601,29.985,174.892,29.856,178.10901,29.918z"/>
		<path id="castle_6_" class="st8" d="M139.00201,28.783l-7.82401,0.639c-1.40601,0.115-3.34698,0.1-4.517,1.016
			c-1.422,1.118-0.526,3.557-0.39999,5.055c0.17896,1.27468-0.03452,2.57363-0.612,3.724
			c-1.19299,2.048-3.51501,2.214-5.60001,2.609c-1.90665,0.362-3.81265,0.72866-5.71799,1.1
			c-1.70599,0.32999-3.41202,0.66333-5.11801,1c-0.93301,0.183-1.88901,0.458-2.83401,0.565
			c2.45868-0.27866,4.91663-0.56467,7.37399-0.858c1.86667-0.22266,3.73331-0.45167,5.60001-0.687
			c1.89481-0.08367,3.76089-0.49404,5.51599-1.213c0.52118-0.26125,0.98862-0.6181,1.37799-1.052
			c0.81287-1.04103,1.24609-2.32832,1.228-3.649c0.04501-1.308-0.15302-2.612-0.189-3.921
			c-0.05124-0.51036,0.03726-1.02505,0.25601-1.489c0.45996-0.63441,1.18152-1.02752,1.96399-1.07
			C132.67999,30.07899,135.832,29.336,139.00201,28.783z"/>
		<path id="castle_5_" class="st8" d="M100.65599,35.114l-7.60001,1.976c-1.36499,0.355-3.28,0.671-4.27399,1.778
			c-1.20901,1.346,0.09399,3.594,0.474,5.049c0.39603,1.22484,0.40961,2.54124,0.039,3.774
			c-0.823,2.223-3.08099,2.786-5.06601,3.534c-1.81601,0.68467-3.63068,1.373-5.444,2.065
			c-1.62399,0.61867-3.24734,1.23933-4.87,1.862c-0.88699,0.341-1.78201,0.777-2.69501,1.045
			c2.37399-0.69733,4.746-1.402,7.116-2.114c1.80002-0.54066,3.60001-1.088,5.39999-1.642
			c1.8522-0.40874,3.61987-1.13441,5.22501-2.145c0.46823-0.34698,0.86713-0.77879,1.17599-1.273
			c0.62137-1.1655,0.82632-2.50819,0.58099-3.806c-0.17999-1.3-0.60001-2.547-0.86099-3.83
			c-0.13693-0.49436-0.13693-1.01664,0-1.511c0.34381-0.70396,0.98672-1.21535,1.75-1.392
			C94.65199,37.479,97.631,36.20499,100.65599,35.114z"/>
		<path id="castle_4_" class="st8" d="M217.10699,39.126l-7.48798-2.355c-1.34601-0.423-3.13702-1.171-4.56702-0.76
			c-1.73901,0.5-1.82703,3.1-2.27698,4.531c-0.31421,1.24834-1.00098,2.37145-1.96899,3.22
			c-1.87701,1.448-4.09003,0.727-6.16901,0.308c-1.90265-0.38334-3.80603-0.76234-5.71002-1.137
			c-1.70465-0.33667-3.40997-0.67167-5.11603-1.005c-0.93298-0.182-1.92297-0.287-2.83899-0.544
			c2.38269,0.66666,4.76733,1.32767,7.15399,1.983c1.81464,0.49733,3.63135,0.98866,5.45001,1.474
			c1.78687,0.63619,3.67023,0.95894,5.56702,0.954c0.58099-0.04578,1.14819-0.20048,1.672-0.456
			c1.1452-0.65825,2.03137-1.68767,2.51202-2.918c0.53497-1.195,0.84198-2.478,1.29999-3.7
			c0.14532-0.49232,0.42188-0.93583,0.79999-1.283c0.66486-0.4145,1.4812-0.50708,2.22198-0.252
			C210.76001,37.946,213.96002,38.444,217.10699,39.126z"/>
	</g>
	<g id="Front_1_" transform="translate(0 20.574)">
		<path id="_x30_1_BG_1_" class="st2" d="M308.91,80.64701c-2.54376,0.03278-5.08261,0.23322-7.60001,0.60001
			c-0.8299,0.09973-1.64514,0.29675-2.42899,0.58701c-1.64911-1.35765-3.73602-2.06857-5.871-2H291.983
			c-2.29175,0.04102-4.54077,0.62718-6.561,1.71001c-1.56735-0.8291-3.31915-1.24779-5.09201-1.217
			c-1.42899,0.00076-2.84802,0.23727-4.20001,0.7c0.48801-9.27299,1.289-21.146,2.444-28.15801
			c2.25671-1.0541,4.13034-2.78307,5.362-4.948c1.00977-2.01259,1.45389-4.26165,1.285-6.507
			c-0.18787-2.55011-0.66766-5.07025-1.42999-7.511c-0.146-0.532-0.29199-1.063-0.42801-1.594
			c-1.05899-4.123-7.134-24.582-7.73801-26.543c-1.20721-4.22201-5.60849-6.66598-9.83051-5.45875
			c-2.17548,0.62205-3.98288,2.14151-4.96948,4.17775l-15.646,27.15798l-0.035,0.066c-0.97157,1.8016-1.71751,3.71601-2.22099,5.7
			c-0.86867,3.53463-0.04048,7.27218,2.24001,10.109c0.8831,1.20089,1.91501,2.28488,3.071,3.226
			c-0.325,8.734-0.289,19.65001,0.106,32.475c-4.17587-2.56451-8.98154-3.91982-13.882-3.91499
			c-0.63901,0-1.27901,0.02299-1.89999,0.069c-2.93216,0.16165-5.79146,0.9747-8.37,2.38
			c-0.13287-1.89122-0.36284-3.77437-0.689-5.642l-0.01801-0.09399c-1.04727-4.95668-5.44412-8.48756-10.51001-8.44002
			c-0.79124-0.00143-1.58028,0.08374-2.353,0.254c-5.522,1.19099-9.448,5.791-9.336,10.944v0.073
			c0.03101,0.84399,0.05701,1.724,0.078,2.62601c-0.60001-0.063-1.243-0.10001-1.95799-0.116
			c-0.23199-0.00667-0.46533-0.00999-0.7-0.00999c-5.709,0-10.672,2.019-13.981,5.685c-3.8-4.12601-9.5-6.386-16.16901-6.386
			c-2.54376,0.03276-5.08261,0.2332-7.60001,0.60001c-2.16226,0.24887-4.19142,1.17178-5.8,2.638
			c-0.32785-0.33041-0.67514-0.64096-1.03999-0.92999l-0.05499-0.043c-5.83301-4.47-10.211-5.13699-14.056-5.19
			c-0.153-0.006-0.308-0.008-0.465-0.008c-4.98599,0-10.834,2.856-15.15799,7.34599c-0.237-0.319-0.486-0.62399-0.746-0.912
			c-2.59377-2.80244-6.28447-4.32878-10.1-4.177c-3.02084-0.03627-6.01667,0.55132-8.8,1.726
			c-1.66595-0.82713-3.50307-1.25087-5.363-1.237c-0.152,0-0.306,0-0.465,0.007c-1.30017,0.04033-2.58633,0.28117-3.813,0.714
			c0.342-12.12199,0.353-22.47001,0.033-30.78c0.99238-0.85884,1.88499-1.8266,2.661-2.885
			c2.28034-2.83689,3.10851-6.57437,2.24-10.109c-0.50275-1.98408-1.24837-3.89854-2.22-5.7l-0.051-0.1l-15.613-27.1
			c-1.89836-3.9609-6.64823-5.63291-10.60912-3.73455c-2.05227,0.9836-3.58483,2.79927-4.20988,4.98755
			c-0.6,1.961-6.679,22.419-7.738,26.543c-0.139,0.543-0.289,1.085-0.439,1.631c-0.7574,2.42888-1.23384,4.93658-1.42,7.474
			c-0.51886,5.04893,2.38633,9.82606,7.108,11.688c1.1,6.827,1.872,18.086,2.342,26.732h-0.123
			c-2.29171,0.04128-4.54068,0.62744-6.561,1.71001c-1.56735-0.8291-3.31914-1.24777-5.092-1.217
			c-2.57421,0.01547-5.08987,0.76968-7.248,2.173c-0.48206-5.01765-3.11351-9.58064-7.215-12.511c-4.368-3.06-9.609-3.7-13.236-3.7
			H14.561C8.7844,66.44979,3.79102,70.3621,2.247,75.93102c-2.99956,12.56308-2.99682,25.65617,0.008,38.218
			c1.55113,5.55753,6.54226,9.45596,12.31,9.61501h14.54c6.114,0,11.333-1.787,15.172-5.18201
			c2.42925,3.64748,6.48201,5.88408,10.863,5.99498c2.91769,0.06656,5.70556-1.20508,7.568-3.452
			c1.91778-2.46468,2.62739-5.66028,1.933-8.705c-0.71287-3.48767-1.05908-7.04033-1.033-10.60001
			c0.19186-0.0222,0.38486-0.03288,0.578-0.032h1.348c0.84756,0.00095,1.69231-0.09738,2.517-0.293
			c0.1,3.826,0.155,7.209,0.155,9.614c0,8.631,6.431,13.147,12.784,13.147c3.38667,0.00301,6.64242-1.30797,9.082-3.657
			c2.40746,2.39587,5.6462,3.77095,9.042,3.839c0.40692,0.00006,0.81354-0.02231,1.218-0.067
			c2.61314-0.25447,4.99557-1.60579,6.555-3.718c0.39292-0.53833,0.7281-1.11652,1-1.72501
			c2.19019,2.99867,5.51688,4.96504,9.2,5.438c0.42837,0.0475,0.85901,0.07155,1.29,0.07201
			c2.90744,0.06602,5.68525-1.20203,7.54-3.442c0.38185-0.4659,0.7168-0.96834,1-1.5
			c3.98399,3.16701,8.85299,5.117,12.96499,5.13901h0.047c3.83501-0.04601,8.174-0.692,13.92101-5.028
			c0.95265,0.9417,2.02922,1.74913,3.2,2.39999c2.70244,1.45743,5.72165,2.22836,8.79199,2.245
			c2.61296,0.04611,5.1987-0.53694,7.539-1.7c4.90924,2.49933,10.90709,1.05754,14.144-3.39999
			c3.17361,3.22227,7.49451,5.05606,12.017,5.10001c2.44247,0.08122,4.86566-0.45825,7.043-1.56799
			c1.47417,0.7184,3.09309,1.09021,4.733,1.08701c3.33592-0.02863,6.47569-1.58083,8.524-4.214
			c3.48399,3.89999,8.53999,5.871,15.047,5.871c0.791,0,1.614-0.03,2.44701-0.088c4.49626-0.21654,8.88092-1.4735,12.80901-3.672
			c0.9043-0.48538,1.75125-1.07071,2.52499-1.745c4.83835,5.3791,13.12122,5.81747,18.50031,0.97914
			c0.00189-0.00172,0.00381-0.00343,0.00571-0.00514c2.40088,2.29898,5.57666,3.61391,8.89999,3.685
			c2.91779,0.06601,5.70557-1.20595,7.56799-3.453c1.91721-2.463,2.62683-5.65686,1.93301-8.7
			c-0.71289-3.48767-1.05908-7.04033-1.03299-10.60001c0.19186-0.02217,0.38486-0.03285,0.578-0.032H290.47
			c0.11334,0,0.22635-0.002,0.33899-0.006c-0.77838,1.90332-1.16577,3.94383-1.13901,6c0,6.394,2.745,11.444,7.73001,14.222
			c2.70245,1.45738,5.72165,2.22833,8.79199,2.245c2.61301,0.04643,5.19879-0.53665,7.539-1.7
			c5.508,2.80396,12.24615,0.61191,15.05011-4.89607c0.79889-1.56932,1.21616-3.30501,1.2179-5.06596v-12.194
			C329.99899,88.58601,321.52399,80.64701,308.91,80.64701z M143.457,101.64701c-0.77016,0.29985-1.59431,0.43607-2.42,0.39999
			c-0.255,0-0.545,0-0.549-1.32899c0-0.34,0-0.39999,0.58099-0.39999c0.81584-0.03467,1.62991,0.10158,2.39,0.39999
			c0.45168,0.18135,0.91589,0.32974,1.38901,0.444c-0.47165,0.13795-0.93564,0.30084-1.39001,0.48799L143.457,101.64701z"/>
		<g id="_x30_1_Brincadeira_1_" transform="translate(5.064 71.359)">
			<path id="Path_204" class="st5" d="M22.682,0c6.811-0.008,15.538,2.629,15.626,14.35501
				c0.05431,3.1456-1.20671,6.17114-3.479,8.34701c3.356,1.52899,5.752,5.29999,5.745,10.431
				c-0.073,5.53699-3.859,14.21899-16.527,14.20001H9.525c-3.43789-0.15829-6.4028-2.46613-7.4-5.76001
				c-2.83048-11.77023-2.83048-24.04376,0-35.814c0.99781-3.2933,3.96249-5.60056,7.4-5.759L22.682,0z M16.748,18.892
				c2.614,0,6.364,0.039,6.364-4.03799c0-4.03601-3.082-4.41199-6.364-4.422l0,0c-2.40075-0.13687-4.4579,1.69836-4.59476,4.09912
				c-0.00232,0.04059-0.00406,0.08124-0.00524,0.12189l0,0c0.146,2.84799,2.023,3.98801,4.6,4.23901
				C16.717,18.88901,16.779,18.892,16.748,18.892z M19.137,37.54501c2.614-0.009,6.319-0.991,6.142-4.883
				c-0.143-3.35599-3.8-4.75-6.7-4.745h-1.947c-2.71729,0.09137-4.86973,2.3262-4.859,5.04501l0,0
				c0.2,2.54501,2.922,4.595,5.47,4.58701C18.159,37.54501,18.225,37.54501,19.137,37.54501z"/>
			<path id="Path_205" class="st9" d="M59.22701,25.35901c-5.34,0-5.66701,3.742-5.63,3.74301
				c-0.13614,4.35587,0.23706,8.71274,1.112,12.98199C55.39,45.444,53.537,48.147,50.16499,48.147
				c-3.60936-0.11566-6.71912-2.57675-7.661-6.06299C41.03738,34.92551,40.98642,27.5491,42.354,20.371
				c0.687-3.61899,4.464-6.32501,8.07401-6.32599c2.27699,0,3.739,0.89999,4.457,2.646c3.485-2.89999,6.157-3.13501,7.233-3.13901
				h1.00999c3.377,0,4.2,2.45401,3.48399,5.89499c-0.685,3.27301-2.66499,5.914-6.03799,5.91199L59.22701,25.35901z"/>
			<path id="Path_206" class="st5" d="M283.98602,25.35901c-5.34003,0-5.66699,3.742-5.63,3.74301
				c-0.13629,4.35587,0.23688,8.71277,1.112,12.98199c0.68103,3.35999-1.172,6.06299-4.54401,6.06299
				c-3.60925-0.116-6.71887-2.57693-7.66101-6.06299c-1.46637-7.15857-1.51697-14.535-0.14899-21.71301
				c0.68701-3.61899,4.46399-6.32501,8.07397-6.32599c2.27698,0,3.73901,0.89999,4.45697,2.646
				c3.48401-2.89999,6.15698-3.13501,7.23297-3.13901h1.01001c3.37701,0,4.20001,2.45401,3.48401,5.89499
				c-0.685,3.27301-2.66498,5.914-6.03802,5.91199L283.98602,25.35901z"/>
			<path id="Path_207" class="st6" d="M117.851,41.99402c0.72501,3.57001-1.439,6.39301-5.241,5.974
				c-3.31232-0.42993-6.03436-2.82303-6.88501-6.05301c-0.95203-4.68188-1.29587-9.46707-1.02301-14.237
				c0.04395-1.21866-0.90833-2.24219-2.12698-2.28616c-0.09506-0.00342-0.19028-0.0007-0.285,0.00815
				c-1.88855,0.10275-3.63727,1.02774-4.785,2.53101c-0.24551,4.6488,0.09451,9.31006,1.01202,13.87402
				c0.62,3.138-0.79199,5.83801-3.806,6.17099c-3.82343,0.21622-7.27396-2.27994-8.26501-5.979
				c-1.45511-7.10248-1.5054-14.42117-0.14801-21.543c0.642-3.41199,4.25201-6.17099,7.69101-6.272
				c2.42099-0.07001,4.216,0.64499,4.953,2.45499c2.77051-2.01407,6.13129-3.05133,9.55499-2.949
				c6.45801,0,9.19199,4.87701,8.52399,11.37701C116.42973,30.71722,116.70967,36.42673,117.851,41.99402z"/>
			<path id="Path_208" class="st5" d="M145.94101,15.58099c1.51199,1.23099,2.52576,2.96893,2.853,4.89099
				c0.29999,2.92599-2.35199,5.11499-5.42801,5.05099c-1.04752-0.08417-2.06757-0.37729-3-0.862
				c-1.36523-0.55057-2.82831-0.81732-4.29999-0.784c-2.17499-0.035-5.694,1.23901-5.70999,5.45801
				c0.01401,5.27301,3.71201,6.45999,5.70999,6.42499c1.47168,0.03323,2.93472-0.23352,4.29999-0.784
				c0.93237-0.48486,1.95245-0.77798,3-0.862c3.077-0.064,5.728,2.12601,5.42801,5.052
				c-0.32742,1.922-1.34116,3.65988-2.853,4.89099c-4.88199,3.73499-8.29999,4.11301-11.134,4.147
				c-5.46201-0.02899-16.75201-5.974-17.245-18.745c0.47299-11.22101,11.20999-18.28101,17.245-18.02301
				C137.64001,11.466,141.05899,11.845,145.94101,15.58099z"/>
			<path id="Path_209" class="st4" d="M179.535,29.04199v12.194c0,3.36893-2.73105,6.10001-6.10001,6.10001l0,0
				c-1.98245,0.02792-3.84821-0.93497-4.974-2.56699c-2.56699,2.888-6.258,3.04901-7.70001,3.04901
				c-1.60001,0-11.47299-0.48199-11.47299-11.392c0-6.017,4.01199-9.306,10.991-9.306
				c2.67447,0.05154,5.29401,0.76846,7.62201,2.086v-1.84903c-0.39999-1.60001-1.444-2.96799-6.57901-2.96799
				c-1.50446,0.04111-3.00494,0.17468-4.49301,0.39999c-2.68515,0.01773-4.87628-2.14462-4.89401-4.82977
				c-0.00015-0.02142-0.00015-0.04282,0-0.06424c-0.01233-2.5993,1.98181-4.76831,4.573-4.974
				c2.31229-0.33603,4.64374-0.52341,6.98001-0.561C173.35703,14.35999,179.535,20.13599,179.535,29.04199z M167.02301,37.642
				c0.44699-1.5-0.92999-2.72501-4.46399-3.28699c-2.86499-0.45599-3.37,0.86899-3.52899,1.86499s0.29999,2.41599,2.776,2.86801
				C166.65201,39.97299,167.02301,37.642,167.02301,37.642z"/>
			<path id="Path_210" class="st4" d="M319.85803,29.04199v12.194c0,3.36893-2.73102,6.10001-6.09998,6.10001
				c-1.98242,0.02774-3.84808-0.93509-4.974-2.56699c-2.56799,2.888-6.258,3.04901-7.70001,3.04901
				c-1.60498,0-11.47302-0.48199-11.47302-11.392c0-6.017,4.01202-9.306,10.99103-9.306
				c2.6745,0.05154,5.29401,0.76846,7.62201,2.086v-1.84903c-0.40002-1.60001-1.44397-2.96799-6.57898-2.96799
				c-1.50446,0.04111-3.00494,0.17471-4.49298,0.39999c-2.68518,0.01718-4.87585-2.14563-4.89301-4.83078
				c-0.00012-0.02109-0.00012-0.04214,0-0.06323c-0.01233-2.5993,1.98181-4.76831,4.573-4.974
				c2.31226-0.33606,4.64374-0.52344,6.97998-0.561C313.67999,14.35999,319.85803,20.13599,319.85803,29.04199z M306.97205,37.45599
				c0.42603-1.42999-0.88501-2.59201-4.245-3.12601c-2.724-0.43301-3.20001,0.82599-3.35498,1.77399
				s0.28699,2.29999,2.63898,2.72699c4.60797,0.84103,4.95996-1.37598,4.95996-1.37598L306.97205,37.45599z"/>
			<path id="Path_211" class="st10" d="M201.28,7.29599c-0.06097-2.83301,2.349-5.22101,5.34601-5.867
				c3.01666-0.74667,6.06744,1.09351,6.81415,4.1102c0.00787,0.03186,0.0155,0.06378,0.02283,0.09579
				c2.02301,11.47299-0.35699,23.64301-1.15198,35.56201c-0.10608,3.31531-2.74823,5.98926-6.06201,6.13501
				c-1.91589,0.01605-3.70538-0.95444-4.737-2.569c-2.16699,2.81201-4.98798,3.04999-7.06,3.05099
				c-5.51898-0.01599-12.349-3.86801-13.94501-17.44299c-1.258-11.67801,6.573-15.513,13.66901-15.29999
				c2.61627-0.07913,5.17877,0.75336,7.24902,2.35501C201.43698,13.94699,201.40201,10.55798,201.28,7.29599z M199.98001,34.81198
				c1.34302-2,1.63501-5.336,0.16803-7.358c-0.79987-1.07825-2.08734-1.68332-3.42798-1.61099
				c-2.37787,0.08124-4.23962,2.07474-4.15839,4.45261c0.0036,0.10538,0.01111,0.21057,0.0224,0.3154
				c0.125,4.76199,3.37201,5.89999,4.552,5.89999c1.15405-0.1167,2.19684-0.73941,2.84692-1.70001L199.98001,34.81198z"/>
			<path id="Path_212" class="st11" d="M231.89398,48.91501c-12.96503,0.91-17.04199-6.439-17.552-16.61002
				c-0.38702-9.91699,3.21997-18.522,13.48199-19.233c9.77301-0.724,19.53497,5.51401,20.25403,14.009
				c0.28101,3.15601-2.26801,6-5.22601,6.88199c-2.18201,0.64999-5.31201,0.668-8.10498,0.77399
				c-2.56,0.10001-5.776-0.21399-6.92603,0.39999c-0.90002,0.47699-1.15002,1.41699-0.547,2.00699
				c0.823,0.72501,2.5,1.082,6.18201,0.81299c2.35901-0.172,5.37201-1.20901,7.45398-1.62201
				c3.04303-0.67001,5.28802,1.07599,5.42102,4.095c0.09998,2.37799-1.61401,4.29999-3.664,5.409
				C239.36566,47.69193,235.67603,48.74545,231.89398,48.91501z M234.41296,27.42001
				c0.79907-0.17719,1.30322-0.9686,1.12604-1.76767c-0.05164-0.23282-0.15863-0.44974-0.31201-0.63232
				c-1.01923-1.31644-2.68481-1.95856-4.32397-1.66699c-1.54071-0.02991-2.93713,0.9025-3.5,2.33701
				c-0.34637,0.69623-0.06274,1.54141,0.63348,1.88776c0.21191,0.10541,0.44702,0.15573,0.68353,0.14624
				c1.88898-0.00003,3.81097-0.16403,5.69299-0.30405L234.41296,27.42001z"/>
		</g>
		<g id="_x30_2_Tower_1_" transform="translate(244.744 2.798)">
			<path id="Path_213" class="st9" d="M19.26703,35.758c0,0,12.10797-0.5,9.72198,12.06999
				c-2.55298,13.453-3.73102,49.883-3.73102,60.48801S10.46399,118.916,9.883,109.248c-1.52002-25.285-2.09998-48.791-1.31897-64.17
				C9.15198,33.48999,19.26703,35.758,19.26703,35.758z"/>
			<path id="Path_214" class="st2" d="M20.13702,50.505c-0.30402,0-0.60803-0.005-0.91199-0.015
				c-0.91498-0.029-1.85303-0.1-2.78601-0.218C10.224,49.501,5.19,46.872,2.263,42.861
				c-1.97662-2.44511-2.69989-5.67213-1.95599-8.727c0.45392-1.78136,1.12561-3.49998,2-5.117l0.03302-0.063L16.87103,3.771
				c1.57111-3.29766,5.51807-4.69729,8.81573-3.12616c1.71271,0.81599,2.99255,2.32816,3.51422,4.15216
				c0.56201,1.82,6.20001,20.792,7.185,24.6c0.13098,0.509,0.271,1.017,0.41101,1.527
				c0.68829,2.2009,1.1225,4.47336,1.29401,6.77299c0.15082,1.9446-0.22937,3.89365-1.09998,5.639
				c-1.633,3.084-4.98102,4.61-8.04102,5.7C26.11786,50.02566,23.13702,50.52252,20.13702,50.505z"/>
			<path id="top_4_" class="st11" d="M25.94299,4.468c0.56897,1.842,6.65302,22.3,7.685,26.312
				c0.84766,2.62065,1.41937,5.32262,1.70599,8.062c0.11499,1.3432-0.12646,2.69296-0.70001,3.913
				c-1.14203,2.157-4.138,3.348-6.33899,4.129c-2.86493,0.99341-5.88989,1.4441-8.91998,1.32899
				c-0.87469-0.028-1.74634-0.09467-2.61499-0.2c-4.61401-0.573-9.53802-2.395-12.37598-6.28
				c-1.36505-1.62231-1.89233-3.78993-1.42499-5.858c0.4043-1.595,1.00629-3.13325,1.79199-4.579L20.41406,4.152
				c0.57532-1.49888,2.25677-2.24759,3.75562-1.67229C25.04761,2.81666,25.70825,3.55744,25.94299,4.468z"/>
		</g>
		<g id="_x30_1_Tower_1_" transform="translate(60.012 2.798)">
			<path id="Path_215" class="st11" d="M19.26201,35.758c0,0-12.108-0.5-9.722,12.06999c2.55299,13.453,3.731,49.883,3.731,60.48801
				s14.79401,10.60001,15.375,0.93201c1.52-25.285,2.10001-48.791,1.319-64.17C29.37601,33.48999,19.26201,35.758,19.26201,35.758z"
				/>
			<path id="Path_216" class="st2" d="M17.96799,50.505c-2.99852,0.01591-5.9776-0.48196-8.808-1.472
				c-3.06-1.086-6.408-2.612-8.041-5.7c-0.87068-1.74568-1.25089-3.69507-1.10001-5.64c0.17206-2.29687,0.60587-4.56657,1.293-6.765
				c0.14-0.509,0.28101-1.018,0.411-1.527c0.981-3.813,6.623-22.784,7.185-24.6c1.0016-3.51281,4.66124-5.54855,8.17406-4.54696
				c1.82747,0.52106,3.34251,1.80298,4.15894,3.51896L35.767,28.956l0.033,0.063c0.87445,1.61663,1.54617,3.33493,2,5.116
				c0.7442,3.05486,0.02089,6.28202-1.95599,8.727c-2.927,4.008-7.961,6.64-14.17599,7.411c-0.93401,0.116-1.871,0.189-2.787,0.218
				C18.57634,50.50034,18.27199,50.505,17.96799,50.505z"/>
			<path id="top_3_" class="st9" d="M12.161,4.468c-0.569,1.842-6.653,22.3-7.685,26.312
				C3.6283,33.40064,3.05653,36.10262,2.77,38.842c-0.11488,1.3432,0.12657,2.69293,0.7,3.913c1.142,2.157,4.138,3.348,6.339,4.129
				c2.86555,0.99366,5.89125,1.44436,8.922,1.329c0.87401-0.028,1.74568-0.09467,2.61501-0.2
				c4.61301-0.573,9.53799-2.395,12.37601-6.28c1.36734-1.62315,1.89546-3.79305,1.42699-5.86301
				c-0.40442-1.59497-1.00642-3.1332-1.79201-4.579L17.694,4.146c-0.5731-1.49972-2.25345-2.25089-3.75317-1.67779
				C13.05765,2.80571,12.39377,3.55164,12.161,4.468z"/>
		</g>
	</g>
</g>
<g id="Shine_1_" transform="translate(6.433 29.644)">
	<path id="B_1_" class="st7" d="M24.298,64.94499c-3.0928-0.38461-6.20314-0.61191-9.319-0.681
		c-1.99453-0.11084-3.99459-0.0704-5.983,0.121c-1.27069,0.11508-2.5071,0.47504-3.641,1.06
		C4.28172,66.05864,3.38988,66.9453,2.77,68.015c-1.512,2.52802-1.928,5.59399-2.286,8.466
		c-0.3838,3.07562-0.53956,6.17538-0.466,9.27399c0.054,2.25101,0.24,4.5,0.458,6.742c0.212,2.18066,0.509,4.35031,0.891,6.509
		c0.245,1.384,0.522,2.76199,0.822,4.13501c0,0-0.605-7.689-0.727-15.09399c-0.02926-3.41333,0.18932-6.82431,0.654-10.20599
		c1.4-10.41,4.132-11.84399,12.269-12.43799C16.736,65.23,20.908,65.09401,24.298,64.94499z"/>
	<path id="r_5_" class="st7" d="M43.595,81.45801c-4.106,7.125-0.5,23.14899-0.5,23.14899
		c0.112-9.04199-0.39999-18.67801,3.3-22.63101c1.26917-1.522,3.34976-2.09637,5.22-1.44101
		C50.33301,77.64301,45.53,78.09601,43.595,81.45801z"/>
	<path id="r_4_" class="st7" d="M268.46198,81.459c-3.72101,7.33301-0.5,23.14899-0.5,23.14899
		c0.112-9.04199-0.40002-19.02399,3.29999-22.97699c1.33875-1.42218,3.42114-1.86102,5.21997-1.10001
		C276.08197,78.47002,270.73602,76.97902,268.46198,81.459z"/>
	<path id="tower_5_" class="st7" d="M66.405,46.23601c2.256,20.429,2.452,40.89999,2.80499,56.21899
		c1.61195-18.59143,1.5611-37.28963-0.15199-55.87201L66.405,46.23601z"/>
	<path id="tower_4_" class="st7" d="M252.17401,46.23601c-1.47803,20.38901-1.414,40.89999-1.76703,56.21899
		c0,0-2.05701-27.147-1.23297-57.257L252.17401,46.23601z"/>
	<path id="cone_3_" class="st7" d="M243.61099,29.77499c0,0,13.23999-23.731,15.12-26.558c1.90802-2.869,3.87598-1.917,4.323,1.037
		c0,0-2.21301-0.964-5.91901,4.527C256.01901,10.432,243.61099,29.77499,243.61099,29.77499z"/>
	<path id="cone_2_" class="st7" d="M58.01401,31.60699c0,0,7.339-26.164,8.508-29.352c1.186-3.235,3.32201-2.768,4.446,0
		c0,0-2.377-0.421-4.7,5.783C65.569,9.908,58.01401,31.60699,58.01401,31.60699z"/>
	<path id="n_3_" class="st7" d="M88.10799,82.15201c-3.439,6.922-0.5,22.457-0.5,22.457
		c0.112-9.04199-0.13101-16.94101,2.711-21.54901c0.89526-1.73148,2.94504-2.51843,4.76901-1.83099
		C93.808,78.336,89.83299,78.67999,88.10799,82.15201z"/>
	<path id="c_5_" class="st7" d="M118.73201,97.15298c-1.33997-3.33377-1.38419-7.04825-0.12399-10.41299
		c1.965-5.05701,6.58499-9.81799,12.52301-11.108c6.534-1.42001,10.29999,2.311,10.29999,2.311s-10.384-3.694-17.09299,3.548
		C117.019,89.38501,118.73201,97.15298,118.73201,97.15298z"/>
	<path id="a_7_" class="st7" d="M151.914,82.05501c0,0-0.86499-2.54001,3.616-3.46799s15.68799-0.98199,18.75699,5.95401
		c0,0-3.01199-4.767-12.71301-4.91599C153.98502,79.50899,151.914,82.05501,151.914,82.05501z"/>
	<path id="a_6_" class="st7" d="M292.23102,82.748c0,0-0.86499-3.23199,3.61603-4.16s15.68799-0.98199,18.75702,5.95401
		c0,0-3.01202-4.767-12.71301-4.91599C294.302,79.50899,292.23102,82.748,292.23102,82.748z"/>
	<path id="d_9_" class="st7" d="M181.11301,94.75801c0,0-2.44501-12.17801,8.29102-14.98001c0,0,6.20697-1.285,9.63599,2.74399
		C191.92001,78.80299,181.827,82.46098,181.11301,94.75801z"/>
	<path id="d_8_" class="st7" d="M201.71201,72.24998v-1.60001c-0.12799-5.92599,7.30701-5.42099,8.05701-2.216
		C205.741,65.90498,202.272,68.15099,201.71201,72.24998z"/>
	<path id="Path_217" class="st7" d="M214.71799,93.71899c0,0-1.54401-14.51901,11.37799-16.86301
		c0,0,7.20001-0.689,11.20697,2.91299C237.30301,79.76801,219.34903,70.22299,214.71799,93.71899z"/>
</g>
</svg>
