<svg version="1.1" id="brand" xmlns="http://www.w3.org/2000/svg" x="0" y="0" viewBox="0 0 330 146" xml:space="preserve"><style>.st0{fill:none;stroke:#3e0538;stroke-miterlimit:10}.st2{fill:#3e0538}.st4{fill:#f76e1b}.st5{fill:#e7134e}.st6{fill:#fbc22c}.st7,.st8{opacity:.8;fill:#fff;enable-background:new}.st8{opacity:.7}.st9{fill:#3fb94e}.st11{fill:#1a86c9}</style><g id="Top_1_"><g id="Back_1_" transform="translate(18.865)"><g id="Grid_1_" transform="translate(121.742 65.508)"><path id="Path_160" class="st0" d="M0 7.748l64.495.256"/><path id="Path_161" class="st0" d="M0 11.621l64.495.256"/><path id="Path_162" class="st0" d="M0 15.494l64.495.256"/><path id="Path_163" class="st0" d="M0 19.367l64.495.256"/><path id="Path_164" class="st0" d="M0 27.371L.236.001"/><path id="Path_165" class="st0" d="M3.571 27.371L3.807.001"/><path id="Path_166" class="st0" d="M7.14 27.371L7.376.001"/><path id="Path_167" class="st0" d="M10.71 27.371l.236-27.37"/><path id="Path_168" class="st0" d="M14.28 27.371l.236-27.37"/><path id="Path_169" class="st0" d="M17.85 27.371l.236-27.37"/><path id="Path_170" class="st0" d="M21.42 27.371l.236-27.37"/><path id="Path_171" class="st0" d="M24.99 27.371l.236-27.37"/><path id="Path_172" class="st0" d="M28.56 27.371l.236-27.37"/><path id="Path_173" class="st0" d="M32.129 27.371l.236-27.37"/><path id="Path_174" class="st0" d="M35.699 27.371l.236-27.37"/><path id="Path_175" class="st0" d="M39.265 27.371l.236-27.37"/><path id="Path_176" class="st0" d="M42.839 27.371l.236-27.37"/><path id="Path_177" class="st0" d="M46.409 27.371l.236-27.37"/><path id="Path_178" class="st0" d="M49.979 27.371l.236-27.37"/><path id="Path_179" class="st0" d="M53.549 27.371l.236-27.37"/><path id="Path_180" class="st0" d="M57.119 27.371l.236-27.37"/><path id="Path_181" class="st0" d="M60.689 27.371l.236-27.37"/><path id="Path_182" class="st0" d="M64.259 27.371l.236-27.37"/><path id="Path_183" class="st0" d="M0 3.874l64.495.256"/><path id="Path_184" class="st0" d="M0 0l64.495.256"/><path id="Path_185" class="st0" d="M0 23.241l64.495.256"/><path id="Path_186" class="st0" d="M0 27.115l64.495.256"/></g><g id="Group_18" transform="translate(100.692 51.464)"><path id="Wall_1_" d="M1.731 1.731v69.22h101.443V1.731H1.731zm70.7 33.067a4.081 4.081 0 01-4.081 4.081H34.594a4.081 4.081 0 01-4.081-4.081V20.985a4.081 4.081 0 014.081-4.081h33.748a4.081 4.081 0 014.081 4.081l.008 13.813z" fill="#8918b3"/><path id="Path_187" class="st2" d="M104.905 72.682H0V0h104.905v72.682zM3.462 69.22h97.98V3.462H3.462V69.22zm64.884-28.61H34.594a5.819 5.819 0 01-5.812-5.812V20.985a5.819 5.819 0 015.812-5.812h33.752a5.819 5.819 0 015.812 5.812v13.813a5.819 5.819 0 01-5.812 5.812zM34.594 18.632a2.353 2.353 0 00-2.35 2.35v13.813a2.353 2.353 0 002.35 2.35h33.752a2.353 2.353 0 002.35-2.35V20.984a2.353 2.353 0 00-2.35-2.35l-33.752-.002z"/></g><g id="_x30_3_Tower_1_" transform="translate(183.263)"><path id="Path_188" class="st2" d="M32.674 38.384c-3.672-4.435-9.492-4.88-11.274-4.907a15.384 15.384 0 00-2.353-.178 13.168 13.168 0 00-8.044 2.54c-3.19 2.416-4.935 6.194-5.191 11.231-.758 14.908-.29 37.874 1.32 64.668.276 6.463 5.673 11.518 12.14 11.369 6.076 0 12.228-4.318 12.228-12.571 0-11.726 1.28-47.148 3.653-59.649.973-5.134.139-9.341-2.48-12.503z"/><path id="Path_189" class="st2" d="M41.573 40.868a32.33 32.33 0 00-1.4-7.347l-.013-.045c-.146-.532-.292-1.063-.43-1.595-1.06-4.121-7.138-24.559-7.743-26.518a7.393 7.393 0 00-13.773-1.17L2.588 31.273l-.073.132A24.344 24.344 0 00.34 36.976a11.12 11.12 0 002.151 9.626c3.2 4.378 8.686 7.252 15.455 8.092a33.306 33.306 0 004.018.253c3.261.017 6.5-.524 9.579-1.6 3.345-1.188 7.008-2.862 8.81-6.264a11.864 11.864 0 001.22-6.215z"/><path id="Path_190" d="M21.009 37.978s12.108-.5 9.722 12.07C28.178 63.501 27 99.931 27 110.536s-14.794 10.6-15.375.932c-1.52-25.285-2.1-48.791-1.319-64.17.588-11.587 10.703-9.32 10.703-9.32z" fill="#dc1947"/><path id="Path_191" class="st2" d="M21.879 52.918a29.825 29.825 0 01-3.698-.233c-6.215-.771-11.249-3.4-14.176-7.411-2.058-2.818-.6-5.331.159-8.3a22.355 22.355 0 012-5.117l.033-.063L20.305 8.303c1.247-2.365 1.783-3.773 4.29-3.773 2.912 0 3.77 1.506 4.658 4.378.562 1.82 5.78 19.1 6.762 22.912.13.509 2.02 5.835 2.127 8.291.1 2.21.58 4.055-.259 5.639-1.633 3.084-4.135 4.61-7.194 5.7a26.243 26.243 0 01-8.81 1.468z"/><path id="top_7_" class="st4" d="M27.685 6.689c.569 1.842 6.653 22.3 7.685 26.312a39.57 39.57 0 011.706 8.062 7.665 7.665 0 01-.7 3.913c-1.142 2.157-4.138 3.348-6.339 4.129a24.4 24.4 0 01-8.922 1.329 29.616 29.616 0 01-2.615-.2c-4.614-.573-9.538-2.394-12.376-6.28A6.779 6.779 0 014.7 38.096a19.773 19.773 0 011.792-4.579L22.154 6.373a2.907 2.907 0 015.531.316z"/></g><g id="_x30_4_Tower_1_" transform="translate(79.409)"><path id="Path_192" class="st2" d="M35.778 47.07c-.256-5.037-2-8.815-5.191-11.231a13.169 13.169 0 00-8.044-2.54 15.38 15.38 0 00-2.353.178c-1.783.027-7.6.472-11.275 4.907-2.618 3.162-3.452 7.369-2.478 12.5 2.373 12.5 3.652 47.924 3.652 59.649 0 8.252 6.151 12.57 12.227 12.571 6.467.148 11.863-4.906 12.137-11.369 1.613-26.789 2.083-49.755 1.325-64.665z"/><path id="Path_193" class="st2" d="M41.251 36.975a24.35 24.35 0 00-2.176-5.573l-.044-.081L23.39 4.215A7.536 7.536 0 0016.699 0a7.457 7.457 0 00-7.1 5.362C8.993 7.326 2.91 27.783 1.856 31.88c-.137.532-.283 1.063-.43 1.6l-.012.045a32.315 32.315 0 00-1.4 7.347 11.86 11.86 0 001.221 6.213c1.8 3.4 5.465 5.076 8.81 6.264a28.553 28.553 0 009.578 1.6 32.814 32.814 0 004.018-.253c6.769-.84 12.258-3.714 15.456-8.092a11.122 11.122 0 002.154-9.629z"/><path id="Path_194" class="st4" d="M20.584 37.978s-12.108-.5-9.722 12.07c2.553 13.453 3.731 49.883 3.731 60.488s14.794 10.6 15.375.932c1.52-25.285 2.1-48.791 1.319-64.17-.593-11.587-10.703-9.32-10.703-9.32z"/><path id="Path_195" class="st2" d="M19.715 52.919a29.825 29.825 0 003.698-.233 19.58 19.58 0 0013.749-7.838c2.058-2.818 1.024-5.331.264-8.3a22.362 22.362 0 00-2-5.117l-.033-.063L20.864 7.456c-1.247-2.365-1.782-3.35-4.29-3.35-2.912 0-3.349 1.93-4.235 4.8-.562 1.82-6.2 19.523-7.185 23.336-.131.509-.271 1.017-.411 1.527a30.22 30.22 0 00-1.293 6.765c-.15 1.945.23 3.894 1.1 5.639 1.633 3.084 3.289 4.187 6.349 5.273a26.253 26.253 0 008.816 1.473z"/><path id="top_6_" class="st5" d="M13.902 6.689c-.569 1.842-6.653 22.3-7.685 26.312a39.577 39.577 0 00-1.706 8.062 7.664 7.664 0 00.7 3.913c1.142 2.157 4.138 3.348 6.339 4.129a24.4 24.4 0 008.922 1.329 29.613 29.613 0 002.615-.2c4.613-.573 9.538-2.394 12.376-6.28a6.778 6.778 0 001.425-5.858 19.764 19.764 0 00-1.792-4.579l-15.66-27.15a2.907 2.907 0 00-5.534.322z"/></g><g id="Group_19" transform="translate(0 64.368)"><path id="Stairs_2_" class="st6" d="M2.118 54.222l55.4-35.383-8.134-12.735v.03a31.417 31.417 0 00-12.059.3l-.012.009a42.585 42.585 0 00.307 12.065 31.43 31.43 0 00-12.071.307 42.624 42.624 0 00.307 12.071 31.36 31.36 0 00-12.071.307 42.625 42.625 0 00.307 12.071 31.368 31.368 0 00-12.071.307c-.42 3.54-.387 7.12.097 10.651z"/><path id="Path_196" class="st2" d="M.758 57.145l-.356-2.7a44 44 0 01-.1-11.084l.149-1.219 1.2-.262a33.014 33.014 0 0110.414-.63 43.743 43.743 0 010-10.266l.149-1.219 1.2-.262a33.034 33.034 0 0110.414-.63 43.741 43.741 0 010-10.266l.149-1.22 1.2-.262c3.416-.758 6.93-.97 10.413-.629a43.683 43.683 0 010-10.261l.087-.712.877-.686.4-.094a33.126 33.126 0 0110.656-.6l-.077-4.146 12.369 19.366L.758 57.145zm2.851-12.12c-.183 2.07-.2 4.152-.053 6.225l9.909-6.329a29.568 29.568 0 00-9.852.103l-.004.001zm11.764-12.379a41.02 41.02 0 00.428 10.343l.065.4 39.258-25.075-6.76-10.584a29.572 29.572 0 00-9.461.163 41.625 41.625 0 00.427 10.342l.388 2.382-2.381-.4a29.66 29.66 0 00-10.2.05 41.009 41.009 0 00.428 10.342l.388 2.382-2.38-.4a29.619 29.619 0 00-10.2.055z"/></g><g id="Group_20" transform="translate(242.891 64.368)"><path id="Stairs_1_" class="st6" d="M57.789 54.223L2.389 18.84l8.134-12.735v.03a31.414 31.414 0 0112.059.3l.012.009a42.584 42.584 0 01-.307 12.065 31.429 31.429 0 0112.071.307 42.626 42.626 0 01-.307 12.071 31.362 31.362 0 0112.07.307c.472 4.018.368 8.082-.306 12.071a31.367 31.367 0 0112.07.307c.42 3.54.388 7.12-.096 10.651z"/><path id="Path_197" class="st2" d="M59.15 57.145L0 19.362 12.37-.004l-.077 4.146a33.148 33.148 0 0110.656.6l.381.083.882.68.1.728a43.686 43.686 0 010 10.261 33.128 33.128 0 0110.413.629l1.2.262.149 1.22c.403 3.41.403 6.856 0 10.266a33.054 33.054 0 0110.414.63l1.2.262.149 1.219c.403 3.41.403 6.856 0 10.266a33.037 33.037 0 0110.414.629l1.2.262.149 1.219c.434 3.684.4 7.408-.1 11.084l-.35 2.703zM46.441 44.92l9.91 6.329a39.21 39.21 0 00-.054-6.225 29.6 29.6 0 00-9.857-.103l.001-.001zM4.782 18.312L44.04 43.387l.065-.4a41.02 41.02 0 00.428-10.343 29.6 29.6 0 00-10.2-.049l-2.38.4.388-2.382a41.03 41.03 0 00.428-10.342 29.659 29.659 0 00-10.2-.05l-2.381.4.388-2.382a41.6 41.6 0 00.427-10.342 29.593 29.593 0 00-9.461-.163l-6.76 10.578z"/></g><path id="Path_198" class="st7" d="M93.392 54.41c2.253 20.406 2.452 40.868 2.805 56.219a313.565 313.565 0 00-.152-55.872l-2.653-.347z"/><path id="Path_199" class="st7" d="M198.618 55.103c-1.478 20.389-1.414 40.9-1.766 56.219 0 0-2.057-27.147-1.233-57.257l2.999 1.038z"/><path id="Path_200" class="st7" d="M85.923 40.266s7.339-26.164 8.508-29.352c1.186-3.235 3.322-2.768 4.446 0 0 0-2.377-.421-4.7 5.783-.701 1.87-8.254 23.569-8.254 23.569z"/><path id="Path_201" class="st7" d="M190.366 37.622s13.24-23.731 15.121-26.558c1.908-2.869 3.876-1.917 4.323 1.037 0 0-2.213-.964-5.919 4.527-1.117 1.655-13.525 20.994-13.525 20.994z"/><g id="Group_21" transform="translate(44.249 23.982)"><path id="Path_202" class="st6" d="M175.253 21.415l1.985-5.608a2.5 2.5 0 00-1.793-3.038 208.545 208.545 0 00-15.957-4.753 2.476 2.476 0 00-3.141 1.568l-1.392 5.785a2.453 2.453 0 01-3.017 1.632c-3.945-.9-7.91-1.682-11.895-2.344a2.452 2.452 0 01-2.17-2.653l.893-5.883a2.475 2.475 0 00-2.299-2.64h-.006a210.804 210.804 0 00-16.436-1.639 2.469 2.469 0 00-2.773 2.122l-.001.011-.282 5.944a2.446 2.446 0 01-2.643 2.173c-4.021-.14-8.044-.16-12.068-.058a2.447 2.447 0 01-2.622-2.2l-.225-5.946a2.469 2.469 0 00-2.742-2.161l-.011.001c-5.49.278-10.966.77-16.429 1.476a2.473 2.473 0 00-2.33 2.608v.009l.835 5.891a2.452 2.452 0 01-2.2 2.631c-3.989.62-7.961 1.36-11.917 2.222a2.452 2.452 0 01-3-1.662l-1.336-5.8a2.475 2.475 0 00-3.124-1.6 210.995 210.995 0 00-15.982 4.588 2.494 2.494 0 00-1.821 3.02l1.93 5.628a2.472 2.472 0 01-1.686 3.009A200.615 200.615 0 002.374 41.635L13.3 59.51c57.665-35.44 130.36-35.44 188.025 0l10.926-17.875a200.621 200.621 0 00-35.348-17.2 2.474 2.474 0 01-1.65-3.02z"/><path id="Path_203" class="st2" d="M201.908 61.9l-1.472-.9C143.321 25.9 71.32 25.9 14.205 61l-1.472.9L.001 41.073l1.473-.9a202.826 202.826 0 0137.541-18.049c.465-.167.718-.571.634-.821l-1.928-5.623a3.79 3.79 0 01.211-2.931 4.619 4.619 0 012.7-2.3 214.403 214.403 0 0116.113-4.626 4.583 4.583 0 013.486.512 3.79 3.79 0 011.738 2.389l1.335 5.794c.059.252.479.462.952.36 3.96-.863 8-1.617 12.02-2.241.473-.073.785-.42.749-.681l-.835-5.888a3.8 3.8 0 01.761-2.848 4.572 4.572 0 013.058-1.73A213.564 213.564 0 0196.573.002a4.566 4.566 0 013.311 1.156 3.8 3.8 0 011.255 2.672l.224 5.942c.01.26.376.545.853.533 4.037-.1 8.132-.082 12.172.059.476.02.845-.265.858-.528l.282-5.94a3.8 3.8 0 011.281-2.656 4.568 4.568 0 013.322-1.123c5.522.333 11.1.889 16.571 1.652a4.574 4.574 0 013.041 1.76 3.8 3.8 0 01.733 2.859l-.892 5.879c-.038.257.271.606.744.684 4 .662 8.041 1.456 12 2.359.473.108.894-.1.957-.354l1.391-5.781a3.786 3.786 0 011.753-2.362 4.587 4.587 0 013.493-.477c5.4 1.378 10.813 2.99 16.088 4.791a4.623 4.623 0 012.681 2.324c.453.914.518 1.973.181 2.936l-1.982 5.6c-.087.249.162.656.628.828a202.93 202.93 0 0135.654 17.351l1.472.9L201.908 61.9zM4.753 42.224l9.123 14.924c57.496-34.584 129.391-34.584 186.887 0l9.123-14.924a199.445 199.445 0 00-33.571-16.159 4.216 4.216 0 01-2.689-5.225l1.989-5.616a.368.368 0 00-.038-.27 1.172 1.172 0 00-.684-.551 209.193 209.193 0 00-15.828-4.713 1.147 1.147 0 00-.855.086.374.374 0 00-.181.207l-1.393 5.789a4.192 4.192 0 01-5.079 2.915 199.525 199.525 0 00-11.794-2.319 4.2 4.2 0 01-3.6-4.617l.894-5.887a.379.379 0 00-.089-.267 1.126 1.126 0 00-.746-.4 209.42 209.42 0 00-16.3-1.626 1.125 1.125 0 00-.8.241.38.38 0 00-.141.242l-.282 5.947a4.178 4.178 0 01-4.427 3.82c-3.972-.138-8-.158-11.966-.058a4.18 4.18 0 01-4.391-3.86l-.225-5.95a.378.378 0 00-.138-.248 1.114 1.114 0 00-.8-.249c-5.426.274-10.909.767-16.3 1.464-.291.028-.56.168-.75.39a.376.376 0 00-.092.262l.836 5.9a4.194 4.194 0 01-3.64 4.585 201.715 201.715 0 00-11.816 2.2 4.19 4.19 0 01-5.049-2.96l-1.337-5.8a.372.372 0 00-.18-.213 1.138 1.138 0 00-.852-.094 210.296 210.296 0 00-15.857 4.554c-.291.085-.538.28-.688.543a.37.37 0 00-.042.266l1.931 5.631a4.217 4.217 0 01-2.736 5.2 199.36 199.36 0 00-35.427 16.84z"/></g><path id="castle_7_" class="st8" d="M178.109 29.918l-7.8-.865c-1.4-.155-3.3-.543-4.628.136-1.61.826-1.195 3.391-1.359 4.885a6.337 6.337 0 01-1.31 3.539c-1.562 1.783-3.873 1.5-5.993 1.493-1.94-.009-3.881-.013-5.822-.013h-5.214c-.951 0-1.942.089-2.89.014 2.467.195 4.933.383 7.4.564 1.877.138 3.754.272 5.632.394a16.47 16.47 0 005.646-.139 4.649 4.649 0 001.553-.77 5.8 5.8 0 001.9-3.348c.294-1.276.348-2.594.562-3.885.047-.51.232-1 .535-1.413a2.6 2.6 0 012.132-.676c3.203.151 6.439.022 9.656.084z"/><path id="castle_6_" class="st8" d="M139.002 28.783l-7.824.639c-1.406.115-3.347.1-4.517 1.016-1.422 1.118-.526 3.557-.4 5.055a6.337 6.337 0 01-.612 3.724c-1.193 2.048-3.515 2.214-5.6 2.609-1.907.362-3.813.729-5.718 1.1-1.706.33-3.412.663-5.118 1-.933.183-1.889.458-2.834.565 2.459-.279 4.917-.565 7.374-.858 1.867-.223 3.733-.452 5.6-.687a16.468 16.468 0 005.516-1.213 4.653 4.653 0 001.378-1.052 5.8 5.8 0 001.228-3.649c.045-1.308-.153-2.612-.189-3.921a2.829 2.829 0 01.256-1.489 2.6 2.6 0 011.964-1.07c3.174-.473 6.326-1.216 9.496-1.769z"/><path id="castle_5_" class="st8" d="M100.656 35.114l-7.6 1.976c-1.365.355-3.28.671-4.274 1.778-1.209 1.346.094 3.594.474 5.049a6.337 6.337 0 01.039 3.774c-.823 2.223-3.081 2.786-5.066 3.534a2151.718 2151.718 0 00-10.314 3.927c-.887.341-1.782.777-2.695 1.045a1208.57 1208.57 0 007.116-2.114c1.8-.54 3.6-1.088 5.4-1.642a16.467 16.467 0 005.225-2.145 4.655 4.655 0 001.176-1.273 5.8 5.8 0 00.581-3.806c-.18-1.3-.6-2.547-.861-3.83a2.83 2.83 0 010-1.511 2.6 2.6 0 011.75-1.392c3.045-1.005 6.024-2.279 9.049-3.37z"/><path id="castle_4_" class="st8" d="M217.107 39.126l-7.488-2.355c-1.346-.423-3.137-1.171-4.567-.76-1.739.5-1.827 3.1-2.277 4.531a6.34 6.34 0 01-1.969 3.22c-1.877 1.448-4.09.727-6.169.308a2553.08 2553.08 0 00-10.826-2.142c-.933-.182-1.923-.287-2.839-.544a1533.6 1533.6 0 007.154 1.983c1.815.497 3.631.989 5.45 1.474a16.47 16.47 0 005.567.954 4.646 4.646 0 001.672-.456 5.8 5.8 0 002.512-2.918c.535-1.195.842-2.478 1.3-3.7a2.83 2.83 0 01.8-1.283 2.6 2.6 0 012.222-.252c3.111.76 6.311 1.258 9.458 1.94z"/></g><g id="Front_1_" transform="translate(0 20.574)"><path id="_x30_1_BG_1_" class="st2" d="M308.91 80.647a57.885 57.885 0 00-7.6.6c-.83.1-1.645.297-2.429.587a8.793 8.793 0 00-5.871-2h-1.027c-2.292.041-4.54.627-6.561 1.71a10.5 10.5 0 00-5.092-1.217c-1.429 0-2.848.237-4.2.7.488-9.273 1.289-21.146 2.444-28.158a12.023 12.023 0 005.362-4.948 12.43 12.43 0 001.285-6.507 33.433 33.433 0 00-1.43-7.511c-.146-.532-.292-1.063-.428-1.594-1.059-4.123-7.134-24.582-7.738-26.543a7.951 7.951 0 00-14.8-1.281l-15.646 27.158-.035.066a24.925 24.925 0 00-2.221 5.7 11.684 11.684 0 002.24 10.109 17.622 17.622 0 003.071 3.226c-.325 8.734-.289 19.65.106 32.475a26.477 26.477 0 00-15.782-3.846 19.764 19.764 0 00-8.37 2.38 55.34 55.34 0 00-.689-5.642l-.018-.094a10.64 10.64 0 00-10.51-8.44c-.791-.001-1.58.084-2.353.254-5.522 1.191-9.448 5.791-9.336 10.944v.073c.031.844.057 1.724.078 2.626-.6-.063-1.243-.1-1.958-.116-.232-.007-.465-.01-.7-.01-5.709 0-10.672 2.019-13.981 5.685-3.8-4.126-9.5-6.386-16.169-6.386a57.879 57.879 0 00-7.6.6 10.37 10.37 0 00-5.8 2.638c-.328-.33-.675-.64-1.04-.93l-.055-.043c-5.833-4.47-10.211-5.137-14.056-5.19a11.882 11.882 0 00-.465-.008c-4.986 0-10.834 2.856-15.158 7.346a12.372 12.372 0 00-.746-.912 13.055 13.055 0 00-10.1-4.177 21.954 21.954 0 00-8.8 1.726 11.861 11.861 0 00-5.363-1.237 12.637 12.637 0 00-4.278.721c.342-12.122.353-22.47.033-30.78a17.5 17.5 0 002.661-2.885 11.685 11.685 0 002.24-10.109 24.882 24.882 0 00-2.22-5.7l-.051-.1-15.613-27.1A7.953 7.953 0 0067.322 5.76c-.6 1.961-6.679 22.419-7.738 26.543-.139.543-.289 1.085-.439 1.631a33.288 33.288 0 00-1.42 7.474 11.32 11.32 0 007.108 11.688c1.1 6.827 1.872 18.086 2.342 26.732h-.123c-2.292.041-4.54.627-6.561 1.71a10.5 10.5 0 00-5.092-1.217c-2.574.016-5.09.77-7.248 2.173a17.424 17.424 0 00-7.215-12.51c-4.368-3.06-9.609-3.7-13.236-3.7H14.561A13.173 13.173 0 002.247 75.93a82.212 82.212 0 00.008 38.218 13.157 13.157 0 0012.31 9.615h14.54c6.114 0 11.333-1.787 15.172-5.182a13.461 13.461 0 0010.863 5.995 9.547 9.547 0 007.568-3.452 10.407 10.407 0 001.933-8.705 51.064 51.064 0 01-1.033-10.6c.192-.022.385-.033.578-.032h1.348c.848 0 1.692-.097 2.517-.293.1 3.826.155 7.209.155 9.614 0 8.631 6.431 13.147 12.784 13.147a13.077 13.077 0 009.082-3.657 13.193 13.193 0 009.042 3.839c.407 0 .814-.022 1.218-.067a9.264 9.264 0 006.555-3.718 9.5 9.5 0 001-1.725 13.526 13.526 0 009.2 5.438c.428.047.859.072 1.29.072a9.509 9.509 0 007.54-3.442 9.16 9.16 0 001-1.5c3.984 3.167 8.853 5.117 12.965 5.139h.047c3.835-.046 8.174-.692 13.921-5.028.953.942 2.03 1.75 3.2 2.4a18.736 18.736 0 008.792 2.245 16.294 16.294 0 007.539-1.7 11.2 11.2 0 0014.144-3.4 17.1 17.1 0 0012.017 5.1 14.452 14.452 0 007.043-1.568 10.756 10.756 0 004.733 1.087 10.918 10.918 0 008.524-4.214c3.484 3.9 8.54 5.871 15.047 5.871.791 0 1.614-.03 2.447-.088a29.092 29.092 0 0012.809-3.672 13.718 13.718 0 002.525-1.745c4.838 5.38 13.121 5.818 18.5.98l.006-.006a13.279 13.279 0 008.9 3.685 9.549 9.549 0 007.568-3.453 10.4 10.4 0 001.933-8.7 51.062 51.062 0 01-1.033-10.6 4.85 4.85 0 01.578-.032h1.348c.113 0 .226-.002.339-.006a15.324 15.324 0 00-1.139 6c0 6.394 2.745 11.444 7.73 14.222a18.737 18.737 0 008.792 2.245 16.286 16.286 0 007.539-1.7c5.508 2.804 12.246.612 15.05-4.896a11.191 11.191 0 001.218-5.066v-12.194c0-11.816-8.475-19.755-21.089-19.755zm-165.453 21c-.77.3-1.594.436-2.42.4-.255 0-.545 0-.549-1.329 0-.34 0-.4.581-.4a5.86 5.86 0 012.39.4c.452.181.916.33 1.389.444-.472.138-.936.3-1.39.488l-.001-.003z"/><g id="_x30_1_Brincadeira_1_" transform="translate(5.064 71.359)"><path id="Path_204" class="st5" d="M22.682 0c6.811-.008 15.538 2.629 15.626 14.355a11.287 11.287 0 01-3.479 8.347c3.356 1.529 5.752 5.3 5.745 10.431-.073 5.537-3.859 14.219-16.527 14.2H9.525a8.122 8.122 0 01-7.4-5.76 76.587 76.587 0 010-35.814A8.123 8.123 0 019.525 0h13.157zm-5.934 18.892c2.614 0 6.364.039 6.364-4.038 0-4.036-3.082-4.412-6.364-4.422a4.354 4.354 0 00-4.6 4.221c.146 2.848 2.023 3.988 4.6 4.239-.031-.003.031 0 0 0zm2.389 18.653c2.614-.009 6.319-.991 6.142-4.883-.143-3.356-3.8-4.75-6.7-4.745h-1.947a5.028 5.028 0 00-4.859 5.045c.2 2.545 2.922 4.595 5.47 4.587.916-.004.982-.004 1.894-.004z"/><path id="Path_205" class="st9" d="M59.227 25.359c-5.34 0-5.667 3.742-5.63 3.743a55.955 55.955 0 001.112 12.982c.681 3.36-1.172 6.063-4.544 6.063a8.208 8.208 0 01-7.661-6.063 55.981 55.981 0 01-.15-21.713c.687-3.619 4.464-6.325 8.074-6.326 2.277 0 3.739.9 4.457 2.646 3.485-2.9 6.157-3.135 7.233-3.139h1.01c3.377 0 4.2 2.454 3.484 5.895-.685 3.273-2.665 5.914-6.038 5.912h-1.347z"/><path id="Path_206" class="st5" d="M283.986 25.359c-5.34 0-5.667 3.742-5.63 3.743a55.937 55.937 0 001.112 12.982c.681 3.36-1.172 6.063-4.544 6.063a8.209 8.209 0 01-7.661-6.063 55.978 55.978 0 01-.149-21.713c.687-3.619 4.464-6.325 8.074-6.326 2.277 0 3.739.9 4.457 2.646 3.484-2.9 6.157-3.135 7.233-3.139h1.01c3.377 0 4.2 2.454 3.484 5.895-.685 3.273-2.665 5.914-6.038 5.912h-1.348z"/><path id="Path_207" class="st6" d="M117.851 41.994c.725 3.57-1.439 6.393-5.241 5.974a8.213 8.213 0 01-6.885-6.053 55.532 55.532 0 01-1.023-14.237 2.208 2.208 0 00-2.412-2.278 6.462 6.462 0 00-4.785 2.531 55.534 55.534 0 001.012 13.874c.62 3.138-.792 5.838-3.806 6.171a8.084 8.084 0 01-8.265-5.979 55.533 55.533 0 01-.148-21.543c.642-3.412 4.252-6.171 7.691-6.272 2.421-.07 4.216.645 4.953 2.455a15.464 15.464 0 019.555-2.949c6.458 0 9.192 4.877 8.524 11.377a55.529 55.529 0 00.83 16.929z"/><path id="Path_208" class="st5" d="M145.941 15.581a8.05 8.05 0 012.853 4.891c.3 2.926-2.352 5.115-5.428 5.051a7.871 7.871 0 01-3-.862 10.84 10.84 0 00-4.3-.784c-2.175-.035-5.694 1.239-5.71 5.458.014 5.273 3.712 6.46 5.71 6.425a10.844 10.844 0 004.3-.784 7.865 7.865 0 013-.862c3.077-.064 5.728 2.126 5.428 5.052a8.051 8.051 0 01-2.853 4.891c-4.882 3.735-8.3 4.113-11.134 4.147-5.462-.029-16.752-5.974-17.245-18.745.473-11.221 11.21-18.281 17.245-18.023 2.833.03 6.252.409 11.134 4.145z"/><path id="Path_209" class="st4" d="M179.535 29.042v12.194a6.1 6.1 0 01-6.1 6.1 5.941 5.941 0 01-4.974-2.567c-2.567 2.888-6.258 3.049-7.7 3.049-1.6 0-11.473-.482-11.473-11.392 0-6.017 4.012-9.306 10.991-9.306 2.674.052 5.294.768 7.622 2.086v-1.849c-.4-1.6-1.444-2.968-6.579-2.968a36.71 36.71 0 00-4.493.4 4.862 4.862 0 01-4.894-4.894 4.966 4.966 0 014.573-4.974 54.649 54.649 0 016.98-.561c9.869 0 16.047 5.776 16.047 14.682zm-12.512 8.6c.447-1.5-.93-2.725-4.464-3.287-2.865-.456-3.37.869-3.529 1.865s.3 2.416 2.776 2.868c4.846.885 5.217-1.446 5.217-1.446z"/><path id="Path_210" class="st4" d="M319.858 29.042v12.194a6.1 6.1 0 01-6.1 6.1 5.942 5.942 0 01-4.974-2.567c-2.568 2.888-6.258 3.049-7.7 3.049-1.605 0-11.473-.482-11.473-11.392 0-6.017 4.012-9.306 10.991-9.306 2.675.052 5.294.768 7.622 2.086v-1.849c-.4-1.6-1.444-2.968-6.579-2.968a36.715 36.715 0 00-4.493.4 4.862 4.862 0 01-4.893-4.894 4.966 4.966 0 014.573-4.974 54.637 54.637 0 016.98-.561c9.868 0 16.046 5.776 16.046 14.682zm-12.886 8.414c.426-1.43-.885-2.592-4.245-3.126-2.724-.433-3.2.826-3.355 1.774s.287 2.3 2.639 2.727c4.608.841 4.96-1.376 4.96-1.376l.001.001z"/><path id="Path_211" d="M201.28 7.296c-.061-2.833 2.349-5.221 5.346-5.867a5.627 5.627 0 016.837 4.206c2.023 11.473-.357 23.643-1.152 35.562a6.344 6.344 0 01-6.062 6.135 5.566 5.566 0 01-4.737-2.569c-2.167 2.812-4.988 3.05-7.06 3.051-5.519-.016-12.349-3.868-13.945-17.443-1.258-11.678 6.573-15.513 13.669-15.3 2.616-.08 5.179.753 7.249 2.355.012-3.479-.023-6.868-.145-10.13zm-1.3 27.516c1.343-2 1.635-5.336.168-7.358a4 4 0 00-3.428-1.611 4.308 4.308 0 00-4.136 4.768c.125 4.762 3.372 5.9 4.552 5.9a3.913 3.913 0 002.847-1.7l-.003.001z" fill="#fac329"/><path id="Path_212" class="st11" d="M231.894 48.915c-12.965.91-17.042-6.439-17.552-16.61-.387-9.917 3.22-18.522 13.482-19.233 9.773-.724 19.535 5.514 20.254 14.009.281 3.156-2.268 6-5.226 6.882-2.182.65-5.312.668-8.105.774-2.56.1-5.776-.214-6.926.4-.9.477-1.15 1.417-.547 2.007.823.725 2.5 1.082 6.182.813 2.359-.172 5.372-1.21 7.454-1.622 3.043-.67 5.288 1.076 5.421 4.095.1 2.378-1.614 4.3-3.664 5.409a24.227 24.227 0 01-10.773 3.076zm2.519-21.495a1.482 1.482 0 00.814-2.4 4.477 4.477 0 00-4.324-1.667 3.683 3.683 0 00-3.5 2.337 1.408 1.408 0 001.317 2.034c1.889 0 3.811-.164 5.693-.304z"/></g><g id="_x30_2_Tower_1_" transform="translate(244.744 2.798)"><path id="Path_213" class="st9" d="M19.267 35.758s12.108-.5 9.722 12.07c-2.553 13.453-3.731 49.883-3.731 60.488s-14.794 10.6-15.375.932c-1.52-25.285-2.1-48.791-1.319-64.17.588-11.588 10.703-9.32 10.703-9.32z"/><path id="Path_214" class="st2" d="M20.137 50.505a29.825 29.825 0 01-3.698-.233c-6.215-.771-11.249-3.4-14.176-7.411a10.086 10.086 0 01-1.956-8.727 22.371 22.371 0 012-5.117l.033-.063L16.871 3.771a6.614 6.614 0 0112.33 1.026c.562 1.82 6.2 20.792 7.185 24.6.131.509.271 1.017.411 1.527a30.223 30.223 0 011.294 6.773c.15 1.945-.23 3.894-1.1 5.639-1.633 3.084-4.981 4.61-8.041 5.7a26.25 26.25 0 01-8.813 1.469z"/><path id="top_4_" class="st11" d="M25.943 4.468c.569 1.842 6.653 22.3 7.685 26.312a39.579 39.579 0 011.706 8.062 7.661 7.661 0 01-.7 3.913c-1.142 2.157-4.138 3.348-6.339 4.129a24.4 24.4 0 01-8.92 1.329 29.573 29.573 0 01-2.615-.2c-4.614-.573-9.538-2.395-12.376-6.28a6.778 6.778 0 01-1.425-5.858 19.755 19.755 0 011.792-4.579L20.414 4.152a2.907 2.907 0 015.529.316z"/></g><g id="_x30_1_Tower_1_" transform="translate(60.012 2.798)"><path id="Path_215" class="st11" d="M19.262 35.758s-12.108-.5-9.722 12.07c2.553 13.453 3.731 49.883 3.731 60.488s14.794 10.6 15.375.932c1.52-25.285 2.1-48.791 1.319-64.17-.589-11.588-10.703-9.32-10.703-9.32z"/><path id="Path_216" class="st2" d="M17.968 50.505a26.255 26.255 0 01-8.808-1.472c-3.06-1.086-6.408-2.612-8.041-5.7a10.77 10.77 0 01-1.1-5.64 30.252 30.252 0 011.293-6.765c.14-.509.281-1.018.411-1.527.981-3.813 6.623-22.784 7.185-24.6a6.614 6.614 0 0112.333-1.028l14.526 25.183.033.063a22.355 22.355 0 012 5.116c.744 3.055.02 6.282-1.956 8.727-2.927 4.008-7.961 6.64-14.176 7.411a30.543 30.543 0 01-3.7.232z"/><path id="top_3_" class="st9" d="M12.161 4.468c-.569 1.842-6.653 22.3-7.685 26.312a39.57 39.57 0 00-1.706 8.062 7.664 7.664 0 00.7 3.913c1.142 2.157 4.138 3.348 6.339 4.129a24.4 24.4 0 008.922 1.329 29.613 29.613 0 002.615-.2c4.613-.573 9.538-2.395 12.376-6.28a6.778 6.778 0 001.427-5.863 19.767 19.767 0 00-1.792-4.579L17.694 4.146a2.907 2.907 0 00-5.533.322z"/></g></g></g><g id="Shine_1_" transform="translate(6.433 29.644)"><path id="B_1_" class="st7" d="M24.298 64.945a92.05 92.05 0 00-9.319-.681 39.544 39.544 0 00-5.983.121 9.887 9.887 0 00-3.641 1.06 7.008 7.008 0 00-2.585 2.57C1.258 70.543.842 73.609.484 76.481a62.848 62.848 0 00-.466 9.274c.054 2.251.24 4.5.458 6.742.212 2.18.509 4.35.891 6.509.245 1.384.522 2.762.822 4.135 0 0-.605-7.689-.727-15.094a70.53 70.53 0 01.654-10.206c1.4-10.41 4.132-11.844 12.269-12.438 2.351-.173 6.523-.309 9.913-.458z"/><path id="r_5_" class="st7" d="M43.595 81.458c-4.106 7.125-.5 23.149-.5 23.149.112-9.042-.4-18.678 3.3-22.631a4.751 4.751 0 015.22-1.441c-1.282-2.892-6.085-2.439-8.02.923z"/><path id="r_4_" class="st7" d="M268.462 81.459c-3.721 7.333-.5 23.149-.5 23.149.112-9.042-.4-19.024 3.3-22.977a4.67 4.67 0 015.22-1.1c-.4-2.061-5.746-3.552-8.02.928z"/><path id="tower_5_" class="st7" d="M66.405 46.236c2.256 20.429 2.452 40.9 2.805 56.219a313.571 313.571 0 00-.152-55.872l-2.653-.347z"/><path id="tower_4_" class="st7" d="M252.174 46.236c-1.478 20.389-1.414 40.9-1.767 56.219 0 0-2.057-27.147-1.233-57.257l3 1.038z"/><path id="cone_3_" class="st7" d="M243.611 29.775s13.24-23.731 15.12-26.558c1.908-2.869 3.876-1.917 4.323 1.037 0 0-2.213-.964-5.919 4.527-1.116 1.651-13.524 20.994-13.524 20.994z"/><path id="cone_2_" class="st7" d="M58.014 31.607s7.339-26.164 8.508-29.352c1.186-3.235 3.322-2.768 4.446 0 0 0-2.377-.421-4.7 5.783-.699 1.87-8.254 23.569-8.254 23.569z"/><path id="n_3_" class="st7" d="M88.108 82.152c-3.439 6.922-.5 22.457-.5 22.457.112-9.042-.131-16.941 2.711-21.549a3.843 3.843 0 014.769-1.831c-1.28-2.893-5.255-2.549-6.98.923z"/><path id="c_5_" class="st7" d="M118.732 97.153a14.389 14.389 0 01-.124-10.413c1.965-5.057 6.585-9.818 12.523-11.108 6.534-1.42 10.3 2.311 10.3 2.311s-10.384-3.694-17.093 3.548c-7.319 7.894-5.606 15.662-5.606 15.662z"/><path id="a_7_" class="st7" d="M151.914 82.055s-.865-2.54 3.616-3.468 15.688-.982 18.757 5.954c0 0-3.012-4.767-12.713-4.916-7.589-.116-9.66 2.43-9.66 2.43z"/><path id="a_6_" class="st7" d="M292.231 82.748s-.865-3.232 3.616-4.16 15.688-.982 18.757 5.954c0 0-3.012-4.767-12.713-4.916-7.589-.117-9.66 3.122-9.66 3.122z"/><path id="d_9_" class="st7" d="M181.113 94.758s-2.445-12.178 8.291-14.98c0 0 6.207-1.285 9.636 2.744-7.12-3.719-17.213-.061-17.927 12.236z"/><path id="d_8_" class="st7" d="M201.712 72.25v-1.6c-.128-5.926 7.307-5.421 8.057-2.216-4.028-2.529-7.497-.283-8.057 3.816z"/><path id="Path_217" class="st7" d="M214.718 93.719s-1.544-14.519 11.378-16.863c0 0 7.2-.689 11.207 2.913 0-.001-17.954-9.546-22.585 13.95z"/></g></svg>