<svg version="1.1" id="Layer_1" xmlns="http://www.w3.org/2000/svg" x="0" y="0" viewBox="0 0 198 120" xml:space="preserve"><style>.st0{fill:#638500}.st1{fill:#9ec12f}.st2{fill:none;stroke:#638500;stroke-width:1.00054;stroke-miterlimit:10}</style><g id="brand_mono" transform="translate(0 -101)"><g id="Group_7" transform="translate(29.438 184.724)"><path id="Path_75" class="st0" d="M36.088 20.093c1.002-1.199 1.503-2.697 1.403-4.196-.401-5.095-5.712-9.29-11.725-9.29h-.902c-1.102.1-2.204.3-3.207.799-.1-.4-.1-.8-.2-1.199v-.1c-.501-2.597-2.806-4.395-5.512-4.395-.4 0-.801 0-1.202.1-2.806.5-4.81 2.897-4.81 5.694v.6H9.33c-2.605-.1-5.21.998-7.014 2.896C1.114 12.301-.19 14.698.212 18.594c1.203 9.99 7.516 10.79 9.42 10.79 1.102 0 2.305-.2 3.307-.7.702.3 1.403.4 2.205.4 1.603 0 3.106-.7 4.209-1.899 1.904 1.499 4.208 2.198 6.613 2.098h1.203c2.205-.1 4.309-.699 6.213-1.798 2.004-.999 3.307-2.997 3.307-5.294 0-.7-.2-1.399-.601-2.098z"/><path id="Path_76" class="st0" d="M129.083 7.805c-1.202 0-2.405.1-3.607.3-.902.1-1.804.4-2.506 1-.1-.1-.2-.2-.3-.2-1.904-1.6-4.41-2.498-6.915-2.498h-.2c-2.706.2-5.211 1.299-7.015 3.197-1.303-1.399-3.207-2.098-5.01-1.998-1.403 0-2.806.2-4.11.699-.8-.4-1.703-.5-2.504-.5h-.2c-1.905.1-3.608.9-4.911 2.298-2.004-1.398-4.41-2.198-6.915-2.098-1.202 0-2.405.1-3.607.3-.2 0-.3 0-.501.1 1.202-3.197-.401-6.693-3.608-7.792-3.207-1.199-6.714.4-7.816 3.596-.401 1.099-.501 2.198-.301 3.297-1.002.1-1.904.3-2.706.699-.701-.3-1.603-.5-2.405-.5-.5 0-1.002.1-1.503.2-.4-1.798-1.303-3.396-2.706-4.495-2.705-2.298-5.912-3.496-9.119-3.496h-.3c-5.211 0-13.328 5.694-13.73 14.385v.2c.402 10.289 9.42 14.784 13.93 14.884h.1c2.806 0 5.612-.899 7.917-2.497a6.707 6.707 0 005.21 2.497c1.504 0 3.007-.6 4.01-1.798.7-.9 1.102-1.998 1.102-3.097 0 1.1.4 2.198 1.102 3.097 1.002 1.199 2.405 1.898 4.008 1.798 1.604 0 3.107-.6 4.31-1.698a8.784 8.784 0 005.21 1.698c1.203 0 2.405-.2 3.508-.7.801.3 1.603.5 2.405.5 1.202 0 2.405-.4 3.307-1.099 1.102.8 2.505 1.3 3.908 1.3h.601c1.403-.1 2.606-.9 3.508-1.999l.1-.1c1.102 1.2 2.605 1.898 4.108 2.098h.702c1.503 0 3.006-.6 4.008-1.798l.2-.2.301.3c.2.1.301.3.501.4-.6.3-1.102.799-1.503 1.398-.4.999.401 3.496 1.403 4.995.501.999 1.403 1.598 2.505 1.798.401 0 .802-.1 1.103-.4.701-.5 1.102-.799 1.403-1.098.4-.4.902-.7 1.302-1 .502-.399 1.103-.599 1.704-.799.601-.1 1.203-.4 1.603-.899.401-.599.2-2.397-.1-3.596.702-.3 1.403-.7 2.004-1.199 1.604 1.399 3.608 2.098 5.813 2.098 1.202 0 2.405-.2 3.507-.7 2.906 1.3 6.414 0 7.716-2.896.3-.7.501-1.499.501-2.398v-5.694c-.1-5.894-4.309-9.89-10.522-9.89zM51.32 16.297c-1.002 0-1.503-.7-1.503-1.998-.1-.7.4-1.299 1.102-1.399h.4c.702 0 1.404.1 2.005.4.902.4 1.904.699 2.806.799H56.83c-.1.4-.1.8-.2 1.199h-.4c-1.003.1-2.005.3-2.807.799-.701.1-1.303.3-2.104.2zm17.436 7.692c0-.3-.1-.7-.1-1-.3-1.398-.4-2.796-.5-4.295h.3c.3 0 .601 0 .902-.1 0 1.499-.1 2.897-.501 4.296 0 .4 0 .799-.1 1.099z"/></g><path id="Path_77" class="st1" d="M42.239 192.206c.1-1.399 1.102-2.498 2.505-2.697 1.403-.3 2.806.499 3.207 1.898.902 5.394-.2 10.988-.501 16.582 0 1.499-1.303 2.798-2.806 2.897-.902 0-1.704-.4-2.205-1.198-.801.999-2.004 1.498-3.307 1.398-2.605 0-5.812-1.798-6.513-8.091-.602-5.495 3.106-7.193 6.413-7.093 1.203 0 2.405.4 3.407 1.099-.1-1.698-.1-3.297-.2-4.795zm-.601 12.886c.701-.999.701-2.397.1-3.396-.401-.5-1.002-.8-1.604-.8-1.102 0-2.004 1-1.904 2.099v.1c.1 2.197 1.604 2.797 2.105 2.797.5-.1 1.002-.4 1.303-.8z"/><path id="Path_78" class="st1" d="M56.368 211.086c-6.012.4-7.916-2.997-8.217-7.792-.2-4.595 1.503-8.69 6.313-8.99 4.61-.3 9.12 2.597 9.42 6.493a3.328 3.328 0 01-2.405 3.197c-1.202.3-2.505.4-3.808.4-1.202 0-2.705-.1-3.207.199-.4.2-.5.7-.3.899.4.3 1.202.5 2.906.4 1.203-.2 2.305-.4 3.507-.8 1.002-.3 2.105.2 2.405 1.3.1.199.1.399.1.698a2.722 2.722 0 01-1.703 2.498c-1.503.899-3.207 1.398-5.01 1.498zm1.203-9.99c.4-.1.601-.499.501-.799 0-.1-.1-.2-.1-.3-.501-.599-1.303-.898-2.004-.798-.702 0-1.403.4-1.604 1.098-.2.3 0 .7.3.9.101 0 .201.1.302.1.801-.1 1.703-.2 2.605-.2z"/><path id="Path_79" class="st1" d="M80.018 211.086c-3.106 0-10.622-3.496-11.023-11.987.3-7.193 7.215-11.488 10.823-11.488h.2c1.804 0 4.009.2 7.215 2.697.902.699 1.504 1.698 1.704 2.897.1.6-.1 1.298-.601 1.698-.602.6-1.503.999-2.405.999h-.1c-.602-.1-1.203-.2-1.804-.5a8.575 8.575 0 00-3.107-.599h-.1c-2.305-.1-4.31 1.598-4.41 3.996v.4c0 3.895 2.807 4.994 4.41 4.994h.1c1.102 0 2.105-.2 3.107-.6.6-.299 1.202-.499 1.803-.499h.1c.903 0 1.704.3 2.406 1 .4.499.6 1.098.6 1.698-.2 1.099-.8 2.097-1.703 2.897-3.307 2.197-5.411 2.397-7.215 2.397z"/><g id="Group_8" transform="translate(136.672 194.073)"><path id="Path_80" class="st1" d="M10.66 21.182c0 .999-1.403.3-3.307 2.198s-3.207-.9-3.107-2.498c0-.999 1.403-.3 3.307-2.197 1.904-1.899 3.207.998 3.107 2.497z"/><path id="Path_81" class="st1" d="M13.566 1.802c.701.6 1.202 1.399 1.303 2.298a2.402 2.402 0 01-2.205 2.397h-.3c-.502 0-1.003-.2-1.404-.4-.6-.3-1.302-.4-2.004-.4-1.303-.099-2.505 1-2.605 2.299v.2c0 2.497 1.703 2.996 2.705 2.996.702 0 1.403-.1 2.005-.4.4-.2.901-.399 1.402-.399 1.303-.1 2.406.8 2.506 2.098v.3c-.2.899-.601 1.698-1.303 2.297-1.403 1.299-3.307 1.898-5.21 1.898-4.51-.5-7.918-4.195-8.018-8.79C.538 3.1 5.55-.197 8.355-.097c1.904 0 3.808.7 5.21 1.898z"/></g><path id="Path_82" class="st1" d="M97.355 200.497c-2.506 0-2.606 1.698-2.606 1.698-.1 1.998.1 4.096.501 6.094.401 1.099-.2 2.398-1.403 2.697-.2.1-.5.1-.701.1-1.704-.1-3.107-1.199-3.608-2.797-.701-3.296-.701-6.793-.1-10.09.4-1.698 2.004-2.896 3.808-2.996.902-.1 1.704.4 2.104 1.198.902-.899 2.105-1.398 3.408-1.498h.5c1.604 0 2.005 1.099 1.604 2.797-.3 1.499-1.203 2.797-2.806 2.797h-.701z"/><g id="Group_9" transform="translate(100.922 187.777)"><path id="Path_83" class="st1" d="M.463 10.8c-.4-2.498.802-3.397 1.904-3.397 1.804 0 3.307 1.198 3.808 2.997.601 3.396.601 6.793-.1 10.09-.4 1.598-1.904 2.796-3.608 2.796-1.202.1-2.204-.799-2.204-1.998 0-.3 0-.5.1-.699.4-1.798.601-3.596.501-5.494 0 0-.1-2.298-.4-4.296z"/><path id="Path_84" class="st1" d="M6.576 3.107c0 1.598-1.303 3.996-3.107 3.996C1.565 7.003.263 4.705.263 3.107.263 1.31 1.565-.09 3.369-.09s3.207 1.3 3.207 2.997v.2z"/></g><path id="Path_85" class="st1" d="M121.706 202.395v5.694c0 1.599-1.303 2.797-2.806 2.797-.902 0-1.804-.4-2.305-1.198-.902.999-2.205 1.498-3.607 1.398-.702 0-5.312-.2-5.312-5.294 0-2.797 1.904-4.296 5.111-4.296 1.203 0 2.505.4 3.608 1v-.9c-.2-.7-.702-1.399-3.107-1.399-.701 0-1.403.1-2.104.2-1.303 0-2.305-.999-2.305-2.297 0-1.2.902-2.198 2.104-2.298 1.103-.2 2.205-.2 3.307-.3 4.51 0 7.416 2.698 7.416 6.893zm-6.013 3.896c.2-.7-.4-1.199-2.004-1.498-1.303-.2-1.503.4-1.603.799-.1.4.1 1.099 1.202 1.299 2.205.4 2.405-.6 2.405-.6z"/><path id="Path_86" class="st1" d="M165.999 202.395v5.694c0 1.599-1.303 2.797-2.806 2.797-.902 0-1.804-.4-2.305-1.198-.902.999-2.204 1.498-3.607 1.398-.702 0-5.312-.2-5.312-5.294 0-2.797 1.904-4.296 5.111-4.296 1.203 0 2.505.4 3.608 1v-.9c-.2-.7-.702-1.399-3.107-1.399-.701 0-1.403.1-2.104.2-1.303 0-2.305-.999-2.305-2.297 0-1.2.902-2.198 2.104-2.298 1.103-.2 2.205-.2 3.307-.3 4.51 0 7.416 2.698 7.416 6.893zm-6.013 3.896c.2-.7-.4-1.199-2.004-1.498-1.303-.2-1.503.4-1.603.799s.1 1.099 1.202 1.299c2.205.4 2.405-.6 2.405-.6z"/><path id="Path_87" class="st1" d="M137.138 208.29c.401 1.098-.2 2.397-1.403 2.696-.3.1-.701.1-1.102.1-1.503-.2-2.806-1.298-3.207-2.797-.4-2.198-.601-4.395-.5-6.593 0-.6-.402-.999-1.003-1.099h-.1c-.902 0-1.704.5-2.205 1.199-.1 2.198 0 4.295.501 6.493.301 1.499-.4 2.697-1.803 2.897-1.804.1-3.408-1.099-3.909-2.797-.701-3.297-.701-6.693-.1-10.09.4-1.698 1.904-2.797 3.608-2.897.902-.2 1.904.3 2.305 1.1a8.018 8.018 0 014.509-1.4c3.006 0 4.31 2.298 4.008 5.295-.2 2.698-.1 5.295.401 7.892z"/><g id="Grid_1_" transform="translate(84.392 140.308)"><path id="Path_88" class="st2" d="M.228 4.655l38.681.2"/><path id="Path_89" class="st2" d="M.228 6.952l38.681.2"/><path id="Path_90" class="st2" d="M.228 9.25l38.681.2"/><path id="Path_91" class="st2" d="M.228 11.547l38.681.2"/><path id="Path_92" class="st2" d="M.228 16.342c0-5.494.1-10.888.1-16.383"/><path id="Path_93" class="st2" d="M2.332 16.342c.1-5.494.1-10.888.2-16.383"/><path id="Path_94" class="st2" d="M4.537 16.342c0-5.494.1-10.888.1-16.383"/><path id="Path_95" class="st2" d="M6.641 16.342c.1-5.494.1-10.888.2-16.383"/><path id="Path_96" class="st2" d="M8.846 16.342c0-5.494 0-10.888.1-16.383"/><path id="Path_97" class="st2" d="M10.95 16.342c0-5.494.1-10.888.1-16.383"/><path id="Path_98" class="st2" d="M13.055 16.342c0-5.494.1-10.888.1-16.383"/><path id="Path_99" class="st2" d="M15.26 16.342c0-5.494.1-10.888.1-16.383"/><path id="Path_100" class="st2" d="M17.364 16.342c0-5.494.1-10.888.1-16.383"/><path id="Path_101" class="st2" d="M19.468 16.342c0-5.494.1-10.888.1-16.383"/><path id="Path_102" class="st2" d="M21.673 16.342c0-5.494.1-10.888.1-16.383"/><path id="Path_103" class="st2" d="M23.777 16.342c0-5.494.1-10.888.1-16.383"/><path id="Path_104" class="st2" d="M25.982 16.342c0-5.494.1-10.888.1-16.383"/><path id="Path_105" class="st2" d="M28.086 16.342c0-5.494.1-10.888.1-16.383"/><path id="Path_106" class="st2" d="M30.19 16.342c.101-5.494.101-10.888.201-16.383"/><path id="Path_107" class="st2" d="M32.395 16.342c0-5.494.1-10.888.1-16.383"/><path id="Path_108" class="st2" d="M34.5 16.342c0-5.494.1-10.888.1-16.383"/><path id="Path_109" class="st2" d="M36.705 16.342c0-5.494.1-10.888.1-16.383"/><path id="Path_110" class="st2" d="M38.809 16.342c0-5.494.1-10.888.1-16.383"/><path id="Path_111" class="st2" d="M.228 2.257l38.681.2"/><path id="Path_112" class="st2" d="M.228-.04l38.681.2"/><path id="Path_113" class="st2" d="M.228 13.845l38.681.2"/><path id="Path_114" class="st2" d="M.228 16.243l38.681.2"/></g><g id="Group_10" transform="translate(71.782 131.884)"><path id="Wall_1_" class="st1" d="M1.203.967v41.457h60.928V.967H1.204zm42.49 19.88c0 1.398-1.103 2.397-2.405 2.397H20.945c-1.403 0-2.405-1.099-2.405-2.397v-8.292c0-1.398 1.102-2.397 2.405-2.397h20.242c1.403 0 2.406 1.098 2.406 2.397l.1 8.292z"/><path id="Path_115" class="st0" d="M63.134 43.523H.2V-.032h62.933v43.555zM2.306 41.425h58.823V2.066H2.306v39.36zm38.881-17.082H20.945c-1.904 0-3.507-1.598-3.507-3.496v-8.292c0-1.898 1.603-3.496 3.507-3.496h20.242c1.904 0 3.508 1.598 3.508 3.496v8.292a3.48 3.48 0 01-3.508 3.496zM20.945 11.157c-.802 0-1.403.599-1.403 1.398v8.292c0 .799.601 1.398 1.403 1.398h20.242c.802 0 1.403-.6 1.403-1.398v-8.292c0-.8-.6-1.398-1.403-1.398H20.945z"/></g><path id="Path_116" class="st0" d="M141.247 123.976a13.68 13.68 0 00-8.217-3.097c-1.704 0-3.408.5-4.81 1.499-1.904 1.398-3.007 3.696-3.107 6.693-.501 8.89-.2 22.677.802 38.76.2 3.896 3.407 6.893 7.315 6.793 4.008.1 7.315-3.097 7.315-7.093v-.5c0-6.992.802-28.27 2.205-35.762.501-2.797 0-5.395-1.503-7.293z"/><path id="Path_117" class="st0" d="M146.558 125.475c-.1-1.499-.4-2.997-.802-4.396-.1-.3-.2-.6-.3-.999-.602-2.497-4.31-14.685-4.61-15.883-.701-2.398-3.107-3.696-5.512-2.997-1.202.3-2.204 1.199-2.805 2.297l-9.42 16.184v.1c-.602 1.098-1.002 2.197-1.303 3.296-.501 1.998 0 4.196 1.303 5.794 1.904 2.598 5.21 4.396 9.32 4.895.6.1 1.202.1 1.803.1h.601c2.005 0 3.909-.3 5.712-.999 2.005-.7 4.21-1.698 5.312-3.796.6-.999.801-2.298.701-3.596z"/><path id="Path_118" class="st1" d="M134.232 123.776s7.316-.3 5.812 7.193c-1.503 8.092-2.204 29.87-2.204 36.263s-8.919 6.393-9.22.599c-.902-15.184-1.302-29.27-.801-38.46.3-6.993 6.413-5.595 6.413-5.595z"/><path id="Path_119" class="st0" d="M134.733 132.767h-.5c-.502 0-1.103-.1-1.704-.1-3.708-.5-6.715-1.998-8.518-4.395-1.203-1.698-.401-3.197.1-4.995a16.54 16.54 0 011.202-3.097l8.518-14.085c.702-1.399 1.103-2.298 2.606-2.298 1.703 0 2.305.9 2.806 2.597.3 1.1 3.507 11.489 4.108 13.686.602 1.599 1.002 3.297 1.303 4.995.1 1.299.3 2.398-.2 3.397-.902 1.698-2.506 2.897-4.31 3.396-1.803.6-3.607.9-5.41.9z"/><path id="top_7_" class="st1" d="M138.24 104.996c.301 1.099 4.009 13.386 4.61 15.784.501 1.598.902 3.196 1.002 4.795.1.799-.1 1.598-.4 2.297-.702 1.299-2.506 1.998-3.808 2.498-1.704.6-3.508.899-5.312.799-.5 0-1.002-.1-1.603-.1-2.806-.3-5.712-1.399-7.416-3.796a4.45 4.45 0 01-.901-3.497c.2-.998.6-1.898 1.102-2.697l9.42-16.283c.3-.899 1.302-1.398 2.204-.999.501.2 1.002.7 1.103 1.199z"/><path id="Path_120" class="st0" d="M80.62 129.17c-.2-2.996-1.203-5.294-3.107-6.692-1.403-1-3.107-1.599-4.81-1.499-3.006.1-5.913 1.1-8.217 3.097-1.604 1.898-2.105 4.396-1.504 7.492 1.403 7.493 2.205 28.77 2.205 35.763-.2 3.996 2.906 7.293 6.814 7.493h.501c3.909.1 7.115-2.897 7.316-6.793 1.002-16.084 1.303-29.87.801-38.86z"/><path id="Path_121" class="st0" d="M83.926 123.177c-.3-1.199-.701-2.298-1.302-3.297l-9.42-16.383C72.402 102 70.899 101 69.195 101c-2.004 0-3.707 1.299-4.309 3.197-.4 1.198-4.008 13.486-4.61 15.883-.1.3-.2.6-.3 1-.4 1.398-.701 2.896-.802 4.395-.1 1.298.2 2.597.702 3.696 1.102 1.998 3.307 2.997 5.311 3.796 1.804.6 3.808.999 5.712.999h.601c.602 0 1.203-.1 1.804-.1 4.109-.5 7.315-2.198 9.32-4.895 1.302-1.698 1.803-3.796 1.302-5.794z"/><path id="Path_122" class="st1" d="M71.5 123.776s-7.315-.3-5.812 7.193c1.503 8.092 2.205 29.87 2.205 36.263s8.918 6.393 9.22.599c.901-15.184 1.302-29.27.8-38.46-.3-6.993-6.413-5.595-6.413-5.595z"/><path id="Path_123" class="st0" d="M71 132.767h.5c.501 0 1.103-.1 1.704-.1 3.307-.3 6.313-1.998 8.217-4.695 1.203-1.698.601-3.197.2-4.995a16.54 16.54 0 00-1.202-3.096l-8.718-14.286c-.702-1.398-1.103-1.998-2.606-1.998-1.703 0-2.004 1.2-2.505 2.897-.3 1.1-3.708 11.688-4.31 13.986-.1.3-.2.6-.2.899-.4 1.299-.701 2.697-.801 4.096-.1 1.198.1 2.297.701 3.396.702 1.599 2.105 2.697 3.808 3.197 1.604.4 3.407.7 5.211.7z"/><path id="top_6_" class="st1" d="M67.492 104.996c-.3 1.099-4.009 13.386-4.61 15.784-.5 1.598-.902 3.196-1.002 4.795-.1.799.1 1.598.4 2.297.702 1.299 2.506 1.998 3.809 2.498 1.704.6 3.507.899 5.311.799.501 0 1.002-.1 1.603-.1 2.806-.3 5.712-1.399 7.416-3.796a4.45 4.45 0 00.902-3.497c-.2-.998-.601-1.898-1.102-2.697l-9.42-16.283c-.3-.899-1.303-1.398-2.205-.999-.601.2-1.002.7-1.102 1.199z"/><g id="Group_11" transform="translate(11.301 139.626)"><path id="Stairs_2_" class="st1" d="M1.377 32.427l33.27-21.179-4.91-7.592c-2.406-.4-4.911-.3-7.216.2-.3 2.398-.2 4.795.2 7.193-2.405-.4-4.91-.3-7.215.2-.3 2.397-.2 4.795.2 7.192-2.404-.4-4.91-.3-7.214.2-.401 2.397-.401 4.895 0 7.292-2.405-.4-4.91-.3-7.216.2-.2 2.098-.2 4.196.1 6.294z"/><path id="Path_124" class="st0" d="M.575 34.225l-.2-1.599c-.301-2.197-.301-4.395-.1-6.593l.1-.7.701-.299c2.004-.5 4.209-.6 6.213-.4a31.97 31.97 0 010-6.193l.1-.7.702-.1c2.004-.499 4.209-.599 6.213-.399a31.97 31.97 0 010-6.193l.1-.7.701-.2c2.005-.499 4.21-.599 6.214-.399a31.97 31.97 0 010-6.194l.1-.4.5-.399.201-.1c2.105-.5 4.21-.6 6.414-.4V-.24l7.415 11.588L.575 34.225zm1.704-7.293a22.76 22.76 0 000 3.696l5.912-3.696c-2.004-.4-4.008-.3-5.912 0zm7.014-7.392c-.2 2.098-.1 4.196.3 6.194v.2l23.55-14.985-4.008-6.394c-1.904-.3-3.808-.2-5.712.1-.2 2.098-.1 4.196.3 6.194l.201 1.398-1.403-.2c-2.004-.299-4.109-.299-6.113 0-.2 2.098-.1 4.196.3 6.194l.201 1.399-1.403-.2c-2.104-.3-4.209-.3-6.213.1z"/></g><g id="Group_12" transform="translate(157.12 139.626)"><path id="Stairs_1_" class="st1" d="M35.054 32.427L1.784 11.248l4.91-7.592c2.405-.4 4.91-.3 7.216.2.3 2.398.2 4.795-.2 7.193 2.404-.4 4.91-.3 7.214.2.3 2.397.2 4.795-.2 7.192 2.405-.4 4.91-.3 7.215.2.3 2.397.2 4.795-.2 7.192 2.405-.4 4.91-.3 7.215.2.4 2.198.4 4.296.1 6.394z"/><path id="Path_125" class="st0" d="M35.856 34.225L.38 11.548 7.797-.04v2.498c2.104-.2 4.309-.1 6.413.4h.2l.502.399.1.4c.2 1.997.2 4.095 0 6.193 2.104-.2 4.209-.1 6.213.4l.701.2.1.699c.201 1.998.201 4.095 0 6.193 2.105-.2 4.21-.1 6.214.4l.701.2.1.699c.2 1.998.2 4.096 0 6.193 2.105-.2 4.21-.1 6.213.4l.702.2.1.7c.3 2.197.2 4.395-.1 6.592l-.1 1.499zm-7.616-7.293l5.912 3.796c.1-1.198.1-2.497 0-3.696-1.904-.4-3.908-.5-5.912-.1zM3.287 10.95l23.55 14.984v-.2c.3-1.997.4-4.095.3-6.193-2.004-.4-4.108-.4-6.113 0l-1.402.2.2-1.399c.3-1.998.4-4.096.3-6.193-2.004-.4-4.108-.4-6.112 0l-1.403.2.2-1.4c.3-1.997.401-4.095.3-6.193-1.903-.3-3.807-.4-5.711-.1L3.287 10.95z"/></g><path id="Path_126" class="st0" d="M67.492 133.666c1.403 12.188 1.503 24.475 1.703 33.665 1.003-11.188.902-22.376-.1-33.465l-1.603-.2z"/><path id="Path_127" class="st0" d="M130.825 134.066c-.902 12.187-.802 24.475-1.102 33.665 0 0-1.203-16.283-.702-34.364l1.804.699z"/><path id="Path_128" class="st0" d="M63.083 125.175s4.409-15.684 5.11-17.582c.702-1.898 2.005-1.698 2.706 0 0 0-1.403-.3-2.806 3.497-.5.999-5.01 14.085-5.01 14.085z"/><path id="Path_129" class="st0" d="M125.915 123.577s7.916-14.186 9.119-15.884c1.102-1.698 2.305-1.199 2.605.6 0 0-1.302-.6-3.507 2.697-.802.999-8.217 12.587-8.217 12.587z"/><g id="Group_13" transform="translate(37.807 115.391)"><path id="Path_130" class="st1" d="M105.551 12.872l1.203-3.397c.2-.799-.3-1.598-1.102-1.798-3.207-1.099-6.414-1.998-9.62-2.897-.702-.2-1.504.2-1.804.9l-.802 3.496c-.2.799-1.002 1.198-1.804.999-2.405-.5-4.81-1-7.115-1.399-.802-.1-1.403-.8-1.303-1.598.1-1.199.301-2.298.401-3.497.1-.799-.601-1.498-1.403-1.598-3.307-.5-6.614-.8-9.92-.999-.802-.1-1.604.5-1.704 1.299-.1 1.198-.1 2.397-.2 3.596-.1.8-.802 1.398-1.604 1.299-2.405-.1-4.81-.1-7.215 0-.802.1-1.503-.5-1.603-1.3 0-1.198-.1-2.397-.1-3.595-.1-.8-.802-1.399-1.604-1.299-3.307.2-6.614.5-9.92.9-.803 0-1.404.698-1.404 1.597.3 1.1.401 2.298.601 3.397.1.8-.5 1.498-1.302 1.598-2.405.4-4.81.8-7.216 1.299-.801.2-1.603-.2-1.803-.999l-.802-3.496a1.589 1.589 0 00-1.904-1c-3.207.8-6.413 1.699-9.62 2.798-.802.2-1.303.999-1.103 1.798l1.203 3.396c.2.8-.2 1.599-1.002 1.798-7.817 2.897-15.332 6.394-22.447 10.79l6.614 10.688c34.672-21.278 78.465-21.278 113.137 0l6.614-10.689c-6.714-4.095-13.829-7.592-21.244-10.289-.802-.3-1.303-1.099-1.103-1.798z"/><path id="Path_131" class="st0" d="M121.585 37.047l-.902-.5C86.311 15.47 43.02 15.47 8.648 36.547l-.902.5L.13 24.56l.902-.5c7.115-4.395 14.73-7.991 22.547-10.789.3-.1.4-.3.4-.5l-1.202-3.396c-.2-.599-.2-1.198.1-1.798.301-.699.902-1.198 1.604-1.398 3.207-1 6.413-1.998 9.72-2.797.702-.2 1.504-.1 2.105.3.5.299.902.799 1.002 1.398l.902 3.596c0 .2.3.3.601.2 2.405-.5 4.81-.999 7.215-1.299.3 0 .501-.3.501-.4l-.5-3.496c-.101-.6.1-1.198.5-1.698.401-.6 1.103-.999 1.804-.999 3.207-.5 6.614-.8 9.92-.999.702 0 1.404.2 2.005.7.501.399.702.998.802 1.598l.1 3.596c0 .2.2.3.501.3 2.405-.1 4.91 0 7.315 0 .301 0 .501-.2.501-.3l.2-3.596c0-.6.302-1.199.803-1.599.6-.5 1.302-.699 2.004-.699 3.307.2 6.714.5 10.02 1 .702.099 1.404.499 1.805 1.098.4.5.5 1.099.4 1.698l-.5 3.497c0 .2.2.4.4.4 2.405.399 4.81.898 7.215 1.398.301.1.502 0 .502-.1l.801-3.497c.1-.599.501-1.098 1.103-1.398.6-.4 1.402-.5 2.104-.3 3.207.8 6.514 1.798 9.72 2.897.702.2 1.303.7 1.604 1.399.3.5.3 1.199.1 1.798l-1.203 3.396c-.1.1.1.4.401.5 7.516 2.797 14.631 6.293 21.445 10.39l.902.499-7.716 12.387zM3.035 25.259l5.512 8.99c34.573-20.778 77.864-20.778 112.437 0l5.511-8.99c-6.413-3.896-13.227-7.093-20.242-9.69-1.303-.4-2.004-1.798-1.604-3.097l1.203-3.396v-.2c-.1-.2-.2-.3-.4-.3-3.107-1.099-6.314-1.998-9.52-2.797-.201 0-.402 0-.502.1-.1 0-.1.1-.1.1l-.802 3.496c-.4 1.299-1.703 2.098-3.006 1.699-2.305-.5-4.71-1-7.115-1.399-1.403-.2-2.305-1.398-2.205-2.797l.501-3.496c0-.1 0-.1-.1-.2s-.3-.2-.4-.2c-3.207-.5-6.514-.8-9.821-.999-.2 0-.301 0-.501.1l-.1.1-.201 3.696c-.1 1.399-1.303 2.398-2.706 2.298-2.405-.1-4.81-.1-7.215 0-1.403.1-2.505-1-2.605-2.298l-.1-3.596c0-.1 0-.1-.1-.1-.101-.1-.301-.2-.502-.1-3.307.2-6.614.5-9.82.899-.2 0-.301.1-.502.2 0 0-.1.1-.1.2l.501 3.496c.1 1.398-.801 2.597-2.204 2.797-2.305.2-4.61.7-7.015 1.199-1.303.3-2.706-.5-3.006-1.798l-.802-3.497c0-.1-.1-.1-.1-.1-.2-.1-.3-.1-.501-.1-3.207.8-6.414 1.699-9.52 2.698-.2.1-.301.2-.401.3v.2l1.202 3.396c.401 1.298-.3 2.697-1.603 3.096-7.616 2.698-14.731 6.094-21.445 10.09z"/></g><path id="castle_7_" class="st0" d="M118.5 118.981l-4.71-.5c-.903-.199-1.905-.199-2.807.1-1.002.5-.701 1.999-.801 2.898 0 .799-.301 1.498-.802 2.098-.902 1.099-2.305.899-3.608.899H99.158c-.6 0-1.202.1-1.703 0 1.503.1 3.006.2 4.41.3 1.101.1 2.204.2 3.406.2 1.103.199 2.305.1 3.407-.1.301-.1.702-.3.902-.5a3.084 3.084 0 001.103-1.998c.2-.8.2-1.598.3-2.298 0-.3.1-.6.3-.799.302-.3.803-.5 1.304-.4 2.004.1 3.908 0 5.912.1z"/><path id="castle_6_" class="st0" d="M94.95 118.282l-4.71.4c-.902 0-1.904.2-2.706.6-.902.698-.3 2.097-.2 2.996.1.8 0 1.498-.401 2.198-.702 1.198-2.105 1.298-3.407 1.598-1.103.2-2.305.4-3.408.7-1.002.2-2.004.399-3.106.599-.601.1-1.102.3-1.704.3 1.503-.2 2.906-.3 4.41-.5 1.102-.1 2.204-.3 3.407-.4 1.102-.1 2.305-.3 3.307-.699.3-.2.6-.4.801-.6.501-.599.702-1.398.702-2.197 0-.8-.1-1.598-.1-2.398 0-.3 0-.599.2-.899.3-.4.702-.599 1.203-.599 1.904-.3 3.808-.8 5.712-1.099z"/><path id="castle_5_" class="st0" d="M71.901 122.078l-4.61 1.199c-.901.1-1.803.5-2.605 1.099-.702.799.1 2.198.3 2.997.201.699.201 1.498 0 2.297-.5 1.299-1.803 1.699-3.006 2.098l-3.307 1.199c-1.002.4-1.904.7-2.906 1.099-.5.2-1.102.5-1.603.6 1.403-.4 2.806-.8 4.309-1.3 1.102-.3 2.205-.699 3.207-.998 1.102-.2 2.204-.7 3.106-1.3.3-.199.501-.499.702-.798.4-.7.5-1.499.3-2.298-.1-.8-.4-1.498-.5-2.298-.1-.3-.1-.599 0-.899.2-.4.6-.699 1.001-.799 2.005-.5 3.808-1.298 5.612-1.898z"/><path id="castle_4_" class="st0" d="M141.948 124.476l-4.51-1.399c-.901-.4-1.803-.6-2.705-.5-1.002.3-1.102 1.899-1.403 2.698-.2.7-.601 1.398-1.202 1.898-1.103.899-2.506.4-3.708.2-1.102-.2-2.305-.5-3.407-.7-1.002-.2-2.004-.4-3.107-.599-.601-.1-1.202-.2-1.703-.3 1.403.4 2.906.8 4.309 1.2l3.307.898c1.102.4 2.204.6 3.307.6.3 0 .701-.1 1.002-.3.701-.4 1.202-1 1.503-1.798.3-.7.501-1.499.802-2.198.1-.3.3-.6.5-.8.402-.199.903-.299 1.303-.199 1.904.6 3.808.9 5.712 1.299z"/><path id="_x30_1_BG_1_" class="st0" d="M185.74 161.637c-1.503 0-3.006.1-4.61.4-.5.1-1.001.2-1.502.4-1.003-.8-2.205-1.2-3.508-1.2h-.601c-1.403 0-2.706.4-3.908 1-.902-.5-2.004-.7-3.107-.7-.902 0-1.703.1-2.505.4.3-5.594.802-12.687 1.503-16.883 1.403-.599 2.505-1.698 3.207-2.996.601-1.2.902-2.598.802-3.896a17.9 17.9 0 00-.902-4.496c-.1-.3-.2-.6-.301-.999-.601-2.497-4.31-14.784-4.61-15.883-.701-2.498-3.407-3.996-5.912-3.297-1.303.4-2.405 1.299-3.006 2.497l-9.42 16.284c-.602 1.099-1.002 2.197-1.303 3.396-.501 2.098 0 4.396 1.303 6.094.5.7 1.102 1.398 1.804 1.898-.2 5.195-.2 11.788.1 19.48-2.506-1.499-5.412-2.398-8.318-2.298h-1.102c-1.804.1-3.507.6-5.01 1.399-.1-1.1-.201-2.298-.401-3.397v-.1c-.602-2.997-3.307-5.094-6.314-5.094-.5 0-.902.1-1.403.2-3.206.599-5.511 3.296-5.611 6.593v1.598c-.401 0-.702-.1-1.203-.1h-.4c-3.208-.1-6.214 1.099-8.419 3.396-2.505-2.597-6.112-3.995-9.72-3.796-1.503 0-3.006.1-4.61.4-1.302.1-2.505.7-3.507 1.598l-.601-.6c-2.405-1.997-5.311-3.096-8.418-3.096h-.3c-3.007 0-6.514 1.698-9.12 4.396-.1-.2-.3-.4-.4-.5-1.604-1.698-3.809-2.597-6.113-2.497-1.804 0-3.608.3-5.312.999-1.002-.5-2.104-.8-3.206-.7h-.301c-.802 0-1.603.2-2.305.4.2-7.293.2-13.486 0-18.481.601-.5 1.102-1.099 1.604-1.698 1.402-1.698 1.904-3.896 1.302-6.094-.3-1.199-.701-2.298-1.302-3.396v-.1l-9.42-16.283c-1.103-2.398-4.009-3.397-6.414-2.198-1.202.6-2.104 1.698-2.505 2.997-.4 1.198-4.008 13.486-4.61 15.883-.1.3-.2.7-.3 1-.501 1.498-.702 2.996-.902 4.495-.3 2.997 1.403 5.894 4.309 6.992.701 4.096 1.102 10.89 1.403 15.984h-.1c-1.403 0-2.706.4-3.909.999-.902-.5-2.004-.7-3.106-.7-1.503 0-3.107.5-4.31 1.3-.3-2.998-1.903-5.695-4.308-7.493-2.405-1.498-5.111-2.298-7.917-2.198H8.768c-3.507.1-6.513 2.398-7.415 5.794a49.03 49.03 0 000 22.877c.902 3.296 3.908 5.694 7.415 5.794h8.719c3.307.1 6.614-1 9.119-3.097a8.233 8.233 0 006.514 3.596c1.803 0 3.407-.7 4.51-2.098 1.202-1.498 1.602-3.396 1.202-5.194a33.73 33.73 0 01-.602-6.394h1.103c.5 0 1.002-.1 1.503-.2.1 2.298.1 4.296.1 5.795-.2 4.195 3.006 7.692 7.215 7.891h.501c2.004 0 4.009-.799 5.412-2.197 1.403 1.398 3.407 2.297 5.411 2.297h.701c1.604-.2 3.007-.999 3.909-2.197.2-.3.4-.7.601-1a8.189 8.189 0 005.512 3.297h.801c1.704 0 3.407-.7 4.51-2.098l.601-.899a13.834 13.834 0 007.816 3.097c3.107 0 6.013-1.099 8.418-2.997.601.6 1.203 1 1.904 1.399 1.603.899 3.407 1.298 5.311 1.298 1.604 0 3.107-.3 4.51-.999 2.906 1.499 6.513.6 8.518-1.998 1.904 1.899 4.51 2.997 7.215 3.097 1.503 0 2.906-.3 4.209-.899.902.4 1.904.7 2.806.7 2.004 0 3.908-.9 5.11-2.498 2.105 2.298 5.111 3.496 9.02 3.496.5 0 1.001 0 1.502-.1 2.706-.1 5.312-.899 7.717-2.197.5-.3 1.102-.6 1.503-1 2.906 3.198 7.916 3.497 11.123.6a7.52 7.52 0 005.311 2.198c1.804 0 3.408-.7 4.51-2.098a6.12 6.12 0 001.202-5.194 33.73 33.73 0 01-.6-6.394h1.301c-.5 1.099-.7 2.398-.7 3.596 0 3.796 1.603 6.893 4.61 8.492 1.602.899 3.406 1.298 5.31 1.298 1.604 0 3.107-.3 4.51-.999a6.685 6.685 0 009.019-2.897c.5-.999.701-1.998.701-3.096v-7.293c.501-7.093-4.61-11.888-12.226-11.888zm-99.409 12.587c-.5.2-1.002.3-1.503.2-.2 0-.3 0-.3-.799 0-.2 0-.2.3-.2.501 0 1.002.1 1.403.2.3.1.501.2.802.3-.2.1-.501.2-.702.3z"/><path id="Path_132" class="st1" d="M16.685 156.143c4.109 0 9.32 1.598 9.42 8.591 0 1.898-.702 3.696-2.105 4.995 2.005.899 3.408 3.197 3.408 6.293 0 3.297-2.305 8.492-9.921 8.492H8.768c-2.104-.1-3.808-1.499-4.409-3.497a45.769 45.769 0 010-21.477c.601-1.998 2.405-3.397 4.41-3.497h7.916v.1zm-3.507 11.288c1.603 0 3.808 0 3.808-2.397 0-2.398-1.804-2.597-3.808-2.697-1.403-.1-2.706.999-2.806 2.497v.1c.1 1.698 1.202 2.397 2.806 2.497-.1 0 0 0 0 0zm1.403 11.189c1.603 0 3.808-.6 3.707-2.897-.1-1.998-2.304-2.897-4.008-2.797h-1.203c-1.603.1-2.906 1.398-2.906 2.997.301 1.598 1.704 2.797 3.307 2.797l1.103-.1z"/><path id="Path_133" class="st1" d="M38.631 171.327c-3.207 0-3.407 2.198-3.407 2.198-.1 2.597.1 5.195.702 7.792.4 1.998-.702 3.596-2.706 3.596-2.205-.1-4.009-1.498-4.61-3.596-.902-4.296-.902-8.691-.1-12.987.601-2.197 2.505-3.796 4.81-3.796a2.71 2.71 0 012.706 1.599c1.202-1.1 2.705-1.798 4.309-1.898h.601c2.004 0 2.505 1.498 2.104 3.496-.4 1.998-1.603 3.496-3.607 3.496l-.802.1z"/><path id="Path_134" class="st1" d="M173.916 171.327c-3.207 0-3.408 2.198-3.408 2.198-.1 2.597.1 5.195.702 7.792.4 1.998-.702 3.596-2.706 3.596-2.204-.1-4.008-1.498-4.61-3.596-.901-4.296-.901-8.691-.1-12.987.602-2.197 2.506-3.796 4.81-3.796a2.71 2.71 0 012.706 1.599c1.203-1.1 2.706-1.798 4.31-1.898h.6c2.005 0 2.506 1.498 2.105 3.496s-1.604 3.496-3.608 3.496l-.801.1z"/><path id="Path_135" class="st1" d="M73.905 181.317c.401 2.098-.902 3.796-3.106 3.596-2.004-.3-3.608-1.698-4.109-3.596-.601-2.797-.802-5.694-.601-8.491 0-.7-.501-1.299-1.303-1.399h-.2c-1.103.1-2.205.6-2.906 1.499-.1 2.797.1 5.594.6 8.291.402 1.898-.5 3.496-2.304 3.696-2.305.1-4.41-1.398-5.01-3.596a32.83 32.83 0 01-.1-12.887c.5-2.098 2.404-3.596 4.609-3.796 1.503 0 2.505.4 3.006 1.499a9.92 9.92 0 015.712-1.798c3.909 0 5.512 2.897 5.111 6.793-.2 3.396-.1 6.793.601 10.189z"/><path id="Path_136" class="st1" d="M90.841 165.433c.902.7 1.503 1.799 1.704 2.897.1 1.599-1.203 2.997-2.806 2.997h-.401c-.601-.1-1.203-.2-1.804-.5-.802-.299-1.704-.499-2.605-.499-1.804-.1-3.307 1.2-3.408 2.997v.3c0 3.197 2.205 3.896 3.408 3.896.901 0 1.803-.1 2.605-.5.601-.3 1.203-.499 1.804-.499 1.603-.2 3.106.999 3.207 2.597v.4c-.2 1.199-.802 2.198-1.704 2.897-1.804 1.598-4.209 2.497-6.714 2.497-3.307 0-10.021-3.596-10.322-11.188.3-6.693 6.714-10.989 10.322-10.789 2.505 0 4.81.9 6.714 2.497z"/><path id="Path_137" class="st1" d="M110.983 173.525v7.293c0 1.997-1.603 3.696-3.607 3.696-1.203 0-2.305-.6-3.007-1.499-1.202 1.199-2.906 1.898-4.61 1.798-1.001 0-6.914-.3-6.914-6.793 0-3.596 2.405-5.594 6.614-5.594 1.603 0 3.207.5 4.61 1.299v-1.099c-.2-.999-.902-1.798-3.908-1.798-.902 0-1.804.1-2.706.2a2.904 2.904 0 01-2.906-2.897c0-1.599 1.202-2.897 2.705-2.997 1.403-.2 2.806-.3 4.21-.3 5.811-.1 9.52 3.297 9.52 8.691zm-7.516 5.195c.301-.9-.6-1.599-2.705-1.998-1.704-.3-2.004.5-2.105 1.099-.1.599.2 1.498 1.704 1.698 2.906.5 3.106-.9 3.106-.8z"/><path id="Path_138" class="st1" d="M195.46 173.525v7.293a3.693 3.693 0 01-3.707 3.696c-1.202 0-2.305-.6-3.006-1.499-1.203 1.199-2.906 1.898-4.61 1.798-1.002 0-6.914-.3-6.914-6.793 0-3.596 2.405-5.594 6.613-5.594 1.604 0 3.207.5 4.61 1.299v-1.099c-.2-.999-.902-1.798-3.908-1.798-.902 0-1.804.1-2.706.2a2.904 2.904 0 01-2.906-2.897c0-1.599 1.203-2.897 2.706-2.997 1.403-.2 2.806-.3 4.209-.3 5.912-.1 9.62 3.297 9.62 8.691zm-7.816 4.995c.301-.9-.5-1.598-2.505-1.898-1.603-.3-1.904.5-2.004 1.099-.1.6.2 1.398 1.603 1.598 2.706.6 2.906-.8 2.906-.8z"/><path id="Path_139" class="st1" d="M124.11 160.439c.101-1.799 1.404-3.197 3.208-3.497 1.803-.4 3.607.7 4.108 2.498v.1c1.203 6.892-.2 14.185-.701 21.278-.1 1.997-1.604 3.596-3.608 3.696a3.47 3.47 0 01-2.806-1.499c-1.002 1.299-2.605 1.998-4.209 1.798-3.306 0-7.415-2.297-8.417-10.489-.802-6.993 3.908-9.29 8.217-9.19 1.603 0 3.107.5 4.31 1.398 0-2.098 0-4.095-.101-6.093zm-.8 16.582c.901-1.298.901-2.996.1-4.395-.502-.6-1.203-.999-2.105-.999-1.403 0-2.505 1.199-2.505 2.697v.2c.1 2.897 2.004 3.496 2.705 3.496a2.7 2.7 0 001.804-.999z"/><path id="Path_140" class="st1" d="M142.55 185.413c-7.817.5-10.222-3.896-10.522-9.99-.2-5.994 1.904-11.088 8.117-11.488 5.912-.4 11.724 3.297 12.125 8.391 0 1.898-1.303 3.597-3.106 4.096-1.604.3-3.207.5-4.91.5-1.504.1-3.508-.1-4.11.2-.5.299-.7.898-.3 1.198.501.4 1.503.6 3.708.5 1.503-.2 3.006-.6 4.51-1 1.302-.399 2.705.3 3.106 1.599.1.3.1.6.1.8-.1 1.398-.902 2.696-2.205 3.196-2.004 1.299-4.309 1.898-6.513 1.998zm1.503-12.887c.5-.1.801-.6.701-1.099 0-.1-.1-.3-.2-.4a2.613 2.613 0 00-2.606-.998c-.902 0-1.803.5-2.104 1.398-.2.4 0 .9.4 1.1.101.099.301.099.402.099 1.102.1 2.305 0 3.407-.1z"/><path id="Path_141" class="st1" d="M158.884 136.463s7.315-.3 5.812 7.193c-1.503 8.092-2.204 29.87-2.204 36.262s-8.92 6.394-9.22.6c-.902-15.184-1.303-29.27-.801-38.46.3-6.993 6.413-5.595 6.413-5.595z"/><path id="Path_142" class="st0" d="M159.385 145.254h-.501c-.501 0-1.102-.1-1.704-.1-3.707-.5-6.714-1.998-8.517-4.395-1.203-1.499-1.604-3.397-1.203-5.195a16.54 16.54 0 011.203-3.097l8.718-15.084c.902-1.998 3.307-2.797 5.311-1.898 1.002.5 1.804 1.399 2.104 2.497.301 1.1 3.708 12.488 4.31 14.785.1.3.2.6.2.9.4 1.298.701 2.696.802 4.095.1 1.199-.1 2.298-.702 3.396-1.002 1.899-3.006 2.798-4.81 3.397-1.603.4-3.407.7-5.211.7z"/><path id="top_4_" class="st1" d="M162.892 117.683c.301 1.099 4.009 13.386 4.61 15.783.501 1.599.902 3.197 1.002 4.795.1.8-.1 1.599-.4 2.298-.702 1.299-2.506 1.998-3.809 2.498-1.703.599-3.507.899-5.31.799-.502 0-1.003-.1-1.604-.1-2.806-.3-5.712-1.399-7.416-3.796a4.45 4.45 0 01-.902-3.497c.2-.999.602-1.898 1.103-2.697l9.42-16.283c.3-.9 1.302-1.399 2.204-.999.501.2.902.6 1.102 1.199z"/><path id="Path_143" class="st1" d="M47.65 136.463s-7.315-.3-5.812 7.193c1.503 8.092 2.205 29.87 2.205 36.262s8.918 6.394 9.219.6c.902-15.184 1.303-29.27.802-38.46-.301-6.993-6.414-5.595-6.414-5.595z"/><path id="Path_144" class="st0" d="M46.949 145.254c-1.804 0-3.608-.3-5.311-.899-1.804-.7-3.808-1.598-4.81-3.396-.502-1-.802-2.198-.702-3.397.1-1.398.4-2.697.802-4.096.1-.3.2-.599.2-.899.601-2.297 4.008-13.685 4.31-14.784.6-2.098 2.805-3.297 4.91-2.698 1.102.3 2.004 1.1 2.505 2.098l8.718 15.085c.501.999.902 1.998 1.203 3.097.4 1.798 0 3.796-1.203 5.194-1.804 2.398-4.81 3.996-8.518 4.396-.601.1-1.102.1-1.703.1-.1.2-.2.2-.401.2z"/><path id="top_3_" class="st1" d="M43.441 117.683c-.3 1.099-4.008 13.386-4.61 15.783-.5 1.599-.901 3.197-1.001 4.795-.1.8.1 1.599.4 2.298.702 1.299 2.506 1.998 3.808 2.498 1.704.599 3.508.899 5.312.799.5 0 1.002-.1 1.603-.1 2.806-.3 5.712-1.399 7.415-3.796a4.45 4.45 0 00.902-3.497c-.2-.999-.6-1.898-1.102-2.697l-9.42-16.283c-.3-.9-1.302-1.399-2.204-.999-.602.2-1.002.6-1.103 1.199z"/><g id="Shine_1_" transform="translate(3.853 118.787)"><path id="B_1_" class="st0" d="M14.689 38.941c-1.904-.2-3.708-.4-5.612-.4-1.202-.1-2.405 0-3.607.1-.802.1-1.504.3-2.205.6-.601.4-1.203.9-1.503 1.499C.96 42.338.459 44.036.359 45.834c-.2 1.798-.3 3.696-.3 5.594 0 1.399.1 2.698.3 3.996.1 1.299.3 2.598.5 3.896.101.8.302 1.699.502 2.498 0 0-.4-4.596-.4-9.09 0-1.999.1-4.097.4-6.095.802-6.193 2.505-7.092 7.416-7.492 1.302-.1 3.808-.1 5.912-.2z"/><path id="r_5_" class="st0" d="M26.213 48.831c-2.505 4.296-.3 13.886-.3 13.886.1-5.395-.2-11.189 2.004-13.586.801-.9 2.004-1.299 3.106-.9-.701-1.697-3.607-1.398-4.81.6z"/><path id="r_4_" class="st0" d="M161.498 48.831c-2.205 4.396-.301 13.886-.301 13.886.1-5.395-.2-11.388 2.004-13.786.802-.899 2.004-1.099 3.107-.7-.2-1.198-3.407-2.097-4.81.6z"/><path id="r_3_" class="st0" d="M86.74 79.1c-1.703 3.396-.2 10.689-.2 10.689.1-4.196-.2-8.791 1.503-10.59a2.01 2.01 0 012.405-.499c-.2-.999-2.705-1.698-3.708.4z"/><path id="tower_5_" class="st0" d="M39.942 27.653c1.403 12.287 1.503 24.475 1.704 33.665 1.002-11.188.902-22.377-.1-33.465l-1.604-.2z"/><path id="tower_4_" class="st0" d="M151.677 27.653c-.902 12.187-.802 24.475-1.102 33.665 0 0-1.203-16.283-.702-34.364l1.804.699z"/><path id="cone_3_" class="st0" d="M146.566 17.863s7.917-14.185 9.12-15.883c1.102-1.699 2.304-1.2 2.605.599 0 0-1.303-.6-3.508 2.697-.801 1-8.217 12.587-8.217 12.587z"/><path id="cone_2_" class="st0" d="M34.932 18.962S39.34 3.278 40.042 1.38s2.004-1.698 2.706 0c0 0-1.403-.3-2.806 3.497-.501.999-5.01 14.085-5.01 14.085z"/><path id="n_3_" class="st0" d="M53.07 49.23c-2.105 4.196-.301 13.487-.301 13.487.1-5.395-.1-10.19 1.603-12.887.501-.999 1.804-1.498 2.907-1.099-.802-1.798-3.207-1.598-4.21.5z"/><path id="n_2_" class="st0" d="M119.81 79.1c-1.503 3.496-.3 10.589-.3 10.589.1-4.495 0-7.892 1.402-10.19.401-.899 1.403-1.298 2.405-1.098-.701-1.399-2.906-.8-3.507.699z"/><path id="c_5_" class="st0" d="M71.508 58.221c-.801-1.997-.801-4.195-.1-6.193a11.182 11.182 0 017.516-6.693c2.205-.6 4.51 0 6.213 1.398 0 0-6.213-2.197-10.221 2.098-4.51 4.695-3.408 9.39-3.408 9.39z"/><path id="c_4_" class="st0" d="M66.498 83.795c-.902-2.098-.902-4.495-.1-6.693 1.403-3.596 4.409-6.194 8.117-7.193 2.305-.599 4.81-.1 6.614 1.499 0 0-6.414-2.597-11.024 2.297-4.71 4.995-3.607 10.09-3.607 10.09z"/><path id="c_3_" class="st0" d="M134.24 85.993c-.601-1.499-.701-3.197-.1-4.795a8.226 8.226 0 015.912-5.095 5.81 5.81 0 014.91 1.099s-4.91-1.798-8.216 1.698c-3.508 3.596-2.506 7.093-2.506 7.093z"/><path id="a_7_" class="st0" d="M91.45 49.13s-.5-1.498 2.205-2.097c2.706-.6 9.42-.6 11.224 3.596 0 0-1.804-2.897-7.616-2.997-4.61 0-5.813 1.499-5.813 1.499z"/><path id="a_6_" class="st0" d="M175.828 49.63s-.501-1.898 2.204-2.497c2.706-.6 9.42-.6 11.224 3.596 0 0-1.804-2.897-7.616-2.997-4.61-.1-5.812 1.898-5.812 1.898z"/><path id="a_5_" class="st0" d="M105.58 79.6s-.4-1.5 1.704-1.899 7.215-.5 8.618 2.698c0 0-1.403-2.198-5.812-2.298-3.508 0-4.51 1.498-4.51 1.498z"/><path id="a_4_" class="st0" d="M149.973 79.6s-.4-1.5 1.704-1.899 7.215-.5 8.618 2.698c0 0-1.403-2.198-5.812-2.298-3.508 0-4.51 1.498-4.51 1.498z"/><path id="d_9_" class="st0" d="M108.987 56.823s-1.503-7.293 5.01-8.99c0 0 3.709-.8 5.813 1.598-4.31-2.198-10.422 0-10.823 7.392z"/><path id="d_8_" class="st0" d="M121.313 43.337v-1c-.1-3.595 4.41-3.296 4.81-1.298-2.305-1.598-4.41-.2-4.81 2.298z"/><path id="d_7_" class="st0" d="M29.52 85.194S28.318 79.4 33.53 78.1c0 0 3.006-.6 4.61 1.299-3.408-1.799-8.218 0-8.619 5.794z"/><path id="d_6_" class="st0" d="M39.24 74.505v-.8c-.1-2.797 3.508-2.597 3.809-1.098-1.904-1.1-3.608-.1-3.808 1.898z"/><path id="Path_145" class="st0" d="M129.23 56.124s-.902-8.691 6.814-10.09c0 0 4.31-.4 6.714 1.698 0 .1-10.823-5.694-13.528 8.392z"/><path id="Path_146" class="st0" d="M44.852 84.494s-.701-7.092 5.512-8.191c0 0 3.507-.3 5.411 1.398.1 0-8.618-4.595-10.923 6.793z"/><path id="d_5_" class="st0" d="M97.964 72.607c-.2-3.497 3.908-2.997 4.41-1.1-2.105-1.897-4.21-.798-4.41 1.1z"/><path id="tower_3_" class="st0" d="M98.665 80.498c.401 2.897.401 5.794 0 8.592.702-2.897.902-5.894.602-8.791-.3-1.2-.802-.7-.602.2z"/></g></g></svg>