<svg version="1.1" id="Layer_1" xmlns="http://www.w3.org/2000/svg" xmlns:xlink="http://www.w3.org/1999/xlink" x="0" y="0" viewBox="0 0 512 512" xml:space="preserve"><style>.st2{fill:#3e0538}.st3{fill:#e7134e}.st4{fill:#3fb94e}.st5{fill:#1a86c9}.st6{fill:#f76e1b}.st7{fill:#fac329}.st8{fill:#fbc22c}.st9{fill:none;stroke:#3e0538;stroke-miterlimit:10}.st12,.st13{opacity:.8;fill:#fff;enable-background:new}.st13{opacity:.7}</style><defs><path id="SVGID_1_" d="M0 0h512v512H0z"/></defs><clipPath id="SVGID_2_"><use xlink:href="#SVGID_1_" overflow="visible"/></clipPath><g id="logo" clip-path="url(#SVGID_2_)"><path fill="#9ec12f" d="M0 0h512v512H0z"/><g id="Logo_1_" transform="translate(-.001 101)"><g id="Group_14" transform="translate(.001)"><g id="Bottom_1_" transform="translate(76.121 216.157)"><g id="Group_7"><path id="Path_75" class="st2" d="M92.901 52.212a15.05 15.05 0 003.518-10.795c-1.118-13.2-14.643-23.944-30.15-23.944-.813 0-1.622.03-2.4.088a25.913 25.913 0 00-8.365 1.946 66.585 66.585 0 00-.481-3.223l-.027-.143A14.352 14.352 0 0040.825 4.753a14.599 14.599 0 00-3.158.34c-7.373 1.588-12.614 7.768-12.463 14.7l.054 1.6c-.249-.01-.506-.019-.772-.025-.3-.009-.591-.012-.888-.012-7.351 0-13.76 2.628-18.045 7.4C2.515 32.139-.879 38.28.205 48.334c3.022 25.707 19.413 27.753 24.391 27.768 2.935.08 5.849-.512 8.519-1.731a14.409 14.409 0 005.7 1.15 14.57 14.57 0 0010.782-4.867c4.346 3.616 10.118 5.447 17.175 5.447 1 0 2.027-.037 3.059-.11a36.562 36.562 0 0016.079-4.605c5.5-2.963 8.642-8.035 8.417-13.57a13.868 13.868 0 00-1.426-5.604z"/><path id="Path_76" class="st2" d="M332.782 20.515a70.421 70.421 0 00-9.369.737 14.106 14.106 0 00-6.495 2.485 13.606 13.606 0 00-.7-.587l-.079-.06c-7.408-5.669-13.193-6.5-17.849-6.568-.2-.008-.4-.011-.6-.011-5.917 0-12.8 3.121-18.215 8.2-2.33-2.46-6.432-5.248-13.056-5.248a28.4 28.4 0 00-10.546 1.924 15.435 15.435 0 00-6.555-1.334c-.2 0-.394 0-.6.009a17.878 17.878 0 00-12.542 5.94c-4.691-3.6-10.8-5.491-17.739-5.491a70.441 70.441 0 00-9.369.737c-.443.053-.88.126-1.314.218 3.018-8.16-1.15-17.223-9.31-20.24-8.161-3.019-17.223 1.15-20.241 9.31a15.754 15.754 0 00-.659 8.623c-2.457.154-4.86.786-7.076 1.859a14.533 14.533 0 00-6.169-1.288c-1.318.003-2.63.161-3.912.471a20.384 20.384 0 00-7.081-11.667l-.082-.063C143.697 1.179 136.569.094 130.311.007a18.524 18.524 0 00-.711-.012c-13.47 0-34.492 14.8-35.482 37.1l-.014.322.012.323c1.076 26.622 24.358 38.29 36 38.366h.136c5.657-.069 12.03-.927 20.323-6.554a17.574 17.574 0 0013.4 6.555 13.013 13.013 0 0010.3-4.715 13.437 13.437 0 002.951-8.06 13.442 13.442 0 002.953 8.06 13.014 13.014 0 0010.306 4.715 17.386 17.386 0 0011.207-4.28 22.579 22.579 0 0013.444 4.28 21.5 21.5 0 009.111-1.881 14.964 14.964 0 006.174 1.3c3.086.008 6.098-.95 8.612-2.741a17.1 17.1 0 009.971 3.321c.547 0 1.093-.03 1.637-.09a12.68 12.68 0 009.21-5.437 17.538 17.538 0 0010.694 5.431c.572.065 1.147.098 1.723.1a12.966 12.966 0 0010.27-4.7c.149-.182.3-.373.437-.57.256.226.492.447.726.665.4.38.8.748 1.249 1.1-1.435.752-3.231 1.962-3.8 3.514-1.069 2.645 1.046 8.983 3.664 12.905 2.026 3.036 4.25 4.64 6.431 4.64a4.721 4.721 0 002.822-.975c1.7-1.246 2.716-2.1 3.616-2.862a28.74 28.74 0 013.421-2.572l.052-.033.047-.039a11.9 11.9 0 014.424-1.938c1.725-.49 3.354-.953 4.2-2.264 1.071-1.664.5-6.237-.37-9.34a33.498 33.498 0 005.15-2.984 22.349 22.349 0 0014.885 5.457 21.5 21.5 0 009.111-1.882c7.584 3.379 16.471-.03 19.85-7.614a15.032 15.032 0 001.301-6.062v-14.7c.001-15.163-10.841-25.341-26.972-25.341zm-200.561 21.93c-2.536 0-3.827-1.754-3.836-5.207.006-1.627.667-3.566 3.779-3.567h.143a13 13 0 015.245.905 19.167 19.167 0 007.357 1.964h.416c.414 0 .83-.016 1.249-.047a71.929 71.929 0 00-.4 3.095 16.681 16.681 0 00-.91-.025h-.357c-2.56.156-5.064.825-7.361 1.967a12.9 12.9 0 01-5.21.9l-.115.015zm45.015 19.769a15.89 15.89 0 00-.308-2.574 60.05 60.05 0 01-1.21-11.012h.817c.745 0 1.49-.06 2.226-.176a48.322 48.322 0 01-1.218 11.2 15.799 15.799 0 00-.307 2.562z"/></g><path id="Path_77" class="st3" d="M32.829 19.623c-.074-3.416 2.832-6.3 6.446-7.074a6.785 6.785 0 018.244 5.072c2.439 13.834-.43 28.509-1.39 42.882-.3 4.11-3.431 7.4-7.31 7.4a6.709 6.709 0 01-5.711-3.1c-2.614 3.39-6.014 3.678-8.513 3.679-6.655-.02-14.89-4.664-16.814-21.033-1.518-14.081 7.925-18.706 16.482-18.452a13.609 13.609 0 018.74 2.839c.015-4.194-.027-8.28-.174-12.213zm-1.564 33.178c1.619-2.411 1.971-6.434.2-8.872a4.825 4.825 0 00-4.133-1.943c-1.505.009-5.1 1.173-4.987 5.749.151 5.742 4.066 7.12 5.488 7.112a4.714 4.714 0 003.432-2.046z"/><path id="Path_78" class="st4" d="M69.307 68.388c-15.633 1.1-20.549-7.764-21.164-20.028-.467-11.958 3.882-22.334 16.256-23.192 11.784-.873 23.555 6.648 24.422 16.893.339 3.806-2.735 7.237-6.3 8.3-2.631.784-6.4.806-9.773.934-3.087.117-6.964-.258-8.351.48-1.08.575-1.386 1.708-.66 2.42.993.874 3.012 1.3 7.454.98 2.845-.207 6.477-1.458 8.988-1.957 3.67-.807 6.376 1.3 6.537 4.937.117 2.868-1.946 5.19-4.418 6.523a29.205 29.205 0 01-12.991 3.71zm3.037-25.919a1.787 1.787 0 00.981-2.889c-1.287-1.751-3.1-2.168-5.214-2.011a4.441 4.441 0 00-4.219 2.818 1.7 1.7 0 001.585 2.453c2.28-.004 4.6-.202 6.867-.371z"/><path id="Path_79" class="st5" d="M130.161 68.478c-8.019-.053-27.538-9.052-28.426-31.049.821-18.492 18.495-29.807 27.864-29.807.168 0 .335.003.5.01 4.687.058 10.318.642 18.492 6.9a12.388 12.388 0 014.339 7.381 5.67 5.67 0 01-1.481 4.475 8.3 8.3 0 01-6.121 2.534h-.194a12.173 12.173 0 01-4.572-1.353l-.05-.023-.05-.02a20.578 20.578 0 00-8.072-1.477h-.174c-7.84 0-11.434 5.786-11.455 11.162.027 10.156 7.217 12.862 11.461 12.862h.175c2.759.053 5.5-.45 8.061-1.478l.051-.02.05-.024a12.145 12.145 0 014.59-1.353h.174a8.3 8.3 0 016.121 2.534 5.665 5.665 0 011.483 4.466 12.4 12.4 0 01-4.359 7.406c-8.152 6.232-13.775 6.82-18.407 6.874z"/><g id="Group_8" transform="translate(277.292 24.137)"><path id="Path_80" class="st5" d="M26.653 55.083c-.106 2.6-3.743.887-8.51 5.673s-8.186-2.308-8.023-6.344c.106-2.6 3.743-.887 8.511-5.673s8.186 2.308 8.022 6.344z"/><path id="Path_81" class="st5" d="M34.218 5.007a9.705 9.705 0 013.44 5.9c.361 3.528-2.836 6.168-6.545 6.091a9.49 9.49 0 01-3.616-1.04 13.073 13.073 0 00-5.183-.945c-2.623-.042-6.865 1.494-6.885 6.581.017 6.358 4.476 7.789 6.885 7.747 1.774.04 3.537-.282 5.183-.946a9.47 9.47 0 013.616-1.04c3.71-.077 6.907 2.563 6.545 6.092a9.707 9.707 0 01-3.44 5.9c-5.887 4.5-10.009 4.959-13.425 5-6.586-.035-20.2-7.2-20.793-22.6C.57 8.217 13.516-.297 20.793.015c3.415.034 7.537.488 13.425 4.992z"/></g><path id="Path_82" class="st6" d="M174.907 41.002c-6.439 0-6.833 4.512-6.788 4.514a67.499 67.499 0 001.34 15.653c.821 4.051-1.413 7.311-5.479 7.311s-8.417-3.26-9.238-7.311a67.505 67.505 0 01-.18-26.182c.828-4.364 5.382-7.627 9.735-7.628 2.745 0 4.508 1.087 5.374 3.191 4.2-3.5 7.424-3.781 8.721-3.785h1.218c4.072 0 5.065 2.959 4.2 7.108-.826 3.946-3.214 7.131-7.281 7.129h-1.622z"/><g id="Group_9" transform="translate(184.848 7.883)"><path id="Path_83" class="st7" d="M.444 28.126c-.925-6.348 2.141-8.649 4.886-8.65 4.353 0 8.907 3.264 9.735 7.628a67.5 67.5 0 01-.18 26.182c-.821 4.051-5.185 7.311-9.238 7.311s-6.3-3.259-5.479-7.311a55.1 55.1 0 001.34-14.123c.046-.002-.332-5.957-1.064-11.037z"/><path id="Path_84" class="st7" d="M16.259 8.129c0 4.2-3.388 10.31-8.129 10.422C3.389 18.439 0 12.329.001 8.129a8.129 8.129 0 0116.258 0z"/></g><path id="Path_85" class="st3" d="M237.782 45.841v14.7a7.349 7.349 0 01-7.346 7.352h-.006a7.164 7.164 0 01-6-3.1c-3.1 3.482-7.546 3.676-9.286 3.676-1.935 0-13.833-.581-13.833-13.737 0-7.255 4.837-11.222 13.253-11.222 3.225.062 6.383.926 9.19 2.515v-2.214c-.484-1.935-1.741-3.579-7.932-3.579-1.814.05-3.623.211-5.417.483a5.862 5.862 0 01-5.9-5.9 5.988 5.988 0 015.514-6c2.788-.405 5.599-.632 8.416-.677 11.898.003 19.347 6.967 19.347 17.703zm-15.538 10.145c.513-1.724-1.067-3.125-5.119-3.769-3.285-.522-3.864 1-4.046 2.139s.346 2.77 3.183 3.288c5.557 1.017 5.982-1.655 5.982-1.655v-.003z"/><path id="Path_86" class="st8" d="M352.131 45.841v14.7a7.349 7.349 0 01-7.346 7.352h-.006a7.163 7.163 0 01-6-3.1c-3.1 3.482-7.546 3.676-9.287 3.676-1.935 0-13.834-.581-13.834-13.737 0-7.255 4.837-11.222 13.253-11.222 3.225.062 6.383.926 9.19 2.515v-2.214c-.484-1.935-1.742-3.579-7.932-3.579-1.814.05-3.623.211-5.417.483a5.862 5.862 0 01-5.9-5.9 5.988 5.988 0 015.514-6c2.788-.405 5.6-.632 8.416-.677 11.9.003 19.349 6.967 19.349 17.703zm-15.538 10.145c.513-1.724-1.067-3.125-5.119-3.769-3.285-.522-3.864 1-4.046 2.139s.346 2.77 3.183 3.288c5.56 1.017 5.982-1.655 5.982-1.655v-.003z"/><path id="Path_87" class="st4" d="M277.709 61.226c.874 4.3-1.734 7.709-6.32 7.2-3.819-.422-7.561-3.6-8.3-7.3a66.987 66.987 0 01-1.234-17.167 2.663 2.663 0 00-2.908-2.747 7.792 7.792 0 00-5.769 3.052 66.968 66.968 0 001.223 16.726c.748 3.784-.955 7.039-4.589 7.441-4.233.471-9.1-2.922-9.965-7.21a66.965 66.965 0 01-.179-25.976c.774-4.115 5.127-7.441 9.273-7.562 2.919-.084 5.083.778 5.972 2.961 3.992-3.175 8.92-3.553 11.52-3.557 7.786-.006 11.084 5.881 10.278 13.719a67 67 0 00.998 20.42z"/></g><g id="Top_1_"><g id="Back_1_" transform="translate(29.222)"><g id="Grid_1_" transform="translate(189.003 101.486)"><path id="Path_88" class="st9" d="M0 12.002l99.9.4"/><path id="Path_89" class="st9" d="M0 18.001l99.9.4"/><path id="Path_90" class="st9" d="M0 24.001l99.9.4"/><path id="Path_91" class="st9" d="M0 30.002l99.9.4"/><path id="Path_92" class="st9" d="M0 42.399l.365-42.4"/><path id="Path_93" class="st9" d="M5.531 42.399l.365-42.4"/><path id="Path_94" class="st9" d="M11.06 42.399l.365-42.4"/><path id="Path_95" class="st9" d="M16.59 42.399l.365-42.4"/><path id="Path_96" class="st9" d="M22.12 42.399l.365-42.4"/><path id="Path_97" class="st9" d="M27.649 42.399l.365-42.4"/><path id="Path_98" class="st9" d="M33.179 42.399l.365-42.4"/><path id="Path_99" class="st9" d="M38.709 42.399l.365-42.4"/><path id="Path_100" class="st9" d="M44.239 42.399l.365-42.4"/><path id="Path_101" class="st9" d="M49.769 42.399l.365-42.4"/><path id="Path_102" class="st9" d="M55.299 42.399l.365-42.4"/><path id="Path_103" class="st9" d="M60.824 42.399l.365-42.4"/><path id="Path_104" class="st9" d="M66.358 42.399l.365-42.4"/><path id="Path_105" class="st9" d="M71.888 42.399l.365-42.4"/><path id="Path_106" class="st9" d="M77.418 42.399l.365-42.4"/><path id="Path_107" class="st9" d="M82.947 42.399l.365-42.4"/><path id="Path_108" class="st9" d="M88.478 42.399l.365-42.4"/><path id="Path_109" class="st9" d="M94.007 42.399l.365-42.4"/><path id="Path_110" class="st9" d="M99.537 42.399l.365-42.4"/><path id="Path_111" class="st9" d="M0 6l99.9.4"/><path id="Path_112" class="st9" d="M0 0l99.9.4"/><path id="Path_113" class="st9" d="M0 36.002l99.9.4"/><path id="Path_114" class="st9" d="M0 42.003l99.9.4"/></g><g id="Group_10" transform="translate(156.395 79.735)"><path id="Wall_1_" d="M2.682 2.682v107.232h157.135V2.682H2.682zm109.511 51.223a6.322 6.322 0 01-6.322 6.322H53.586a6.322 6.322 0 01-6.322-6.322v-21.4a6.322 6.322 0 016.322-6.322h52.283a6.322 6.322 0 016.322 6.322l.002 21.4z" fill="#8918b3"/><path id="Path_115" class="st2" d="M162.498 112.59H-.002V0h162.5v112.59zM5.363 107.232h151.772V5.363H5.363v101.869zm100.505-44.319H53.586a9.013 9.013 0 01-9-9v-21.4a9.013 9.013 0 019-9h52.282a9.013 9.013 0 019 9v21.4a9.013 9.013 0 01-8.999 8.995l-.001.005zM53.586 28.871a3.644 3.644 0 00-3.64 3.64v21.4a3.644 3.644 0 003.64 3.64h52.282a3.644 3.644 0 003.64-3.64v-21.4a3.644 3.644 0 00-3.64-3.64H53.586z"/></g><g id="_x30_3_Tower_1_" transform="translate(284.457)"><path id="Path_116" class="st2" d="M50.612 59.473c-5.689-6.87-14.7-7.56-17.465-7.6a23.823 23.823 0 00-3.645-.276 20.4 20.4 0 00-12.46 3.935c-4.94 3.742-7.644 9.6-8.041 17.4-1.174 23.093-.447 58.67 2.047 100.176.695 11.563 9.985 17.612 18.8 17.612 9.413 0 18.94-6.689 18.94-19.474 0-18.164 1.984-73.036 5.659-92.4 1.512-7.958.221-14.475-3.835-19.373z"/><path id="Path_117" class="st2" d="M64.396 63.307a50.075 50.075 0 00-2.172-11.381l-.019-.07a153.23 153.23 0 01-.665-2.47C59.898 43 50.483 11.341 49.545 8.306 47.807 2.225 41.469-1.297 35.388.441c-3.148.899-5.76 3.102-7.177 6.052l-24.2 41.949-.113.2a37.711 37.711 0 00-3.369 8.631c-1.3 5.088-.18 10.1 3.331 14.912 4.953 6.782 13.455 11.234 23.94 12.536a51.427 51.427 0 006.224.392 44.249 44.249 0 0014.838-2.481c5.181-1.841 10.855-4.433 13.646-9.7a18.383 18.383 0 001.888-9.625z"/><path id="Path_118" d="M32.542 58.844s18.755-.779 15.059 18.7c-3.955 20.84-5.78 77.273-5.78 93.7s-22.916 16.417-23.816 1.444c-2.354-39.168-3.254-75.581-2.043-99.4.913-17.955 16.58-14.444 16.58-14.444z" fill="#dc1947"/><path id="Path_119" class="st2" d="M33.886 81.975a47.564 47.564 0 01-5.729-.361c-9.627-1.194-17.425-5.272-21.959-11.48-3.188-4.365-.931-8.258.246-12.863a34.635 34.635 0 013.095-7.926l.052-.1 21.853-36.389c1.931-3.664 2.761-5.844 6.646-5.844 4.51 0 5.842 2.334 7.215 6.782.871 2.819 8.955 29.587 10.474 35.493.2.788 3.13 9.039 3.295 12.844.149 3.423.9 6.281-.4 8.736-2.53 4.778-6.405 7.141-11.144 8.824a40.647 40.647 0 01-13.644 2.284z"/><path id="top_7_" class="st6" d="M42.885 10.363c.881 2.854 10.306 34.543 11.9 40.759 1.058 4.114 2.458 8.209 2.643 12.488a11.874 11.874 0 01-1.088 6.061c-1.769 3.341-6.41 5.186-9.819 6.4a37.79 37.79 0 01-13.82 2.059 43.372 43.372 0 01-4.05-.318c-7.147-.887-14.774-3.709-19.171-9.728-2-2.732-3.066-5.716-2.208-9.075a30.627 30.627 0 012.775-7.093L34.314 9.864c2.207-4.341 7.341-3.49 8.571.499z"/></g><g id="_x30_4_Tower_1_" transform="translate(123.256)"><path id="Path_120" class="st2" d="M55.42 72.928c-.4-7.8-3.1-13.655-8.041-17.4a20.4 20.4 0 00-12.46-3.935c-1.22-.001-2.439.09-3.645.276-2.762.041-11.776.731-17.464 7.6-4.056 4.9-5.348 11.415-3.838 19.367 3.675 19.366 5.658 74.238 5.658 92.4 0 12.782 9.528 19.472 18.94 19.474 8.817 0 18.106-6.049 18.8-17.612 2.497-41.497 3.224-77.073 2.05-100.17z"/><path id="Path_121" class="st2" d="M63.899 57.278a37.729 37.729 0 00-3.37-8.633l-.068-.126L36.231 6.53A11.674 11.674 0 0025.872 0a11.551 11.551 0 00-11 8.306C13.933 11.349 4.51 43.038 2.877 49.384c-.212.824-.438 1.647-.666 2.471l-.019.07A50.063 50.063 0 00.02 63.305c-.254 3.32.4 6.647 1.891 9.625 2.792 5.272 8.465 7.864 13.647 9.7a44.226 44.226 0 0014.841 2.486 51.047 51.047 0 006.224-.392c10.485-1.3 18.988-5.753 23.941-12.535 3.513-4.807 4.635-9.825 3.335-14.911z"/><path id="Path_122" class="st6" d="M31.875 58.844s-18.755-.779-15.059 18.7c3.955 20.84 5.78 77.273 5.78 93.7s22.916 16.417 23.816 1.444c2.354-39.168 3.254-75.581 2.043-99.4-.909-17.955-16.58-14.444-16.58-14.444z"/><path id="Path_123" class="st2" d="M30.53 81.975a47.566 47.566 0 005.729-.361 30.329 30.329 0 0021.3-12.135c3.188-4.365 1.586-8.258.409-12.863a34.64 34.64 0 00-3.095-7.926l-.052-.1-22.503-37.041c-1.931-3.664-2.761-5.189-6.646-5.189-4.51 0-5.187 2.989-6.56 7.437-.871 2.819-9.61 30.242-11.129 36.149-.2.788-.42 1.576-.637 2.365a46.826 46.826 0 00-2 10.479 16.681 16.681 0 001.711 8.736c2.53 4.778 5.095 6.486 9.834 8.168a40.664 40.664 0 0013.639 2.281z"/><path id="top_6_" class="st3" d="M21.537 10.363c-.881 2.854-10.306 34.543-11.9 40.759-1.058 4.114-2.458 8.209-2.643 12.488a11.872 11.872 0 001.079 6.064c1.769 3.341 6.41 5.186 9.819 6.4a37.79 37.79 0 0013.82 2.059 43.375 43.375 0 004.05-.318c7.146-.887 14.774-3.709 19.17-9.728 2-2.732 3.066-5.716 2.208-9.075a30.624 30.624 0 00-2.776-7.093L30.108 9.864c-2.207-4.341-7.341-3.49-8.571.499z"/></g><g id="Group_11" transform="translate(0 99.725)"><path id="Stairs_2_" class="st8" d="M3.281 83.993l85.811-54.811-12.6-19.727c0 .014.005.033.006.047a48.659 48.659 0 00-18.68.471l-.018.014c-.73 6.22-.57 12.514.476 18.689a48.682 48.682 0 00-18.7.476 66.03 66.03 0 00.476 18.7 48.576 48.576 0 00-18.7.476 66.03 66.03 0 00.476 18.7 48.586 48.586 0 00-18.7.476 65.081 65.081 0 00.153 16.489z"/><path id="Path_124" class="st2" d="M1.175 88.521l-.552-4.176a68.17 68.17 0 01-.153-17.17l.231-1.888 1.858-.406a51.137 51.137 0 0116.132-.975 67.767 67.767 0 010-15.9l.23-1.889 1.859-.407a51.17 51.17 0 0116.132-.976 67.763 67.763 0 010-15.9l.231-1.89 1.861-.406a51.293 51.293 0 0116.13-.975 67.67 67.67 0 010-15.9l.135-1.1 1.358-1.062.618-.145a51.31 51.31 0 0116.505-.929L73.631.004l19.16 30L1.175 88.521zm4.416-18.775a60.615 60.615 0 00-.077 9.642l15.349-9.8a45.8 45.8 0 00-15.272.158zm18.223-19.175a63.544 63.544 0 00.663 16.022l.1.615 60.811-38.843L74.914 11.97a45.8 45.8 0 00-14.656.253 64.485 64.485 0 00.661 16.021l.6 3.69-3.688-.613a45.943 45.943 0 00-15.8.077 63.53 63.53 0 00.663 16.02l.6 3.69-3.687-.613a45.876 45.876 0 00-15.793.076z"/></g><g id="Group_12" transform="translate(377.067 99.724)"><path id="Stairs_1_" class="st8" d="M89.514 83.994L3.703 29.183l12.6-19.727c0 .014-.005.033-.006.047a48.66 48.66 0 0118.68.471l.018.014c.73 6.22.569 12.513-.476 18.689a48.68 48.68 0 0118.7.476c.73 6.224.57 12.52-.476 18.7a48.577 48.577 0 0118.7.476c.73 6.224.57 12.52-.476 18.7a48.586 48.586 0 0118.7.476 65.078 65.078 0 01-.153 16.489z"/><path id="Path_125" class="st2" d="M91.621 88.522L0 30 19.16 0l-.119 6.423a51.34 51.34 0 0116.505.929l.591.128 1.366 1.054.154 1.128a67.663 67.663 0 010 15.9 51.312 51.312 0 0116.13.975l1.86.406.231 1.89a67.735 67.735 0 010 15.9 51.2 51.2 0 0116.132.976l1.859.407.23 1.889a67.75 67.75 0 010 15.9 51.17 51.17 0 0116.132.975l1.858.407.231 1.888a68.2 68.2 0 01-.153 17.17l-.546 4.177zM71.938 69.585l15.35 9.8c.227-3.211.2-6.436-.083-9.643a45.839 45.839 0 00-15.267-.157zM7.407 28.362l60.811 38.843.1-.615a63.55 63.55 0 00.663-16.022 45.848 45.848 0 00-15.8-.076l-3.687.613.6-3.69a63.56 63.56 0 00.663-16.02 45.943 45.943 0 00-15.8-.077l-3.688.613.6-3.69a64.456 64.456 0 00.661-16.021 45.835 45.835 0 00-14.656-.253L7.407 28.362z"/></g><path id="Path_126" class="st12" d="M144.923 84.298c3.49 31.61 3.8 63.308 4.345 87.087a485.764 485.764 0 00-.236-86.551l-4.109-.536z"/><path id="Path_127" class="st12" d="M308.202 85.371c-2.289 31.583-2.19 63.351-2.736 87.087 0 0-3.186-42.052-1.909-88.7l4.645 1.613z"/><path id="Path_128" class="st12" d="M133.339 62.374s11.366-40.53 13.177-45.47c1.837-5.011 5.146-4.288 6.887 0 0 0-3.682-.653-7.279 8.958-1.085 2.899-12.785 36.512-12.785 36.512z"/><path id="Path_129" class="st12" d="M295.434 58.278s20.509-36.76 23.422-41.14c2.955-4.444 6-2.97 6.7 1.607 0 0-3.429-1.494-9.168 7.012-1.733 2.565-20.954 32.521-20.954 32.521z"/><g id="Group_13" transform="translate(68.542 37.154)"><path id="Path_130" class="st8" d="M272.151 33.173l3.083-8.687c.656-1.836-.586-3.959-2.785-4.707a326.574 326.574 0 00-24.781-7.362c-2.238-.571-4.425.533-4.878 2.429l-2.162 8.961a3.811 3.811 0 01-4.686 2.529 312.078 312.078 0 00-18.472-3.623 3.8 3.8 0 01-3.37-4.109l1.386-9.113c.3-1.927-1.3-3.774-3.58-4.089a327.905 327.905 0 00-25.524-2.538c-2.291-.138-4.219 1.357-4.308 3.3l-.438 9.207a3.8 3.8 0 01-4.1 3.365 311.985 311.985 0 00-18.741-.091 3.8 3.8 0 01-4.071-3.4l-.349-9.211c-.069-1.948-1.984-3.462-4.275-3.346-8.525.43-17.03 1.192-25.514 2.287-2.279.294-3.9 2.124-3.618 4.054.432 3.042.865 6.084 1.3 9.126a3.8 3.8 0 01-3.409 4.076 311.896 311.896 0 00-18.507 3.442 3.81 3.81 0 01-4.659-2.575l-2.074-8.981c-.434-1.9-2.61-3.025-4.852-2.477a328.476 328.476 0 00-24.819 7.107c-2.2.726-3.466 2.836-2.828 4.678l3 8.717a3.828 3.828 0 01-2.618 4.661A311.889 311.889 0 003.687 64.507l16.968 27.69c89.59-54.9 202.405-54.9 291.995 0l16.968-27.69a311.882 311.882 0 00-54.891-26.645 3.831 3.831 0 01-2.576-4.689z"/><path id="Path_131" class="st2" d="M313.536 95.888l-2.286-1.4c-88.73-54.374-200.463-54.374-289.193 0l-2.286 1.4L0 63.624l2.287-1.4a315.3 315.3 0 0158.3-27.946c.722-.259 1.116-.885.984-1.272l-2.994-8.711a5.86 5.86 0 01.328-4.54 7.168 7.168 0 014.2-3.556 333.353 333.353 0 0125.021-7.165 7.133 7.133 0 015.414.793 5.872 5.872 0 012.689 3.693l2.072 8.975c.091.391.744.715 1.478.558a316.819 316.819 0 0118.665-3.472c.734-.114 1.22-.651 1.163-1.054l-1.3-9.12a5.871 5.871 0 011.182-4.411 7.1 7.1 0 014.749-2.679c8.5-1.1 17.157-1.873 25.721-2.306a7.1 7.1 0 015.141 1.79 5.882 5.882 0 011.948 4.139l.349 9.2c.016.4.584.844 1.324.825a316.769 316.769 0 0118.9.091c.739.031 1.312-.411 1.332-.818l.438-9.2a5.879 5.879 0 011.989-4.114 7.1 7.1 0 015.159-1.74 332.728 332.728 0 0125.732 2.559 7.107 7.107 0 014.723 2.726 5.878 5.878 0 011.138 4.428l-1.386 9.106c-.06.4.422.939 1.156 1.06a315.702 315.702 0 0118.63 3.655c.734.167 1.389-.152 1.486-.549l2.16-8.955a5.866 5.866 0 012.723-3.659 7.137 7.137 0 015.424-.74 331.566 331.566 0 0124.983 7.422 7.174 7.174 0 014.164 3.6 5.861 5.861 0 01.281 4.549l-3.079 8.675c-.136.386.252 1.016.975 1.282a315.439 315.439 0 0155.372 26.881l2.286 1.4-19.771 32.264zM7.381 65.405l14.167 23.119c89.32-53.574 200.891-53.574 290.211 0l14.167-23.118a310.043 310.043 0 00-52.129-25.029 6.527 6.527 0 01-4.175-8.094v-.006l3.083-8.687a.569.569 0 00-.059-.418 1.82 1.82 0 00-1.062-.854 326.333 326.333 0 00-24.578-7.3 1.785 1.785 0 00-1.327.133.58.58 0 00-.281.32l-2.163 8.967a6.512 6.512 0 01-7.887 4.515 310.22 310.22 0 00-18.315-3.592 6.5 6.5 0 01-5.586-7.152l1.387-9.119a.585.585 0 00-.139-.414 1.75 1.75 0 00-1.158-.616 327.481 327.481 0 00-25.317-2.518 1.75 1.75 0 00-1.25.374.588.588 0 00-.218.375l-.438 9.213a6.483 6.483 0 01-6.875 5.918 311.173 311.173 0 00-18.582-.09 6.485 6.485 0 01-6.818-5.979l-.349-9.216a.585.585 0 00-.215-.383 1.733 1.733 0 00-1.245-.386 327.272 327.272 0 00-25.306 2.268 1.75 1.75 0 00-1.164.6.582.582 0 00-.143.407l1.3 9.132a6.5 6.5 0 01-5.652 7.1c-6.13.95-12.3 2.1-18.348 3.413a6.508 6.508 0 01-7.841-4.586L91 14.714a.578.578 0 00-.279-.329 1.772 1.772 0 00-1.323-.146 326.893 326.893 0 00-24.616 7.049 1.815 1.815 0 00-1.068.841.572.572 0 00-.065.412l3 8.723a6.528 6.528 0 01-4.248 8.057 309.926 309.926 0 00-55.02 26.084z"/></g><path id="castle_7_" class="st13" d="M276.334 46.349l-12.085-1.34c-2.172-.241-5.118-.841-7.168.211-2.493 1.28-1.851 5.253-2.105 7.568a9.817 9.817 0 01-2.029 5.483c-2.42 2.762-6 2.328-9.284 2.313-3.006-.013-6.012-.02-9.019-.02h-8.076c-1.473 0-3.008.138-4.477.022 3.821.303 7.643.594 11.466.874 2.907.213 5.815.422 8.723.61 2.87.185 5.946.606 8.746-.215a7.2 7.2 0 002.405-1.193 8.984 8.984 0 002.945-5.186c.456-1.976.539-4.018.871-6.018.073-.791.36-1.548.829-2.189a4.025 4.025 0 013.3-1.047c4.963.231 9.975.031 14.958.127z"/><path id="castle_6_" class="st13" d="M215.641 44.591l-12.119.99c-2.178.178-5.184.15-7 1.574-2.2 1.732-.815 5.51-.623 7.83a9.82 9.82 0 01-.947 5.769c-1.849 3.172-5.445 3.429-8.672 4.041a3469.644 3469.644 0 00-16.784 3.243c-1.445.284-2.927.71-4.39.875 3.81-.432 7.617-.875 11.422-1.328 2.895-.345 5.788-.7 8.68-1.065 2.853-.366 5.952-.539 8.545-1.879a7.21 7.21 0 002.134-1.629 8.981 8.981 0 001.9-5.652c.07-2.027-.237-4.047-.293-6.074a4.383 4.383 0 01.4-2.307 4.026 4.026 0 013.042-1.658c4.913-.722 9.794-1.871 14.705-2.73z"/><path id="castle_5_" class="st13" d="M156.131 54.399l-11.768 3.061c-2.115.55-5.081 1.04-6.621 2.755-1.872 2.085.145 5.568.734 7.821a9.818 9.818 0 01.061 5.846c-1.275 3.443-4.773 4.315-7.847 5.474a3521.185 3521.185 0 00-15.975 6.084c-1.375.528-2.761 1.2-4.174 1.618 3.677-1.08 7.352-2.172 11.023-3.275 2.792-.838 5.581-1.686 8.367-2.543 2.747-.851 5.77-1.555 8.094-3.322a7.208 7.208 0 001.822-1.973 8.982 8.982 0 00.9-5.9c-.279-2.009-.93-3.945-1.334-5.933a4.386 4.386 0 01-.008-2.341 4.024 4.024 0 012.71-2.157c4.716-1.551 9.326-3.526 14.016-5.215z"/><path id="castle_4_" class="st13" d="M336.862 60.612l-11.6-3.648c-2.085-.655-4.859-1.814-7.074-1.177-2.693.774-2.83 4.8-3.527 7.018a9.82 9.82 0 01-3.05 4.988c-2.908 2.242-6.335 1.126-9.556.477a3471.49 3471.49 0 00-16.77-3.319c-1.445-.282-2.978-.445-4.4-.843 3.691 1.035 7.385 2.059 11.082 3.072 2.81.77 5.625 1.532 8.442 2.283 2.78.736 5.717 1.743 8.624 1.478a7.2 7.2 0 002.59-.706 8.983 8.983 0 003.891-4.52c.83-1.851 1.3-3.838 2.017-5.737a4.383 4.383 0 011.236-1.988 4.023 4.023 0 013.442-.39c4.826 1.185 9.781 1.956 14.653 3.012z"/></g><g id="Front_1_" transform="translate(0 31.87)"><path id="_x30_1_BG_1_" class="st2" d="M479.279 124.937a89.938 89.938 0 00-11.792.931c-1.287.154-2.552.46-3.768.909a13.654 13.654 0 00-9.108-3.1h-1.593a22.423 22.423 0 00-10.179 2.649 16.305 16.305 0 00-7.9-1.886c-2.216.002-4.417.37-6.514 1.087.757-14.365 2-32.758 3.792-43.622 3.955-2.057 6.68-4.57 8.319-7.666a19.233 19.233 0 001.994-10.081 51.716 51.716 0 00-2.219-11.636c-.226-.824-.453-1.647-.664-2.469-1.648-6.383-11.07-38.076-12.008-41.116-1.882-6.552-8.718-10.338-15.27-8.457a12.343 12.343 0 00-7.697 6.473L380.399 49.02l-.054.1a38.58 38.58 0 00-3.445 8.827c-1.37 5.358-.2 10.627 3.475 15.66a27.315 27.315 0 004.765 5c-.5 13.53-.448 30.441.165 50.31a41.126 41.126 0 00-24.485-5.958 30.7 30.7 0 00-12.987 3.687 85.615 85.615 0 00-1.069-8.741l-.027-.145a16.5 16.5 0 00-16.309-13.073 16.844 16.844 0 00-3.651.394c-8.567 1.845-14.66 8.972-14.486 16.954v.113c.05 1.308.089 2.67.122 4.068-.934-.1-1.929-.156-3.037-.18-.36-.01-.722-.016-1.084-.016-8.858 0-16.558 3.127-21.692 8.808-5.9-6.392-14.744-9.893-25.086-9.893-3.946.05-7.885.362-11.79.93a16.1 16.1 0 00-9 4.086 18.12 18.12 0 00-1.614-1.441l-.085-.066c-9.049-6.925-15.842-7.957-21.808-8.041a19.086 19.086 0 00-.72-.012c-7.736 0-16.81 4.424-23.518 11.381a19.299 19.299 0 00-1.157-1.413c-2.664-2.952-7.547-6.471-15.675-6.471a34.107 34.107 0 00-13.65 2.675 18.426 18.426 0 00-8.32-1.916 19.634 19.634 0 00-6.636 1.116c.53-18.78.548-34.81.05-47.684a27.124 27.124 0 004.13-4.47c3.676-5.033 4.845-10.3 3.475-15.661a38.511 38.511 0 00-3.444-8.825l-.079-.148-24.226-41.98c-2.956-6.145-10.333-8.73-16.477-5.774a12.346 12.346 0 00-6.514 7.714c-.938 3.038-10.363 34.731-12.006 41.119-.216.841-.448 1.68-.681 2.527a51.5 51.5 0 00-2.2 11.579 19.245 19.245 0 001.994 10.082c1.731 3.267 4.69 5.9 9.033 8.024 1.705 10.576 2.9 28.018 3.634 41.413h-.191a22.432 22.432 0 00-10.18 2.649 16.3 16.3 0 00-7.9-1.886 20.882 20.882 0 00-11.246 3.366c-1.378-10.444-6.76-16.28-11.194-19.382-6.777-4.741-14.908-5.736-20.536-5.736H22.592a20.432 20.432 0 00-19.105 14.948 127.174 127.174 0 00.012 59.207c2.066 8.345 10.455 14.887 19.1 14.9h22.558c9.486 0 17.584-2.769 23.539-8.027a20.893 20.893 0 0016.855 9.283 14.822 14.822 0 0011.741-5.348 16.1 16.1 0 003-13.486 78.99 78.99 0 01-1.6-16.418c.299-.034.6-.05.9-.049h2.092a16.86 16.86 0 003.9-.454c.156 5.927.241 11.167.241 14.893 0 13.371 9.978 20.367 19.834 20.367a20.3 20.3 0 0014.091-5.665 20.484 20.484 0 0014.029 5.948c.631.001 1.262-.032 1.89-.1a14.378 14.378 0 0010.17-5.76 14.71 14.71 0 001.556-2.673 20.993 20.993 0 0014.268 8.425c.664.074 1.332.111 2 .112 4.51.104 8.82-1.86 11.7-5.332a14.2 14.2 0 001.544-2.329c6.181 4.907 13.736 7.927 20.115 7.961h.072c5.95-.072 12.681-1.072 21.6-7.79a22.866 22.866 0 004.96 3.711 29.1 29.1 0 0013.64 3.478 25.313 25.313 0 0011.7-2.635 17.39 17.39 0 0021.944-5.267 26.555 26.555 0 0018.644 7.9c3.79.126 7.548-.71 10.927-2.43a16.71 16.71 0 007.344 1.684 16.948 16.948 0 0013.225-6.528c5.406 6.037 13.25 9.1 23.345 9.1 1.227 0 2.5-.046 3.8-.136a45.186 45.186 0 0019.874-5.689 21.29 21.29 0 003.918-2.7c7.516 8.338 20.364 9.013 28.712 1.508a20.618 20.618 0 0013.815 5.71 14.825 14.825 0 0011.742-5.35 16.1 16.1 0 003-13.485 78.99 78.99 0 01-1.6-16.418c.299-.034.6-.05.9-.049h2.092c.175 0 .35-.003.526-.009a23.708 23.708 0 00-1.767 9.288c0 9.905 4.26 17.73 11.994 22.033a29.106 29.106 0 0013.641 3.478 25.3 25.3 0 0011.7-2.636c8.552 4.342 19.006.929 23.348-7.623a17.367 17.367 0 001.881-7.806v-18.89c0-18.306-13.15-30.605-32.72-30.605zm-256.702 32.54a9.25 9.25 0 01-3.755.612c-.4 0-.846 0-.851-2.058 0-.527 0-.623.9-.623a9.1 9.1 0 013.708.612c.701.281 1.422.511 2.156.688a21.59 21.59 0 00-2.158.769z"/><g id="_x30_1_Brincadeira_1_" transform="translate(7.844 110.554)"><path id="Path_132" class="st3" d="M35.135 0c10.551-.012 24.068 4.072 24.2 22.237-.028 4.351-1.548 9.57-5.39 12.93 5.2 2.368 8.91 8.206 8.9 16.159-.114 8.577-5.977 22.026-25.6 22H14.754c-4.919 0-10.246-3.994-11.466-8.922a118.644 118.644 0 010-55.479C4.508 3.998 9.836.007 14.754.003L35.135 0zm-9.192 29.265c4.049.008 9.858.06 9.858-6.256 0-6.252-4.774-6.834-9.858-6.85-3.853-.011-7.129 2.69-7.129 6.539.226 4.411 3.134 6.179 7.129 6.567-.048-.005.048 0 0 0zm3.7 28.888c4.05-.013 9.788-1.536 9.513-7.564-.221-5.2-5.886-7.358-10.371-7.35-1.442 0-1.574.005-3.015.008-4.042.006-7.837 3.871-7.527 7.815.31 3.943 4.527 7.118 8.472 7.105 1.414-.005 1.516-.01 2.929-.014h-.001z"/><path id="Path_133" class="st4" d="M91.742 39.278c-8.272 0-8.779 5.8-8.721 5.8a86.689 86.689 0 001.722 20.11c1.054 5.205-1.815 9.393-7.039 9.392-5.207 0-10.813-4.188-11.867-9.392a86.722 86.722 0 01-.232-33.635c1.064-5.606 6.914-9.8 12.507-9.8 3.527 0 5.792 1.4 6.9 4.1 5.4-4.5 9.537-4.857 11.2-4.863h1.569c5.231 0 6.507 3.8 5.4 9.132-1.061 5.069-4.128 9.161-9.354 9.158l-2.085-.002z"/><path id="Path_134" class="st3" d="M440.724 39.278c-8.272 0-8.778 5.8-8.721 5.8a86.69 86.69 0 001.722 20.11c1.055 5.205-1.815 9.393-7.04 9.392-5.206 0-10.812-4.188-11.866-9.392a86.722 86.722 0 01-.232-33.635c1.064-5.606 6.914-9.8 12.507-9.8 3.528 0 5.792 1.4 6.9 4.1 5.4-4.5 9.537-4.857 11.2-4.863h1.565c5.231 0 6.507 3.8 5.4 9.132-1.06 5.069-4.128 9.161-9.354 9.158l-2.081-.002z"/><path id="Path_135" class="st8" d="M182.799 65.05c1.123 5.53-2.228 9.9-8.118 9.254-4.906-.542-9.714-4.623-10.665-9.377a86.029 86.029 0 01-1.585-22.054c.16-2.616-2.175-3.528-3.735-3.528-4.555 0-7.438 3.919-7.412 3.921a86.026 86.026 0 001.571 21.487c.961 4.861-1.227 9.043-5.9 9.56-5.437.605-11.685-3.754-12.8-9.262a86.027 86.027 0 01-.23-33.371c.995-5.286 6.586-9.558 11.913-9.715 3.75-.108 6.53 1 7.672 3.8 5.129-4.078 11.46-4.564 14.8-4.569 10-.008 14.239 7.555 13.2 17.624a86.028 86.028 0 001.289 26.23z"/><path id="Path_136" class="st3" d="M226.401 24.141a12.468 12.468 0 014.42 7.576c.464 4.532-3.643 7.924-8.409 7.825a12.194 12.194 0 01-4.646-1.336 16.792 16.792 0 00-6.658-1.214c-3.37-.054-8.819 1.919-8.846 8.454.021 8.168 5.749 10.006 8.846 9.953a16.8 16.8 0 006.658-1.215 12.18 12.18 0 014.646-1.336c4.766-.1 8.873 3.293 8.409 7.826a12.47 12.47 0 01-4.42 7.576c-7.563 5.786-12.859 6.371-17.247 6.424-8.461-.045-25.948-9.254-26.712-29.038.732-17.381 17.364-28.319 26.712-27.919 4.389.049 9.684.632 17.247 6.424z"/><path id="Path_137" class="st6" d="M278.528 44.987v18.89a9.441 9.441 0 01-9.437 9.445h-.007a9.2 9.2 0 01-7.7-3.977c-3.977 4.474-9.694 4.723-11.931 4.723-2.486 0-17.772-.746-17.772-17.647 0-9.321 6.214-14.416 17.026-14.416 4.143.08 8.2 1.19 11.806 3.231v-2.858c-.622-2.485-2.237-4.6-10.191-4.6-2.33.064-4.654.272-6.959.621a7.532 7.532 0 01-7.58-7.581 7.693 7.693 0 017.084-7.705 84.64 84.64 0 0110.812-.869c15.28.001 24.849 8.948 24.849 22.743zm-19.381 13.325c.693-2.33-1.441-4.222-6.915-5.092-4.439-.706-5.22 1.346-5.466 2.89s.468 3.742 4.3 4.442c7.506 1.368 8.081-2.24 8.081-2.24z"/><path id="Path_138" class="st6" d="M496.29 44.987v18.89a9.441 9.441 0 01-9.437 9.445h-.008a9.2 9.2 0 01-7.7-3.977c-3.977 4.474-9.694 4.723-11.931 4.723-2.486 0-17.772-.746-17.772-17.647 0-9.321 6.214-14.416 17.026-14.416 4.143.08 8.2 1.19 11.806 3.231v-2.858c-.622-2.485-2.237-4.6-10.191-4.6-2.33.064-4.654.272-6.959.621a7.531 7.531 0 01-7.58-7.581 7.693 7.693 0 017.077-7.706 84.64 84.64 0 0110.812-.869c15.288.002 24.857 8.949 24.857 22.744zM476.329 58.02c.659-2.216-1.37-4.015-6.576-4.843-4.22-.671-4.964 1.28-5.2 2.748s.445 3.559 4.088 4.224c7.142 1.305 7.688-2.128 7.688-2.128v-.001z"/><path id="Path_139" class="st7" d="M312.307 11.303c-.1-4.388 3.638-8.088 8.28-9.088 4.585-1.018 9.618 1.593 10.591 6.516 3.134 17.772-.552 36.624-1.785 55.088-.385 5.28-4.408 9.5-9.39 9.5a8.622 8.622 0 01-7.338-3.98c-3.357 4.356-7.727 4.724-10.937 4.726-8.549-.025-19.129-5.991-21.6-27.021-1.95-18.09 10.181-24.031 21.174-23.7a17.484 17.484 0 0111.228 3.648c.02-5.388-.034-10.636-.223-15.689zm-2.009 42.624c2.079-3.1 2.532-8.265.26-11.4a6.2 6.2 0 00-5.31-2.5c-1.935.012-6.551 1.507-6.406 7.386.194 7.376 5.223 9.147 7.051 9.136a6.063 6.063 0 004.405-2.623v.001z"/><path id="Path_140" class="st5" d="M359.825 75.773c-20.083 1.409-26.4-9.974-27.19-25.729-.599-15.363 4.988-28.691 20.884-29.794 15.139-1.122 30.26 8.541 31.374 21.7.436 4.889-3.513 9.3-8.1 10.661-3.379 1.007-8.228 1.035-12.555 1.2-3.965.151-8.947-.331-10.728.616-1.387.739-1.781 2.195-.847 3.11 1.275 1.123 3.869 1.675 9.576 1.259 3.654-.266 8.321-1.873 11.547-2.513 4.714-1.037 8.191 1.667 8.4 6.343.15 3.684-2.5 6.668-5.675 8.38a37.528 37.528 0 01-16.686 4.767zm3.9-33.3c1.909-.3 2.143-2.51 1.26-3.712-1.653-2.249-3.982-2.785-6.7-2.583-2.423.181-4.567 1.21-5.42 3.621-.44 1.24-.1 3.154 2.04 3.15 2.932-.002 5.907-.257 8.822-.473l-.002-.003z"/></g><g id="_x30_2_Tower_1_" transform="translate(379.939 4.334)"><path id="Path_141" class="st4" d="M29.845 55.404s18.755-.779 15.059 18.7c-3.955 20.84-5.78 77.273-5.78 93.7s-22.916 16.417-23.816 1.444c-2.354-39.168-3.254-75.581-2.043-99.4.912-17.955 16.58-14.444 16.58-14.444z"/><path id="Path_142" class="st2" d="M31.191 78.236a47.564 47.564 0 01-5.729-.361c-9.627-1.194-17.425-5.272-21.959-11.48C.315 62.03-.705 57.482.473 52.877a34.628 34.628 0 013.095-7.926l.051-.1 22.509-39.01C28.56.733 34.673-1.436 39.78.996a10.244 10.244 0 015.447 6.438c.87 2.819 9.61 32.208 11.129 38.114.2.788.419 1.576.637 2.365a46.83 46.83 0 012 10.479 16.681 16.681 0 01-1.711 8.736c-2.53 4.778-7.716 7.141-12.455 8.824a40.663 40.663 0 01-13.637 2.284z"/><path id="top_4_" class="st5" d="M40.185 6.923c.881 2.854 10.305 34.543 11.9 40.759 1.058 4.114 2.458 8.209 2.643 12.488a11.873 11.873 0 01-1.088 6.061c-1.769 3.341-6.41 5.186-9.819 6.4a37.79 37.79 0 01-13.82 2.059 43.596 43.596 0 01-4.05-.317c-7.147-.887-14.774-3.709-19.171-9.728-2-2.732-3.066-5.716-2.208-9.075a30.628 30.628 0 012.776-7.093L31.609 6.429c2.213-4.346 7.346-3.491 8.576.494z"/></g><g id="_x30_1_Tower_1_" transform="translate(93.129 4.334)"><path id="Path_143" class="st5" d="M29.836 55.404s-18.755-.779-15.059 18.7c3.955 20.84 5.78 77.273 5.78 93.7s22.916 16.417 23.816 1.444c2.354-39.168 3.254-75.581 2.043-99.4-.916-17.955-16.58-14.444-16.58-14.444z"/><path id="Path_144" class="st2" d="M27.832 78.236a40.667 40.667 0 01-13.643-2.281c-4.74-1.682-9.925-4.047-12.455-8.823a16.684 16.684 0 01-1.711-8.737 46.857 46.857 0 012-10.479c.217-.788.434-1.576.637-2.365 1.519-5.906 10.258-35.295 11.129-38.114 1.552-5.44 7.221-8.592 12.662-7.04a10.244 10.244 0 016.438 5.447l22.509 39.01.051.1a34.63 34.63 0 013.095 7.925c1.178 4.605.158 9.154-3.03 13.519-4.534 6.208-12.332 10.285-21.958 11.48-1.446.179-2.9.293-4.317.338-.467.013-.936.02-1.407.02z"/><path id="top_3_" class="st4" d="M18.839 6.923c-.881 2.854-10.306 34.543-11.9 40.759-1.058 4.114-2.458 8.209-2.643 12.488a11.873 11.873 0 001.088 6.061c1.769 3.341 6.41 5.186 9.819 6.4a37.791 37.791 0 0013.82 2.059 43.596 43.596 0 004.05-.317c7.146-.887 14.774-3.709 19.171-9.728 2-2.732 3.066-5.716 2.208-9.075a30.623 30.623 0 00-2.775-7.093L27.41 6.424c-2.207-4.341-7.341-3.486-8.571.499z"/></g></g></g></g><g id="Shine_1_" transform="translate(9.965 45.921)"><path id="B_1_" class="st12" d="M37.637 100.611c-4.79-.596-9.609-.948-14.435-1.055a61.225 61.225 0 00-9.267.188 15.313 15.313 0 00-5.64 1.638 10.856 10.856 0 00-4 3.981c-2.342 3.916-2.986 8.666-3.541 13.114a97.36 97.36 0 00-.722 14.367c.083 3.488.372 6.972.71 10.443.329 3.378.789 6.739 1.381 10.082.38 2.144.809 4.278 1.274 6.405 0 0-.937-11.91-1.127-23.382a109.262 109.262 0 011.014-15.81c2.169-16.126 6.4-18.348 19.005-19.268 3.631-.261 10.098-.471 15.348-.703z"/><path id="r_5_" class="st12" d="M67.528 126.194c-6.36 11.038-.774 35.859-.774 35.859.173-14.007-.622-28.934 5.111-35.057 1.724-1.842 4.7-3.548 8.086-2.233-1.981-4.479-9.426-3.771-12.423 1.431z"/><path id="r_4_" class="st12" d="M416.678 126.191c-5.765 11.36-.774 35.859-.774 35.859.173-14.007-.622-29.47 5.111-35.593a7.233 7.233 0 018.086-1.7c-.62-3.192-8.901-5.502-12.423 1.434z"/><path id="r_3_" class="st12" d="M223.572 204.366c-4.443 8.755-.6 27.638-.6 27.638.134-10.8-.479-22.713 3.939-27.432a5.576 5.576 0 016.232-1.308c-.474-2.466-6.856-4.251-9.571 1.102z"/><path id="tower_5_" class="st12" d="M103.04 71.63c3.494 31.647 3.8 63.351 4.345 87.087a485.766 485.766 0 00-.236-86.551l-4.109-.536z"/><path id="tower_4_" class="st12" d="M391.283 71.63c-2.289 31.583-2.19 63.351-2.736 87.087 0 0-3.186-42.052-1.909-88.7l4.645 1.613z"/><path id="cone_3_" class="st12" d="M378.038 46.116s20.509-36.76 23.422-41.14c2.955-4.444 6-2.97 6.7 1.607 0 0-3.429-1.494-9.168 7.012-1.734 2.565-20.954 32.521-20.954 32.521z"/><path id="cone_2_" class="st12" d="M90.024 48.961s11.368-40.53 13.179-45.469c1.837-5.011 5.146-4.288 6.887 0 0 0-3.682-.653-7.279 8.958-1.085 2.898-12.787 36.511-12.787 36.511z"/><path id="n_3_" class="st12" d="M136.715 127.267c-5.327 10.723-.774 34.787-.774 34.787.173-14.007-.2-26.243 4.2-33.381 1.352-2.192 4.007-4.151 7.388-2.836-1.986-4.481-8.143-3.947-10.814 1.43z"/><path id="n_2_" class="st12" d="M308.993 204.508c-3.8 9.019-.827 27.383-.827 27.383.143-11.534.022-20.347 3.648-26.225a5.5 5.5 0 016.084-2.871c-1.639-3.687-7.221-2.279-8.905 1.713z"/><path id="c_5_" class="st12" d="M184.252 150.505a22.289 22.289 0 01-.193-16.131c3.044-7.833 10.2-15.209 19.4-17.208 10.12-2.2 15.947 3.579 15.947 3.579s-16.085-5.723-26.477 5.5c-11.33 12.227-8.677 24.26-8.677 24.26z"/><path id="c_4_" class="st12" d="M171.516 216.66a23.944 23.944 0 01-.207-17.328c3.27-8.415 10.957-16.338 20.837-18.485 10.872-2.362 17.131 3.845 17.131 3.845s-16.639-6.65-28.483 5.864c-12.308 13.006-9.278 26.104-9.278 26.104z"/><path id="c_3_" class="st12" d="M346.241 222.35a16.654 16.654 0 01-.153-12.366 21.959 21.959 0 0115.3-13.2c7.98-1.686 12.575 2.745 12.575 2.745s-12.607-4.594-21.3 4.339c-9.04 9.286-6.422 18.482-6.422 18.482z"/><path id="a_7_" class="st12" d="M235.739 127.116s-1.34-3.934 5.6-5.372 24.3-1.522 29.055 9.223c0 0-4.666-7.384-19.693-7.615-11.747-.179-14.962 3.764-14.962 3.764z"/><path id="a_6_" class="st12" d="M453.488 128.191s-1.34-5.007 5.6-6.445 24.3-1.522 29.055 9.223c0 0-4.666-7.384-19.693-7.615-11.747-.181-14.962 4.837-14.962 4.837z"/><path id="a_5_" class="st12" d="M272.378 205.637s-1.027-3.838 4.293-4.94 18.627-1.166 22.271 7.07c0 0-3.576-5.66-15.095-5.837-9.004-.139-11.469 3.707-11.469 3.707z"/><path id="a_4_" class="st12" d="M386.919 205.637s-1.027-3.838 4.293-4.94 18.627-1.166 22.271 7.07c0 0-3.576-5.66-15.095-5.837-9.001-.139-11.469 3.707-11.469 3.707z"/><path id="d_9_" class="st12" d="M281.05 146.793s-3.788-18.865 12.843-23.2c0 0 9.614-1.99 14.926 4.251-11.028-5.765-26.663-.098-27.769 18.949z"/><path id="d_8_" class="st12" d="M312.998 111.927v-2.484c-.2-9.18 11.319-8.4 12.48-3.433-6.244-3.913-11.613-.436-12.48 5.917z"/><path id="d_7_" class="st12" d="M76.134 220.272s-3.012-15 10.213-18.452c0 0 7.645-1.582 11.869 3.381-8.77-4.583-21.203-.077-22.082 15.071z"/><path id="d_6_" class="st12" d="M101.002 192.544v-1.975c-.158-7.3 9-6.678 9.924-2.73-4.964-3.111-9.234-.345-9.924 4.705z"/><path id="Path_145" class="st12" d="M333.208 145.186s-2.391-22.491 17.625-26.122c0 0 11.159-1.068 17.359 4.512.001-.001-27.81-14.787-34.984 21.61z"/><path id="Path_146" class="st12" d="M115.685 218.404s-1.938-18.224 14.281-21.167c0 0 9.043-.865 14.066 3.656 0 .001-22.534-11.98-28.347 17.511z"/><path id="d_5_" class="st12" d="M252.622 187.665c-.553-9.054 10.168-7.8 11.4-2.856-5.506-4.92-10.983-2.121-11.4 2.856z"/><path id="tower_3_" class="st12" d="M254.506 208.123c1.022 8.421 1.187 11.611-.123 22.327 0 0 2.569-9.182 1.542-22.783-.758-3.073-1.883-2.001-1.419.456z"/></g></g></g></svg>