<?xml version="1.0" encoding="utf-8"?>
<!-- Generator: Adobe Illustrator 24.0.3, SVG Export Plug-In . SVG Version: 6.00 Build 0)  -->
<svg version="1.1" id="Layer_1" xmlns="http://www.w3.org/2000/svg" xmlns:xlink="http://www.w3.org/1999/xlink" x="0px" y="0px"
	 viewBox="0 0 165 165" style="enable-background:new 0 0 165 165;" xml:space="preserve">
<style type="text/css">
	.st0{fill:#3E0538;}
	.st1{fill:#E7134E;}
	.st2{fill:#3FB94E;}
	.st3{fill:#1A86C9;}
	.st4{fill:#F76E1B;}
	.st5{fill:#FAC329;}
	.st6{fill:#FBC22C;}
	.st7{fill:none;stroke:#3E0538;stroke-width:0.8263;stroke-miterlimit:10;}
	.st8{fill:#8918B3;}
	.st9{fill:#DC1947;}
	.st10{opacity:0.8;fill:#FFFFFF;enable-background:new    ;}
	.st11{opacity:0.7;fill:#FFFFFF;enable-background:new    ;}
</style>
<g id="Logo_1_" transform="translate(-0.001 39)">
	<g id="Group_14" transform="translate(0.001)">
		<g id="Bottom_1_" transform="translate(29.735 84.436)">
			<g id="Group_7">
				<path id="Path_75" class="st0" d="M24.6-4.4c0.8-1,1.2-2.2,1.1-3.5c-0.4-4.3-4.7-7.7-9.7-7.7c-0.3,0-0.5,0-0.8,0
					c-0.9,0.1-1.8,0.3-2.7,0.6c0-0.4-0.1-0.7-0.2-1l0,0c-0.5-2.2-2.4-3.7-4.6-3.7c-0.3,0-0.7,0-1,0.1c-2.3,0.4-4,2.4-4,4.7
					c0,0,0,0.4,0,0.5c-0.1,0-0.2,0-0.2,0c-0.1,0-0.2,0-0.3,0c-2.2,0-4.3,0.8-5.8,2.4c-1,1.1-2.1,3.1-1.7,6.3c1,8.3,6.3,9,7.9,9
					c0.9,0,1.9-0.2,2.7-0.6c0.6,0.2,1.2,0.4,1.8,0.4c1.3,0,2.6-0.6,3.5-1.6c1.6,1.2,3.5,1.8,5.5,1.8c0.3,0,0.7,0,1,0
					c1.8-0.1,3.6-0.6,5.2-1.5C24,1,25-0.7,25-2.6C25-3.2,24.9-3.8,24.6-4.4z"/>
				<path id="Path_76" class="st0" d="M102-14.6c-1,0-2,0.1-3,0.2c-0.8,0.1-1.5,0.4-2.1,0.8c-0.1-0.1-0.1-0.1-0.2-0.2l0,0
					c-1.6-1.4-3.7-2.1-5.8-2.1c-0.1,0-0.1,0-0.2,0c-2.2,0.1-4.3,1.1-5.9,2.6c-1.1-1.1-2.6-1.8-4.2-1.7c-1.2,0-2.3,0.2-3.4,0.6
					c-0.7-0.3-1.4-0.4-2.1-0.4c-0.1,0-0.1,0-0.2,0c-1.6,0.1-3,0.8-4,1.9c-1.7-1.2-3.7-1.8-5.7-1.8c-1,0-2,0.1-3,0.2
					c-0.1,0-0.3,0-0.4,0.1c1-2.6-0.4-5.6-3-6.5c-2.6-1-5.6,0.4-6.5,3C52-17,51.9-16,52.1-15.1c-0.8,0-1.6,0.3-2.3,0.6
					c-0.6-0.3-1.3-0.4-2-0.4c-0.4,0-0.8,0.1-1.3,0.2c-0.3-1.5-1.1-2.8-2.3-3.8l0,0c-2.1-1.8-4.7-2.7-7.4-2.7c-0.1,0-0.2,0-0.2,0
					c-4.3,0-11.1,4.8-11.5,12v0.1V-9C25.4-0.4,33,3.4,36.7,3.4l0,0c2.4,0,4.7-0.7,6.6-2.1c1.1,1.3,2.6,2.1,4.3,2.1
					c1.3,0,2.5-0.5,3.3-1.5c0.6-0.7,0.9-1.7,1-2.6c0,0.9,0.4,1.9,1,2.6c0.8,1,2,1.5,3.3,1.5s2.6-0.5,3.6-1.4
					c1.3,0.9,2.8,1.4,4.3,1.4c1,0,2-0.2,2.9-0.6c0.6,0.3,1.3,0.4,2,0.4c1,0,2-0.3,2.8-0.9C72.7,3,73.9,3.4,75,3.4c0.2,0,0.4,0,0.5,0
					c1.2-0.1,2.2-0.7,2.9-1.6l0.1-0.1c0.9,1,2.1,1.6,3.5,1.8c0.2,0,0.4,0,0.6,0c1.3,0,2.5-0.5,3.3-1.5c0-0.1,0.1-0.1,0.1-0.2
					c0.1,0.1,0.2,0.1,0.2,0.2c0.1,0.1,0.3,0.2,0.4,0.4c-0.5,0.2-1,0.6-1.2,1.1c-0.3,0.9,0.3,2.9,1.2,4.2c0.4,0.8,1.2,1.4,2.1,1.5
					c0.3,0,0.6-0.1,0.9-0.3c0.5-0.4,0.9-0.7,1.2-0.9c0.3-0.3,0.7-0.6,1.1-0.8l0,0l0,0c0.4-0.3,0.9-0.5,1.4-0.6s1-0.3,1.4-0.7
					c0.3-0.5,0.2-2-0.1-3c0.6-0.3,1.1-0.6,1.7-1c1.3,1.2,3,1.8,4.8,1.8c1,0,2-0.2,2.9-0.6c2.4,1.1,5.3,0,6.4-2.5
					c0.3-0.6,0.4-1.3,0.4-2v-4.8C110.7-11.4,107.2-14.6,102-14.6z M37.3-7.6c-0.8,0-1.2-0.6-1.2-1.7c-0.1-0.6,0.4-1.1,1-1.2
					c0.1,0,0.2,0,0.3,0l0,0c0.6,0,1.2,0.1,1.7,0.3c0.7,0.4,1.5,0.6,2.4,0.6h0.1c0.1,0,0.3,0,0.4,0c-0.1,0.3-0.1,0.7-0.1,1
					c-0.1,0-0.2,0-0.3,0h-0.1c-0.8,0.1-1.6,0.3-2.4,0.6C38.5-7.6,37.9-7.5,37.3-7.6L37.3-7.6z M51.8-1.2c0-0.3,0-0.6-0.1-0.8
					c-0.2-1.2-0.4-2.4-0.4-3.6h0.3c0.2,0,0.5,0,0.7-0.1c0,1.2-0.1,2.4-0.4,3.6C51.9-1.7,51.8-1.5,51.8-1.2z"/>
			</g>
			<path id="Path_77" class="st1" d="M5.2-14.9c0.1-1.2,0.9-2.1,2.1-2.3c1.2-0.3,2.4,0.4,2.7,1.6l0,0c0.8,4.5-0.1,9.2-0.4,13.8
				c0,1.3-1.1,2.3-2.4,2.4c-0.7,0-1.4-0.4-1.8-1C4.7,0.4,3.7,0.9,2.7,0.8C0.6,0.8-2.1-0.7-2.7-6c-0.5-4.5,2.6-6,5.3-6
				c1,0,2,0.3,2.8,0.9C5.3-12.3,5.3-13.7,5.2-14.9z M4.7-4.2c0.6-0.9,0.6-2,0.1-2.9C4.5-7.5,4-7.8,3.5-7.7C2.6-7.7,1.9-6.9,1.9-6
				v0.1c0,1.9,1.2,2.3,1.7,2.3C4-3.6,4.4-3.9,4.7-4.2L4.7-4.2z"/>
			<path id="Path_78" class="st2" d="M17,0.8c-5,0.4-6.6-2.5-6.8-6.5c-0.2-3.9,1.3-7.2,5.2-7.5c3.8-0.3,7.6,2.1,7.9,5.5
				c0,1.3-0.8,2.4-2,2.7c-1,0.2-2.1,0.3-3.2,0.3c-1,0-2.2-0.1-2.7,0.2c-0.3,0.2-0.4,0.6-0.2,0.8c0.3,0.3,1,0.4,2.4,0.3
				c1-0.2,1.9-0.4,2.9-0.6c0.9-0.3,1.8,0.2,2,1c0.1,0.2,0.1,0.4,0.1,0.5c0,0.9-0.6,1.7-1.4,2.1C19.9,0.3,18.4,0.7,17,0.8z M18-7.6
				c0.3-0.1,0.5-0.4,0.4-0.7c0-0.1-0.1-0.2-0.1-0.2c-0.4-0.5-1-0.8-1.7-0.6c-0.6,0-1.1,0.4-1.4,0.9c-0.1,0.3,0,0.6,0.2,0.7
				c0.1,0,0.2,0.1,0.3,0.1C16.5-7.4,17.2-7.5,18-7.6L18-7.6z"/>
			<path id="Path_79" class="st3" d="M36.6,0.8c-2.6,0-8.9-2.9-9.2-10c0.3-6,6-9.6,9-9.6c0.1,0,0.1,0,0.2,0c1.5,0,3.3,0.2,6,2.2
				c0.7,0.6,1.2,1.4,1.4,2.4c0.1,0.5-0.1,1.1-0.5,1.4c-0.5,0.5-1.2,0.8-2,0.8h-0.1c-0.5,0-1-0.2-1.5-0.4l0,0l0,0
				c-0.8-0.3-1.7-0.5-2.6-0.5h-0.1c-1.9-0.1-3.6,1.4-3.7,3.3c0,0.1,0,0.2,0,0.3c0,3.3,2.3,4.2,3.7,4.2h0.1c0.9,0,1.8-0.1,2.6-0.5
				l0,0l0,0c0.5-0.2,1-0.4,1.5-0.4h0.1c0.7,0,1.5,0.3,2,0.8C43.9-4.8,44-4.3,44-3.8c-0.2,0.9-0.7,1.8-1.4,2.4
				C39.9,0.6,38.1,0.8,36.6,0.8z"/>
			<g id="Group_8" transform="translate(108.317 9.429)">
				<path id="Path_80" class="st3" d="M-15.6-5.1c0,0.8-1.2,0.3-2.7,1.8s-2.6-0.7-2.6-2c0-0.8,1.2-0.3,2.7-1.8
					C-16.7-8.7-15.6-6.4-15.6-5.1z"/>
				<path id="Path_81" class="st3" d="M-13.2-21.3c0.6,0.5,1,1.2,1.1,1.9c0,1.1-0.8,1.9-1.9,2c-0.1,0-0.2,0-0.3,0
					c-0.4,0-0.8-0.1-1.2-0.3c-0.5-0.2-1.1-0.3-1.7-0.3c-1.1-0.1-2.1,0.8-2.2,1.9c0,0.1,0,0.1,0,0.2c0,2.1,1.4,2.5,2.2,2.5
					c0.6,0,1.1-0.1,1.7-0.3c0.4-0.2,0.8-0.3,1.2-0.3c1.1-0.1,2,0.7,2.1,1.7c0,0.1,0,0.2,0,0.3c-0.1,0.7-0.5,1.4-1.1,1.9
					c-1.2,1-2.7,1.6-4.3,1.6c-3.7-0.4-6.6-3.5-6.7-7.3c0.2-4.4,4.4-7.1,6.7-7C-15.9-22.9-14.4-22.3-13.2-21.3z"/>
			</g>
			<path id="Path_82" class="st4" d="M51.1-8c-2.1,0-2.2,1.4-2.2,1.4c-0.1,1.7,0.1,3.4,0.4,5.1c0.3,0.9-0.2,2-1.1,2.3
				c-0.2,0.1-0.4,0.1-0.6,0.1c-1.4,0-2.6-1-3-2.4C44-4.3,44-7.2,44.5-10c0.4-1.4,1.7-2.4,3.1-2.5c0.7-0.1,1.5,0.3,1.7,1
				c0.8-0.7,1.8-1.2,2.8-1.2h0.4c1.3,0,1.6,1,1.4,2.3c-0.3,1.3-1,2.3-2.3,2.3C51.6-8,51.1-8,51.1-8z"/>
			<g id="Group_9" transform="translate(72.206 3.079)">
				<path id="Path_83" class="st5" d="M-17.8-12.7c-0.3-2,0.7-2.8,1.6-2.8c1.5,0,2.8,1,3.1,2.5c0.5,2.8,0.5,5.7-0.1,8.5
					c-0.4,1.4-1.6,2.3-3,2.4c-1,0-1.8-0.7-1.9-1.7c0-0.2,0-0.4,0.1-0.6c0.3-1.5,0.5-3,0.4-4.6C-17.4-9.2-17.6-11.1-17.8-12.7z"/>
				<path id="Path_84" class="st5" d="M-12.7-19.2c0,1.4-1.1,3.3-2.6,3.4c-1.5,0-2.6-2-2.6-3.4s1.2-2.6,2.6-2.6
					C-13.9-21.8-12.7-20.6-12.7-19.2L-12.7-19.2z"/>
			</g>
			<path id="Path_85" class="st1" d="M71.4-6.5v4.7c0,1.3-1.1,2.4-2.4,2.4l0,0c-0.8,0-1.5-0.4-1.9-1c-0.8,0.8-1.9,1.2-3,1.2
				c-0.6,0-4.5-0.2-4.5-4.4c0-2.3,1.6-3.6,4.3-3.6c1,0,2.1,0.3,3,0.8v-0.7c-0.2-0.6-0.6-1.2-2.6-1.2c-0.6,0-1.2,0.1-1.7,0.2
				c-1,0-1.9-0.8-1.9-1.9l0,0c0-1,0.8-1.9,1.8-1.9c0.9-0.1,1.8-0.2,2.7-0.2C69-12.2,71.4-9.9,71.4-6.5z M66.3-3.2
				c0.2-0.6-0.3-1-1.7-1.2c-1.1-0.2-1.2,0.3-1.3,0.7s0.1,0.9,1,1.1C66.2-2.3,66.3-3.2,66.3-3.2L66.3-3.2z"/>
			<path id="Path_86" class="st6" d="M108.3-6.5v4.7c0,1.3-1.1,2.4-2.4,2.4l0,0c-0.8,0-1.5-0.4-1.9-1c-0.8,0.8-1.9,1.2-3,1.2
				c-0.6,0-4.5-0.2-4.5-4.4c0-2.3,1.6-3.6,4.3-3.6c1,0,2.1,0.3,3,0.8v-0.7c-0.2-0.6-0.6-1.2-2.6-1.2c-0.6,0-1.2,0.1-1.7,0.2
				c-1,0-1.9-0.8-1.9-1.9l0,0c0-1,0.8-1.9,1.8-1.9c0.9-0.1,1.8-0.2,2.7-0.2C105.9-12.2,108.3-9.9,108.3-6.5z M103.2-3.2
				c0.2-0.6-0.3-1-1.7-1.2c-1.1-0.2-1.2,0.3-1.3,0.7c-0.1,0.4,0.1,0.9,1,1.1C103.1-2.3,103.2-3.2,103.2-3.2L103.2-3.2z"/>
			<path id="Path_87" class="st2" d="M84.2-1.5c0.3,0.9-0.2,2-1.2,2.3c-0.3,0.1-0.6,0.1-0.9,0.1c-1.3-0.2-2.3-1.1-2.7-2.4
				C79-3.3,78.9-5.2,79-7c0-0.5-0.4-0.9-0.8-0.9h-0.1c-0.7,0-1.4,0.4-1.9,1c-0.1,1.8,0,3.6,0.4,5.4c0.2,1.2-0.3,2.3-1.5,2.4
				C73.6,1,72.3,0,71.9-1.4c-0.6-2.8-0.6-5.6-0.1-8.4c0.4-1.4,1.6-2.4,3-2.4c0.8-0.1,1.6,0.2,1.9,1c1.1-0.8,2.4-1.2,3.7-1.1
				c2.5,0,3.6,1.9,3.3,4.4C83.7-5.9,83.8-3.7,84.2-1.5z"/>
		</g>
		<g id="Top_1_">
			<g id="Back_1_" transform="translate(11.415)">
				<g id="Grid_1_" transform="translate(73.829 39.643)">
					<path id="Path_88" class="st7" d="M-15-9.6l32.2,0.1"/>
					<path id="Path_89" class="st7" d="M-15-7.7l32.2,0.1"/>
					<path id="Path_90" class="st7" d="M-15-5.7l32.2,0.1"/>
					<path id="Path_91" class="st7" d="M-15-3.8l32.2,0.1"/>
					<path id="Path_92" class="st7" d="M-15,0.2c0-4.6,0.1-9.1,0.1-13.7"/>
					<path id="Path_93" class="st7" d="M-13.2,0.2c0-4.6,0.1-9.1,0.1-13.7"/>
					<path id="Path_94" class="st7" d="M-11.5,0.2c0-4.6,0.1-9.1,0.1-13.7"/>
					<path id="Path_95" class="st7" d="M-9.7,0.2c0-4.6,0.1-9.1,0.1-13.7"/>
					<path id="Path_96" class="st7" d="M-7.9,0.2c0-4.6,0.1-9.1,0.1-13.7"/>
					<path id="Path_97" class="st7" d="M-6.1,0.2C-6.1-4.4-6-8.9-6-13.5"/>
					<path id="Path_98" class="st7" d="M-4.3,0.2c0-4.6,0.1-9.1,0.1-13.7"/>
					<path id="Path_99" class="st7" d="M-2.5,0.2c0-4.6,0.1-9.1,0.1-13.7"/>
					<path id="Path_100" class="st7" d="M-0.8,0.2c0-4.6,0.1-9.1,0.1-13.7"/>
					<path id="Path_101" class="st7" d="M1,0.2c0-4.6,0.1-9.1,0.1-13.7"/>
					<path id="Path_102" class="st7" d="M2.8,0.2c0.1-4.6,0.1-9.1,0.1-13.7"/>
					<path id="Path_103" class="st7" d="M4.6,0.2c0-4.6,0.1-9.1,0.1-13.7"/>
					<path id="Path_104" class="st7" d="M6.4,0.2c0-4.6,0.1-9.1,0.1-13.7"/>
					<path id="Path_105" class="st7" d="M8.2,0.2c0-4.6,0.1-9.1,0.1-13.7"/>
					<path id="Path_106" class="st7" d="M10,0.2l0.1-13.7"/>
					<path id="Path_107" class="st7" d="M11.7,0.2c0-4.6,0.1-9.1,0.1-13.7"/>
					<path id="Path_108" class="st7" d="M13.5,0.2c0-4.6,0.1-9.1,0.1-13.7"/>
					<path id="Path_109" class="st7" d="M15.3,0.2l0.1-13.7"/>
					<path id="Path_110" class="st7" d="M17.1,0.2c0-4.6,0.1-9.1,0.1-13.7"/>
					<path id="Path_111" class="st7" d="M-15-11.5l32.2,0.1"/>
					<path id="Path_112" class="st7" d="M-15-13.5l32.2,0.1"/>
					<path id="Path_113" class="st7" d="M-15-1.9l32.2,0.1"/>
					<path id="Path_114" class="st7" d="M-15,0.1l32.2,0.1"/>
				</g>
				<g id="Group_10" transform="translate(61.092 31.146)">
					<path id="Wall_1_" class="st8" d="M-12-11.1v34.6h50.7v-34.6H-12z M23.4,5.4c0,1.1-0.9,2-2,2H4.5c-1.1,0-2-0.9-2-2v-6.9
						c0-1.1,0.9-2,2-2h16.9c1.1,0,2,0.9,2,2V5.4z"/>
					<path id="Path_115" class="st0" d="M39.6,24.3h-52.4V-12h52.4V24.3z M-11.1,22.6h49v-32.9h-49V22.6z M21.3,8.3H4.5
						C2.9,8.3,1.6,7,1.6,5.4v-6.9c0-1.6,1.3-2.9,2.9-2.9h16.9c1.6,0,2.9,1.3,2.9,2.9v6.9C24.3,7,23,8.3,21.3,8.3L21.3,8.3z M4.5-2.7
						c-0.6,0-1.2,0.5-1.2,1.2v6.9c0,0.6,0.5,1.2,1.2,1.2h16.9c0.6,0,1.2-0.5,1.2-1.2v-6.9c0-0.6-0.5-1.2-1.2-1.2H4.5z"/>
				</g>
				<g id="_x30_3_Tower_1_" transform="translate(111.116)">
					<path id="Path_116" class="st0" d="M-5.2,12.6c-1.9-1.6-4.3-2.5-6.8-2.5c-1.4,0-2.9,0.4-4,1.3c-1.6,1.2-2.5,3.1-2.6,5.6
						c-0.4,7.5-0.1,18.9,0.7,32.3c0.1,3.2,2.8,5.8,6.1,5.7c3.3,0.1,6.1-2.6,6.1-5.9c0-0.1,0-0.3,0-0.4c0-5.9,0.6-23.6,1.8-29.8
						C-3.5,16.3-3.9,14.2-5.2,12.6z"/>
					<path id="Path_117" class="st0" d="M-0.7,13.8c-0.1-1.2-0.4-2.4-0.7-3.6l0,0c-0.1-0.3-0.1-0.5-0.2-0.8
						C-2.1,7.3-5.2-2.9-5.5-3.9c-0.6-2-2.6-3.1-4.6-2.5c-1,0.3-1.9,1-2.3,2l-7.8,13.5v0.1c-0.5,0.9-0.8,1.8-1.1,2.8
						c-0.4,1.7,0,3.5,1.1,4.8c1.6,2.2,4.3,3.6,7.7,4c0.5,0.1,1,0.1,1.5,0.1c0.2,0,0.3,0,0.5,0c1.6,0,3.3-0.3,4.8-0.8
						c1.7-0.6,3.5-1.4,4.4-3.1C-0.9,16-0.6,14.9-0.7,13.8z"/>
					<path id="Path_118" class="st9" d="M-11,12.4c0,0,6.1-0.2,4.9,6C-7.4,25.2-8,43.4-8,48.7s-7.4,5.3-7.7,0.5
						c-0.8-12.6-1.1-24.4-0.7-32.1C-16.1,11.3-11,12.4-11,12.4z"/>
					<path id="Path_119" class="st0" d="M-10.6,19.9c-0.2,0-0.3,0-0.5,0c-0.5,0-0.9-0.1-1.4-0.1c-3.1-0.4-5.6-1.7-7.1-3.7
						c-1-1.4-0.3-2.7,0.1-4.2c0.2-0.9,0.6-1.8,1-2.6l0,0l7.1-11.7c0.6-1.2,0.9-1.9,2.1-1.9c1.5,0,1.9,0.8,2.3,2.2
						c0.3,0.9,2.9,9.5,3.4,11.5c0.5,1.3,0.8,2.7,1.1,4.1c0,1.1,0.3,2-0.1,2.8c-0.8,1.4-2.1,2.4-3.6,2.8
						C-7.6,19.6-9.1,19.9-10.6,19.9z"/>
					<path id="top_7_" class="st4" d="M-7.7-3.3C-7.4-2.4-4.4,7.8-3.9,9.9c0.4,1.3,0.7,2.7,0.9,4c0.1,0.7-0.1,1.3-0.4,2
						C-4,17-5.5,17.6-6.6,18c-1.4,0.5-2.9,0.7-4.5,0.7c-0.4,0-0.9,0-1.3-0.1c-2.3-0.3-4.8-1.2-6.2-3.1c-0.7-0.8-0.9-1.9-0.7-2.9
						c0.2-0.8,0.5-1.6,0.9-2.3l7.8-13.6c0.3-0.8,1.1-1.1,1.9-0.8C-8.1-4.1-7.8-3.7-7.7-3.3z"/>
				</g>
				<g id="_x30_4_Tower_1_" transform="translate(48.147)">
					<path id="Path_120" class="st0" d="M7.3,16.9c-0.1-2.5-1-4.4-2.6-5.6c-1.2-0.9-2.6-1.3-4-1.3c-2.5,0.1-4.9,1-6.8,2.5
						c-1.3,1.6-1.7,3.7-1.2,6.3c1.2,6.3,1.8,24,1.8,29.8c-0.2,3.3,2.4,6.1,5.7,6.3c0.1,0,0.3,0,0.4,0l0,0c3.2,0.1,5.9-2.5,6.1-5.7
						C7.5,35.9,7.7,24.4,7.3,16.9z"/>
					<path id="Path_121" class="st0" d="M10.1,11.9C9.9,10.9,9.5,10,9,9.1l0,0L1.1-4.5C0.5-5.8-0.8-6.6-2.2-6.6
						c-1.6,0-3.1,1.1-3.5,2.7c-0.4,1-3.4,11.2-3.9,13.2c-0.1,0.3-0.1,0.5-0.2,0.8l0,0c-0.4,1.2-0.6,2.4-0.7,3.7
						c-0.1,1.1,0.1,2.1,0.6,3.1c0.9,1.7,2.7,2.5,4.4,3.1c1.5,0.5,3.2,0.8,4.8,0.8c0.2,0,0.3,0,0.5,0c0.5,0,1-0.1,1.5-0.1
						c3.4-0.4,6.1-1.9,7.7-4C10.1,15.3,10.5,13.6,10.1,11.9z"/>
					<path id="Path_122" class="st4" d="M-0.3,12.4c0,0-6.1-0.2-4.9,6c1.3,6.8,1.9,25,1.9,30.3s7.4,5.3,7.7,0.5
						C5.2,36.5,5.5,24.7,5.1,17C4.8,11.3-0.3,12.4-0.3,12.4z"/>
					<path id="Path_123" class="st0" d="M-0.7,19.9c0.2,0,0.3,0,0.5,0c0.5,0,0.9-0.1,1.4-0.1c2.7-0.3,5.2-1.7,6.9-3.9
						c1-1.4,0.5-2.7,0.1-4.2c-0.2-0.9-0.6-1.8-1-2.6l0,0l-7.3-12C-0.7-4.1-1-4.6-2.2-4.6c-1.5,0-1.7,1-2.1,2.4
						C-4.6-1.3-7.4,7.6-7.9,9.5c-0.2,0.3-0.2,0.5-0.3,0.8c-0.3,1.1-0.6,2.2-0.6,3.4c-0.1,1,0.1,1.9,0.6,2.8c0.6,1.3,1.8,2.3,3.2,2.6
						C-3.7,19.6-2.2,19.9-0.7,19.9z"/>
					<path id="top_6_" class="st1" d="M-3.6-3.3C-3.9-2.4-6.9,7.8-7.4,9.9c-0.4,1.3-0.7,2.7-0.9,4c-0.1,0.7,0.1,1.3,0.4,2
						c0.6,1.1,2.1,1.7,3.2,2.1c1.4,0.5,2.9,0.7,4.5,0.7c0.4,0,0.9,0,1.3-0.1c2.3-0.3,4.8-1.2,6.2-3.1c0.5-0.9,0.8-2,0.6-3.1
						c-0.2-0.8-0.5-1.6-0.9-2.3L-0.8-3.5c-0.3-0.8-1.1-1.1-1.9-0.8C-3.2-4.1-3.5-3.7-3.6-3.3z"/>
				</g>
				<g id="Group_11" transform="translate(0 38.955)">
					<path id="Stairs_2_" class="st6" d="M-1.2,13.7L26.5-4l-4.1-6.4l0,0c-2-0.3-4.1-0.3-6,0.2l0,0c-0.2,2-0.2,4,0.2,6
						c-2-0.3-4.1-0.3-6,0.2c-0.2,2-0.2,4,0.2,6c-2-0.3-4.1-0.3-6,0.2c-0.2,2-0.2,4,0.2,6C3,7.9,0.9,7.9-1,8.4
						C-1.4,10.2-1.4,12-1.2,13.7z"/>
					<path id="Path_124" class="st0" d="M-1.8,15.2L-2,13.9c-0.3-1.8-0.3-3.7,0-5.5l0.1-0.6l0.6-0.1c1.7-0.4,3.5-0.5,5.2-0.3
						C3.7,5.7,3.7,4,3.9,2.3l0-0.8l0.6-0.1C6.2,1,8,0.9,9.7,1.1C9.5-0.6,9.5-2.3,9.7-4l0.1-0.6l0.6-0.1c1.7-0.4,3.5-0.5,5.2-0.3
						c-0.2-1.7-0.2-3.4,0-5.1v-0.4l0.4-0.3h0.2c1.7-0.4,3.5-0.5,5.3-0.3v-2.1l6.2,9.7L-1.8,15.2z M-0.4,9.1c-0.1,1-0.1,2.1,0,3.1
						l5-3.2C2.9,8.8,1.2,8.9-0.4,9.1z M5.5,3C5.4,4.7,5.4,6.5,5.7,8.2v0.2L25.3-4.1l-3.4-5.3c-1.6-0.2-3.2-0.2-4.7,0.1
						c-0.1,1.7-0.1,3.5,0.2,5.2l0.2,1.2l-1.2-0.2c-1.7-0.3-3.4-0.3-5.1,0c-0.1,1.7-0.1,3.5,0.2,5.2l0.2,1.2l-1.2-0.2
						C8.9,2.6,7.2,2.7,5.5,3L5.5,3L5.5,3z"/>
				</g>
				<g id="Group_12" transform="translate(147.292 38.955)">
					<path id="Stairs_1_" class="st6" d="M1.1,13.7L-26.6-4l4.1-6.4l0,0c2-0.3,4-0.3,6,0.2l0,0c0.2,2,0.2,4-0.2,6
						c2-0.3,4.1-0.3,6,0.2c0.2,2,0.2,4-0.2,6c2-0.3,4.1-0.3,6,0.2c0.2,2,0.2,4-0.2,6c2-0.3,4.1-0.3,6,0.2C1.4,10.2,1.3,12,1.1,13.7z
						"/>
					<path id="Path_125" class="st0" d="M1.8,15.2L-27.8-3.7l6.2-9.7v2.1c1.8-0.2,3.6-0.1,5.3,0.3h0.2l0.4,0.3v0.4
						c0.2,1.7,0.2,3.4,0,5.1c1.7-0.2,3.5-0.1,5.2,0.3l0.6,0.1l0.1,0.6c0.2,1.7,0.2,3.4,0,5.1c1.7-0.2,3.5-0.1,5.2,0.3L-4,1.3
						l0.1,0.6c0.2,1.7,0.2,3.4,0,5.1c1.7-0.2,3.5-0.1,5.2,0.3l0.6,0.4L2,8.3c0.2,1.8,0.2,3.7,0,5.5L1.8,15.2z M-4.6,9.1l5,3.2
						c0.1-1,0.1-2.1,0-3.1C-1.3,8.9-2.9,8.8-4.6,9.1L-4.6,9.1z M-25.4-4.2L-5.8,8.3V8.1c0.3-1.7,0.4-3.4,0.2-5.2
						c-1.7-0.3-3.4-0.3-5.1,0l-1.2,0.2l0.2-1.2c0.3-1.7,0.4-3.4,0.2-5.2c-1.7-0.3-3.4-0.3-5.1,0l-1.2,0.2l0.2-1.2
						c0.3-1.7,0.4-3.4,0.2-5.2c-1.6-0.3-3.2-0.3-4.7-0.1L-25.4-4.2z"/>
				</g>
				<path id="Path_126" class="st10" d="M44.6,20.6C45.7,30.8,45.8,41,46,48.7c0.8-9.3,0.8-18.6-0.1-27.9L44.6,20.6z"/>
				<path id="Path_127" class="st10" d="M97.3,21c-0.8,10.2-0.7,20.4-0.9,28.1c0,0-1-13.6-0.6-28.6L97.3,21z"/>
				<path id="Path_128" class="st10" d="M40.8,13.5c0,0,3.7-13.1,4.3-14.7s1.7-1.4,2.2,0c0,0-1.2-0.2-2.3,2.9
					C44.6,2.7,40.8,13.5,40.8,13.5z"/>
				<path id="Path_129" class="st10" d="M93.1,12.2c0,0,6.6-11.9,7.6-13.3s1.9-1,2.2,0.5c0,0-1.1-0.5-3,2.3
					C99.4,2.5,93.1,12.2,93.1,12.2z"/>
				<g id="Group_13" transform="translate(26.774 14.513)">
					<path id="Path_130" class="st6" d="M81,1.6l1-2.8c0.2-0.7-0.2-1.3-0.9-1.5l0,0c-2.6-0.9-5.3-1.7-8-2.4
						c-0.6-0.2-1.4,0.1-1.6,0.8l0,0l-0.7,2.9c-0.2,0.6-0.9,1-1.5,0.8c-2-0.5-4-0.8-6-1.2c-0.7-0.1-1.1-0.7-1.1-1.3
						c0.1-1,0.3-2,0.4-2.9c0-0.7-0.5-1.3-1.2-1.3l0,0c-2.7-0.4-5.5-0.7-8.2-0.8c-0.7-0.1-1.3,0.4-1.4,1.1c0,1-0.1,2-0.1,3
						c-0.1,0.7-0.7,1.1-1.3,1.1c-2-0.1-4-0.1-6,0c-0.7,0.1-1.2-0.4-1.3-1.1c0-1-0.1-2-0.1-3c-0.1-0.7-0.7-1.2-1.4-1.1
						c-2.8,0.1-5.5,0.4-8.2,0.7c-0.7,0-1.2,0.6-1.2,1.3l0,0l0.4,2.9c0.1,0.7-0.4,1.2-1.1,1.3c-2,0.3-4,0.7-6,1.1
						C24.9-0.6,24.2-1,24-1.6l-0.6-3c-0.2-0.7-0.9-1-1.6-0.8l0,0c-2.7,0.7-5.4,1.4-8,2.3c-0.7,0.2-1.1,0.8-0.9,1.5l1,2.8
						c0.2,0.6-0.2,1.3-0.8,1.5C6.6,5,0.3,8-5.6,11.6l5.5,8.9c28.9-17.7,65.3-17.7,94.2,0l5.5-8.9C93.9,8.3,88,5.4,81.8,3.1
						C81.2,2.9,80.8,2.2,81,1.6z"/>
					<path id="Path_131" class="st0" d="M94.3,21.8l-0.7-0.4C65,3.8,28.9,3.8,0.3,21.4l-0.7,0.5l-6.5-10.5l0.7-0.5
						c5.9-3.6,12.3-6.7,18.8-9c0.2-0.1,0.4-0.3,0.3-0.4l-1-2.8c-0.2-0.5-0.1-1,0.1-1.5c0.3-0.5,0.8-1,1.4-1.1
						c2.6-0.9,5.4-1.7,8.1-2.3c0.6-0.2,1.2-0.1,1.7,0.3c0.4,0.3,0.8,0.7,0.9,1.2l0.7,2.9c0,0.1,0.2,0.2,0.5,0.2c2-0.4,4-0.8,6-1.1
						c0.2,0,0.4-0.2,0.4-0.3l-0.4-2.9c-0.1-0.5,0.1-1,0.4-1.4c0.4-0.5,0.9-0.8,1.5-0.9c2.7-0.4,5.5-0.6,8.3-0.7
						c0.6,0,1.2,0.2,1.7,0.6C43.6-8,43.8-7.5,43.8-7l0.1,3c0,0.1,0.2,0.3,0.4,0.3c2-0.1,4.1,0,6.1,0c0.2,0,0.4-0.1,0.4-0.3l0.1-3
						c0-0.5,0.3-1,0.6-1.3c0.5-0.4,1.1-0.6,1.7-0.6c2.8,0.2,5.6,0.4,8.3,0.8C62.1-8,62.7-7.7,63-7.2c0.3,0.4,0.4,0.9,0.4,1.4L63-2.9
						c0,0.1,0.1,0.3,0.4,0.3c2,0.3,4,0.7,6,1.2c0.2,0.1,0.4,0,0.5-0.2l0.7-2.9C70.7-5,71-5.4,71.5-5.7s1.2-0.4,1.8-0.2
						c2.7,0.7,5.4,1.5,8.1,2.4c0.6,0.2,1.1,0.6,1.3,1.2c0.2,0.5,0.3,1,0.1,1.5l-1,2.8c0,0.1,0.1,0.3,0.3,0.4
						c6.2,2.3,12.2,5.2,17.9,8.7l0.7,0.5L94.3,21.8z M-4.5,12l4.6,7.5c28.8-17.3,64.8-17.3,93.7,0l4.6-7.5c-5.3-3.2-11-5.9-16.8-8.1
						c-1.1-0.4-1.7-1.5-1.3-2.6l0,0l1-2.8v-0.1c-0.1-0.1-0.2-0.2-0.3-0.3c-2.6-0.9-5.3-1.7-7.9-2.4c-0.1,0-0.3,0-0.4,0l-0.1,0.1
						l-0.7,2.9c-0.3,1.1-1.4,1.7-2.5,1.5c-2-0.4-3.9-0.8-5.9-1.2c-1.1-0.2-1.9-1.2-1.8-2.3l0.4-2.9v-0.1c-0.1-0.1-0.2-0.2-0.4-0.2
						c-2.7-0.4-5.4-0.6-8.2-0.8c-0.1,0-0.3,0-0.4,0.1L53-7.1l-0.1,3c-0.1,1.1-1.1,2-2.2,1.9c-2-0.1-4-0.1-6,0
						c-1.1,0.1-2.1-0.8-2.2-1.9l-0.1-3c0,0,0-0.1-0.1-0.1c-0.1-0.1-0.3-0.1-0.4-0.1c-2.7,0.1-5.5,0.4-8.2,0.7
						c-0.1,0-0.3,0.1-0.4,0.2v0.1l0.4,2.9c0.1,1.1-0.7,2.2-1.8,2.3c-2,0.3-4,0.7-5.9,1.1c-1.1,0.3-2.2-0.4-2.5-1.5l-0.7-2.9
						c0,0,0-0.1-0.1-0.1c-0.1-0.1-0.3-0.1-0.4,0c-2.7,0.7-5.3,1.4-7.9,2.3c-0.1,0-0.3,0.1-0.3,0.3v0.1l1,2.8
						c0.3,1.1-0.3,2.2-1.4,2.6C7.1,5.8,1.1,8.6-4.5,12z"/>
				</g>
				<path id="castle_7_" class="st11" d="M87,8.4L83.1,8c-0.8-0.2-1.6-0.2-2.3,0.1c-0.8,0.4-0.6,1.7-0.7,2.4c0,0.6-0.3,1.3-0.7,1.8
					c-0.8,0.9-1.9,0.8-3,0.7c-1,0-1.9,0-2.9,0c-0.9,0-1.7,0-2.6,0c-0.5,0-1,0-1.4,0c1.2,0.1,2.5,0.2,3.7,0.3
					c0.9,0.1,1.9,0.1,2.8,0.2s1.9,0.1,2.8-0.1c0.3-0.1,0.5-0.2,0.8-0.4c0.5-0.4,0.8-1,1-1.7c0.1-0.6,0.2-1.3,0.3-1.9
					c0-0.3,0.1-0.5,0.3-0.7c0.3-0.3,0.7-0.4,1.1-0.3C83.8,8.4,85.4,8.3,87,8.4z"/>
				<path id="castle_6_" class="st11" d="M67.4,7.8l-3.9,0.3c-0.8,0-1.6,0.1-2.3,0.5c-0.7,0.6-0.3,1.8-0.2,2.5
					c0.1,0.6,0,1.3-0.3,1.9c-0.6,1-1.8,1.1-2.8,1.3c-1,0.2-1.9,0.4-2.9,0.5c-0.9,0.2-1.7,0.3-2.6,0.5c-0.5,0.1-0.9,0.2-1.4,0.3
					c1.2-0.1,2.5-0.3,3.7-0.4c0.9-0.1,1.9-0.2,2.8-0.3c0.9,0,1.9-0.2,2.8-0.6c0.3-0.1,0.5-0.3,0.7-0.5c0.4-0.5,0.6-1.2,0.6-1.8
					c0-0.7-0.1-1.3-0.1-2c0-0.3,0-0.5,0.1-0.7c0.2-0.3,0.6-0.5,1-0.5C64.2,8.4,65.8,8.1,67.4,7.8z"/>
				<path id="castle_5_" class="st11" d="M48.2,11l-3.8,1c-0.8,0.1-1.5,0.4-2.1,0.9c-0.6,0.7,0,1.8,0.2,2.5c0.2,0.6,0.2,1.3,0,1.9
					c-0.4,1.1-1.5,1.4-2.5,1.8c-0.9,0.3-1.8,0.7-2.7,1c-0.8,0.3-1.6,0.6-2.4,0.9c-0.4,0.2-0.9,0.4-1.3,0.5c1.2-0.3,2.4-0.7,3.6-1.1
					c0.9-0.3,1.8-0.5,2.7-0.8c0.9-0.2,1.8-0.6,2.6-1.1c0.2-0.2,0.4-0.4,0.6-0.6c0.3-0.6,0.4-1.3,0.3-1.9c-0.1-0.6-0.3-1.3-0.4-1.9
					c-0.1-0.2-0.1-0.5,0-0.8c0.2-0.4,0.5-0.6,0.9-0.7C45.2,12.1,46.7,11.5,48.2,11z"/>
				<path id="castle_4_" class="st11" d="M106.5,13l-3.7-1.2c-0.7-0.3-1.5-0.5-2.3-0.4c-0.9,0.2-0.9,1.5-1.1,2.3
					c-0.2,0.6-0.5,1.2-1,1.6c-0.9,0.7-2,0.4-3.1,0.2c-1-0.2-1.9-0.4-2.9-0.6c-0.9-0.2-1.7-0.3-2.6-0.5c-0.5-0.1-1-0.1-1.4-0.3
					c1.2,0.3,2.4,0.7,3.6,1c0.9,0.2,1.8,0.5,2.7,0.7c0.9,0.3,1.8,0.5,2.8,0.5c0.3,0,0.6-0.1,0.8-0.2c0.6-0.3,1-0.8,1.3-1.5
					c0.3-0.6,0.4-1.2,0.7-1.9c0.1-0.2,0.2-0.5,0.4-0.6c0.3-0.2,0.7-0.3,1.1-0.1C103.3,12.4,104.9,12.6,106.5,13z"/>
			</g>
			<g id="Front_1_" transform="translate(0 12.449)">
				<path id="_x30_1_BG_1_" class="st0" d="M154.5,31.6c-1.3,0-2.5,0.1-3.8,0.3c-0.4,0-0.8,0.1-1.2,0.3c-0.8-0.7-1.9-1-2.9-1h-0.5
					c-1.1,0-2.3,0.3-3.3,0.9c-0.9-0.5-1.8-0.7-2.6-0.7c-0.7,0-1.4,0.1-2.1,0.4c0.2-4.6,0.6-10.6,1.2-14.1c1.1-0.5,2.1-1.4,2.7-2.5
					c0.5-1,0.7-2.1,0.6-3.3c-0.1-1.3-0.3-2.5-0.7-3.8c-0.1-0.3-0.1-0.5-0.2-0.8C141.2,5.2,138.1-5,137.8-6c-0.6-2.1-2.8-3.3-4.9-2.7
					c-1.1,0.3-2,1.1-2.5,2.1L122.6,7l0,0c-0.5,0.9-0.9,1.9-1.1,2.8c-0.4,1.8,0,3.6,1.1,5.1c0.4,0.6,1,1.1,1.5,1.6
					c-0.2,4.5-0.2,9.9,0,16.3c-2.1-1.3-4.5-2-7-2c-0.3,0-0.6,0-1,0c-1.5,0.1-2.9,0.5-4.2,1.2c-0.1-0.9-0.2-1.9-0.3-2.8l0,0
					c-0.5-2.5-2.7-4.2-5.3-4.2c-0.4,0-0.8,0-1.2,0.1c-2.7,0.5-4.6,2.8-4.7,5.5l0,0c0,0.4,0,0.9,0,1.3c-0.3,0-0.6-0.1-1-0.1
					c-0.1,0-0.2,0-0.3,0c-2.6-0.1-5.2,0.9-7,2.8C90,32.4,87,31.3,84,31.4c-1.3,0-2.5,0.1-3.8,0.3c-1.1,0.1-2.1,0.6-2.9,1.3
					c-0.2-0.2-0.3-0.3-0.5-0.5l0,0c-2-1.7-4.5-2.6-7-2.6c-0.1,0-0.2,0-0.2,0c-2.5,0-5.4,1.4-7.6,3.7c-0.1-0.2-0.2-0.3-0.4-0.5
					c-1.3-1.4-3.1-2.2-5.1-2.1c-1.5,0-3,0.3-4.4,0.9c-0.8-0.4-1.8-0.6-2.7-0.6c-0.1,0-0.2,0-0.2,0c-0.7,0-1.3,0.1-1.9,0.4
					c0.2-6.1,0.2-11.2,0-15.4c0.5-0.4,0.9-0.9,1.3-1.4c1.1-1.4,1.6-3.3,1.1-5.1c-0.3-1-0.6-1.9-1.1-2.8l0,0L40.9-6.5
					c-1-2-3.3-2.8-5.3-1.9c-1,0.5-1.8,1.4-2.1,2.5c-0.3,1-3.3,11.2-3.9,13.3c-0.1,0.3-0.1,0.5-0.2,0.8c-0.4,1.2-0.6,2.5-0.7,3.7
					c-0.3,2.5,1.2,4.9,3.6,5.8c0.6,3.4,0.9,9,1.2,13.4h-0.1c-1.1,0-2.3,0.3-3.3,0.9c-0.8-0.4-1.7-0.6-2.6-0.6
					c-1.3,0-2.5,0.4-3.6,1.1c-0.2-2.5-1.6-4.8-3.6-6.3c-2-1.3-4.3-1.9-6.6-1.9H7.1c-2.9,0.2-5.4,2.1-6.2,4.9
					c-1.5,6.3-1.5,12.8,0,19.1c0.8,2.8,3.3,4.7,6.2,4.8h7.3c2.8,0.1,5.5-0.8,7.6-2.6c1.2,1.8,3.2,2.9,5.4,3c1.5,0,2.9-0.6,3.8-1.7
					c1-1.2,1.3-2.8,1-4.4c-0.4-1.7-0.5-3.5-0.5-5.3c0.1,0,0.2,0,0.3,0h0.7c0.4,0,0.8,0,1.3-0.1c0.1,1.9,0.1,3.6,0.1,4.8
					c-0.2,3.5,2.5,6.4,6,6.6c0.1,0,0.3,0,0.4,0c1.7,0,3.3-0.7,4.5-1.8c1.2,1.2,2.8,1.9,4.5,1.9c0.2,0,0.4,0,0.6,0
					c1.3-0.1,2.5-0.8,3.3-1.9c0.2-0.3,0.4-0.6,0.5-0.9c1.1,1.5,2.8,2.5,4.6,2.7c0.2,0,0.4,0,0.6,0c1.5,0,2.8-0.6,3.8-1.7
					c0.2-0.2,0.4-0.5,0.5-0.8c1.8,1.5,4.1,2.4,6.5,2.6l0,0c2.5,0,5-0.9,7-2.5c0.5,0.5,1,0.9,1.6,1.2c1.4,0.7,2.9,1.1,4.4,1.1
					c1.3,0,2.6-0.3,3.8-0.9c2.5,1.3,5.5,0.5,7.1-1.7c1.6,1.6,3.8,2.5,6,2.6c1.2,0,2.4-0.2,3.5-0.8c0.7,0.4,1.5,0.5,2.4,0.5
					c1.7,0,3.2-0.8,4.3-2.1c1.7,1.9,4.3,2.9,7.5,2.9c0.4,0,0.8,0,1.2,0c2.3-0.1,4.4-0.7,6.4-1.8c0.5-0.2,0.9-0.5,1.3-0.9
					c2.4,2.7,6.6,2.9,9.3,0.5c1.2,1.2,2.8,1.8,4.5,1.8c1.5,0,2.9-0.6,3.8-1.7c1-1.2,1.3-2.8,1-4.4c-0.4-1.7-0.5-3.5-0.5-5.3
					c0.1,0,0.2,0,0.3,0h0.7c0.1,0,0.1,0,0.2,0c-0.4,1-0.6,2-0.6,3c0,3.2,1.4,5.7,3.9,7.1c1.4,0.7,2.9,1.1,4.4,1.1
					c1.3,0,2.6-0.3,3.8-0.9c2.8,1.4,6.1,0.3,7.5-2.5c0.4-0.8,0.6-1.6,0.6-2.5v-5.9C165,35.5,160.8,31.6,154.5,31.6z M71.6,42.1
					c-0.4,0.1-0.8,0.2-1.2,0.2c-0.1,0-0.3,0-0.3-0.7c0-0.2,0-0.2,0.3-0.2c0.4,0,0.8,0,1.2,0.2c0.2,0.1,0.5,0.2,0.7,0.2
					C72.1,41.9,71.8,42,71.6,42.1z"/>
				<g id="_x30_1_Brincadeira_1_" transform="translate(3.064 43.185)">
					<path id="Path_132" class="st1" d="M10.6-16.3c3.4,0,7.8,1.3,7.8,7.2c0,1.6-0.6,3.1-1.7,4.2c1.7,0.8,2.9,2.6,2.9,5.2
						c0,2.8-1.9,7.1-8.3,7.1H4C2.3,7.3,0.8,6.2,0.3,4.5c-1.4-5.9-1.4-12,0-17.9c0.5-1.6,2-2.8,3.7-2.9L10.6-16.3z M7.6-6.8
						c1.3,0,3.2,0,3.2-2S9.3-11,7.6-11l0,0c-1.2-0.1-2.2,0.8-2.3,2c0,0,0,0,0,0.1l0,0C5.4-7.5,6.3-6.9,7.6-6.8L7.6-6.8z M8.8,2.5
						c1.3,0,3.2-0.5,3.1-2.4C11.8-1.6,10-2.3,8.6-2.3h-1c-1.4,0-2.4,1.2-2.4,2.5l0,0c0.2,1.3,1.4,2.3,2.7,2.3L8.8,2.5z"/>
					<path id="Path_133" class="st2" d="M28.9-3.6c-2.7,0-2.8,1.9-2.8,1.9c-0.1,2.2,0.1,4.4,0.6,6.5c0.3,1.7-0.6,3-2.3,3
						c-1.8-0.1-3.4-1.3-3.8-3c-0.7-3.6-0.8-7.3-0.1-10.9c0.5-1.8,2.1-3.1,4-3.2c1-0.1,1.9,0.4,2.2,1.3c1-0.9,2.3-1.5,3.6-1.6h0.5
						c1.7,0,2.1,1.2,1.7,2.9c-0.3,1.6-1.3,3-3,3L28.9-3.6z"/>
					<path id="Path_134" class="st1" d="M141.5-3.6c-2.7,0-2.8,1.9-2.8,1.9c-0.1,2.2,0.1,4.4,0.6,6.5c0.3,1.7-0.6,3-2.3,3
						c-1.8-0.1-3.4-1.3-3.8-3c-0.7-3.6-0.8-7.3-0.1-10.9c0.5-1.8,2.1-3.1,4-3.2c1-0.1,1.9,0.4,2.2,1.3c1-0.9,2.3-1.5,3.6-1.6h0.5
						c1.7,0,2.1,1.2,1.7,2.9c-0.3,1.6-1.3,3-3,3L141.5-3.6z"/>
					<path id="Path_135" class="st6" d="M58.2,4.7c0.4,1.8-0.7,3.2-2.6,3c-1.7-0.2-3-1.4-3.4-3c-0.5-2.3-0.6-4.7-0.5-7.1
						c0-0.6-0.5-1.1-1.1-1.1h-0.1c-0.9,0.1-1.8,0.5-2.4,1.3c-0.1,2.3,0,4.7,0.5,6.9c0.3,1.6-0.4,2.9-1.9,3.1c-1.9,0.1-3.6-1.1-4.1-3
						C41.9,1.2,41.8-2.4,42.5-6c0.5-1.8,2-3,3.8-3.1c1.2,0,2.1,0.3,2.5,1.2c1.4-1,3.1-1.5,4.8-1.5c3.2,0,4.6,2.4,4.3,5.7
						C57.5-0.9,57.7,1.9,58.2,4.7z"/>
					<path id="Path_136" class="st1" d="M72.3-8.5c0.8,0.6,1.3,1.5,1.4,2.4c0,1.4-1,2.5-2.4,2.5c-0.1,0-0.2,0-0.3,0
						c-0.5,0-1-0.2-1.5-0.4c-0.7-0.3-1.4-0.4-2.1-0.4c-1.5-0.1-2.8,1-2.8,2.5c0,0.1,0,0.2,0,0.2c0,2.6,1.9,3.2,2.9,3.2
						c0.7,0,1.5-0.1,2.1-0.4c0.5-0.2,1-0.4,1.5-0.4c1.4-0.1,2.6,0.8,2.7,2.2c0,0.1,0,0.2,0,0.3c-0.2,1-0.7,1.8-1.4,2.4
						c-1.5,1.3-3.5,2.1-5.6,2.1c-2.7,0-8.4-3-8.6-9.4c0.2-5.6,5.6-9.1,8.6-9C68.8-10.6,70.8-9.8,72.3-8.5z"/>
					<path id="Path_137" class="st4" d="M89.1-1.7v6.1c0,1.7-1.4,3-3,3l0,0c-1,0-1.9-0.5-2.5-1.3c-1,1-2.4,1.6-3.9,1.5
						c-0.8,0-5.7-0.2-5.7-5.7c0-3,2-4.7,5.5-4.7c1.3,0,2.6,0.4,3.8,1v-0.8c-0.2-0.8-0.7-1.5-3.3-1.5c-0.8,0-1.5,0.1-2.2,0.2
						c-1.3,0-2.4-1.1-2.4-2.4l0,0c0-1.3,1-2.4,2.3-2.5C78.9-9,80-9.1,81.2-9.1C86.1-9.1,89.1-6.2,89.1-1.7z M82.9,2.6
						c0.2-0.8-0.5-1.4-2.2-1.6c-1.4-0.2-1.7,0.4-1.8,0.9s0.2,1.2,1.4,1.4C82.7,3.7,82.9,2.6,82.9,2.6L82.9,2.6z"/>
					<path id="Path_138" class="st4" d="M159.4-1.7v6.1c0,1.7-1.4,3-3,3l0,0c-1,0-1.9-0.5-2.5-1.3c-1,1-2.4,1.6-3.9,1.5
						c-0.8,0-5.7-0.2-5.7-5.7c0-3,2-4.7,5.5-4.7c1.3,0,2.6,0.4,3.8,1v-0.8c-0.2-0.8-0.7-1.5-3.3-1.5c-0.8,0-1.5,0.1-2.2,0.2
						c-1.3,0-2.4-1.1-2.4-2.4l0,0c0-1.3,1-2.4,2.3-2.5c1.2-0.2,2.3-0.3,3.5-0.3C156.3-9.1,159.4-6.2,159.4-1.7z M153,2.5
						c0.2-0.7-0.4-1.3-2.1-1.6c-1.4-0.2-1.6,0.4-1.7,0.9s0.1,1.1,1.3,1.4C152.8,3.6,153,2.5,153,2.5L153,2.5z"/>
					<path id="Path_139" class="st5" d="M100-12.6c0.1-1.5,1.2-2.7,2.7-2.9c1.5-0.4,3,0.5,3.4,2c0,0,0,0,0,0.1
						c1,5.7-0.2,11.8-0.6,17.8c-0.1,1.7-1.4,3-3,3.1c-1,0-1.9-0.5-2.4-1.3c-0.8,1.1-2.2,1.6-3.5,1.5c-2.8,0-6.2-1.9-7-8.7
						c-0.6-5.8,3.3-7.8,6.8-7.7c1.3,0,2.6,0.4,3.6,1.2C100.1-9.3,100.1-11,100-12.6z M99.4,1.1c0.7-1.1,0.8-2.5,0.1-3.7
						c-0.4-0.5-1-0.8-1.7-0.8c-1.2,0-2.1,1-2.1,2.2c0,0.1,0,0.1,0,0.2c0.1,2.4,1.7,3,2.3,2.9C98.6,1.9,99.1,1.6,99.4,1.1L99.4,1.1z"
						/>
					<path id="Path_140" class="st3" d="M115.4,8.2c-6.5,0.5-8.5-3.2-8.8-8.3c-0.2-5,1.6-9.3,6.7-9.6c4.9-0.4,9.8,2.8,10.1,7
						c0,1.6-1.1,3-2.6,3.4c-1.3,0.3-2.7,0.4-4,0.4s-2.9-0.1-3.5,0.2c-0.4,0.2-0.6,0.7-0.3,1c0.4,0.4,1.2,0.5,3.1,0.4
						c1.3-0.2,2.5-0.5,3.7-0.8c1.1-0.3,2.3,0.3,2.6,1.3c0.1,0.2,0.1,0.5,0.1,0.7c0,1.2-0.8,2.2-1.8,2.7
						C119.1,7.6,117.3,8.1,115.4,8.2z M116.6-2.6c0.4-0.1,0.6-0.5,0.6-0.9c0-0.1-0.1-0.2-0.2-0.3c-0.5-0.7-1.3-1-2.2-0.8
						c-0.8,0-1.5,0.5-1.7,1.2c-0.2,0.3,0,0.8,0.3,0.9c0.1,0.1,0.2,0.1,0.3,0.1C114.7-2.4,115.7-2.5,116.6-2.6L116.6-2.6z"/>
				</g>
				<g id="_x30_2_Tower_1_" transform="translate(148.414 1.693)">
					<path id="Path_141" class="st2" d="M-16.4,8.8c0,0,6.1-0.2,4.9,6c-1.3,6.7-1.9,24.9-1.9,30.2s-7.4,5.3-7.7,0.5
						c-0.8-12.6-1.1-24.4-0.7-32.1C-21.4,7.7-16.4,8.8-16.4,8.8z"/>
					<path id="Path_142" class="st0" d="M-15.9,16.2c-0.2,0-0.3,0-0.5,0c-0.5,0-0.9-0.1-1.4-0.1c-3.1-0.4-5.6-1.7-7.1-3.7
						c-1-1.2-1.4-2.8-1-4.4c0.2-0.9,0.6-1.8,1-2.6l0,0l7.3-12.6c0.8-1.6,2.8-2.4,4.4-1.6c0.9,0.4,1.5,1.2,1.8,2.1
						c0.3,0.9,3.1,10.4,3.6,12.3c0.1,0.3,0.1,0.5,0.2,0.8C-7.3,7.5-7,8.6-7,9.8c0.1,1-0.1,1.9-0.6,2.8c-0.8,1.5-2.5,2.3-4,2.8
						C-13,16-14.4,16.2-15.9,16.2z"/>
					<path id="top_4_" class="st3" d="M-13-6.8c0.3,0.9,3.3,11.1,3.8,13.2c0.4,1.3,0.7,2.7,0.9,4c0.1,0.7-0.1,1.3-0.4,2
						c-0.6,1.1-2.1,1.7-3.2,2.1c-1.4,0.5-2.9,0.7-4.5,0.7c-0.4,0-0.9,0-1.3-0.1c-2.3-0.3-4.8-1.2-6.2-3.1c-0.7-0.8-0.9-1.9-0.7-2.9
						c0.2-0.8,0.5-1.6,0.9-2.3l7.8-13.6c0.3-0.7,1.1-1.1,1.9-0.8C-13.5-7.6-13.2-7.3-13-6.8z"/>
				</g>
				<g id="_x30_1_Tower_1_" transform="translate(36.379 1.693)">
					<path id="Path_143" class="st3" d="M3.1,8.8c0,0-6.1-0.2-4.9,6c1.3,6.7,1.9,24.9,1.9,30.2s7.4,5.3,7.7,0.5
						c0.7-12.6,1-24.3,0.6-32C8.1,7.7,3.1,8.8,3.1,8.8z"/>
					<path id="Path_144" class="st0" d="M2.4,16.2c-1.5,0-3-0.2-4.4-0.7c-1.5-0.5-3.2-1.3-4-2.8c-0.4-0.9-0.6-1.8-0.6-2.8
						C-6.5,8.8-6.3,7.6-6,6.5C-5.9,6.2-5.9,6-5.8,5.7C-5.3,3.8-2.5-5.7-2.2-6.6c0.5-1.8,2.3-2.8,4.1-2.3C2.8-8.6,3.6-8,4-7.1
						l7.3,12.5l0,0c0.4,0.8,0.8,1.7,1,2.6c0.4,1.5,0,3.1-1,4.4c-1.5,2-4,3.3-7.1,3.7c-0.5,0.1-0.9,0.1-1.4,0.1
						C2.7,16.2,2.6,16.2,2.4,16.2z"/>
					<path id="top_3_" class="st2" d="M-0.5-6.8C-0.8-5.9-3.8,4.3-4.3,6.4c-0.4,1.3-0.7,2.7-0.9,4c-0.1,0.7,0.1,1.3,0.4,2
						c0.6,1.1,2.1,1.7,3.2,2.1c1.4,0.5,2.9,0.7,4.5,0.7c0.4,0,0.9,0,1.3-0.1c2.3-0.3,4.8-1.2,6.2-3.1c0.7-0.8,0.9-1.9,0.7-2.9
						c-0.2-0.8-0.5-1.6-0.9-2.3L2.3-7C2-7.8,1.2-8.1,0.4-7.8C0-7.7-0.3-7.3-0.5-6.8z"/>
				</g>
			</g>
		</g>
	</g>
	<g id="Shine_1_" transform="translate(3.893 17.938)">
		<path id="B_1_" class="st10" d="M11.2,22.8c-1.5-0.2-3.1-0.3-4.6-0.4c-1-0.1-2,0-3,0.1c-0.6,0-1.3,0.2-1.8,0.5
			c-0.5,0.3-1,0.8-1.3,1.3c-0.7,1.3-1.1,2.8-1.1,4.2c-0.2,1.5-0.3,3.1-0.2,4.6c0,1.1,0.1,2.2,0.2,3.4c0.1,1.1,0.3,2.2,0.4,3.3
			c0.1,0.7,0.2,1.4,0.4,2.1c0,0-0.3-3.8-0.4-7.5c0-1.7,0.1-3.4,0.3-5.1c0.8-5.3,2.1-6,6.2-6.3C7.5,22.9,9.5,22.8,11.2,22.8z"/>
		<path id="r_5_" class="st10" d="M20.9,31c-2.1,3.6-0.2,11.6-0.2,11.6c0.1-4.5-0.2-9.3,1.7-11.3c0.6-0.8,1.7-1,2.6-0.7
			C24.3,29.1,21.9,29.3,20.9,31z"/>
		<path id="r_4_" class="st10" d="M133.6,31c-1.9,3.7-0.2,11.6-0.2,11.6c0.1-4.5-0.2-9.5,1.7-11.5c0.7-0.7,1.7-0.9,2.6-0.5
			C137.4,29.5,134.7,28.8,133.6,31z"/>
		<path id="r_3_" class="st10" d="M71.3,56.2c-1.4,2.8-0.2,8.9-0.2,8.9c0-3.5-0.2-7.3,1.3-8.9c0.5-0.5,1.3-0.7,2-0.4
			C74.2,55.1,72.1,54.5,71.3,56.2z"/>
		<path id="tower_5_" class="st10" d="M32.4,13.4c1.1,10.2,1.2,20.4,1.4,28.1c0.8-9.3,0.8-18.6-0.1-27.9L32.4,13.4z"/>
		<path id="tower_4_" class="st10" d="M125.4,13.4c-0.7,10.2-0.7,20.4-0.9,28.1c0,0-1-13.6-0.6-28.6L125.4,13.4z"/>
		<path id="cone_3_" class="st10" d="M121.1,5.2c0,0,6.6-11.9,7.6-13.3c1-1.4,1.9-1,2.2,0.5c0,0-1.1-0.5-3,2.3
			C127.3-4.5,121.1,5.2,121.1,5.2z"/>
		<path id="cone_2_" class="st10" d="M28.2,6.1c0,0,3.7-13.1,4.3-14.7s1.7-1.4,2.2,0c0,0-1.2-0.2-2.3,2.9
			C31.9-4.8,28.2,6.1,28.2,6.1z"/>
		<path id="n_3_" class="st10" d="M43.2,31.4C41.5,34.9,43,42.6,43,42.6c0.1-4.5-0.1-8.5,1.4-10.8c0.4-0.9,1.5-1.3,2.4-0.9
			C46.1,29.5,44.1,29.6,43.2,31.4z"/>
		<path id="n_2_" class="st10" d="M98.8,56.3c-1.2,2.9-0.3,8.8-0.3,8.8c0-3.7,0-6.6,1.2-8.5c0.4-0.7,1.2-1.1,2-0.9
			C101.2,54.6,99.4,55,98.8,56.3z"/>
		<path id="c_5_" class="st10" d="M58.6,38.9c-0.7-1.7-0.7-3.6-0.1-5.2c1.1-2.8,3.4-4.8,6.3-5.6c1.8-0.5,3.7,0,5.1,1.2
			c0,0-5.2-1.8-8.5,1.8C57.7,35,58.6,38.9,58.6,38.9z"/>
		<path id="c_4_" class="st10" d="M54.5,60.2c-0.7-1.8-0.7-3.8-0.1-5.6c1.1-3,3.6-5.2,6.7-6c1.9-0.5,4,0,5.5,1.2
			c0,0-5.4-2.1-9.2,1.9C53.5,56,54.5,60.2,54.5,60.2z"/>
		<path id="c_3_" class="st10" d="M110.9,62.1c-0.5-1.3-0.5-2.7,0-4c0.9-2.1,2.7-3.7,4.9-4.3c1.4-0.4,2.9,0,4.1,0.9
			c0,0-4.1-1.5-6.9,1.4C110,59.1,110.9,62.1,110.9,62.1z"/>
		<path id="a_7_" class="st10" d="M75.2,31.3c0,0-0.4-1.3,1.8-1.7c2.2-0.5,7.8-0.5,9.4,3c0,0-1.5-2.4-6.4-2.5
			C76.2,30,75.2,31.3,75.2,31.3z"/>
		<path id="a_6_" class="st10" d="M145.5,31.7c0,0-0.4-1.6,1.8-2.1s7.8-0.5,9.4,3c0,0-1.5-2.4-6.4-2.5
			C146.5,30,145.5,31.7,145.5,31.7z"/>
		<path id="a_5_" class="st10" d="M87,56.7c0,0-0.3-1.2,1.4-1.6c1.7-0.4,6-0.4,7.2,2.3c0,0-1.2-1.8-4.9-1.9
			C87.8,55.4,87,56.7,87,56.7z"/>
		<path id="a_4_" class="st10" d="M124,56.7c0,0-0.3-1.2,1.4-1.6c1.7-0.4,6-0.4,7.2,2.3c0,0-1.2-1.8-4.9-1.9
			C124.8,55.4,124,56.7,124,56.7z"/>
		<path id="d_9_" class="st10" d="M89.8,37.7c0,0-1.2-6.1,4.1-7.5c0,0,3.1-0.6,4.8,1.4C95.2,29.7,90.2,31.5,89.8,37.7z"/>
		<path id="d_8_" class="st10" d="M100.1,26.4v-0.8c-0.1-3,3.7-2.7,4-1.1C102.1,23.2,100.4,24.4,100.1,26.4z"/>
		<path id="d_7_" class="st10" d="M23.7,61.4c0,0-1-4.8,3.3-6c0,0,2.5-0.5,3.8,1.1C28,55,24,56.5,23.7,61.4z"/>
		<path id="d_6_" class="st10" d="M31.7,52.4v-0.6c-0.1-2.4,2.9-2.2,3.2-0.9C33.3,49.9,31.9,50.8,31.7,52.4z"/>
		<path id="Path_145" class="st10" d="M106.6,37.1c0,0-0.8-7.3,5.7-8.4c0,0,3.6-0.3,5.6,1.5C117.9,30.2,109,25.4,106.6,37.1z"/>
		<path id="Path_146" class="st10" d="M36.4,60.8c0,0-0.6-5.9,4.6-6.8c0,0,2.9-0.3,4.5,1.2C45.6,55.1,38.3,51.3,36.4,60.8z"/>
		<path id="d_5_" class="st10" d="M80.6,50.9c-0.2-2.9,3.3-2.5,3.7-0.9C82.5,48.3,80.8,49.3,80.6,50.9z"/>
		<path id="tower_3_" class="st10" d="M81.2,57.5c0.4,2.4,0.4,4.8,0,7.2c0.6-2.4,0.7-4.9,0.5-7.4C81.5,56.3,81.1,56.7,81.2,57.5z"/>
	</g>
</g>
</svg>
