<svg version="1.1" id="Layer_1" xmlns="http://www.w3.org/2000/svg" x="0" y="0" viewBox="0 0 165 165" xml:space="preserve"><style>.st0{fill:#3e0538}.st1{fill:#e7134e}.st2{fill:#3fb94e}.st3{fill:#1a86c9}.st4{fill:#f76e1b}.st5{fill:#fac329}.st6{fill:#fbc22c}.st7{fill:none;stroke:#3e0538;stroke-width:.8263;stroke-miterlimit:10}.st10,.st11{opacity:.8;fill:#fff;enable-background:new}.st11{opacity:.7}</style><g id="Logo_1_" transform="translate(-.001 39)"><g id="Group_14" transform="translate(.001)"><g id="Bottom_1_" transform="translate(29.735 84.436)"><g id="Group_7"><path id="Path_75" class="st0" d="M24.6-4.4c.8-1 1.2-2.2 1.1-3.5-.4-4.3-4.7-7.7-9.7-7.7h-.8c-.9.1-1.8.3-2.7.6 0-.4-.1-.7-.2-1-.5-2.2-2.4-3.7-4.6-3.7-.3 0-.7 0-1 .1-2.3.4-4 2.4-4 4.7v.5h-.5c-2.2 0-4.3.8-5.8 2.4-1 1.1-2.1 3.1-1.7 6.3 1 8.3 6.3 9 7.9 9 .9 0 1.9-.2 2.7-.6.6.2 1.2.4 1.8.4 1.3 0 2.6-.6 3.5-1.6 1.6 1.2 3.5 1.8 5.5 1.8h1c1.8-.1 3.6-.6 5.2-1.5C24 1 25-.7 25-2.6c0-.6-.1-1.2-.4-1.8z"/><path id="Path_76" class="st0" d="M102-14.6c-1 0-2 .1-3 .2-.8.1-1.5.4-2.1.8l-.2-.2c-1.6-1.4-3.7-2.1-5.8-2.1h-.2c-2.2.1-4.3 1.1-5.9 2.6-1.1-1.1-2.6-1.8-4.2-1.7-1.2 0-2.3.2-3.4.6-.7-.3-1.4-.4-2.1-.4h-.2c-1.6.1-3 .8-4 1.9-1.7-1.2-3.7-1.8-5.7-1.8-1 0-2 .1-3 .2-.1 0-.3 0-.4.1 1-2.6-.4-5.6-3-6.5-2.6-1-5.6.4-6.5 3-.3.9-.4 1.9-.2 2.8-.8 0-1.6.3-2.3.6-.6-.3-1.3-.4-2-.4-.4 0-.8.1-1.3.2-.3-1.5-1.1-2.8-2.3-3.8-2.1-1.8-4.7-2.7-7.4-2.7h-.2c-4.3 0-11.1 4.8-11.5 12v.2C25.4-.4 33 3.4 36.7 3.4c2.4 0 4.7-.7 6.6-2.1 1.1 1.3 2.6 2.1 4.3 2.1 1.3 0 2.5-.5 3.3-1.5.6-.7.9-1.7 1-2.6 0 .9.4 1.9 1 2.6.8 1 2 1.5 3.3 1.5s2.6-.5 3.6-1.4c1.3.9 2.8 1.4 4.3 1.4 1 0 2-.2 2.9-.6.6.3 1.3.4 2 .4 1 0 2-.3 2.8-.9.9.7 2.1 1.1 3.2 1.1h.5c1.2-.1 2.2-.7 2.9-1.6l.1-.1c.9 1 2.1 1.6 3.5 1.8h.6c1.3 0 2.5-.5 3.3-1.5 0-.1.1-.1.1-.2.1.1.2.1.2.2.1.1.3.2.4.4-.5.2-1 .6-1.2 1.1-.3.9.3 2.9 1.2 4.2.4.8 1.2 1.4 2.1 1.5.3 0 .6-.1.9-.3.5-.4.9-.7 1.2-.9.3-.3.7-.6 1.1-.8.4-.3.9-.5 1.4-.6s1-.3 1.4-.7c.3-.5.2-2-.1-3 .6-.3 1.1-.6 1.7-1 1.3 1.2 3 1.8 4.8 1.8 1 0 2-.2 2.9-.6 2.4 1.1 5.3 0 6.4-2.5.3-.6.4-1.3.4-2v-4.8c-.1-5.2-3.6-8.4-8.8-8.4zm-64.7 7c-.8 0-1.2-.6-1.2-1.7-.1-.6.4-1.1 1-1.2h.3c.6 0 1.2.1 1.7.3.7.4 1.5.6 2.4.6h.5c-.1.3-.1.7-.1 1h-.4c-.8.1-1.6.3-2.4.6-.6.4-1.2.5-1.8.4zm14.5 6.4c0-.3 0-.6-.1-.8-.2-1.2-.4-2.4-.4-3.6h.3c.2 0 .5 0 .7-.1 0 1.2-.1 2.4-.4 3.6 0 .4-.1.6-.1.9z"/></g><path id="Path_77" class="st1" d="M5.2-14.9c.1-1.2.9-2.1 2.1-2.3 1.2-.3 2.4.4 2.7 1.6.8 4.5-.1 9.2-.4 13.8C9.6-.5 8.5.5 7.2.6c-.7 0-1.4-.4-1.8-1C4.7.4 3.7.9 2.7.8.6.8-2.1-.7-2.7-6c-.5-4.5 2.6-6 5.3-6 1 0 2 .3 2.8.9-.1-1.2-.1-2.6-.2-3.8zM4.7-4.2c.6-.9.6-2 .1-2.9-.3-.4-.8-.7-1.3-.6-.9 0-1.6.8-1.6 1.7v.1c0 1.9 1.2 2.3 1.7 2.3.4 0 .8-.3 1.1-.6z"/><path id="Path_78" class="st2" d="M17 .8c-5 .4-6.6-2.5-6.8-6.5-.2-3.9 1.3-7.2 5.2-7.5 3.8-.3 7.6 2.1 7.9 5.5 0 1.3-.8 2.4-2 2.7-1 .2-2.1.3-3.2.3-1 0-2.2-.1-2.7.2-.3.2-.4.6-.2.8.3.3 1 .4 2.4.3 1-.2 1.9-.4 2.9-.6.9-.3 1.8.2 2 1 .1.2.1.4.1.5 0 .9-.6 1.7-1.4 2.1C19.9.3 18.4.7 17 .8zm1-8.4c.3-.1.5-.4.4-.7 0-.1-.1-.2-.1-.2-.4-.5-1-.8-1.7-.6-.6 0-1.1.4-1.4.9-.1.3 0 .6.2.7.1 0 .2.1.3.1.8 0 1.5-.1 2.3-.2z"/><path id="Path_79" class="st3" d="M36.6.8c-2.6 0-8.9-2.9-9.2-10 .3-6 6-9.6 9-9.6h.2c1.5 0 3.3.2 6 2.2.7.6 1.2 1.4 1.4 2.4.1.5-.1 1.1-.5 1.4-.5.5-1.2.8-2 .8h-.1c-.5 0-1-.2-1.5-.4-.8-.3-1.7-.5-2.6-.5h-.1c-1.9-.1-3.6 1.4-3.7 3.3v.3c0 3.3 2.3 4.2 3.7 4.2h.1c.9 0 1.8-.1 2.6-.5.5-.2 1-.4 1.5-.4h.1c.7 0 1.5.3 2 .8.4.4.5.9.5 1.4-.2.9-.7 1.8-1.4 2.4-2.7 2-4.5 2.2-6 2.2z"/><g id="Group_8" transform="translate(108.317 9.429)"><path id="Path_80" class="st3" d="M-15.6-5.1c0 .8-1.2.3-2.7 1.8s-2.6-.7-2.6-2c0-.8 1.2-.3 2.7-1.8 1.5-1.6 2.6.7 2.6 2z"/><path id="Path_81" class="st3" d="M-13.2-21.3c.6.5 1 1.2 1.1 1.9 0 1.1-.8 1.9-1.9 2h-.3c-.4 0-.8-.1-1.2-.3-.5-.2-1.1-.3-1.7-.3-1.1-.1-2.1.8-2.2 1.9v.2c0 2.1 1.4 2.5 2.2 2.5.6 0 1.1-.1 1.7-.3.4-.2.8-.3 1.2-.3 1.1-.1 2 .7 2.1 1.7v.3c-.1.7-.5 1.4-1.1 1.9-1.2 1-2.7 1.6-4.3 1.6-3.7-.4-6.6-3.5-6.7-7.3.2-4.4 4.4-7.1 6.7-7 1.7-.1 3.2.5 4.4 1.5z"/></g><path id="Path_82" class="st4" d="M51.1-8c-2.1 0-2.2 1.4-2.2 1.4-.1 1.7.1 3.4.4 5.1.3.9-.2 2-1.1 2.3-.2.1-.4.1-.6.1-1.4 0-2.6-1-3-2.4-.6-2.8-.6-5.7-.1-8.5.4-1.4 1.7-2.4 3.1-2.5.7-.1 1.5.3 1.7 1 .8-.7 1.8-1.2 2.8-1.2h.4c1.3 0 1.6 1 1.4 2.3-.3 1.3-1 2.3-2.3 2.3 0 .1-.5.1-.5.1z"/><g id="Group_9" transform="translate(72.206 3.079)"><path id="Path_83" class="st5" d="M-17.8-12.7c-.3-2 .7-2.8 1.6-2.8 1.5 0 2.8 1 3.1 2.5.5 2.8.5 5.7-.1 8.5-.4 1.4-1.6 2.3-3 2.4-1 0-1.8-.7-1.9-1.7 0-.2 0-.4.1-.6.3-1.5.5-3 .4-4.6.2-.2 0-2.1-.2-3.7z"/><path id="Path_84" class="st5" d="M-12.7-19.2c0 1.4-1.1 3.3-2.6 3.4-1.5 0-2.6-2-2.6-3.4s1.2-2.6 2.6-2.6c1.4 0 2.6 1.2 2.6 2.6z"/></g><path id="Path_85" class="st1" d="M71.4-6.5v4.7C71.4-.5 70.3.6 69 .6c-.8 0-1.5-.4-1.9-1-.8.8-1.9 1.2-3 1.2-.6 0-4.5-.2-4.5-4.4 0-2.3 1.6-3.6 4.3-3.6 1 0 2.1.3 3 .8v-.7c-.2-.6-.6-1.2-2.6-1.2-.6 0-1.2.1-1.7.2-1 0-1.9-.8-1.9-1.9 0-1 .8-1.9 1.8-1.9.9-.1 1.8-.2 2.7-.2 3.8-.1 6.2 2.2 6.2 5.6zm-5.1 3.3c.2-.6-.3-1-1.7-1.2-1.1-.2-1.2.3-1.3.7s.1.9 1 1.1c1.9.3 2-.6 2-.6z"/><path id="Path_86" class="st6" d="M108.3-6.5v4.7c0 1.3-1.1 2.4-2.4 2.4-.8 0-1.5-.4-1.9-1-.8.8-1.9 1.2-3 1.2-.6 0-4.5-.2-4.5-4.4 0-2.3 1.6-3.6 4.3-3.6 1 0 2.1.3 3 .8v-.7c-.2-.6-.6-1.2-2.6-1.2-.6 0-1.2.1-1.7.2-1 0-1.9-.8-1.9-1.9 0-1 .8-1.9 1.8-1.9.9-.1 1.8-.2 2.7-.2 3.8-.1 6.2 2.2 6.2 5.6zm-5.1 3.3c.2-.6-.3-1-1.7-1.2-1.1-.2-1.2.3-1.3.7-.1.4.1.9 1 1.1 1.9.3 2-.6 2-.6z"/><path id="Path_87" class="st2" d="M84.2-1.5c.3.9-.2 2-1.2 2.3-.3.1-.6.1-.9.1-1.3-.2-2.3-1.1-2.7-2.4-.4-1.8-.5-3.7-.4-5.5 0-.5-.4-.9-.8-.9h-.1c-.7 0-1.4.4-1.9 1-.1 1.8 0 3.6.4 5.4.2 1.2-.3 2.3-1.5 2.4-1.5.1-2.8-.9-3.2-2.3-.6-2.8-.6-5.6-.1-8.4.4-1.4 1.6-2.4 3-2.4.8-.1 1.6.2 1.9 1 1.1-.8 2.4-1.2 3.7-1.1 2.5 0 3.6 1.9 3.3 4.4 0 2 .1 4.2.5 6.4z"/></g><g id="Top_1_"><g id="Back_1_" transform="translate(11.415)"><g id="Grid_1_" transform="translate(73.829 39.643)"><path id="Path_88" class="st7" d="M-15-9.6l32.2.1"/><path id="Path_89" class="st7" d="M-15-7.7l32.2.1"/><path id="Path_90" class="st7" d="M-15-5.7l32.2.1"/><path id="Path_91" class="st7" d="M-15-3.8l32.2.1"/><path id="Path_92" class="st7" d="M-15 .2c0-4.6.1-9.1.1-13.7"/><path id="Path_93" class="st7" d="M-13.2.2c0-4.6.1-9.1.1-13.7"/><path id="Path_94" class="st7" d="M-11.5.2c0-4.6.1-9.1.1-13.7"/><path id="Path_95" class="st7" d="M-9.7.2c0-4.6.1-9.1.1-13.7"/><path id="Path_96" class="st7" d="M-7.9.2c0-4.6.1-9.1.1-13.7"/><path id="Path_97" class="st7" d="M-6.1.2c0-4.6.1-9.1.1-13.7"/><path id="Path_98" class="st7" d="M-4.3.2c0-4.6.1-9.1.1-13.7"/><path id="Path_99" class="st7" d="M-2.5.2c0-4.6.1-9.1.1-13.7"/><path id="Path_100" class="st7" d="M-.8.2c0-4.6.1-9.1.1-13.7"/><path id="Path_101" class="st7" d="M1 .2c0-4.6.1-9.1.1-13.7"/><path id="Path_102" class="st7" d="M2.8.2c.1-4.6.1-9.1.1-13.7"/><path id="Path_103" class="st7" d="M4.6.2c0-4.6.1-9.1.1-13.7"/><path id="Path_104" class="st7" d="M6.4.2c0-4.6.1-9.1.1-13.7"/><path id="Path_105" class="st7" d="M8.2.2c0-4.6.1-9.1.1-13.7"/><path id="Path_106" class="st7" d="M10 .2l.1-13.7"/><path id="Path_107" class="st7" d="M11.7.2c0-4.6.1-9.1.1-13.7"/><path id="Path_108" class="st7" d="M13.5.2c0-4.6.1-9.1.1-13.7"/><path id="Path_109" class="st7" d="M15.3.2l.1-13.7"/><path id="Path_110" class="st7" d="M17.1.2c0-4.6.1-9.1.1-13.7"/><path id="Path_111" class="st7" d="M-15-11.5l32.2.1"/><path id="Path_112" class="st7" d="M-15-13.5l32.2.1"/><path id="Path_113" class="st7" d="M-15-1.9l32.2.1"/><path id="Path_114" class="st7" d="M-15 .1l32.2.1"/></g><g id="Group_10" transform="translate(61.092 31.146)"><path id="Wall_1_" d="M-12-11.1v34.6h50.7v-34.6H-12zM23.4 5.4c0 1.1-.9 2-2 2H4.5c-1.1 0-2-.9-2-2v-6.9c0-1.1.9-2 2-2h16.9c1.1 0 2 .9 2 2v6.9z" fill="#8918b3"/><path id="Path_115" class="st0" d="M39.6 24.3h-52.4V-12h52.4v36.3zm-50.7-1.7h49v-32.9h-49v32.9zM21.3 8.3H4.5C2.9 8.3 1.6 7 1.6 5.4v-6.9c0-1.6 1.3-2.9 2.9-2.9h16.9c1.6 0 2.9 1.3 2.9 2.9v6.9c0 1.6-1.3 2.9-3 2.9zM4.5-2.7c-.6 0-1.2.5-1.2 1.2v6.9c0 .6.5 1.2 1.2 1.2h16.9c.6 0 1.2-.5 1.2-1.2v-6.9c0-.6-.5-1.2-1.2-1.2H4.5z"/></g><g id="_x30_3_Tower_1_" transform="translate(111.116)"><path id="Path_116" class="st0" d="M-5.2 12.6c-1.9-1.6-4.3-2.5-6.8-2.5-1.4 0-2.9.4-4 1.3-1.6 1.2-2.5 3.1-2.6 5.6-.4 7.5-.1 18.9.7 32.3.1 3.2 2.8 5.8 6.1 5.7 3.3.1 6.1-2.6 6.1-5.9v-.4c0-5.9.6-23.6 1.8-29.8.4-2.6 0-4.7-1.3-6.3z"/><path id="Path_117" class="st0" d="M-.7 13.8c-.1-1.2-.4-2.4-.7-3.6-.1-.3-.1-.5-.2-.8-.5-2.1-3.6-12.3-3.9-13.3-.6-2-2.6-3.1-4.6-2.5-1 .3-1.9 1-2.3 2l-7.8 13.5v.1c-.5.9-.8 1.8-1.1 2.8-.4 1.7 0 3.5 1.1 4.8 1.6 2.2 4.3 3.6 7.7 4 .5.1 1 .1 1.5.1h.5c1.6 0 3.3-.3 4.8-.8 1.7-.6 3.5-1.4 4.4-3.1.4-1 .7-2.1.6-3.2z"/><path id="Path_118" d="M-11 12.4s6.1-.2 4.9 6C-7.4 25.2-8 43.4-8 48.7s-7.4 5.3-7.7.5c-.8-12.6-1.1-24.4-.7-32.1.3-5.8 5.4-4.7 5.4-4.7z" fill="#dc1947"/><path id="Path_119" class="st0" d="M-10.6 19.9h-.5c-.5 0-.9-.1-1.4-.1-3.1-.4-5.6-1.7-7.1-3.7-1-1.4-.3-2.7.1-4.2.2-.9.6-1.8 1-2.6l7.1-11.7c.6-1.2.9-1.9 2.1-1.9 1.5 0 1.9.8 2.3 2.2.3.9 2.9 9.5 3.4 11.5.5 1.3.8 2.7 1.1 4.1 0 1.1.3 2-.1 2.8-.8 1.4-2.1 2.4-3.6 2.8-1.4.5-2.9.8-4.4.8z"/><path id="top_7_" class="st4" d="M-7.7-3.3c.3.9 3.3 11.1 3.8 13.2.4 1.3.7 2.7.9 4 .1.7-.1 1.3-.4 2C-4 17-5.5 17.6-6.6 18c-1.4.5-2.9.7-4.5.7-.4 0-.9 0-1.3-.1-2.3-.3-4.8-1.2-6.2-3.1-.7-.8-.9-1.9-.7-2.9.2-.8.5-1.6.9-2.3l7.8-13.6c.3-.8 1.1-1.1 1.9-.8.6 0 .9.4 1 .8z"/></g><g id="_x30_4_Tower_1_" transform="translate(48.147)"><path id="Path_120" class="st0" d="M7.3 16.9c-.1-2.5-1-4.4-2.6-5.6-1.2-.9-2.6-1.3-4-1.3-2.5.1-4.9 1-6.8 2.5-1.3 1.6-1.7 3.7-1.2 6.3 1.2 6.3 1.8 24 1.8 29.8-.2 3.3 2.4 6.1 5.7 6.3h.4c3.2.1 5.9-2.5 6.1-5.7.8-13.3 1-24.8.6-32.3z"/><path id="Path_121" class="st0" d="M10.1 11.9c-.2-1-.6-1.9-1.1-2.8L1.1-4.5C.5-5.8-.8-6.6-2.2-6.6c-1.6 0-3.1 1.1-3.5 2.7-.4 1-3.4 11.2-3.9 13.2-.1.3-.1.5-.2.8-.4 1.2-.6 2.4-.7 3.7-.1 1.1.1 2.1.6 3.1.9 1.7 2.7 2.5 4.4 3.1 1.5.5 3.2.8 4.8.8h.5c.5 0 1-.1 1.5-.1 3.4-.4 6.1-1.9 7.7-4 1.1-1.4 1.5-3.1 1.1-4.8z"/><path id="Path_122" class="st4" d="M-.3 12.4s-6.1-.2-4.9 6c1.3 6.8 1.9 25 1.9 30.3s7.4 5.3 7.7.5c.8-12.7 1.1-24.5.7-32.2-.3-5.7-5.4-4.6-5.4-4.6z"/><path id="Path_123" class="st0" d="M-.7 19.9h.5c.5 0 .9-.1 1.4-.1 2.7-.3 5.2-1.7 6.9-3.9 1-1.4.5-2.7.1-4.2-.2-.9-.6-1.8-1-2.6l-7.3-12C-.7-4.1-1-4.6-2.2-4.6c-1.5 0-1.7 1-2.1 2.4-.3.9-3.1 9.8-3.6 11.7-.2.3-.2.5-.3.8-.3 1.1-.6 2.2-.6 3.4-.1 1 .1 1.9.6 2.8.6 1.3 1.8 2.3 3.2 2.6 1.3.5 2.8.8 4.3.8z"/><path id="top_6_" class="st1" d="M-3.6-3.3c-.3.9-3.3 11.1-3.8 13.2-.4 1.3-.7 2.7-.9 4-.1.7.1 1.3.4 2 .6 1.1 2.1 1.7 3.2 2.1 1.4.5 2.9.7 4.5.7.4 0 .9 0 1.3-.1 2.3-.3 4.8-1.2 6.2-3.1.5-.9.8-2 .6-3.1-.2-.8-.5-1.6-.9-2.3L-.8-3.5c-.3-.8-1.1-1.1-1.9-.8-.5.2-.8.6-.9 1z"/></g><g id="Group_11" transform="translate(0 38.955)"><path id="Stairs_2_" class="st6" d="M-1.2 13.7L26.5-4l-4.1-6.4c-2-.3-4.1-.3-6 .2-.2 2-.2 4 .2 6-2-.3-4.1-.3-6 .2-.2 2-.2 4 .2 6-2-.3-4.1-.3-6 .2-.2 2-.2 4 .2 6-2-.3-4.1-.3-6 .2-.4 1.8-.4 3.6-.2 5.3z"/><path id="Path_124" class="st0" d="M-1.8 15.2l-.2-1.3c-.3-1.8-.3-3.7 0-5.5l.1-.6.6-.1c1.7-.4 3.5-.5 5.2-.3-.2-1.7-.2-3.4 0-5.1v-.8l.6-.1C6.2 1 8 .9 9.7 1.1c-.2-1.7-.2-3.4 0-5.1l.1-.6.6-.1c1.7-.4 3.5-.5 5.2-.3-.2-1.7-.2-3.4 0-5.1v-.4l.4-.3h.2c1.7-.4 3.5-.5 5.3-.3v-2.1l6.2 9.7-29.5 18.7zm1.4-6.1c-.1 1-.1 2.1 0 3.1l5-3.2c-1.7-.2-3.4-.1-5 .1zM5.5 3c-.1 1.7-.1 3.5.2 5.2v.2L25.3-4.1l-3.4-5.3c-1.6-.2-3.2-.2-4.7.1-.1 1.7-.1 3.5.2 5.2l.2 1.2-1.2-.2c-1.7-.3-3.4-.3-5.1 0-.1 1.7-.1 3.5.2 5.2l.2 1.2-1.2-.2c-1.6-.5-3.3-.4-5-.1z"/></g><g id="Group_12" transform="translate(147.292 38.955)"><path id="Stairs_1_" class="st6" d="M1.1 13.7L-26.6-4l4.1-6.4c2-.3 4-.3 6 .2.2 2 .2 4-.2 6 2-.3 4.1-.3 6 .2.2 2 .2 4-.2 6 2-.3 4.1-.3 6 .2.2 2 .2 4-.2 6 2-.3 4.1-.3 6 .2.5 1.8.4 3.6.2 5.3z"/><path id="Path_125" class="st0" d="M1.8 15.2L-27.8-3.7l6.2-9.7v2.1c1.8-.2 3.6-.1 5.3.3h.2l.4.3v.4c.2 1.7.2 3.4 0 5.1 1.7-.2 3.5-.1 5.2.3l.6.1.1.6c.2 1.7.2 3.4 0 5.1 1.7-.2 3.5-.1 5.2.3l.6.1.1.6c.2 1.7.2 3.4 0 5.1 1.7-.2 3.5-.1 5.2.3l.6.4.1.6c.2 1.8.2 3.7 0 5.5l-.2 1.4zm-6.4-6.1l5 3.2c.1-1 .1-2.1 0-3.1-1.7-.3-3.3-.4-5-.1zM-25.4-4.2L-5.8 8.3v-.2c.3-1.7.4-3.4.2-5.2-1.7-.3-3.4-.3-5.1 0l-1.2.2.2-1.2c.3-1.7.4-3.4.2-5.2-1.7-.3-3.4-.3-5.1 0l-1.2.2.2-1.2c.3-1.7.4-3.4.2-5.2-1.6-.3-3.2-.3-4.7-.1l-3.3 5.4z"/></g><path id="Path_126" class="st10" d="M44.6 20.6C45.7 30.8 45.8 41 46 48.7c.8-9.3.8-18.6-.1-27.9l-1.3-.2z"/><path id="Path_127" class="st10" d="M97.3 21c-.8 10.2-.7 20.4-.9 28.1 0 0-1-13.6-.6-28.6l1.5.5z"/><path id="Path_128" class="st10" d="M40.8 13.5S44.5.4 45.1-1.2s1.7-1.4 2.2 0c0 0-1.2-.2-2.3 2.9-.4 1-4.2 11.8-4.2 11.8z"/><path id="Path_129" class="st10" d="M93.1 12.2S99.7.3 100.7-1.1s1.9-1 2.2.5c0 0-1.1-.5-3 2.3-.5.8-6.8 10.5-6.8 10.5z"/><g id="Group_13" transform="translate(26.774 14.513)"><path id="Path_130" class="st6" d="M81 1.6l1-2.8c.2-.7-.2-1.3-.9-1.5-2.6-.9-5.3-1.7-8-2.4-.6-.2-1.4.1-1.6.8l-.7 2.9c-.2.6-.9 1-1.5.8-2-.5-4-.8-6-1.2-.7-.1-1.1-.7-1.1-1.3.1-1 .3-2 .4-2.9 0-.7-.5-1.3-1.2-1.3-2.7-.4-5.5-.7-8.2-.8-.7-.1-1.3.4-1.4 1.1 0 1-.1 2-.1 3-.1.7-.7 1.1-1.3 1.1-2-.1-4-.1-6 0-.7.1-1.2-.4-1.3-1.1 0-1-.1-2-.1-3-.1-.7-.7-1.2-1.4-1.1-2.8.1-5.5.4-8.2.7-.7 0-1.2.6-1.2 1.3l.4 2.9c.1.7-.4 1.2-1.1 1.3-2 .3-4 .7-6 1.1-.6.2-1.3-.2-1.5-.8l-.6-3c-.2-.7-.9-1-1.6-.8-2.7.7-5.4 1.4-8 2.3-.7.2-1.1.8-.9 1.5l1 2.8c.2.6-.2 1.3-.8 1.5C6.6 5 .3 8-5.6 11.6l5.5 8.9c28.9-17.7 65.3-17.7 94.2 0l5.5-8.9C93.9 8.3 88 5.4 81.8 3.1c-.6-.2-1-.9-.8-1.5z"/><path id="Path_131" class="st0" d="M94.3 21.8l-.7-.4C65 3.8 28.9 3.8.3 21.4l-.7.5-6.5-10.5.7-.5c5.9-3.6 12.3-6.7 18.8-9 .2-.1.4-.3.3-.4l-1-2.8c-.2-.5-.1-1 .1-1.5.3-.5.8-1 1.4-1.1 2.6-.9 5.4-1.7 8.1-2.3.6-.2 1.2-.1 1.7.3.4.3.8.7.9 1.2l.7 2.9c0 .1.2.2.5.2 2-.4 4-.8 6-1.1.2 0 .4-.2.4-.3l-.4-2.9c-.1-.5.1-1 .4-1.4.4-.5.9-.8 1.5-.9 2.7-.4 5.5-.6 8.3-.7.6 0 1.2.2 1.7.6.4.3.6.8.6 1.3l.1 3c0 .1.2.3.4.3 2-.1 4.1 0 6.1 0 .2 0 .4-.1.4-.3l.1-3c0-.5.3-1 .6-1.3.5-.4 1.1-.6 1.7-.6 2.8.2 5.6.4 8.3.8.6.1 1.2.4 1.5.9.3.4.4.9.4 1.4L63-2.9c0 .1.1.3.4.3 2 .3 4 .7 6 1.2.2.1.4 0 .5-.2l.7-2.9c.1-.5.4-.9.9-1.2s1.2-.4 1.8-.2c2.7.7 5.4 1.5 8.1 2.4.6.2 1.1.6 1.3 1.2.2.5.3 1 .1 1.5l-1 2.8c0 .1.1.3.3.4 6.2 2.3 12.2 5.2 17.9 8.7l.7.5-6.4 10.2zM-4.5 12l4.6 7.5c28.8-17.3 64.8-17.3 93.7 0l4.6-7.5c-5.3-3.2-11-5.9-16.8-8.1-1.1-.4-1.7-1.5-1.3-2.6l1-2.8v-.1l-.3-.3c-2.6-.9-5.3-1.7-7.9-2.4h-.4l-.1.1-.7 2.9C71.6-.2 70.5.4 69.4.2c-2-.4-3.9-.8-5.9-1.2-1.1-.2-1.9-1.2-1.8-2.3l.4-2.9v-.1c-.1-.1-.2-.2-.4-.2-2.7-.4-5.4-.6-8.2-.8-.1 0-.3 0-.4.1l-.1.1-.1 3c-.1 1.1-1.1 2-2.2 1.9-2-.1-4-.1-6 0-1.1.1-2.1-.8-2.2-1.9l-.1-3s0-.1-.1-.1c-.1-.1-.3-.1-.4-.1-2.7.1-5.5.4-8.2.7-.1 0-.3.1-.4.2v.1l.4 2.9c.1 1.1-.7 2.2-1.8 2.3-2 .3-4 .7-5.9 1.1-1.1.3-2.2-.4-2.5-1.5l-.7-2.9s0-.1-.1-.1c-.1-.1-.3-.1-.4 0-2.7.7-5.3 1.4-7.9 2.3-.1 0-.3.1-.3.3v.1l1 2.8c.3 1.1-.3 2.2-1.4 2.6C7.1 5.8 1.1 8.6-4.5 12z"/></g><path id="castle_7_" class="st11" d="M87 8.4L83.1 8c-.8-.2-1.6-.2-2.3.1-.8.4-.6 1.7-.7 2.4 0 .6-.3 1.3-.7 1.8-.8.9-1.9.8-3 .7h-6.9c1.2.1 2.5.2 3.7.3.9.1 1.9.1 2.8.2s1.9.1 2.8-.1c.3-.1.5-.2.8-.4.5-.4.8-1 1-1.7.1-.6.2-1.3.3-1.9 0-.3.1-.5.3-.7.3-.3.7-.4 1.1-.3 1.5 0 3.1-.1 4.7 0z"/><path id="castle_6_" class="st11" d="M67.4 7.8l-3.9.3c-.8 0-1.6.1-2.3.5-.7.6-.3 1.8-.2 2.5.1.6 0 1.3-.3 1.9-.6 1-1.8 1.1-2.8 1.3-1 .2-1.9.4-2.9.5-.9.2-1.7.3-2.6.5-.5.1-.9.2-1.4.3 1.2-.1 2.5-.3 3.7-.4.9-.1 1.9-.2 2.8-.3.9 0 1.9-.2 2.8-.6.3-.1.5-.3.7-.5.4-.5.6-1.2.6-1.8 0-.7-.1-1.3-.1-2 0-.3 0-.5.1-.7.2-.3.6-.5 1-.5 1.6-.4 3.2-.7 4.8-1z"/><path id="castle_5_" class="st11" d="M48.2 11l-3.8 1c-.8.1-1.5.4-2.1.9-.6.7 0 1.8.2 2.5.2.6.2 1.3 0 1.9-.4 1.1-1.5 1.4-2.5 1.8-.9.3-1.8.7-2.7 1l-2.4.9c-.4.2-.9.4-1.3.5 1.2-.3 2.4-.7 3.6-1.1.9-.3 1.8-.5 2.7-.8.9-.2 1.8-.6 2.6-1.1l.6-.6c.3-.6.4-1.3.3-1.9-.1-.6-.3-1.3-.4-1.9-.1-.2-.1-.5 0-.8.2-.4.5-.6.9-.7 1.3-.5 2.8-1.1 4.3-1.6z"/><path id="castle_4_" class="st11" d="M106.5 13l-3.7-1.2c-.7-.3-1.5-.5-2.3-.4-.9.2-.9 1.5-1.1 2.3-.2.6-.5 1.2-1 1.6-.9.7-2 .4-3.1.2-1-.2-1.9-.4-2.9-.6-.9-.2-1.7-.3-2.6-.5-.5-.1-1-.1-1.4-.3 1.2.3 2.4.7 3.6 1 .9.2 1.8.5 2.7.7.9.3 1.8.5 2.8.5.3 0 .6-.1.8-.2.6-.3 1-.8 1.3-1.5.3-.6.4-1.2.7-1.9.1-.2.2-.5.4-.6.3-.2.7-.3 1.1-.1 1.5.4 3.1.6 4.7 1z"/></g><g id="Front_1_" transform="translate(0 12.449)"><path id="_x30_1_BG_1_" class="st0" d="M154.5 31.6c-1.3 0-2.5.1-3.8.3-.4 0-.8.1-1.2.3-.8-.7-1.9-1-2.9-1h-.5c-1.1 0-2.3.3-3.3.9-.9-.5-1.8-.7-2.6-.7-.7 0-1.4.1-2.1.4.2-4.6.6-10.6 1.2-14.1 1.1-.5 2.1-1.4 2.7-2.5.5-1 .7-2.1.6-3.3-.1-1.3-.3-2.5-.7-3.8-.1-.3-.1-.5-.2-.8-.5-2.1-3.6-12.3-3.9-13.3-.6-2.1-2.8-3.3-4.9-2.7-1.1.3-2 1.1-2.5 2.1L122.6 7c-.5.9-.9 1.9-1.1 2.8-.4 1.8 0 3.6 1.1 5.1.4.6 1 1.1 1.5 1.6-.2 4.5-.2 9.9 0 16.3-2.1-1.3-4.5-2-7-2h-1c-1.5.1-2.9.5-4.2 1.2-.1-.9-.2-1.9-.3-2.8-.5-2.5-2.7-4.2-5.3-4.2-.4 0-.8 0-1.2.1-2.7.5-4.6 2.8-4.7 5.5v1.3c-.3 0-.6-.1-1-.1h-.3c-2.6-.1-5.2.9-7 2.8-2.1-2.2-5.1-3.3-8.1-3.2-1.3 0-2.5.1-3.8.3-1.1.1-2.1.6-2.9 1.3l-.5-.5c-2-1.7-4.5-2.6-7-2.6h-.2c-2.5 0-5.4 1.4-7.6 3.7-.1-.2-.2-.3-.4-.5-1.3-1.4-3.1-2.2-5.1-2.1-1.5 0-3 .3-4.4.9-.8-.4-1.8-.6-2.7-.6h-.2c-.7 0-1.3.1-1.9.4.2-6.1.2-11.2 0-15.4.5-.4.9-.9 1.3-1.4 1.1-1.4 1.6-3.3 1.1-5.1-.3-1-.6-1.9-1.1-2.8L40.9-6.5c-1-2-3.3-2.8-5.3-1.9-1 .5-1.8 1.4-2.1 2.5-.3 1-3.3 11.2-3.9 13.3-.1.3-.1.5-.2.8-.4 1.2-.6 2.5-.7 3.7-.3 2.5 1.2 4.9 3.6 5.8.6 3.4.9 9 1.2 13.4h-.1c-1.1 0-2.3.3-3.3.9-.8-.4-1.7-.6-2.6-.6-1.3 0-2.5.4-3.6 1.1-.2-2.5-1.6-4.8-3.6-6.3-2-1.3-4.3-1.9-6.6-1.9H7.1c-2.9.2-5.4 2.1-6.2 4.9C-.6 35.5-.6 42 .9 48.3c.8 2.8 3.3 4.7 6.2 4.8h7.3c2.8.1 5.5-.8 7.6-2.6 1.2 1.8 3.2 2.9 5.4 3 1.5 0 2.9-.6 3.8-1.7 1-1.2 1.3-2.8 1-4.4-.4-1.7-.5-3.5-.5-5.3h1c.4 0 .8 0 1.3-.1.1 1.9.1 3.6.1 4.8-.2 3.5 2.5 6.4 6 6.6h.4c1.7 0 3.3-.7 4.5-1.8 1.2 1.2 2.8 1.9 4.5 1.9h.6c1.3-.1 2.5-.8 3.3-1.9.2-.3.4-.6.5-.9 1.1 1.5 2.8 2.5 4.6 2.7h.6c1.5 0 2.8-.6 3.8-1.7.2-.2.4-.5.5-.8 1.8 1.5 4.1 2.4 6.5 2.6 2.5 0 5-.9 7-2.5.5.5 1 .9 1.6 1.2 1.4.7 2.9 1.1 4.4 1.1 1.3 0 2.6-.3 3.8-.9 2.5 1.3 5.5.5 7.1-1.7 1.6 1.6 3.8 2.5 6 2.6 1.2 0 2.4-.2 3.5-.8.7.4 1.5.5 2.4.5 1.7 0 3.2-.8 4.3-2.1 1.7 1.9 4.3 2.9 7.5 2.9h1.2c2.3-.1 4.4-.7 6.4-1.8.5-.2.9-.5 1.3-.9 2.4 2.7 6.6 2.9 9.3.5 1.2 1.2 2.8 1.8 4.5 1.8 1.5 0 2.9-.6 3.8-1.7 1-1.2 1.3-2.8 1-4.4-.4-1.7-.5-3.5-.5-5.3h1.2c-.4 1-.6 2-.6 3 0 3.2 1.4 5.7 3.9 7.1 1.4.7 2.9 1.1 4.4 1.1 1.3 0 2.6-.3 3.8-.9 2.8 1.4 6.1.3 7.5-2.5.4-.8.6-1.6.6-2.5v-5.9c-.3-5.9-4.5-9.8-10.8-9.8zM71.6 42.1c-.4.1-.8.2-1.2.2-.1 0-.3 0-.3-.7 0-.2 0-.2.3-.2.4 0 .8 0 1.2.2.2.1.5.2.7.2-.2.1-.5.2-.7.3z"/><g id="_x30_1_Brincadeira_1_" transform="translate(3.064 43.185)"><path id="Path_132" class="st1" d="M10.6-16.3c3.4 0 7.8 1.3 7.8 7.2 0 1.6-.6 3.1-1.7 4.2 1.7.8 2.9 2.6 2.9 5.2 0 2.8-1.9 7.1-8.3 7.1H4C2.3 7.3.8 6.2.3 4.5c-1.4-5.9-1.4-12 0-17.9.5-1.6 2-2.8 3.7-2.9h6.6zm-3 9.5c1.3 0 3.2 0 3.2-2S9.3-11 7.6-11c-1.2-.1-2.2.8-2.3 2v.1c.1 1.4 1 2 2.3 2.1zm1.2 9.3c1.3 0 3.2-.5 3.1-2.4-.1-1.7-1.9-2.4-3.3-2.4h-1C6.2-2.3 5.2-1.1 5.2.2c.2 1.3 1.4 2.3 2.7 2.3h.9z"/><path id="Path_133" class="st2" d="M28.9-3.6c-2.7 0-2.8 1.9-2.8 1.9-.1 2.2.1 4.4.6 6.5.3 1.7-.6 3-2.3 3-1.8-.1-3.4-1.3-3.8-3-.7-3.6-.8-7.3-.1-10.9.5-1.8 2.1-3.1 4-3.2 1-.1 1.9.4 2.2 1.3 1-.9 2.3-1.5 3.6-1.6h.5c1.7 0 2.1 1.2 1.7 2.9-.3 1.6-1.3 3-3 3l-.6.1z"/><path id="Path_134" class="st1" d="M141.5-3.6c-2.7 0-2.8 1.9-2.8 1.9-.1 2.2.1 4.4.6 6.5.3 1.7-.6 3-2.3 3-1.8-.1-3.4-1.3-3.8-3-.7-3.6-.8-7.3-.1-10.9.5-1.8 2.1-3.1 4-3.2 1-.1 1.9.4 2.2 1.3 1-.9 2.3-1.5 3.6-1.6h.5c1.7 0 2.1 1.2 1.7 2.9-.3 1.6-1.3 3-3 3l-.6.1z"/><path id="Path_135" class="st6" d="M58.2 4.7c.4 1.8-.7 3.2-2.6 3-1.7-.2-3-1.4-3.4-3-.5-2.3-.6-4.7-.5-7.1 0-.6-.5-1.1-1.1-1.1h-.1c-.9.1-1.8.5-2.4 1.3-.1 2.3 0 4.7.5 6.9.3 1.6-.4 2.9-1.9 3.1-1.9.1-3.6-1.1-4.1-3-.7-3.6-.8-7.2-.1-10.8.5-1.8 2-3 3.8-3.1 1.2 0 2.1.3 2.5 1.2 1.4-1 3.1-1.5 4.8-1.5 3.2 0 4.6 2.4 4.3 5.7-.4 2.8-.2 5.6.3 8.4z"/><path id="Path_136" class="st1" d="M72.3-8.5c.8.6 1.3 1.5 1.4 2.4 0 1.4-1 2.5-2.4 2.5H71c-.5 0-1-.2-1.5-.4-.7-.3-1.4-.4-2.1-.4-1.5-.1-2.8 1-2.8 2.5v.2c0 2.6 1.9 3.2 2.9 3.2.7 0 1.5-.1 2.1-.4.5-.2 1-.4 1.5-.4 1.4-.1 2.6.8 2.7 2.2v.3c-.2 1-.7 1.8-1.4 2.4-1.5 1.3-3.5 2.1-5.6 2.1-2.7 0-8.4-3-8.6-9.4.2-5.6 5.6-9.1 8.6-9 2 .1 4 .9 5.5 2.2z"/><path id="Path_137" class="st4" d="M89.1-1.7v6.1c0 1.7-1.4 3-3 3-1 0-1.9-.5-2.5-1.3-1 1-2.4 1.6-3.9 1.5-.8 0-5.7-.2-5.7-5.7 0-3 2-4.7 5.5-4.7 1.3 0 2.6.4 3.8 1v-.8c-.2-.8-.7-1.5-3.3-1.5-.8 0-1.5.1-2.2.2-1.3 0-2.4-1.1-2.4-2.4 0-1.3 1-2.4 2.3-2.5 1.2-.2 2.3-.3 3.5-.3 4.9 0 7.9 2.9 7.9 7.4zm-6.2 4.3c.2-.8-.5-1.4-2.2-1.6-1.4-.2-1.7.4-1.8.9s.2 1.2 1.4 1.4c2.4.4 2.6-.7 2.6-.7z"/><path id="Path_138" class="st4" d="M159.4-1.7v6.1c0 1.7-1.4 3-3 3-1 0-1.9-.5-2.5-1.3-1 1-2.4 1.6-3.9 1.5-.8 0-5.7-.2-5.7-5.7 0-3 2-4.7 5.5-4.7 1.3 0 2.6.4 3.8 1v-.8c-.2-.8-.7-1.5-3.3-1.5-.8 0-1.5.1-2.2.2-1.3 0-2.4-1.1-2.4-2.4 0-1.3 1-2.4 2.3-2.5 1.2-.2 2.3-.3 3.5-.3 4.8 0 7.9 2.9 7.9 7.4zM153 2.5c.2-.7-.4-1.3-2.1-1.6-1.4-.2-1.6.4-1.7.9s.1 1.1 1.3 1.4c2.3.4 2.5-.7 2.5-.7z"/><path id="Path_139" class="st5" d="M100-12.6c.1-1.5 1.2-2.7 2.7-2.9 1.5-.4 3 .5 3.4 2v.1c1 5.7-.2 11.8-.6 17.8-.1 1.7-1.4 3-3 3.1-1 0-1.9-.5-2.4-1.3-.8 1.1-2.2 1.6-3.5 1.5-2.8 0-6.2-1.9-7-8.7-.6-5.8 3.3-7.8 6.8-7.7 1.3 0 2.6.4 3.6 1.2.1-1.8.1-3.5 0-5.1zm-.6 13.7c.7-1.1.8-2.5.1-3.7-.4-.5-1-.8-1.7-.8-1.2 0-2.1 1-2.1 2.2v.2c.1 2.4 1.7 3 2.3 2.9.6 0 1.1-.3 1.4-.8z"/><path id="Path_140" class="st3" d="M115.4 8.2c-6.5.5-8.5-3.2-8.8-8.3-.2-5 1.6-9.3 6.7-9.6 4.9-.4 9.8 2.8 10.1 7 0 1.6-1.1 3-2.6 3.4-1.3.3-2.7.4-4 .4s-2.9-.1-3.5.2c-.4.2-.6.7-.3 1 .4.4 1.2.5 3.1.4 1.3-.2 2.5-.5 3.7-.8 1.1-.3 2.3.3 2.6 1.3.1.2.1.5.1.7 0 1.2-.8 2.2-1.8 2.7-1.6 1-3.4 1.5-5.3 1.6zm1.2-10.8c.4-.1.6-.5.6-.9 0-.1-.1-.2-.2-.3-.5-.7-1.3-1-2.2-.8-.8 0-1.5.5-1.7 1.2-.2.3 0 .8.3.9.1.1.2.1.3.1 1 0 2-.1 2.9-.2z"/></g><g id="_x30_2_Tower_1_" transform="translate(148.414 1.693)"><path id="Path_141" class="st2" d="M-16.4 8.8s6.1-.2 4.9 6c-1.3 6.7-1.9 24.9-1.9 30.2s-7.4 5.3-7.7.5c-.8-12.6-1.1-24.4-.7-32.1.4-5.7 5.4-4.6 5.4-4.6z"/><path id="Path_142" class="st0" d="M-15.9 16.2h-.5c-.5 0-.9-.1-1.4-.1-3.1-.4-5.6-1.7-7.1-3.7-1-1.2-1.4-2.8-1-4.4.2-.9.6-1.8 1-2.6l7.3-12.6c.8-1.6 2.8-2.4 4.4-1.6.9.4 1.5 1.2 1.8 2.1.3.9 3.1 10.4 3.6 12.3.1.3.1.5.2.8.3 1.1.6 2.2.6 3.4.1 1-.1 1.9-.6 2.8-.8 1.5-2.5 2.3-4 2.8-1.4.6-2.8.8-4.3.8z"/><path id="top_4_" class="st3" d="M-13-6.8c.3.9 3.3 11.1 3.8 13.2.4 1.3.7 2.7.9 4 .1.7-.1 1.3-.4 2-.6 1.1-2.1 1.7-3.2 2.1-1.4.5-2.9.7-4.5.7-.4 0-.9 0-1.3-.1-2.3-.3-4.8-1.2-6.2-3.1-.7-.8-.9-1.9-.7-2.9.2-.8.5-1.6.9-2.3l7.8-13.6c.3-.7 1.1-1.1 1.9-.8.5 0 .8.3 1 .8z"/></g><g id="_x30_1_Tower_1_" transform="translate(36.379 1.693)"><path id="Path_143" class="st3" d="M3.1 8.8s-6.1-.2-4.9 6C-.5 21.5.1 39.7.1 45s7.4 5.3 7.7.5c.7-12.6 1-24.3.6-32-.3-5.8-5.3-4.7-5.3-4.7z"/><path id="Path_144" class="st0" d="M2.4 16.2c-1.5 0-3-.2-4.4-.7-1.5-.5-3.2-1.3-4-2.8-.4-.9-.6-1.8-.6-2.8.1-1.1.3-2.3.6-3.4.1-.3.1-.5.2-.8.5-1.9 3.3-11.4 3.6-12.3.5-1.8 2.3-2.8 4.1-2.3.9.3 1.7.9 2.1 1.8l7.3 12.5c.4.8.8 1.7 1 2.6.4 1.5 0 3.1-1 4.4-1.5 2-4 3.3-7.1 3.7-.5.1-.9.1-1.4.1h-.4z"/><path id="top_3_" class="st2" d="M-.5-6.8c-.3.9-3.3 11.1-3.8 13.2-.4 1.3-.7 2.7-.9 4-.1.7.1 1.3.4 2 .6 1.1 2.1 1.7 3.2 2.1 1.4.5 2.9.7 4.5.7.4 0 .9 0 1.3-.1 2.3-.3 4.8-1.2 6.2-3.1.7-.8.9-1.9.7-2.9-.2-.8-.5-1.6-.9-2.3L2.3-7C2-7.8 1.2-8.1.4-7.8c-.4.1-.7.5-.9 1z"/></g></g></g></g><g id="Shine_1_" transform="translate(3.893 17.938)"><path id="B_1_" class="st10" d="M11.2 22.8c-1.5-.2-3.1-.3-4.6-.4-1-.1-2 0-3 .1-.6 0-1.3.2-1.8.5s-1 .8-1.3 1.3c-.7 1.3-1.1 2.8-1.1 4.2-.2 1.5-.3 3.1-.2 4.6 0 1.1.1 2.2.2 3.4.1 1.1.3 2.2.4 3.3.1.7.2 1.4.4 2.1 0 0-.3-3.8-.4-7.5 0-1.7.1-3.4.3-5.1.8-5.3 2.1-6 6.2-6.3 1.2-.1 3.2-.2 4.9-.2z"/><path id="r_5_" class="st10" d="M20.9 31c-2.1 3.6-.2 11.6-.2 11.6.1-4.5-.2-9.3 1.7-11.3.6-.8 1.7-1 2.6-.7-.7-1.5-3.1-1.3-4.1.4z"/><path id="r_4_" class="st10" d="M133.6 31c-1.9 3.7-.2 11.6-.2 11.6.1-4.5-.2-9.5 1.7-11.5.7-.7 1.7-.9 2.6-.5-.3-1.1-3-1.8-4.1.4z"/><path id="r_3_" class="st10" d="M71.3 56.2c-1.4 2.8-.2 8.9-.2 8.9 0-3.5-.2-7.3 1.3-8.9.5-.5 1.3-.7 2-.4-.2-.7-2.3-1.3-3.1.4z"/><path id="tower_5_" class="st10" d="M32.4 13.4c1.1 10.2 1.2 20.4 1.4 28.1.8-9.3.8-18.6-.1-27.9l-1.3-.2z"/><path id="tower_4_" class="st10" d="M125.4 13.4c-.7 10.2-.7 20.4-.9 28.1 0 0-1-13.6-.6-28.6l1.5.5z"/><path id="cone_3_" class="st10" d="M121.1 5.2s6.6-11.9 7.6-13.3c1-1.4 1.9-1 2.2.5 0 0-1.1-.5-3 2.3-.6.8-6.8 10.5-6.8 10.5z"/><path id="cone_2_" class="st10" d="M28.2 6.1S31.9-7 32.5-8.6s1.7-1.4 2.2 0c0 0-1.2-.2-2.3 2.9-.5.9-4.2 11.8-4.2 11.8z"/><path id="n_3_" class="st10" d="M43.2 31.4c-1.7 3.5-.2 11.2-.2 11.2.1-4.5-.1-8.5 1.4-10.8.4-.9 1.5-1.3 2.4-.9-.7-1.4-2.7-1.3-3.6.5z"/><path id="n_2_" class="st10" d="M98.8 56.3c-1.2 2.9-.3 8.8-.3 8.8 0-3.7 0-6.6 1.2-8.5.4-.7 1.2-1.1 2-.9-.5-1.1-2.3-.7-2.9.6z"/><path id="c_5_" class="st10" d="M58.6 38.9c-.7-1.7-.7-3.6-.1-5.2 1.1-2.8 3.4-4.8 6.3-5.6 1.8-.5 3.7 0 5.1 1.2 0 0-5.2-1.8-8.5 1.8-3.7 3.9-2.8 7.8-2.8 7.8z"/><path id="c_4_" class="st10" d="M54.5 60.2c-.7-1.8-.7-3.8-.1-5.6 1.1-3 3.6-5.2 6.7-6 1.9-.5 4 0 5.5 1.2 0 0-5.4-2.1-9.2 1.9-3.9 4.3-2.9 8.5-2.9 8.5z"/><path id="c_3_" class="st10" d="M110.9 62.1c-.5-1.3-.5-2.7 0-4 .9-2.1 2.7-3.7 4.9-4.3 1.4-.4 2.9 0 4.1.9 0 0-4.1-1.5-6.9 1.4-3 3-2.1 6-2.1 6z"/><path id="a_7_" class="st10" d="M75.2 31.3s-.4-1.3 1.8-1.7c2.2-.5 7.8-.5 9.4 3 0 0-1.5-2.4-6.4-2.5-3.8-.1-4.8 1.2-4.8 1.2z"/><path id="a_6_" class="st10" d="M145.5 31.7s-.4-1.6 1.8-2.1 7.8-.5 9.4 3c0 0-1.5-2.4-6.4-2.5-3.8-.1-4.8 1.6-4.8 1.6z"/><path id="a_5_" class="st10" d="M87 56.7s-.3-1.2 1.4-1.6c1.7-.4 6-.4 7.2 2.3 0 0-1.2-1.8-4.9-1.9-2.9-.1-3.7 1.2-3.7 1.2z"/><path id="a_4_" class="st10" d="M124 56.7s-.3-1.2 1.4-1.6c1.7-.4 6-.4 7.2 2.3 0 0-1.2-1.8-4.9-1.9-2.9-.1-3.7 1.2-3.7 1.2z"/><path id="d_9_" class="st10" d="M89.8 37.7s-1.2-6.1 4.1-7.5c0 0 3.1-.6 4.8 1.4-3.5-1.9-8.5-.1-8.9 6.1z"/><path id="d_8_" class="st10" d="M100.1 26.4v-.8c-.1-3 3.7-2.7 4-1.1-2-1.3-3.7-.1-4 1.9z"/><path id="d_7_" class="st10" d="M23.7 61.4s-1-4.8 3.3-6c0 0 2.5-.5 3.8 1.1-2.8-1.5-6.8 0-7.1 4.9z"/><path id="d_6_" class="st10" d="M31.7 52.4v-.6c-.1-2.4 2.9-2.2 3.2-.9-1.6-1-3-.1-3.2 1.5z"/><path id="Path_145" class="st10" d="M106.6 37.1s-.8-7.3 5.7-8.4c0 0 3.6-.3 5.6 1.5 0 0-8.9-4.8-11.3 6.9z"/><path id="Path_146" class="st10" d="M36.4 60.8s-.6-5.9 4.6-6.8c0 0 2.9-.3 4.5 1.2.1-.1-7.2-3.9-9.1 5.6z"/><path id="d_5_" class="st10" d="M80.6 50.9c-.2-2.9 3.3-2.5 3.7-.9-1.8-1.7-3.5-.7-3.7.9z"/><path id="tower_3_" class="st10" d="M81.2 57.5c.4 2.4.4 4.8 0 7.2.6-2.4.7-4.9.5-7.4-.2-1-.6-.6-.5.2z"/></g></g></svg>