<?xml version="1.0" encoding="utf-8"?>
<!-- Generator: Adobe Illustrator 24.0.3, SVG Export Plug-In . SVG Version: 6.00 Build 0)  -->
<svg version="1.1" id="Layer_1" xmlns="http://www.w3.org/2000/svg" xmlns:xlink="http://www.w3.org/1999/xlink" x="0px" y="0px"
	 viewBox="0 0 198 120" style="enable-background:new 0 0 198 120;" xml:space="preserve">
<style type="text/css">
	.st0{fill:#638500;}
	.st1{fill:#9EC12F;}
	.st2{fill:none;stroke:#638500;stroke-width:1.00054;stroke-miterlimit:10;}
</style>
<g id="brand_mono" transform="translate(0 -101)">
	<g id="Group_7" transform="translate(29.438 184.724)">
		<path id="Path_75" class="st0" d="M36.08774,20.09273c1.00211-1.19876,1.50316-2.69721,1.40295-4.19566
			c-0.40084-5.09474-5.71201-9.2904-11.72465-9.2904c-0.30063,0-0.60126,0-0.9019,0
			c-1.10232,0.0999-2.20463,0.29969-3.20674,0.79917c-0.10021-0.39959-0.10021-0.79917-0.20042-1.19876v-0.0999
			c-0.50105-2.59732-2.8059-4.39546-5.51159-4.39546c-0.40084,0-0.80169,0-1.20253,0.0999
			c-2.8059,0.49948-4.81011,2.89701-4.81011,5.69412c0,0,0,0.39959,0,0.59938c-0.10021,0-0.20042,0-0.30063,0
			c-0.10021,0-0.20042,0-0.30063,0c-2.60548-0.0999-5.21095,0.99897-7.01475,2.89701
			c-1.20253,1.29866-2.50527,3.69618-2.10442,7.59216c1.20253,9.98968,7.5158,10.78885,9.4198,10.78885
			c1.10232,0,2.30485-0.19979,3.30695-0.69928c0.70147,0.29969,1.40295,0.39959,2.20463,0.39959
			c1.60337,0,3.10653-0.69928,4.20885-1.89804c1.904,1.49845,4.20885,2.19773,6.6139,2.09783c0.40084,0,0.80169,0,1.20253,0
			c2.20464-0.0999,4.30906-0.69928,6.21306-1.79814c2.00421-0.99897,3.30695-2.9969,3.30695-5.29453
			C36.689,21.49128,36.48858,20.792,36.08774,20.09273z"/>
		<path id="Path_76" class="st0" d="M129.08322,7.80542c-1.20253,0-2.40506,0.0999-3.60758,0.29969
			c-0.9019,0.0999-1.80379,0.39959-2.50526,0.99897c-0.10021-0.0999-0.20042-0.19979-0.30064-0.19979l0,0
			c-1.90401-1.59835-4.40927-2.49742-6.91454-2.49742c-0.10021,0-0.20042,0-0.20042,0
			c-2.70568,0.19979-5.21095,1.29866-7.01474,3.1967c-1.30274-1.39855-3.20674-2.09783-5.01054-1.99794
			c-1.40295,0-2.8059,0.19979-4.10863,0.69928c-0.80169-0.39959-1.70358-0.49948-2.50526-0.49948c-0.10021,0-0.20042,0-0.20042,0
			c-1.90401,0.0999-3.60758,0.89907-4.91032,2.29763c-2.00421-1.39855-4.40927-2.19773-6.91454-2.09783
			c-1.20253,0-2.40506,0.0999-3.60758,0.29969c-0.20042,0-0.30064,0-0.50105,0.0999c1.20252-3.1967-0.40085-6.69308-3.60758-7.79195
			C73.96737-0.58591,70.46,1.01244,69.35767,4.20914c-0.40084,1.09886-0.50105,2.19773-0.30064,3.29659
			c-1.00211,0.0999-1.904,0.29969-2.70568,0.69928c-0.70148-0.29969-1.60337-0.49948-2.40506-0.49948
			c-0.50105,0-1.00211,0.0999-1.50316,0.19979c-0.40084-1.79814-1.30274-3.39649-2.70569-4.49535l0,0
			c-2.70568-2.29763-5.91243-3.49639-9.11916-3.49639c-0.10021,0-0.20042,0-0.30063,0
			c-5.21095,0-13.32801,5.69412-13.72886,14.38513v0.0999v0.0999c0.40084,10.28937,9.4198,14.78472,13.92928,14.88462h0.10021
			c2.8059,0,5.61179-0.89907,7.91664-2.49742c1.30274,1.59835,3.20674,2.49742,5.21096,2.49742
			c1.50315,0,3.00631-0.59938,4.00842-1.79814c0.70148-0.89907,1.10232-1.99793,1.10232-3.0968
			c0,1.09887,0.40084,2.19773,1.10232,3.0968c1.00211,1.19876,2.40505,1.89804,4.00842,1.79814
			c1.60337,0,3.10653-0.59938,4.30906-1.69825c1.50317,1.09887,3.30695,1.69825,5.21095,1.69825
			c1.20252,0,2.40506-0.19979,3.50737-0.69928c0.80169,0.29969,1.60337,0.49948,2.40506,0.49948
			c1.20252,0,2.40506-0.39959,3.30695-1.09886c1.10232,0.79917,2.50526,1.29866,3.90822,1.29866c0.20042,0,0.40084,0,0.60126,0
			c1.40295-0.0999,2.60548-0.89907,3.50737-1.99793l0.10021-0.0999c1.10231,1.19876,2.60548,1.89804,4.10863,2.09783
			c0.20042,0,0.40084,0,0.70147,0c1.50316,0,3.00632-0.59938,4.00842-1.79814c0.10021-0.0999,0.10021-0.0999,0.20042-0.19979
			c0.1002,0.0999,0.20042,0.19979,0.30063,0.29969c0.20042,0.0999,0.30064,0.29969,0.50105,0.39959
			c-0.60126,0.29969-1.10231,0.79917-1.50316,1.39855c-0.40084,0.99897,0.40085,3.49639,1.40295,4.99484
			c0.50105,0.99897,1.40295,1.59835,2.50526,1.79814c0.40085,0,0.80169-0.0999,1.10232-0.39959
			c0.70147-0.49948,1.10232-0.79917,1.40295-1.09886c0.40085-0.39959,0.9019-0.69928,1.30274-0.99897l0,0l0,0
			c0.50105-0.39959,1.10232-0.59938,1.70358-0.79917c0.60126-0.0999,1.20252-0.39959,1.60336-0.89907
			c0.40085-0.59938,0.20042-2.39752-0.1002-3.59629c0.70147-0.29969,1.40295-0.69928,2.00421-1.19876
			c1.60337,1.39855,3.60758,2.09783,5.81222,2.09783c1.20253,0,2.40506-0.19979,3.50737-0.69928
			c2.90611,1.29866,6.41348,0,7.71622-2.89701c0.30064-0.69928,0.50105-1.49845,0.50105-2.39752V17.6952
			C139.50514,11.80129,135.29628,7.80542,129.08322,7.80542z M51.31976,16.29665c-1.00211,0-1.50316-0.69928-1.50316-1.99794
			c-0.10021-0.69928,0.40084-1.29866,1.10231-1.39855c0.10021,0,0.20042,0,0.30063,0h0.10021
			c0.70148,0,1.40295,0.0999,2.00422,0.39959c0.9019,0.39959,1.904,0.69928,2.8059,0.79917h0.20042c0.20042,0,0.30063,0,0.50106,0
			c-0.10021,0.39959-0.10021,0.79917-0.20042,1.19876c-0.10021,0-0.20042,0-0.40084,0h0.00001
			c-1.00211,0.0999-2.00421,0.29969-2.8059,0.79917C52.72271,16.19675,52.12144,16.39655,51.31976,16.29665L51.31976,16.29665z
			 M68.75641,23.9887c0-0.29969-0.1002-0.69928-0.1002-0.99897c-0.30064-1.39855-0.40085-2.79711-0.50105-4.29556h0.30064
			c0.30063,0,0.60126,0,0.90189-0.0999c0,1.49845-0.10021,2.89701-0.50105,4.29556
			C68.85662,23.28942,68.85662,23.68901,68.75641,23.9887L68.75641,23.9887L68.75641,23.9887z"/>
	</g>
	<path id="Path_77" class="st1" d="M42.23879,192.20576c0.10021-1.39856,1.10231-2.49742,2.50526-2.69722
		c1.40295-0.29968,2.8059,0.49948,3.20674,1.89804l0,0c0.9019,5.39441-0.20042,10.98865-0.50105,16.58287
		c0,1.49844-1.30274,2.7971-2.8059,2.897c-0.9019,0-1.70358-0.39958-2.20464-1.19876
		c-0.80169,0.99896-2.00421,1.49844-3.30695,1.39854c-2.60548,0-5.81222-1.79814-6.51369-8.09164
		c-0.60126-5.49432,3.10653-7.19257,6.41348-7.09268c1.20253,0,2.40506,0.39958,3.40716,1.09888
		C42.339,195.30255,42.339,193.70421,42.23879,192.20576z M41.63752,205.09244c0.70148-0.99896,0.70148-2.39752,0.10021-3.39648
		c-0.40084-0.49948-1.00211-0.79918-1.60337-0.79918c-1.10231,0-2.00421,0.99896-1.904,2.09784v0.0999
		c0.10021,2.19772,1.60337,2.79712,2.10442,2.79712C40.83584,205.79172,41.33689,205.49203,41.63752,205.09244L41.63752,205.09244z"
		/>
	<path id="Path_78" class="st1" d="M56.36849,211.08624c-6.01264,0.39958-7.91665-2.9969-8.21727-7.79195
		c-0.20042-4.59526,1.50316-8.69102,6.31327-8.99071c4.60969-0.2997,9.11917,2.59732,9.4198,6.49329
		c0,1.49844-1.00211,2.7971-2.40506,3.19669c-1.20253,0.2997-2.50526,0.39958-3.808,0.39958
		c-1.20253,0-2.70569-0.0999-3.20674,0.1998c-0.40084,0.19978-0.50105,0.69926-0.30063,0.89906
		c0.40084,0.2997,1.20253,0.49948,2.90611,0.39958c1.20253-0.1998,2.30484-0.39958,3.50737-0.79918
		c1.00211-0.2997,2.10442,0.19978,2.40506,1.29866c0.10021,0.1998,0.10021,0.39958,0.10021,0.69928
		c0,1.09886-0.70148,2.09784-1.70358,2.49742C59.87587,210.48688,58.17228,210.98636,56.36849,211.08624z M57.57102,201.09657
		c0.40084-0.09991,0.60126-0.4995,0.50105-0.79918c0-0.09991-0.10021-0.1998-0.10021-0.2997
		c-0.50105-0.59938-1.30273-0.89906-2.00421-0.79918c-0.70148,0-1.40295,0.39958-1.60337,1.09888
		c-0.20042,0.29968,0,0.69926,0.30063,0.89906c0.10021,0,0.20042,0.0999,0.30063,0.0999
		C55.76723,201.19647,56.66912,201.09657,57.57102,201.09657z"/>
	<path id="Path_79" class="st1" d="M80.0182,211.08624c-3.10652,0-10.62232-3.49638-11.02317-11.98761
		c0.30064-7.19257,7.21516-11.48813,10.82275-11.48813c0.10021,0,0.10021,0,0.20042,0c1.80379,0,4.00843,0.19978,7.21516,2.6972
		c0.9019,0.69928,1.50317,1.69824,1.70358,2.897c0.1002,0.59938-0.10021,1.29866-0.60126,1.69824
		c-0.60126,0.59938-1.50316,0.99896-2.40506,0.99896h-0.1002c-0.60126-0.0999-1.20252-0.19978-1.80379-0.49948l0,0l0,0
		c-1.00211-0.39958-2.10442-0.59938-3.10653-0.59938h-0.10021c-2.30485-0.0999-4.30906,1.59836-4.40927,3.99586
		c0,0.0999,0,0.1998,0,0.39958c0,3.89597,2.80591,4.99484,4.40927,4.99484h0.10021c1.10232,0,2.10442-0.1998,3.10653-0.5994l0,0l0,0
		c0.60126-0.29968,1.20252-0.49948,1.80379-0.49948h0.1002c0.9019,0,1.70358,0.2997,2.40506,0.99898
		c0.40085,0.49948,0.60126,1.09886,0.60126,1.69824c-0.20042,1.09886-0.80169,2.09784-1.70358,2.89699
		C83.92641,210.88646,81.82199,211.08624,80.0182,211.08624z"/>
	<g id="Group_8" transform="translate(136.672 194.073)">
		<path id="Path_80" class="st1" d="M10.6597,21.18194c0,0.99897-1.40295,0.29969-3.30695,2.19773s-3.20674-0.89907-3.10653-2.49742
			c0-0.99897,1.40295-0.29969,3.30695-2.19773C9.45717,16.78648,10.75991,19.68349,10.6597,21.18194z"/>
		<path id="Path_81" class="st1" d="M13.56581,1.80197c0.70148,0.59938,1.20253,1.39855,1.30274,2.29763
			c0,1.29866-1.00211,2.29763-2.20463,2.39752c-0.10021,0-0.20042,0-0.30063,0c-0.50105,0-1.00211-0.19979-1.40295-0.39959
			C10.35907,5.79784,9.6576,5.69794,8.95612,5.69794c-1.30274-0.0999-2.50527,0.99897-2.60548,2.29763c0,0.0999,0,0.0999,0,0.19979
			c0,2.49742,1.70358,2.9969,2.70569,2.9969c0.70147,0,1.40295-0.0999,2.00421-0.39959
			c0.40084-0.19979,0.9019-0.39959,1.40295-0.39959c1.30274-0.0999,2.40506,0.79917,2.50527,2.09783c0,0.0999,0,0.19979,0,0.29969
			c-0.20042,0.89907-0.60126,1.69825-1.30274,2.29763c-1.40295,1.29866-3.30695,1.89804-5.21095,1.89804
			c-4.50948-0.49948-7.91664-4.19566-8.01685-8.79092c0.10021-5.09474,5.11074-8.39133,7.91664-8.29143
			C10.25886-0.09607,12.16286,0.6032,13.56581,1.80197z"/>
	</g>
	<path id="Path_82" class="st1" d="M97.35464,200.49719c-2.50526,0-2.60548,1.69824-2.60548,1.69824
		c-0.1002,1.99794,0.10021,4.09578,0.50105,6.09372c0.40085,1.09886-0.20042,2.39751-1.40295,2.6972
		c-0.20042,0.0999-0.50105,0.0999-0.70148,0.0999c-1.70358-0.0999-3.10653-1.19876-3.60758-2.7971
		c-0.70147-3.2966-0.70147-6.79298-0.1002-10.08958c0.40084-1.69824,2.00421-2.897,3.80801-2.9969
		c0.9019-0.09991,1.70358,0.39958,2.10442,1.19876c0.90189-0.89908,2.10442-1.39856,3.40717-1.49846h0.50105
		c1.60336,0,2.00421,1.09888,1.60336,2.79712c-0.30063,1.49844-1.20252,2.7971-2.8059,2.7971H97.35464z"/>
	<g id="Group_9" transform="translate(100.922 187.777)">
		<path id="Path_83" class="st1" d="M0.46312,10.79917c-0.40084-2.49742,0.80169-3.39649,1.904-3.39649
			c1.80379,0,3.30695,1.19876,3.808,2.9969c0.60126,3.39649,0.60126,6.79298-0.10021,10.08957
			c-0.40084,1.59835-1.904,2.79711-3.60758,2.79711C1.2648,23.38617,0.2627,22.4871,0.2627,21.28834
			c0-0.29969,0-0.49949,0.10021-0.69928c0.40084-1.79814,0.60126-3.59628,0.50105-5.49432
			C0.86396,15.09474,0.76375,12.79711,0.46312,10.79917z"/>
		<path id="Path_84" class="st1" d="M6.57597,3.10712c0,1.59835-1.30274,3.99587-3.10653,3.99587
			C1.56544,7.0031,0.2627,4.70547,0.2627,3.10712c0-1.79814,1.30274-3.1967,3.10653-3.1967s3.20674,1.29866,3.20674,2.9969
			C6.57597,3.00723,6.57597,3.00723,6.57597,3.10712L6.57597,3.10712z"/>
	</g>
	<path id="Path_85" class="st1" d="M121.70583,202.39523v5.69411c0,1.59836-1.30274,2.79712-2.8059,2.79712l0,0
		c-0.90189,0-1.80379-0.39958-2.30485-1.19876c-0.90189,0.99896-2.20463,1.49844-3.60758,1.39854
		c-0.70147,0-5.31116-0.19978-5.31116-5.29453c0-2.79712,1.904-4.29556,5.11074-4.29556c1.20252,0,2.50526,0.39957,3.60758,0.99896
		v-0.89906c-0.20042-0.69928-0.70147-1.39856-3.10653-1.39856c-0.70147,0-1.40295,0.09991-2.10442,0.1998
		c-1.30274,0-2.30485-0.99896-2.30485-2.29762l0,0c0-1.19876,0.9019-2.19774,2.10442-2.29764
		c1.10232-0.19978,2.20463-0.19978,3.30695-0.2997C118.79973,195.50235,121.70583,198.19957,121.70583,202.39523z
		 M115.6932,206.2912c0.20042-0.69928-0.40085-1.19876-2.00421-1.49846c-1.30274-0.19978-1.50317,0.39958-1.60337,0.79918
		c-0.10021,0.3996,0.1002,1.09888,1.20252,1.29866C115.49277,207.29016,115.6932,206.2912,115.6932,206.2912L115.6932,206.2912z"/>
	<path id="Path_86" class="st1" d="M165.99895,202.39523v5.69411c0,1.59836-1.30273,2.79712-2.80589,2.79712l0,0
		c-0.9019,0-1.8038-0.39958-2.30486-1.19876c-0.90189,0.99896-2.20464,1.49844-3.60759,1.39854
		c-0.70148,0-5.31117-0.19978-5.31117-5.29453c0-2.79712,1.90401-4.29556,5.11075-4.29556
		c1.20253,0,2.50528,0.39957,3.60759,0.99896v-0.89906c-0.20041-0.69928-0.70146-1.39856-3.10654-1.39856
		c-0.70146,0-1.40294,0.09991-2.10442,0.1998c-1.30275,0-2.30486-0.99896-2.30486-2.29762l0,0
		c0-1.19876,0.90189-2.19774,2.10443-2.29764c1.10233-0.19978,2.20464-0.19978,3.30695-0.2997
		C163.09283,195.50235,165.99895,198.19957,165.99895,202.39523z M159.98631,206.2912
		c0.20041-0.69928-0.40083-1.19876-2.00421-1.49846c-1.30275-0.19978-1.50316,0.39958-1.60338,0.79918
		s0.10022,1.09888,1.20251,1.29866C159.78587,207.29016,159.98631,206.2912,159.98631,206.2912L159.98631,206.2912z"/>
	<path id="Path_87" class="st1" d="M137.13828,208.28914c0.40083,1.09886-0.20041,2.39751-1.40294,2.6972
		c-0.30064,0.0999-0.70148,0.0999-1.10233,0.0999c-1.50316-0.19978-2.80591-1.29866-3.20674-2.7971
		c-0.40083-2.19774-0.60127-4.39546-0.50105-6.5932c0-0.59938-0.40083-0.99896-1.00211-1.09888h-0.10022
		c-0.90189,0-1.70357,0.4995-2.20463,1.19876c-0.1002,2.19772,0,4.29556,0.50106,6.4933
		c0.30063,1.49844-0.40085,2.6972-1.8038,2.89699c-1.80379,0.09991-3.40716-1.09886-3.90821-2.7971
		c-0.70148-3.2966-0.70148-6.69308-0.10021-10.08958c0.40084-1.69824,1.90401-2.79712,3.60758-2.897
		c0.90189-0.19978,1.90401,0.2997,2.30485,1.09888c1.30273-0.89906,2.90611-1.39856,4.50948-1.39856
		c3.00632,0,4.30905,2.29764,4.00842,5.29454C136.537,203.0945,136.63722,205.69182,137.13828,208.28914z"/>
	<g id="Grid_1_" transform="translate(84.392 140.308)">
		<path id="Path_88" class="st2" d="M0.22788,4.65457l38.68131,0.19979"/>
		<path id="Path_89" class="st2" d="M0.22788,6.9522l38.68131,0.19979"/>
		<path id="Path_90" class="st2" d="M0.22788,9.24982l38.68131,0.19979"/>
		<path id="Path_91" class="st2" d="M0.22788,11.54745l38.68131,0.19979"/>
		<path id="Path_92" class="st2" d="M0.22788,16.34249c0-5.49432,0.10021-10.88875,0.10021-16.38307"/>
		<path id="Path_93" class="st2" d="M2.3323,16.34249C2.43251,10.84817,2.43251,5.45375,2.53272-0.04058"/>
		<path id="Path_94" class="st2" d="M4.53694,16.34249c0-5.49432,0.10021-10.88875,0.10021-16.38307"/>
		<path id="Path_95" class="st2" d="M6.64136,16.34249C6.74157,10.84817,6.74157,5.45375,6.84178-0.04058"/>
		<path id="Path_96" class="st2" d="M8.84599,16.34249c0-5.49432,0-10.88875,0.10021-16.38307"/>
		<path id="Path_97" class="st2" d="M10.95042,16.34249c0-5.49432,0.10021-10.88875,0.10021-16.38307"/>
		<path id="Path_98" class="st2" d="M13.05484,16.34249c0-5.49432,0.10021-10.88875,0.10021-16.38307"/>
		<path id="Path_99" class="st2" d="M15.25947,16.34249c0-5.49432,0.10021-10.88875,0.10021-16.38307"/>
		<path id="Path_100" class="st2" d="M17.3639,16.34249c0-5.49432,0.10021-10.88875,0.10021-16.38307"/>
		<path id="Path_101" class="st2" d="M19.46832,16.34249c0-5.49432,0.10021-10.88875,0.10021-16.38307"/>
		<path id="Path_102" class="st2" d="M21.67296,16.34249c0-5.49432,0.10021-10.88875,0.10021-16.38307"/>
		<path id="Path_103" class="st2" d="M23.77738,16.34249c0-5.49432,0.10021-10.88875,0.10021-16.38307"/>
		<path id="Path_104" class="st2" d="M25.98202,16.34249c0-5.49432,0.10021-10.88875,0.10021-16.38307"/>
		<path id="Path_105" class="st2" d="M28.08644,16.34249c0-5.49432,0.10021-10.88875,0.10021-16.38307"/>
		<path id="Path_106" class="st2" d="M30.19086,16.34249c0.10021-5.49432,0.10021-10.88875,0.20042-16.38307"/>
		<path id="Path_107" class="st2" d="M32.3955,16.34249c0-5.49432,0.10021-10.88875,0.10021-16.38307"/>
		<path id="Path_108" class="st2" d="M34.49992,16.34249c0-5.49432,0.10021-10.88875,0.10021-16.38307"/>
		<path id="Path_109" class="st2" d="M36.70456,16.34249c0-5.49432,0.10021-10.88875,0.10021-16.38307"/>
		<path id="Path_110" class="st2" d="M38.80898,16.34249c0-5.49432,0.10021-10.88875,0.10021-16.38307"/>
		<path id="Path_111" class="st2" d="M0.22788,2.25705l38.68131,0.19979"/>
		<path id="Path_112" class="st2" d="M0.22788-0.04058l38.68131,0.19979"/>
		<path id="Path_113" class="st2" d="M0.22788,13.84508l38.68131,0.19979"/>
		<path id="Path_114" class="st2" d="M0.22788,16.2426l38.68131,0.19979"/>
	</g>
	<g id="Group_10" transform="translate(71.782 131.884)">
		<path id="Wall_1_" class="st1" d="M1.20342,0.96709v41.45716H62.1315V0.96709H1.20342z M43.69274,20.84655
			c0,1.39855-1.10231,2.39752-2.40506,2.39752l0,0H20.94492c-1.40295,0-2.40506-1.09887-2.40506-2.39752l0,0v-8.29143
			c0-1.39855,1.10232-2.39752,2.40506-2.39752l0,0h20.24255c1.40295,0,2.40506,1.09886,2.40506,2.39752l0,0L43.69274,20.84655z"/>
		<path id="Path_115" class="st0" d="M63.1336,43.52311H0.20131V-0.03188H63.1336V43.52311z M2.30574,41.42528h58.82365V2.06595
			H2.30574V41.42528z M41.18747,24.34293H20.94492c-1.904,0-3.50737-1.59835-3.50737-3.49639v-8.29143
			c0-1.89804,1.60337-3.49639,3.50737-3.49639h20.24255c1.90401,0,3.50737,1.59835,3.50737,3.49639v8.29143
			C44.69484,22.74459,43.19168,24.34293,41.18747,24.34293z M20.94492,11.15656c-0.80169,0-1.40295,0.59938-1.40295,1.39855v8.29143
			c0,0.79917,0.60126,1.39855,1.40295,1.39855h20.24255c0.80169,0,1.40295-0.59938,1.40295-1.39855v-8.29143
			c0-0.79917-0.60126-1.39855-1.40295-1.39855H20.94492z"/>
	</g>
	<path id="Path_116" class="st0" d="M141.2469,123.97626c-2.30484-1.89804-5.21095-2.9969-8.21727-3.09679
		c-1.70358,0-3.40715,0.49948-4.8101,1.49845c-1.90401,1.39855-3.00632,3.69617-3.10654,6.69308
		c-0.50105,8.89081-0.20042,22.67656,0.80169,38.75995c0.20042,3.89597,3.40716,6.89288,7.31538,6.79298
		c4.00842,0.09991,7.31538-3.0968,7.31538-7.09267c0-0.1998,0-0.2997,0-0.4995c0-6.99277,0.80168-28.27078,2.20462-35.76305
		C143.25111,128.47162,142.75006,125.8743,141.2469,123.97626z"/>
	<path id="Path_117" class="st0" d="M146.55807,125.47471c-0.10022-1.49845-0.40083-2.9969-0.8017-4.39545l0,0
		c-0.1002-0.2997-0.20041-0.59938-0.30063-0.99897c-0.60127-2.49742-4.30907-14.68482-4.6097-15.88359
		c-0.70148-2.39752-3.10654-3.69617-5.51158-2.9969c-1.20253,0.29969-2.20464,1.19876-2.80591,2.29763l-9.4198,16.18327v0.09989
		c-0.60126,1.09887-1.00211,2.19773-1.30274,3.2966c-0.50105,1.99793,0,4.19566,1.30274,5.79401
		c1.904,2.59732,5.21095,4.39545,9.31958,4.89493c0.60127,0.0999,1.20253,0.0999,1.8038,0.0999c0.20041,0,0.40083,0,0.60127,0
		c2.00421,0,3.9082-0.29968,5.71201-0.99896c2.00421-0.69928,4.20883-1.69824,5.31116-3.79608
		C146.45787,128.07204,146.65829,126.77337,146.55807,125.47471z"/>
	<path id="Path_118" class="st1" d="M134.23216,123.77647c0,0,7.31538-0.29969,5.81223,7.19257
		c-1.50317,8.09164-2.20464,29.86913-2.20464,36.26253s-8.91875,6.39339-9.21938,0.59938
		c-0.9019-15.1843-1.30274-29.26976-0.80169-38.46025C128.11932,122.37791,134.23216,123.77647,134.23216,123.77647z"/>
	<path id="Path_119" class="st0" d="M134.73322,132.76718c-0.20042,0-0.40083,0-0.50105,0c-0.50105,0-1.10233-0.0999-1.70358-0.0999
		c-3.70779-0.4995-6.71411-1.99794-8.51791-4.39546c-1.20252-1.69824-0.40084-3.19669,0.10021-4.99483
		c0.30064-1.09886,0.70147-2.09783,1.20252-3.0968l0,0l8.51792-14.08544c0.70146-1.39856,1.10231-2.29763,2.60548-2.29763
		c1.70357,0,2.30484,0.89907,2.80589,2.59731c0.30063,1.09887,3.50737,11.48813,4.10864,13.68586
		c0.60127,1.59834,1.00211,3.29659,1.30275,4.99483c0.1002,1.29866,0.30063,2.39753-0.20042,3.3965
		c-0.90189,1.69824-2.50526,2.89699-4.30907,3.39648C138.34081,132.46748,136.537,132.76718,134.73322,132.76718z"/>
	<path id="top_7_" class="st1" d="M138.24059,104.99587c0.30063,1.09886,4.00842,13.38617,4.6097,15.78369
		c0.50105,1.59835,0.90189,3.19669,1.00211,4.79505c0.10022,0.79917-0.10022,1.59834-0.40083,2.29762
		c-0.70148,1.29866-2.50526,1.99794-3.80801,2.49742c-1.70357,0.5994-3.50737,0.89906-5.31116,0.79918
		c-0.50105,0-1.00211-0.0999-1.60338-0.0999c-2.80591-0.2997-5.71201-1.39856-7.4156-3.79608
		c-0.80169-0.99897-1.10231-2.29763-0.90189-3.49639c0.20042-0.99896,0.60126-1.89804,1.10232-2.6972l9.41979-16.28318
		c0.30064-0.89907,1.30275-1.39856,2.20464-0.99897C137.63933,103.9969,138.14038,104.49638,138.24059,104.99587z"/>
	<path id="Path_120" class="st0" d="M80.61947,129.17088c-0.20042-2.9969-1.20252-5.29453-3.10653-6.69308
		c-1.40295-0.99897-3.10653-1.59834-4.81011-1.49845c-3.00632,0.0999-5.91243,1.09886-8.21727,3.0968
		c-1.60337,1.89804-2.10442,4.39546-1.50316,7.49226c1.40295,7.49226,2.20463,28.77028,2.20463,35.76305
		c-0.20042,3.99588,2.90611,7.29247,6.81433,7.49226c0.20042,0,0.30063,0,0.50105,0l0,0
		c3.90821,0.0999,7.11495-2.897,7.31538-6.79298C80.81989,151.94736,81.12052,138.16159,80.61947,129.17088z"/>
	<path id="Path_121" class="st0" d="M83.92641,123.17708c-0.30064-1.19875-0.70147-2.29762-1.30274-3.29659l0,0l-9.41979-16.38306
		C72.40219,101.99897,70.89903,101,69.19546,101c-2.00422,0-3.70779,1.29866-4.30907,3.19669
		c-0.40084,1.19876-4.00842,13.48607-4.60969,15.88359c-0.10021,0.29969-0.20042,0.59938-0.30063,0.99897l0,0
		c-0.40084,1.39855-0.70148,2.897-0.80169,4.39545c-0.10021,1.29866,0.20042,2.59733,0.70148,3.69617
		c1.10231,1.99794,3.30695,2.9969,5.31116,3.79608c1.80379,0.5994,3.80801,0.99898,5.71201,0.99898c0.20042,0,0.40084,0,0.60126,0
		c0.60126,0,1.20252-0.09991,1.80379-0.09991c4.10863-0.49948,7.31538-2.19772,9.31959-4.89493
		C83.92641,127.27286,84.42747,125.17502,83.92641,123.17708z"/>
	<path id="Path_122" class="st1" d="M71.50031,123.77647c0,0-7.31538-0.29969-5.81223,7.19257
		c1.50316,8.09164,2.20464,29.86913,2.20464,36.26253s8.91875,6.39339,9.21938,0.59938
		c0.90189-15.1843,1.30274-29.26976,0.80169-38.46025C77.61315,122.37791,71.50031,123.77647,71.50031,123.77647z"/>
	<path id="Path_123" class="st0" d="M70.99925,132.76718c0.20042,0,0.40084,0,0.50105,0c0.50105,0,1.10231-0.0999,1.70358-0.0999
		c3.30695-0.2997,6.31327-1.99794,8.21727-4.69515c1.20252-1.69824,0.60126-3.19669,0.20042-4.99484
		c-0.30064-1.09886-0.70147-2.09782-1.20252-3.09679l0,0l-8.71832-14.28524c-0.70147-1.39856-1.10232-1.99794-2.60548-1.99794
		c-1.70358,0-2.00421,1.19876-2.50526,2.89701c-0.30064,1.09886-3.7078,11.68792-4.30906,13.98555
		c-0.10021,0.29969-0.20042,0.59938-0.20042,0.89907c-0.40084,1.29866-0.70147,2.69721-0.80168,4.09576
		c-0.10021,1.19876,0.10021,2.29763,0.70147,3.39649c0.70148,1.59834,2.10442,2.6972,3.80801,3.19669
		C67.39166,132.46748,69.19546,132.76718,70.99925,132.76718z"/>
	<path id="top_6_" class="st1" d="M67.49187,104.99587c-0.30064,1.09886-4.00842,13.38617-4.60969,15.78369
		c-0.50105,1.59835-0.9019,3.19669-1.00211,4.79505c-0.10021,0.79917,0.10021,1.59834,0.40084,2.29762
		c0.70147,1.29866,2.50527,1.99794,3.80801,2.49742c1.70358,0.5994,3.50737,0.89906,5.31116,0.79918
		c0.50105,0,1.00211-0.0999,1.60337-0.0999c2.8059-0.2997,5.71201-1.39856,7.41559-3.79608
		c0.80169-0.99897,1.10232-2.29763,0.90189-3.49639c-0.20042-0.99896-0.60126-1.89804-1.10231-2.6972l-9.41981-16.28318
		c-0.30064-0.89907-1.30274-1.39856-2.20463-0.99897C67.99293,103.9969,67.59209,104.49638,67.49187,104.99587z"/>
	<g id="Group_11" transform="translate(11.301 139.626)">
		<path id="Stairs_2_" class="st1" d="M1.37665,32.42658l33.26994-21.17812l-4.91032-7.59215l0,0
			c-2.40505-0.39959-4.91032-0.29969-7.21517,0.19979l0,0c-0.30063,2.39752-0.20042,4.79505,0.20042,7.19257
			c-2.40505-0.39959-4.91032-0.29969-7.21517,0.19979c-0.30063,2.39752-0.20042,4.79504,0.20042,7.19257
			c-2.40506-0.39959-4.91032-0.29969-7.21517,0.19979c-0.40084,2.39752-0.40084,4.89494,0,7.29246
			c-2.40506-0.39959-4.91032-0.29969-7.21517,0.19979C1.07602,28.23092,1.07602,30.32875,1.37665,32.42658z"/>
		<path id="Path_124" class="st0" d="M0.57496,34.22472l-0.20042-1.59835c-0.30063-2.19773-0.30063-4.39546-0.10021-6.59319
			l0.10021-0.69928l0.70147-0.29969c2.00421-0.49948,4.20885-0.59938,6.21306-0.39959c-0.20042-1.99794-0.20042-4.09577,0-6.1936
			l0.10021-0.69928l0.70148-0.0999c2.00421-0.49948,4.20885-0.59938,6.21306-0.39959c-0.20042-1.99793-0.20042-4.09577,0-6.1936
			l0.10021-0.69928l0.70147-0.19979c2.00421-0.49948,4.20885-0.59938,6.21306-0.39959c-0.20042-1.99794-0.20042-4.09577,0-6.1936
			l0.10021-0.39959l0.50105-0.39959l0.20042-0.0999c2.10442-0.49948,4.20885-0.59938,6.41348-0.39959v-2.49742l7.41559,11.58803
			L0.57496,34.22472z M2.27855,26.93226c-0.10021,1.19876-0.10021,2.49742,0,3.69618l5.91243-3.69618
			C6.18676,26.53267,4.18255,26.63257,2.27855,26.93226L2.27855,26.93226z M9.29329,19.5399
			c-0.20042,2.09783-0.10021,4.19566,0.30063,6.1936v0.19979l23.5495-14.98452L29.135,4.55538
			c-1.904-0.29969-3.808-0.19979-5.71201,0.0999c-0.20042,2.09783-0.10021,4.19566,0.30063,6.1936l0.20042,1.39855l-1.40295-0.19979
			c-2.00421-0.29969-4.10864-0.29969-6.11285,0c-0.20042,2.09783-0.10021,4.19567,0.30063,6.1936l0.20042,1.39856L15.50635,19.44
			C13.40193,19.14031,11.2975,19.14031,9.29329,19.5399L9.29329,19.5399z"/>
	</g>
	<g id="Group_12" transform="translate(157.12 139.626)">
		<path id="Stairs_1_" class="st1" d="M35.05396,32.42658L1.78403,11.24846l4.91032-7.59215l0,0
			c2.40506-0.39959,4.91032-0.29969,7.21517,0.19979l0,0c0.30063,2.39752,0.20042,4.79505-0.20042,7.19257
			c2.40506-0.39959,4.91032-0.29969,7.21517,0.19979c0.30063,2.39752,0.20042,4.79505-0.20042,7.19257
			c2.40505-0.39959,4.91032-0.29969,7.21517,0.19979c0.30063,2.39752,0.20042,4.79504-0.20042,7.19257
			c2.40506-0.39959,4.91033-0.29969,7.21517,0.19979C35.3546,28.23092,35.3546,30.32875,35.05396,32.42658z"/>
		<path id="Path_125" class="st0" d="M35.85565,34.22472L0.38108,11.54815L7.79667-0.03987v2.49742
			c2.10442-0.19979,4.30906-0.0999,6.41348,0.39959h0.20042l0.50105,0.39959l0.10021,0.39959
			c0.20042,1.99794,0.20042,4.09577,0,6.1936c2.10442-0.19979,4.20885-0.0999,6.21306,0.39959l0.70148,0.19979l0.10021,0.69928
			c0.20042,1.99794,0.20042,4.09577,0,6.1936c2.10443-0.19979,4.20885-0.0999,6.21306,0.39959l0.70148,0.19979l0.10021,0.69928
			c0.20042,1.99793,0.20042,4.09577,0,6.1936c2.10442-0.19979,4.20885-0.0999,6.21306,0.39959l0.70148,0.19979l0.10021,0.69928
			c0.30063,2.19773,0.20042,4.39546-0.10021,6.59319L35.85565,34.22472z M28.23964,26.93226l5.91243,3.79608
			c0.10021-1.19876,0.10021-2.49742,0-3.69618C32.24807,26.63257,30.24385,26.53267,28.23964,26.93226z M3.28719,10.94877
			l23.5495,14.98452V25.7335c0.30063-1.99793,0.40084-4.09577,0.30063-6.1936c-2.00421-0.39959-4.10864-0.39959-6.11285,0
			l-1.40295,0.19979l0.20042-1.39855c0.30063-1.99794,0.40084-4.09577,0.30063-6.1936c-2.00421-0.39959-4.10864-0.39959-6.11285,0
			l-1.40295,0.19979l0.20042-1.39855c0.30063-1.99794,0.40084-4.09577,0.30063-6.1936c-1.904-0.29969-3.808-0.39959-5.71201-0.0999
			L3.28719,10.94877z"/>
	</g>
	<path id="Path_126" class="st0" d="M67.49187,133.66624c1.40295,12.18741,1.50316,24.4747,1.70358,33.66521
		c1.00211-11.18843,0.90189-22.37688-0.10021-33.46542L67.49187,133.66624z"/>
	<path id="Path_127" class="st0" d="M130.825,134.06584c-0.90189,12.18741-0.80168,24.4747-1.10231,33.66521
		c0,0-1.20253-16.28317-0.70148-34.3645L130.825,134.06584z"/>
	<path id="Path_128" class="st0" d="M63.08261,125.17502c0,0,4.40927-15.68379,5.11074-17.58183
		c0.70148-1.89804,2.00422-1.69824,2.70569,0c0,0-1.40295-0.29969-2.8059,3.49638
		C67.59209,112.08854,63.08261,125.17502,63.08261,125.17502z"/>
	<path id="Path_129" class="st0" d="M125.91468,123.57667c0,0,7.91665-14.18534,9.11916-15.88358
		c1.10233-1.69824,2.30486-1.19876,2.60548,0.59937c0,0-1.30273-0.59937-3.50737,2.69721
		C133.33028,111.98865,125.91468,123.57667,125.91468,123.57667z"/>
	<g id="Group_13" transform="translate(37.807 115.391)">
		<path id="Path_130" class="st1" d="M105.55135,12.87183l1.20252-3.39649c0.20042-0.79917-0.30063-1.59835-1.10231-1.79814
			c-3.20674-1.09886-6.41348-1.99794-9.62022-2.89701c-0.70147-0.19979-1.50316,0.19979-1.80379,0.89907l0,0l-0.80169,3.49639
			c-0.20042,0.79917-1.00211,1.19876-1.80379,0.99897c-2.40505-0.49948-4.81011-0.99897-7.11495-1.39855
			c-0.80169-0.0999-1.40295-0.79917-1.30274-1.59835c0.10022-1.19876,0.30064-2.29763,0.40085-3.49639
			c0.10021-0.79917-0.60126-1.49845-1.40295-1.59835l0,0c-3.30695-0.49948-6.6139-0.79917-9.92085-0.99897
			c-0.80169-0.0999-1.60337,0.49948-1.70358,1.29866l0,0c-0.1002,1.19876-0.1002,2.39752-0.20042,3.59628
			c-0.10021,0.79917-0.80169,1.39855-1.60337,1.29866c-2.40505-0.0999-4.81011-0.0999-7.21517,0
			c-0.80168,0.0999-1.50316-0.49948-1.60337-1.29866c0-1.19876-0.10021-2.39752-0.10021-3.59628
			c-0.10021-0.79917-0.80169-1.39855-1.60337-1.29866l0,0c-3.30695,0.19979-6.6139,0.49948-9.92085,0.89907
			c-0.80168,0-1.40295,0.69928-1.40295,1.59835l0,0c0.30062,1.09886,0.40083,2.29763,0.60125,3.39649
			c0.10021,0.79917-0.50106,1.49845-1.30274,1.59835c-2.40506,0.39959-4.81011,0.79917-7.21517,1.29866
			c-0.80169,0.19979-1.60337-0.19979-1.80379-0.99897L36.406,5.37957c-0.30063-0.79917-1.10231-1.19876-1.904-0.99897l0,0
			c-3.20674,0.79917-6.41348,1.69825-9.62022,2.79711c-0.80168,0.19979-1.30274,0.99897-1.10232,1.79814l1.20253,3.39649
			c0.20042,0.79917-0.20042,1.59835-1.00211,1.79814C16.16345,17.06749,8.64765,20.56388,1.5327,24.95934L8.1466,35.6483
			c34.67288-21.27802,78.46494-21.27802,113.13783,0l6.6139-10.68896c-6.71411-4.09577-13.82907-7.59216-21.24465-10.28937
			C105.85198,14.37028,105.35093,13.57111,105.55135,12.87183z"/>
		<path id="Path_131" class="st0" d="M121.58505,37.04685l-0.9019-0.49949c-34.37225-21.07822-77.66325-21.07822-112.03551,0
			l-0.9019,0.49949l-7.616-12.4871l0.9019-0.49948c7.11496-4.39546,14.73096-7.99174,22.5474-10.78885
			c0.30063-0.0999,0.40084-0.29969,0.40084-0.49948l-1.20253-3.39649c-0.20042-0.59938-0.20042-1.19876,0.10021-1.79814
			c0.30063-0.69928,0.90189-1.19876,1.60337-1.39855c3.20674-0.99897,6.41348-1.99794,9.72043-2.79711
			c0.70148-0.19979,1.50316-0.0999,2.10442,0.29969c0.50105,0.29969,0.9019,0.79917,1.00211,1.39855l0.9019,3.59628
			c0,0.19979,0.30063,0.29969,0.60126,0.19979c2.40506-0.49948,4.81011-0.99897,7.21517-1.29866
			c0.30063,0,0.50105-0.29969,0.50105-0.39959l-0.50105-3.49639c-0.10021-0.59938,0.10021-1.19876,0.50105-1.69825
			c0.40084-0.59938,1.10232-0.99897,1.80379-0.99897c3.20674-0.49948,6.61391-0.79917,9.92086-0.99897
			c0.70148,0,1.40295,0.19979,2.00422,0.69928c0.50105,0.39959,0.70147,0.99897,0.80168,1.59835l0.10021,3.59628
			c0,0.19979,0.20042,0.29969,0.50105,0.29969c2.40506-0.0999,4.91032,0,7.31537,0c0.30064,0,0.50105-0.19979,0.50105-0.29969
			l0.20042-3.59628c0-0.59938,0.30063-1.19876,0.80169-1.59835c0.60126-0.49948,1.30273-0.69928,2.00421-0.69928
			c3.30695,0.19979,6.71411,0.49948,10.02106,0.99897c0.70147,0.0999,1.40295,0.49948,1.80379,1.09886
			c0.40084,0.49948,0.50105,1.09886,0.40084,1.69825l-0.50105,3.49639c0,0.19979,0.20042,0.39959,0.40085,0.39959
			c2.40505,0.39959,4.81011,0.89907,7.21516,1.39855c0.30063,0.0999,0.50105,0,0.50105-0.0999l0.80168-3.49639
			c0.10021-0.59938,0.50106-1.09886,1.10232-1.39855c0.60126-0.39959,1.40295-0.49948,2.10442-0.29969
			c3.20674,0.79917,6.51369,1.79814,9.72043,2.89701c0.70147,0.19979,1.30274,0.69928,1.60337,1.39855
			c0.30064,0.49948,0.30064,1.19876,0.10021,1.79814l-1.20253,3.39649c-0.1002,0.0999,0.10021,0.39959,0.40085,0.49948
			c7.51579,2.79711,14.63075,6.2935,21.44508,10.38927l0.90189,0.49948L121.58505,37.04685z M3.03586,25.25903l5.51159,8.99071
			c34.57268-20.77853,77.86368-20.77853,112.43635,0l5.51159-8.99071c-6.41348-3.89598-13.22781-7.09267-20.24256-9.68999
			c-1.30274-0.39959-2.00421-1.79814-1.60336-3.0968l0,0l1.20252-3.39649c0-0.0999,0-0.0999,0-0.19979
			c-0.10021-0.19979-0.20042-0.29969-0.40084-0.29969c-3.10653-1.09886-6.31328-1.99794-9.52001-2.79711
			c-0.20042,0-0.40085,0-0.50106,0.0999c-0.1002,0-0.1002,0.0999-0.1002,0.0999l-0.80169,3.49639
			c-0.40084,1.29866-1.70358,2.09783-3.00632,1.69825c-2.30485-0.49948-4.7099-0.99897-7.11496-1.39855
			c-1.40295-0.19979-2.30485-1.39855-2.20463-2.79711l0.50105-3.49639c0-0.0999,0-0.0999-0.10021-0.19979
			c-0.1002-0.0999-0.30063-0.19979-0.40084-0.19979c-3.20674-0.49948-6.51369-0.79917-9.82065-0.99897
			c-0.20042,0-0.30064,0-0.50105,0.0999l-0.10021,0.0999l-0.20041,3.69618c-0.1002,1.39855-1.30274,2.39752-2.70568,2.29763
			c-2.40506-0.0999-4.81011-0.0999-7.21517,0c-1.40295,0.0999-2.50527-0.99897-2.60548-2.29763l-0.10021-3.59628
			c0-0.0999,0-0.0999-0.10021-0.0999c-0.10021-0.0999-0.30063-0.19979-0.50105-0.0999
			c-3.30695,0.19979-6.6139,0.49948-9.82064,0.89907c-0.20042,0-0.30063,0.0999-0.50105,0.19979c0,0-0.10021,0.0999-0.10021,0.19979
			l0.50106,3.49639c0.10021,1.39855-0.80169,2.59732-2.20464,2.79711c-2.30486,0.19979-4.6097,0.69928-7.01476,1.19876
			c-1.30274,0.29969-2.70569-0.49948-3.00632-1.79814L35.4039,5.67926c0-0.0999-0.10021-0.0999-0.10021-0.0999
			c-0.20042-0.0999-0.30063-0.0999-0.50105-0.0999c-3.20674,0.79917-6.41348,1.69825-9.52001,2.69721
			c-0.20042,0.0999-0.30063,0.19979-0.40084,0.29969c0,0,0,0.0999,0,0.19979l1.20253,3.39649
			c0.40084,1.29866-0.30063,2.69721-1.60337,3.0968C16.86493,17.86667,9.74997,21.26316,3.03586,25.25903L3.03586,25.25903z"/>
	</g>
	<path id="castle_7_" class="st0" d="M118.49909,118.98142l-4.7099-0.49949c-0.90189-0.19979-1.904-0.19979-2.8059,0.0999
		c-1.00211,0.49948-0.70147,1.99793-0.80169,2.897c0,0.79918-0.30064,1.49845-0.80169,2.09783
		c-0.90189,1.09886-2.30485,0.89908-3.60758,0.89908c-1.20252,0-2.30485,0-3.50737,0c-1.00211,0-2.10442,0-3.10653,0
		c-0.60126,0-1.20252,0.09989-1.70358,0c1.50316,0.09989,3.00632,0.19978,4.40927,0.29969
		c1.10231,0.09989,2.20463,0.19979,3.40716,0.19979c1.10232,0.19979,2.30485,0.09989,3.40717-0.0999
		c0.30064-0.09989,0.70147-0.29969,0.90189-0.49948c0.60126-0.49948,1.00211-1.19876,1.10232-1.99793
		c0.20042-0.79918,0.20042-1.59835,0.30064-2.29763c0-0.2997,0.10021-0.59938,0.30064-0.79918
		c0.30064-0.29969,0.80169-0.49948,1.30274-0.39959C114.59088,118.98142,116.49488,118.88152,118.49909,118.98142z"/>
	<path id="castle_6_" class="st0" d="M94.94958,118.28214l-4.70989,0.39959c-0.9019,0-1.90401,0.19979-2.70569,0.59938
		c-0.90189,0.69927-0.30064,2.09783-0.20042,2.9969c0.10021,0.79918,0,1.49845-0.40084,2.19773
		c-0.70148,1.19875-2.10442,1.29866-3.40717,1.59834c-1.10232,0.19979-2.30485,0.39959-3.40717,0.69927
		c-1.00211,0.19979-2.00421,0.39959-3.10653,0.59938c-0.60126,0.0999-1.10232,0.2997-1.70358,0.2997
		c1.50316-0.19979,2.90611-0.2997,4.40927-0.49949c1.10231-0.09989,2.20463-0.29969,3.40716-0.39959
		c1.10232-0.09989,2.30485-0.29969,3.30696-0.69927c0.30063-0.19979,0.60126-0.39959,0.80168-0.59938
		c0.50105-0.59938,0.70148-1.39855,0.70148-2.19772c0-0.79918-0.10021-1.59835-0.10021-2.39752c0-0.2997,0-0.59938,0.20042-0.89908
		c0.30064-0.39959,0.70148-0.59937,1.20253-0.59937C91.14159,119.08131,93.04559,118.58183,94.94958,118.28214z"/>
	<path id="castle_5_" class="st0" d="M71.90114,122.07822l-4.60969,1.19876c-0.9019,0.09989-1.80379,0.49948-2.60548,1.09886
		c-0.70147,0.79918,0.10021,2.19772,0.30064,2.9969c0.20042,0.69928,0.20042,1.49846,0,2.29762
		c-0.50105,1.29868-1.80379,1.69824-3.00632,2.09784c-1.10231,0.39958-2.20464,0.79918-3.30695,1.19876
		c-1.00211,0.39958-1.904,0.69928-2.90611,1.09888c-0.50106,0.19978-1.10232,0.49948-1.60337,0.59938
		c1.40295-0.39958,2.8059-0.79918,4.30906-1.29866c1.10232-0.2997,2.20464-0.69926,3.20675-0.99896
		c1.10231-0.1998,2.20463-0.69928,3.10653-1.29866c0.30064-0.1998,0.50105-0.49948,0.70147-0.79918
		c0.40084-0.69928,0.50105-1.49846,0.30064-2.29763c-0.10021-0.79918-0.40085-1.49845-0.50105-2.29763
		c-0.10021-0.29969-0.10021-0.59938,0-0.89907c0.20042-0.39959,0.60126-0.69927,1.00211-0.79918
		C68.29356,123.47678,70.09735,122.6776,71.90114,122.07822z"/>
	<path id="castle_4_" class="st0" d="M141.94839,124.47575l-4.50948-1.39856c-0.9019-0.39959-1.8038-0.59938-2.70569-0.49948
		c-1.00211,0.29969-1.10233,1.89804-1.40294,2.6972c-0.20042,0.69928-0.60127,1.39856-1.20253,1.89804
		c-1.10233,0.89907-2.50526,0.39959-3.70779,0.19979c-1.10231-0.19979-2.30485-0.49948-3.40717-0.69927
		c-1.00211-0.19979-2.00421-0.39959-3.10652-0.59938c-0.60126-0.09989-1.20253-0.19979-1.70358-0.29969
		c1.40295,0.39958,2.90611,0.79917,4.30906,1.19875c1.10232,0.2997,2.20464,0.59938,3.30696,0.89907
		c1.10232,0.39958,2.20463,0.5994,3.30695,0.5994c0.30063,0,0.70146-0.09991,1.00211-0.2997
		c0.70148-0.39959,1.20253-0.99897,1.50316-1.79815c0.30063-0.69927,0.50105-1.49845,0.80168-2.19772
		c0.10022-0.29969,0.30064-0.59938,0.50105-0.79918c0.40085-0.19979,0.9019-0.29969,1.30275-0.19979
		C138.14038,123.77647,140.04439,124.07616,141.94839,124.47575z"/>
	<path id="_x30_1_BG_1_" class="st0" d="M185.74045,161.63734c-1.50316,0-3.00632,0.0999-4.6097,0.39958
		c-0.50105,0.0999-1.00211,0.19978-1.50316,0.39958c-1.00212-0.79918-2.20464-1.19876-3.50739-1.19876h-0.60126
		c-1.40295,0-2.70569,0.39958-3.90822,0.99896c-0.90189-0.49948-2.00421-0.69928-3.10654-0.69928
		c-0.90189,0-1.70358,0.09991-2.50526,0.39958c0.30063-5.59422,0.80168-12.68687,1.50316-16.88254
		c1.40294-0.5994,2.50526-1.69824,3.20674-2.9969c0.60127-1.19876,0.90189-2.59732,0.80168-3.89598
		c-0.1002-1.49844-0.40083-2.9969-0.90189-4.49535c-0.10022-0.2997-0.20042-0.5994-0.30063-0.99896
		c-0.60127-2.49742-4.30907-14.78474-4.6097-15.8836c-0.70148-2.49741-3.40717-3.99587-5.91243-3.29659
		c-1.30273,0.39959-2.40504,1.29866-3.00632,2.49742l-9.4198,16.28317l0,0c-0.60127,1.09886-1.00211,2.19772-1.30273,3.39648
		c-0.50105,2.09784,0,4.39545,1.30273,6.0937c0.50105,0.69928,1.10233,1.39854,1.8038,1.89803
		c-0.20042,5.19464-0.20042,11.78783,0.10022,19.47987c-2.50528-1.49844-5.41138-2.39751-8.31749-2.29762
		c-0.40083,0-0.8017,0-1.10233,0c-1.8038,0.0999-3.50737,0.59938-5.01053,1.39854c-0.10022-1.09886-0.20042-2.29762-0.40085-3.39648
		v-0.0999c-0.60126-2.9969-3.30695-5.09474-6.31326-5.09474c-0.50106,0-0.9019,0.0999-1.40295,0.19978
		c-3.20674,0.5994-5.51159,3.2966-5.61179,6.5932l0,0c0,0.49948,0,0.99896,0,1.59836c-0.40085,0-0.70148-0.09991-1.20253-0.09991
		c-0.1002,0-0.30063,0-0.40084,0c-3.20674-0.0999-6.21306,1.09888-8.41769,3.39648
		c-2.50527-2.59732-6.11285-3.99586-9.72044-3.79608c-1.50316,0-3.00632,0.09991-4.60969,0.39958
		c-1.30274,0.09991-2.50526,0.69928-3.50737,1.59836c-0.20042-0.19978-0.40084-0.39958-0.60126-0.59938l0,0
		c-2.40505-1.99794-5.31116-3.09682-8.41769-3.09682c-0.10021,0-0.20042,0-0.30064,0c-3.00632,0-6.51369,1.69824-9.11916,4.39546
		c-0.10021-0.1998-0.30064-0.39958-0.40085-0.49948c-1.60336-1.69824-3.80801-2.59732-6.11285-2.49742
		c-1.80379,0-3.60758,0.29968-5.31116,0.99896c-1.00211-0.49948-2.10442-0.79918-3.20674-0.69928c-0.10021,0-0.20042,0-0.30063,0
		c-0.80169,0-1.60337,0.1998-2.30484,0.39958c0.20042-7.29247,0.20042-13.48605,0-18.4809
		c0.60126-0.49948,1.10231-1.09888,1.60337-1.69824c1.40295-1.69824,1.904-3.89597,1.30274-6.0937
		c-0.30063-1.19876-0.70148-2.29764-1.30274-3.39648v-0.09991l-9.4198-16.28317c-1.10231-2.39752-4.00842-3.39649-6.41348-2.19772
		c-1.20253,0.59938-2.10442,1.69824-2.50526,2.9969c-0.40084,1.19875-4.00843,13.48607-4.60969,15.88358
		c-0.10021,0.2997-0.20042,0.69928-0.30063,0.99898c-0.50105,1.49844-0.70148,2.9969-0.9019,4.49535
		c-0.30063,2.9969,1.40295,5.89391,4.30906,6.99278c0.70148,4.09576,1.10232,10.88873,1.40295,15.98347h-0.10021
		c-1.40295,0-2.70569,0.39958-3.90821,0.99898c-0.9019-0.4995-2.00422-0.69928-3.10653-0.69928
		c-1.50316,0-3.10653,0.49948-4.30906,1.29866c-0.30063-2.9969-1.904-5.69411-4.30906-7.49226
		c-2.40506-1.49844-5.11074-2.29762-7.91664-2.19772H8.76843c-3.50737,0.0999-6.51369,2.39752-7.41559,5.79402
		c-1.80379,7.49226-1.80379,15.38409,0,22.87636c0.9019,3.2966,3.90822,5.69411,7.41559,5.79401h8.71833
		c3.30695,0.09991,6.6139-0.99896,9.11917-3.0968c1.50316,2.19772,3.90821,3.49638,6.51369,3.5963
		c1.80379,0,3.40716-0.69928,4.50948-2.09784c1.20253-1.49846,1.60337-3.39648,1.20253-5.19464
		c-0.40084-2.09784-0.60126-4.19565-0.60126-6.39339c0.10021,0,0.20042,0,0.30063,0h0.80168
		c0.50105,0,1.00211-0.0999,1.50316-0.19978c0.10021,2.29762,0.10021,4.29556,0.10021,5.79402
		c-0.20042,4.19565,3.00632,7.69205,7.21517,7.89183c0.20042,0,0.30063,0,0.50105,0c2.00421,0,4.00843-0.79918,5.41138-2.19772
		c1.40295,1.39854,3.40716,2.29762,5.41138,2.29762c0.20042,0,0.50105,0,0.70147,0c1.60337-0.19978,3.00632-0.99896,3.90822-2.19772
		c0.20042-0.2997,0.40084-0.69928,0.60126-0.99896c1.30274,1.79814,3.30695,2.9969,5.51159,3.2966c0.30063,0,0.50105,0,0.80169,0
		c1.70358,0,3.40716-0.69928,4.50948-2.09784c0.20042-0.2997,0.40084-0.5994,0.60126-0.89908
		c2.20463,1.79816,4.91032,2.897,7.81643,3.09682l0,0c3.10653,0,6.01264-1.09888,8.4177-2.9969
		c0.60126,0.59938,1.20252,0.99896,1.904,1.39854c1.60337,0.89906,3.40717,1.29866,5.31116,1.29866
		c1.60337,0,3.10653-0.2997,4.50948-0.99896c2.90611,1.49844,6.51369,0.59938,8.51791-1.99794
		c1.904,1.89803,4.50948,2.9969,7.21516,3.0968c1.50316,0,2.90611-0.29968,4.20884-0.89906
		c0.9019,0.39958,1.90401,0.69928,2.8059,0.69928c2.00421,0,3.90822-0.89906,5.11075-2.49742
		c2.10443,2.29762,5.11075,3.49638,9.01897,3.49638c0.50105,0,1.00211,0,1.50316-0.0999
		c2.70569-0.0999,5.31117-0.89906,7.71622-2.19772c0.50105-0.2997,1.10233-0.5994,1.50316-0.99898
		c2.9061,3.1967,7.91664,3.4964,11.12338,0.5994l0,0c1.40295,1.39854,3.30696,2.19772,5.31117,2.19772
		c1.80379,0,3.40715-0.69928,4.50948-2.09784c1.20253-1.49844,1.60338-3.39648,1.20253-5.19463
		c-0.40083-2.09784-0.60127-4.19566-0.60127-6.39339c0.10022,0,0.20042,0,0.30063,0h0.8017c0.10022,0,0.10022,0,0.20041,0
		c-0.50105,1.09886-0.70146,2.39751-0.70146,3.59628c0,3.79608,1.60338,6.89287,4.6097,8.49123
		c1.60338,0.89906,3.40715,1.29866,5.31117,1.29866c1.60336,0,3.10654-0.29968,4.50948-0.99896
		c3.30695,1.69824,7.31538,0.39958,9.01895-2.897c0.50105-0.99896,0.70148-1.99794,0.70148-3.0968v-7.29247
		C198.46719,166.43239,193.35645,161.63734,185.74045,161.63734z M86.33147,174.22433
		c-0.50105,0.1998-1.00211,0.2997-1.50316,0.1998c-0.20042,0-0.30064,0-0.30064-0.79918c0-0.1998,0-0.1998,0.30064-0.1998
		c0.50105,0,1.00211,0.09991,1.40295,0.1998c0.30064,0.0999,0.50105,0.19978,0.80169,0.2997
		C86.83253,174.02455,86.5319,174.12444,86.33147,174.22433L86.33147,174.22433z"/>
	<path id="Path_132" class="st1" d="M16.68507,156.14302c4.10864,0,9.31959,1.59836,9.4198,8.59113
		c0,1.89803-0.70148,3.69618-2.10442,4.99484c2.00421,0.89906,3.40716,3.19669,3.40716,6.2935
		c0,3.29659-2.30484,8.49123-9.92085,8.49123H8.76843c-2.10442-0.09991-3.808-1.49846-4.40927-3.4964
		c-1.70358-7.09267-1.70358-14.38513,0-21.4778c0.60126-1.99794,2.40506-3.39648,4.40927-3.49638h7.91664V156.14302z
		 M13.1777,167.43135c1.60337,0,3.808,0,3.808-2.39751c0-2.39752-1.80379-2.59732-3.808-2.69722l0,0
		c-1.40295-0.0999-2.70569,0.99898-2.8059,2.49742v0.0999l0,0C10.47201,166.63217,11.57433,167.33145,13.1777,167.43135
		C13.07749,167.43135,13.1777,167.43135,13.1777,167.43135z M14.58065,178.6198c1.60337,0,3.808-0.5994,3.7078-2.897
		c-0.10021-1.99794-2.30484-2.897-4.00843-2.79712h-1.20253c-1.60337,0.09991-2.90611,1.39856-2.90611,2.9969l0,0
		c0.30063,1.59836,1.70358,2.79712,3.30695,2.79712L14.58065,178.6198z"/>
	<path id="Path_133" class="st1" d="M38.63121,171.32733c-3.20674,0-3.40717,2.19772-3.40717,2.19772
		c-0.10021,2.59732,0.10021,5.19463,0.70148,7.79195c0.40084,1.99794-0.70148,3.59628-2.70569,3.59628
		c-2.20464-0.0999-4.00843-1.49844-4.60969-3.59628c-0.90189-4.29556-0.90189-8.69101-0.10021-12.98659
		c0.60126-2.19772,2.50527-3.79607,4.81011-3.79607c1.10232-0.09991,2.20464,0.49948,2.70569,1.59834
		c1.20253-1.09886,2.70569-1.79814,4.30906-1.89803h0.60126c2.00421,0,2.50526,1.49844,2.10442,3.49638
		c-0.40084,1.99794-1.60337,3.49638-3.60758,3.49638L38.63121,171.32733z"/>
	<path id="Path_134" class="st1" d="M173.91559,171.32733c-3.20674,0-3.40717,2.19772-3.40717,2.19772
		c-0.10022,2.59732,0.10022,5.19463,0.70148,7.79195c0.40083,1.99794-0.70148,3.59628-2.70569,3.59628
		c-2.20464-0.0999-4.00842-1.49844-4.6097-3.59628c-0.90189-4.29556-0.90189-8.69101-0.10022-12.98659
		c0.60127-2.19772,2.50526-3.79607,4.81012-3.79607c1.10233-0.09991,2.20464,0.49948,2.70569,1.59834
		c1.20251-1.09886,2.70567-1.79814,4.30905-1.89803h0.60127c2.00421,0,2.50526,1.49844,2.10443,3.49638
		s-1.60338,3.49638-3.60759,3.49638L173.91559,171.32733z"/>
	<path id="Path_135" class="st1" d="M73.90535,181.317c0.40085,2.09784-0.90189,3.79608-3.10653,3.59628
		c-2.00421-0.29968-3.60758-1.69824-4.10863-3.59628c-0.60126-2.79712-0.80169-5.69411-0.60126-8.49123
		c0-0.69928-0.50105-1.29866-1.30274-1.39854c-0.10021,0-0.10021,0-0.20042,0c-1.10231,0.0999-2.20463,0.59938-2.90611,1.49844
		c-0.10021,2.79712,0.10021,5.59422,0.60126,8.29144c0.40084,1.89803-0.50105,3.49638-2.30484,3.69617
		c-2.30484,0.09991-4.40927-1.39854-5.01053-3.59628c-0.9019-4.29556-0.9019-8.69101-0.10021-12.88667
		c0.50105-2.09784,2.40506-3.5963,4.60969-3.79608c1.50316,0,2.50526,0.39958,3.00632,1.49844
		c1.70358-1.19876,3.70779-1.79814,5.71201-1.79814c3.90822,0,5.51159,2.897,5.11075,6.79298
		C73.10367,174.52403,73.20388,177.92052,73.90535,181.317z"/>
	<path id="Path_136" class="st1" d="M90.84095,165.43343c0.9019,0.69926,1.50317,1.79814,1.70358,2.89699
		c0.1002,1.59836-1.20253,2.99692-2.8059,2.99692c-0.10021,0-0.30064,0-0.40085,0c-0.60126-0.09991-1.20252-0.1998-1.80379-0.4995
		c-0.80169-0.29968-1.70358-0.49948-2.60548-0.49948c-1.80379-0.0999-3.30695,1.19876-3.40716,2.9969c0,0.0999,0,0.1998,0,0.2997
		c0,3.19669,2.20463,3.89597,3.40716,3.89597c0.9019,0,1.80379-0.0999,2.60548-0.49948
		c0.60126-0.2997,1.20253-0.49948,1.80379-0.49948c1.60337-0.1998,3.10653,0.99896,3.20674,2.59732c0,0.0999,0,0.2997,0,0.39958
		c-0.20042,1.19876-0.80169,2.19772-1.70358,2.897c-1.80379,1.59834-4.20884,2.49741-6.71411,2.49741
		c-3.30695,0-10.02106-3.59628-10.32169-11.18843c0.30063-6.69308,6.71411-10.98865,10.32169-10.78885
		C86.63211,162.936,88.93695,163.83507,90.84095,165.43343z"/>
	<path id="Path_137" class="st1" d="M110.98329,173.52507v7.29247c0,1.99794-1.60337,3.69618-3.60758,3.69618l0,0
		c-1.20252,0-2.30485-0.5994-3.00632-1.49846c-1.20253,1.19876-2.90611,1.89803-4.60969,1.79814
		c-1.00211,0-6.91454-0.29968-6.91454-6.79298c0-3.59628,2.40505-5.59422,6.6139-5.59422c1.60337,0,3.20673,0.49948,4.60969,1.29866
		v-1.09886c-0.20042-0.99898-0.9019-1.79816-3.90822-1.79816c-0.90189,0-1.80379,0.09991-2.70568,0.1998
		c-1.60337,0-2.90611-1.29866-2.90611-2.897l0,0c0-1.59836,1.20252-2.897,2.70568-2.9969
		c1.40295-0.1998,2.80591-0.2997,4.20885-0.2997C107.2755,164.73415,110.98329,168.13063,110.98329,173.52507z M103.46749,178.7197
		c0.30064-0.89906-0.60126-1.59836-2.70568-1.99794c-1.70358-0.29968-2.00421,0.49948-2.10442,1.09888
		c-0.10021,0.59938,0.20042,1.49844,1.70358,1.69824C103.26707,180.01836,103.46749,178.6198,103.46749,178.7197L103.46749,178.7197
		z"/>
	<path id="Path_138" class="st1" d="M195.46088,173.52507v7.29247c0,1.99794-1.60338,3.69618-3.70779,3.69618l0,0
		c-1.20253,0-2.30486-0.5994-3.00632-1.49846c-1.20253,1.19876-2.90611,1.89803-4.6097,1.79814
		c-1.00211,0-6.91454-0.29968-6.91454-6.79298c0-3.59628,2.40506-5.59422,6.61391-5.59422c1.60338,0,3.20674,0.49948,4.6097,1.29866
		v-1.09886c-0.20041-0.99898-0.90189-1.79816-3.9082-1.79816c-0.90189,0-1.80379,0.09991-2.70569,0.1998
		c-1.60338,0-2.9061-1.29866-2.9061-2.897l0,0c0-1.59836,1.20253-2.897,2.70569-2.9969
		c1.40294-0.1998,2.80589-0.2997,4.20883-0.2997C191.75308,164.73415,195.46088,168.13063,195.46088,173.52507z M187.64444,178.5199
		c0.30063-0.89906-0.50105-1.59834-2.50526-1.89803c-1.60338-0.2997-1.90399,0.49948-2.00421,1.09888
		c-0.10022,0.59938,0.20041,1.39854,1.60338,1.59834C187.44402,179.91846,187.64444,178.5199,187.64444,178.5199L187.64444,178.5199
		z"/>
	<path id="Path_139" class="st1" d="M124.11089,160.43858c0.10021-1.79814,1.40295-3.1967,3.20674-3.49638
		c1.80379-0.39958,3.60758,0.69926,4.10863,2.49742c0,0,0,0,0,0.0999c1.20253,6.89287-0.20041,14.18533-0.70146,21.27802
		c-0.10022,1.99794-1.60338,3.59628-3.60759,3.69618c-1.10231,0-2.20463-0.5994-2.8059-1.49846
		c-1.00211,1.29866-2.60548,1.99794-4.20884,1.79814c-3.30696,0-7.4156-2.29762-8.4177-10.48915
		c-0.80169-6.99278,3.90822-9.29041,8.21727-9.19051c1.60337,0,3.10653,0.49948,4.30907,1.39854
		C124.21111,164.43445,124.21111,162.43652,124.11089,160.43858z M123.3092,177.02145c0.9019-1.29866,0.9019-2.9969,0.10021-4.39545
		c-0.50105-0.5994-1.20253-0.99898-2.10442-0.99898c-1.40295,0-2.50526,1.19876-2.50526,2.69722c0,0.0999,0,0.0999,0,0.19978
		c0.1002,2.897,2.00421,3.49638,2.70568,3.49638C122.3071,177.92052,122.90836,177.52094,123.3092,177.02145L123.3092,177.02145z"/>
	<path id="Path_140" class="st1" d="M142.54965,185.41278c-7.81644,0.49948-10.22148-3.89597-10.52213-9.98969
		c-0.20042-5.9938,1.90399-11.08855,8.11707-11.48813c5.91243-0.39958,11.72466,3.2966,12.1255,8.39133
		c0,1.89803-1.30275,3.59628-3.10654,4.09578c-1.60338,0.29968-3.20674,0.49948-4.91032,0.49948
		c-1.50316,0.0999-3.50737-0.09991-4.10864,0.19978c-0.50105,0.2997-0.70146,0.89906-0.30063,1.19876
		c0.50105,0.39958,1.50316,0.59938,3.70779,0.49948c1.50316-0.19978,3.00632-0.59938,4.50948-0.99896
		c1.30273-0.39958,2.70569,0.2997,3.10654,1.59836c0.10022,0.29968,0.10022,0.59938,0.10022,0.79916
		c-0.10022,1.39856-0.9019,2.69722-2.20464,3.1967C147.05913,184.7135,144.75427,185.31287,142.54965,185.41278z
		 M144.05281,172.52609c0.50105-0.0999,0.80168-0.59938,0.70146-1.09886c0-0.0999-0.1002-0.2997-0.20041-0.39958
		c-0.60127-0.79918-1.60338-1.19876-2.60548-0.99898c-0.90189,0-1.8038,0.4995-2.10443,1.39856
		c-0.20042,0.39958,0,0.89906,0.40083,1.09886c0.10022,0.09991,0.30064,0.09991,0.40083,0.09991
		C141.74796,172.72589,142.9505,172.62599,144.05281,172.52609L144.05281,172.52609z"/>
	<path id="Path_141" class="st1" d="M158.88399,136.46335c0,0,7.31538-0.29968,5.81223,7.19257
		c-1.50316,8.09164-2.20464,29.86914-2.20464,36.26254s-8.91875,6.39339-9.21938,0.59938
		c-0.90189-15.18431-1.30275-29.26976-0.8017-38.46025C152.77113,135.0648,158.88399,136.46335,158.88399,136.46335z"/>
	<path id="Path_142" class="st0" d="M159.38504,145.25427c-0.20042,0-0.40083,0-0.50105,0c-0.50105,0-1.10233-0.0999-1.70358-0.0999
		c-3.70779-0.49948-6.71411-1.99794-8.5179-4.39545c-1.20253-1.49846-1.60338-3.39648-1.20253-5.19464
		c0.30064-1.09886,0.70148-2.09784,1.20253-3.0968l0,0l8.71832-15.08441c0.90189-1.99793,3.30695-2.79711,5.31116-1.89804
		c1.00212,0.49949,1.8038,1.39856,2.10443,2.49742c0.30064,1.09886,3.70779,12.48709,4.30907,14.78473
		c0.10022,0.29968,0.20042,0.59938,0.20042,0.89906c0.40083,1.29866,0.70146,2.6972,0.80168,4.09578
		c0.10022,1.19875-0.10022,2.29762-0.70148,3.39648c-1.00211,1.89803-3.00632,2.7971-4.8101,3.39648
		C162.99263,144.95457,161.18883,145.25427,159.38504,145.25427z"/>
	<path id="top_4_" class="st1" d="M162.89241,117.68276c0.30064,1.09886,4.00842,13.38616,4.6097,15.78368
		c0.50105,1.59836,0.90189,3.1967,1.00211,4.79506c0.10022,0.79918-0.10022,1.59834-0.40083,2.29762
		c-0.70148,1.29866-2.50526,1.99794-3.80801,2.49742c-1.70357,0.59938-3.50737,0.89906-5.31116,0.79918
		c-0.50105,0-1.00211-0.0999-1.60338-0.0999c-2.80591-0.2997-5.71201-1.39856-7.41559-3.79608
		c-0.80168-0.99898-1.10233-2.29764-0.90189-3.4964c0.20042-0.99896,0.60127-1.89803,1.10233-2.6972l9.4198-16.28317
		c0.30063-0.89908,1.30273-1.39856,2.20462-0.99897C162.29114,116.68379,162.69199,117.08338,162.89241,117.68276z"/>
	<path id="Path_143" class="st1" d="M47.65017,136.46335c0,0-7.31538-0.29968-5.81222,7.19257
		c1.50316,8.09164,2.20464,29.86914,2.20464,36.26254s8.91875,6.39339,9.21938,0.59938
		c0.9019-15.18431,1.30274-29.26976,0.80169-38.46025C53.76301,135.0648,47.65017,136.46335,47.65017,136.46335z"/>
	<path id="Path_144" class="st0" d="M46.94869,145.25427c-1.80379,0-3.60758-0.2997-5.31116-0.89906
		c-1.80379-0.69928-3.808-1.59836-4.81011-3.39648c-0.50105-0.99896-0.80169-2.19772-0.70148-3.39648
		c0.10021-1.39854,0.40084-2.6972,0.80169-4.09578c0.10021-0.29968,0.20042-0.59938,0.20042-0.89906
		c0.60126-2.29762,4.00843-13.68585,4.30906-14.78472c0.60126-2.09783,2.8059-3.2966,4.91032-2.69721
		c1.10231,0.2997,2.00421,1.09886,2.50526,2.09783l8.71833,15.08442l0,0c0.50105,0.99896,0.90189,1.99792,1.20253,3.0968
		c0.40084,1.79814,0,3.79608-1.20253,5.19463c-1.80379,2.39752-4.81011,3.99588-8.51791,4.39545
		c-0.60126,0.09991-1.10232,0.09991-1.70358,0.09991C47.24932,145.25427,47.14911,145.25427,46.94869,145.25427z"/>
	<path id="top_3_" class="st1" d="M43.44131,117.68276c-0.30063,1.09886-4.00842,13.38616-4.60969,15.78368
		c-0.50105,1.59836-0.9019,3.1967-1.00211,4.79506c-0.10021,0.79918,0.10021,1.59834,0.40084,2.29762
		c0.70147,1.29866,2.50526,1.99794,3.808,2.49742c1.70358,0.59938,3.50737,0.89906,5.31116,0.79918
		c0.50105,0,1.00211-0.0999,1.60337-0.0999c2.8059-0.2997,5.71201-1.39856,7.41559-3.79608
		c0.80169-0.99898,1.10231-2.29764,0.9019-3.4964c-0.20042-0.99896-0.60126-1.89803-1.10232-2.6972l-9.4198-16.28317
		c-0.30063-0.89908-1.30274-1.39856-2.20464-0.99897C43.94237,116.68379,43.54153,117.08338,43.44131,117.68276z"/>
	<g id="Shine_1_" transform="translate(3.853 118.787)">
		<path id="B_1_" class="st0" d="M14.68898,38.94138c-1.904-0.19979-3.70779-0.39959-5.6118-0.39959
			c-1.20253-0.0999-2.40506,0-3.60758,0.0999c-0.80169,0.0999-1.50316,0.29969-2.20463,0.59938
			c-0.60126,0.39959-1.20253,0.89907-1.50316,1.49846c-0.80169,1.59835-1.30274,3.29659-1.40295,5.09473
			c-0.20042,1.79815-0.30063,3.69619-0.30063,5.59423c0,1.39856,0.10021,2.69722,0.30063,3.99587
			c0.10021,1.29866,0.30063,2.59731,0.50105,3.89597c0.10021,0.79918,0.30063,1.69825,0.50105,2.49742
			c0,0-0.40084-4.59525-0.40084-9.09061c0-1.99793,0.10021-4.09576,0.40084-6.0937c0.80169-6.1936,2.50527-7.09267,7.41559-7.49226
			C10.07929,39.04128,12.58455,39.04128,14.68898,38.94138z"/>
		<path id="r_5_" class="st0" d="M26.2132,48.83117c-2.50527,4.29556-0.30063,13.88565-0.30063,13.88565
			c0.10021-5.39442-0.20042-11.18844,2.00421-13.58596c0.80168-0.89907,2.00421-1.29866,3.10653-0.89907
			C30.32184,46.53354,27.41573,46.83323,26.2132,48.83117z"/>
		<path id="r_4_" class="st0" d="M161.49759,48.83117c-2.20464,4.39546-0.30064,13.88565-0.30064,13.88565
			c0.10022-5.39442-0.20041-11.38823,2.00421-13.78575c0.8017-0.89907,2.00423-1.09887,3.10654-0.69928
			C166.10727,47.03302,162.90053,46.13395,161.49759,48.83117z"/>
		<path id="r_3_" class="st0" d="M86.74043,79.09988c-1.70358,3.39649-0.20042,10.68895-0.20042,10.68895
			c0.10021-4.19566-0.20042-8.79092,1.50316-10.58906c0.60126-0.69927,1.60337-0.89907,2.40506-0.49948
			C90.24781,77.70133,87.74254,77.00205,86.74043,79.09988z"/>
		<path id="tower_5_" class="st0" d="M39.94206,27.65305c1.40295,12.2873,1.50316,24.47471,1.70358,33.66521
			c1.00211-11.18844,0.9019-22.37688-0.10021-33.46542L39.94206,27.65305z"/>
		<path id="tower_4_" class="st0" d="M151.67694,27.65305c-0.90189,12.18741-0.8017,24.47471-1.10233,33.66521
			c0,0-1.20253-16.28317-0.70148-34.36449L151.67694,27.65305z"/>
		<path id="cone_3_" class="st0" d="M146.56619,17.86316c0,0,7.91663-14.18534,9.11917-15.88359
			c1.10233-1.69825,2.30486-1.19876,2.60548,0.59938c0,0-1.30275-0.59938-3.50737,2.69721
			C153.98178,6.27514,146.56619,17.86316,146.56619,17.86316z"/>
		<path id="cone_2_" class="st0" d="M34.93153,18.96203c0,0,4.40927-15.68379,5.11074-17.58183s2.00421-1.69825,2.70568,0
			c0,0-1.40295-0.29969-2.8059,3.49639C39.44101,5.87555,34.93153,18.96203,34.93153,18.96203z"/>
		<path id="n_3_" class="st0" d="M53.06966,49.23075c-2.10442,4.19567-0.30063,13.48606-0.30063,13.48606
			c0.10021-5.39442-0.10021-10.18947,1.60337-12.88668c0.50105-0.99897,1.80379-1.49845,2.90611-1.09886
			C56.47682,46.93312,54.07176,47.13292,53.06966,49.23075z"/>
		<path id="n_2_" class="st0" d="M119.80995,79.09988c-1.50317,3.49638-0.30064,10.58906-0.30064,10.58906
			c0.1002-4.49535,0-7.89185,1.40295-10.18947c0.40085-0.89908,1.40295-1.29866,2.40506-1.09886
			C122.61585,77.00205,120.41121,77.60143,119.80995,79.09988z"/>
		<path id="c_5_" class="st0" d="M71.50842,58.22146c-0.80168-1.99794-0.80168-4.19566-0.1002-6.1936
			c1.30274-3.29659,4.10863-5.79401,7.5158-6.69308c2.20463-0.59938,4.50948,0,6.21305,1.39856
			c0,0-6.21305-2.19773-10.22148,2.09783C70.4061,53.52631,71.50842,58.22146,71.50842,58.22146z"/>
		<path id="c_4_" class="st0" d="M66.49789,83.79504c-0.9019-2.09783-0.9019-4.49535-0.10021-6.69308
			c1.40295-3.59628,4.40927-6.1936,8.11707-7.19256c2.30485-0.59938,4.81011-0.0999,6.6139,1.49845
			c0,0-6.41348-2.59732-11.02317,2.29762C65.39556,78.7003,66.49789,83.79504,66.49789,83.79504z"/>
		<path id="c_3_" class="st0" d="M134.24028,85.99276c-0.60127-1.49845-0.70148-3.19669-0.10022-4.79504
			c1.00211-2.59732,3.20674-4.49535,5.91241-5.09473c1.70358-0.39959,3.50739,0,4.91032,1.09886
			c0,0-4.91032-1.79815-8.21727,1.69824C133.23817,82.49638,134.24028,85.99276,134.24028,85.99276z"/>
		<path id="a_7_" class="st0" d="M91.45033,49.13086c0,0-0.50105-1.49846,2.20463-2.09783
			c2.70569-0.59938,9.41981-0.59938,11.22359,3.59628c0,0-1.80379-2.89701-7.61601-2.99691
			C92.65286,47.6324,91.45033,49.13086,91.45033,49.13086z"/>
		<path id="a_6_" class="st0" d="M175.8277,49.63034c0,0-0.50105-1.89804,2.20464-2.49742
			c2.70567-0.59938,9.41978-0.59938,11.22359,3.59628c0,0-1.8038-2.89701-7.61601-2.99691
			C177.03024,47.6324,175.8277,49.63034,175.8277,49.63034z"/>
		<path id="a_5_" class="st0" d="M105.58004,79.59937c0,0-0.40085-1.49845,1.70358-1.89804s7.21516-0.49948,8.61812,2.69721
			c0,0-1.40295-2.19772-5.81223-2.29763C106.58215,78.10091,105.58004,79.59937,105.58004,79.59937z"/>
		<path id="a_4_" class="st0" d="M149.97336,79.59937c0,0-0.40083-1.49845,1.70358-1.89804s7.21516-0.49948,8.61812,2.69721
			c0,0-1.40294-2.19772-5.81223-2.29763C150.97546,78.10091,149.97336,79.59937,149.97336,79.59937z"/>
		<path id="d_9_" class="st0" d="M108.9872,56.82291c0,0-1.50317-7.29247,5.01053-8.99071c0,0,3.70779-0.79917,5.81223,1.59835
			C115.50089,47.23281,109.38804,49.43054,108.9872,56.82291z"/>
		<path id="d_8_" class="st0" d="M121.31311,43.33684v-0.99897c-0.10021-3.59628,4.40927-3.29659,4.81011-1.29866
			C123.81837,39.44086,121.71395,40.83942,121.31311,43.33684z"/>
		<path id="d_7_" class="st0" d="M29.52015,85.1936c0,0-1.20253-5.79402,4.00843-7.09267c0,0,3.00632-0.59938,4.60969,1.29866
			C34.73111,77.60143,29.92099,79.39957,29.52015,85.1936z"/>
		<path id="d_6_" class="st0" d="M39.24059,74.50463v-0.79918c-0.10021-2.79711,3.50737-2.59731,3.808-1.09886
			C41.14459,71.50773,39.44101,72.5067,39.24059,74.50463z"/>
		<path id="Path_145" class="st0" d="M129.22974,56.12363c0,0-0.90189-8.69102,6.81433-10.08958
			c0,0,4.30907-0.39959,6.71411,1.69825C142.75818,47.8322,131.93544,42.03818,129.22974,56.12363z"/>
		<path id="Path_146" class="st0" d="M44.85238,84.49431c0,0-0.70147-7.09267,5.51159-8.19153c0,0,3.50737-0.2997,5.41138,1.39855
			C55.87555,77.70133,47.15723,73.10608,44.85238,84.49431z"/>
		<path id="d_5_" class="st0" d="M97.96403,72.60659c-0.20042-3.49638,3.90821-2.9969,4.40926-1.09886
			C100.26888,69.60969,98.16445,70.70856,97.96403,72.60659z"/>
		<path id="tower_3_" class="st0" d="M98.6655,80.49844c0.40084,2.89701,0.40084,5.79402,0,8.59113
			c0.70147-2.89701,0.90189-5.89391,0.60126-8.79092C98.96613,79.09988,98.46508,79.59937,98.6655,80.49844z"/>
	</g>
</g>
</svg>
