<?xml version="1.0" encoding="utf-8"?>
<!-- Generator: Adobe Illustrator 24.0.3, SVG Export Plug-In . SVG Version: 6.00 Build 0)  -->
<svg version="1.1" id="Layer_1" xmlns="http://www.w3.org/2000/svg" xmlns:xlink="http://www.w3.org/1999/xlink" x="0px" y="0px"
	 viewBox="0 0 200 200" style="enable-background:new 0 0 200 200;" xml:space="preserve">
<style type="text/css">
	.st0{clip-path:url(#SVGID_2_);}
	.st1{fill:#FFFFFF;}
	.st2{fill:#3E0538;}
	.st3{fill:#E7134E;}
	.st4{fill:#3FB94E;}
	.st5{fill:#1A86C9;}
	.st6{fill:#F76E1B;}
	.st7{fill:#FAC329;}
	.st8{fill:#FBC22C;}
	.st9{fill:none;stroke:#3E0538;stroke-miterlimit:10;}
	.st10{fill:#8918B3;}
	.st11{fill:#DC1947;}
	.st12{opacity:0.8;fill:#FFFFFF;enable-background:new    ;}
	.st13{opacity:0.7;fill:#FFFFFF;enable-background:new    ;}
</style>
<g>
	<defs>
		<rect id="SVGID_1_" width="200" height="200"/>
	</defs>
	<clipPath id="SVGID_2_">
		<use xlink:href="#SVGID_1_"  style="overflow:visible;"/>
	</clipPath>
	<g id="logo-200x200" class="st0">
		<rect class="st1" width="200" height="200"/>
		<g id="Logo_1_" transform="translate(-0.001 39)">
			<g id="Group_14" transform="translate(0.001)">
				<g id="Bottom_1_" transform="translate(29.735 84.436)">
					<g id="Group_7">
						<path id="Path_75" class="st2" d="M36.28999,20.396c0.991-1.17236,1.48413-2.68585,1.37399-4.21701
							c-0.437-5.15701-5.72-9.353-11.77699-9.353c-0.31799,0-0.634,0.01199-0.936,0.034
							c-1.12369,0.06989-2.22784,0.32675-3.267,0.76001c-0.054-0.436-0.116-0.85101-0.188-1.259l-0.00999-0.056
							c-0.5508-2.61185-2.86681-4.47311-5.536-4.44901c-0.41495-0.0007-0.82874,0.04388-1.23399,0.133
							c-2.78583,0.50638-4.82481,2.91187-4.868,5.74301c0,0,0.015,0.42899,0.021,0.62601
							c-0.09732-0.004-0.19733-0.00732-0.3-0.01001c-0.11501,0-0.231,0-0.347,0c-2.6553-0.09055-5.22191,0.9621-7.049,2.89099
							c-1.187,1.32199-2.513,3.72-2.089,7.64801c1.181,10.04199,7.58299,10.841,9.528,10.84702
							c1.14638,0.03149,2.28476-0.19974,3.328-0.67599c0.7041,0.2995,1.46187,0.45227,2.22701,0.44901
							c1.60951-0.00922,3.13985-0.69952,4.21201-1.89999c1.9124,1.48407,4.29085,2.23846,6.709,2.12799
							c0.39,0,0.79201-0.01401,1.19501-0.043c2.20464-0.1066,4.35455-0.72272,6.28101-1.79999
							c2.03554-0.97458,3.31898-3.0434,3.28799-5.29999C36.82166,21.82858,36.63011,21.08017,36.28999,20.396z"/>
						<path id="Path_76" class="st2" d="M129.99298,8.01401c-1.22507,0.0144-2.44778,0.1106-3.66,0.28799
							c-0.91345,0.10687-1.78561,0.44067-2.53699,0.97101c-0.09-0.08066-0.18066-0.15701-0.272-0.229L123.49298,9.021
							c-1.95282-1.64368-4.41959-2.55154-6.97202-2.56601c-0.078,0-0.15601,0-0.23499,0
							c-2.68188,0.16605-5.21133,1.30368-7.11499,3.20001c-1.33292-1.37482-3.1864-2.11984-5.10001-2.04999
							c-1.40863-0.01318-2.80685,0.24203-4.12,0.75201c-0.80499-0.35867-1.67883-0.53653-2.56-0.521c-0.07599,0-0.15399,0-0.23599,0
							c-1.87912,0.08185-3.64578,0.9183-4.89999,2.32001c-2.00882-1.46176-4.44565-2.21609-6.92899-2.14499
							c-1.22507,0.0144-2.44778,0.1106-3.66,0.28799c-0.17267,0.02066-0.34366,0.04901-0.513,0.08499
							c1.17972-3.18747-0.44791-6.72772-3.63535-7.90744c-3.18747-1.17972-6.72775,0.44791-7.90744,3.63535
							c-0.39896,1.07797-0.48807,2.24609-0.2572,3.3721c-0.95975,0.06012-1.89859,0.3067-2.76401,0.72601
							c-0.75711-0.34091-1.57977-0.5116-2.41-0.5C63.66425,7.7114,63.1514,7.77313,62.651,7.89404
							c-0.371-1.79169-1.34778-3.40094-2.76599-4.55701L59.853,3.31204c-2.49725-2.12784-5.66916-3.2995-8.95001-3.306
							c-0.09201,0-0.18399,0-0.27802,0c-5.26199,0-13.47299,5.77899-13.85999,14.48999l-0.005,0.12601v0.12601
							c0.42001,10.39999,9.51501,14.957,14.064,14.987h0.05301c2.85239,0.02008,5.63565-0.87741,7.939-2.56
							c1.27829,1.58902,3.1969,2.52744,5.23599,2.561c1.55261,0.03308,3.03516-0.64539,4.02499-1.84201
							c0.71832-0.89536,1.12332-2.0015,1.15302-3.14899c0.03009,1.14758,0.43546,2.25369,1.15399,3.14899
							c0.99005,1.1969,2.47305,1.87543,4.026,1.84201c1.61151-0.0202,3.1633-0.61282,4.37799-1.672
							c1.52682,1.10388,3.367,1.68982,5.25101,1.672c1.22574,0.01764,2.44049-0.23322,3.55899-0.73499
							c0.75876,0.33887,1.58102,0.51205,2.41199,0.508c1.20566,0.00302,2.38202-0.37149,3.36401-1.07101
							c1.13098,0.83258,2.49567,1.28748,3.89999,1.29999c0.21347-0.00009,0.42679-0.01178,0.63901-0.035
							c1.39548-0.13736,2.66733-0.85977,3.5-1.98801c0.03268-0.04465,0.06601-0.09,0.10001-0.13599
							c1.09985,1.17587,2.5787,1.92679,4.177,2.121c0.22348,0.0249,0.44815,0.0376,0.673,0.03799
							c1.54706,0.02917,3.02261-0.65039,4.00601-1.84503c0.05801-0.07101,0.11499-0.146,0.17099-0.22299
							c0.10001,0.08801,0.19199,0.17499,0.284,0.26001c0.15799,0.14801,0.31201,0.29199,0.48801,0.42899
							c-0.63602,0.27573-1.15933,0.75955-1.48401,1.37201c-0.418,1.03299,0.409,3.509,1.431,5.04099
							c0.48758,0.9812,1.42715,1.6593,2.51199,1.81299c0.39819-0.00488,0.78409-0.13855,1.10001-0.38101
							c0.66299-0.487,1.061-0.82199,1.41199-1.11801c0.41992-0.366,0.86649-0.70026,1.336-1l0.01999-0.013l0.01801-0.01501
							c0.51822-0.36777,1.10632-0.6254,1.728-0.75699c0.63474-0.08841,1.21646-0.40219,1.63901-0.884
							c0.418-0.64999,0.20001-2.43701-0.14499-3.64899c0.70389-0.32788,1.37723-0.71774,2.01199-1.16501
							c1.61264,1.39746,3.68124,2.15588,5.815,2.13199c1.22574,0.01764,2.44049-0.23322,3.55899-0.73499
							c2.96222,1.31998,6.43365-0.01132,7.75363-2.97357c0.33221-0.74554,0.50537-1.55222,0.50836-2.36844V17.909
							C140.52899,11.98999,136.29498,8.01401,129.99298,8.01401z M51.64899,16.58002c-0.991,0-1.5-0.685-1.5-2.034
							c-0.06738-0.70703,0.45117-1.33481,1.1582-1.40219c0.1059-0.0101,0.21265-0.00702,0.31781,0.00919h0.056
							c0.7001-0.02463,1.39774,0.09589,2.04901,0.354c0.89706,0.44531,1.87433,0.70612,2.87399,0.767h0.16199
							c0.16199,0,0.32501-0.00601,0.48801-0.01801c-0.061,0.39999-0.11301,0.80701-0.15601,1.20901
							c-0.11932-0.00668-0.23767-0.01004-0.35501-0.01001h-0.14001c-1.00006,0.06107-1.97772,0.3222-2.875,0.76801
							c-0.6467,0.25693-1.33957,0.37711-2.035,0.353L51.64899,16.58002z M69.233,24.302c-0.01257-0.33771-0.0527-0.67383-0.12-1.005
							c-0.28943-1.41574-0.44742-2.85519-0.47198-4.29999h0.319c0.29102-0.00024,0.58157-0.02332,0.86899-0.069
							c0.0126,1.47256-0.14716,2.94156-0.47601,4.37701C69.28598,23.63354,69.24585,23.96698,69.233,24.302z"/>
					</g>
					<path id="Path_77" class="st3" d="M12.823,7.66501c0.08363-1.39917,1.13258-2.55017,2.51801-2.763
						c1.42067-0.35172,2.85747,0.51486,3.20917,1.93552C18.55392,6.85266,18.55753,6.8678,18.561,6.883
						c0.953,5.39999-0.168,11.13599-0.543,16.75101c-0.04973,1.56161-1.29411,2.82126-2.855,2.89001
						c-0.90237,0.00763-1.74522-0.44949-2.231-1.20999c-0.79781,1.00552-2.04597,1.54495-3.325,1.43701
						c-2.60001-0.008-5.81599-1.82199-6.56799-8.216c-0.593-5.5,3.10001-7.30701,6.438-7.20801
						c1.23216-0.03735,2.43901,0.35468,3.414,1.10901C12.897,10.798,12.881,9.202,12.823,7.66501z M12.21201,20.625
						c0.68559-1.04559,0.71625-2.39026,0.07899-3.466c-0.37691-0.50793-0.98343-0.79297-1.61501-0.759
						c-1.11993,0.03824-1.99683,0.97711-1.95859,2.09705C8.71912,18.54681,8.72264,18.5965,8.728,18.646
						c0.05901,2.24301,1.588,2.78101,2.144,2.77802c0.54315-0.05493,1.03395-0.34796,1.34-0.80002L12.21201,20.625z"/>
					<path id="Path_78" class="st4" d="M27.073,26.71399c-6.10699,0.42801-8.02701-3.03299-8.267-7.823
						c-0.18201-4.67099,1.51601-8.724,6.35001-9.05899c4.60001-0.341,9.2,2.60001,9.53999,6.60001
						c0.01872,1.517-0.99567,2.85275-2.46201,3.242c-1.25528,0.2623-2.53575,0.3847-3.81799,0.36499
						c-1.20599,0.04599-2.72-0.10001-3.26199,0.18799c-0.422,0.22501-0.54201,0.66699-0.258,0.94501
						c0.388,0.341,1.177,0.509,2.912,0.383c1.18413-0.18658,2.35643-0.44168,3.511-0.76401
						c1.03006-0.32919,2.13193,0.23898,2.46111,1.26904c0.06812,0.2131,0.0992,0.43634,0.09189,0.65994
						c-0.04216,1.10904-0.71172,2.09747-1.726,2.548C30.5912,26.13968,28.85374,26.63495,27.073,26.71399z M28.259,16.59
						c0.37688-0.08618,0.61253-0.46155,0.52637-0.83841c-0.0244-0.10675-0.07352-0.20627-0.14337-0.29059
						c-0.48009-0.62024-1.26483-0.92267-2.037-0.785c-0.72527-0.01389-1.38263,0.42487-1.64799,1.10001
						c-0.16322,0.32776-0.02983,0.7258,0.29794,0.88904c0.09984,0.04971,0.21062,0.07343,0.32205,0.06897
						c0.89001-0.00101,1.79601-0.078,2.68301-0.14401H28.259z"/>
					<path id="Path_79" class="st5" d="M50.84399,26.75c-3.13199-0.021-10.75699-3.53601-11.10001-12.129
						C40.065,7.39801,46.96899,2.978,50.62799,2.978c0.06665,0,0.13135,0,0.194,0C52.65298,3.00101,54.853,3.229,58.04498,5.672
						c0.88968,0.729,1.4906,1.7511,1.69501,2.883c0.06982,0.63907-0.14148,1.27695-0.57901,1.74799
						c-0.62518,0.64737-1.49118,1.00595-2.39099,0.98999H56.694c-0.62433-0.05655-1.23129-0.23599-1.78601-0.52802l-0.01999-0.009
						l-0.01999-0.008c-1.00162-0.40204-2.07394-0.59827-3.15302-0.577h-0.06699c-2.3392-0.1297-4.34064,1.66147-4.47034,4.00067
						c-0.00662,0.11966-0.00818,0.23953-0.00467,0.35931c0.01001,3.96701,2.819,5.02399,4.47699,5.02399h0.06799
						c1.07776,0.02097,2.14868-0.17526,3.14899-0.577l0.01999-0.008l0.01999-0.009c0.55673-0.29318,1.16623-0.47266,1.793-0.52802
						h0.06799c0.89981-0.01596,1.76581,0.34262,2.39099,0.98999c0.43692,0.47018,0.64819,1.10687,0.57901,1.745
						c-0.20398,1.13605-0.80682,2.16196-1.70001,2.89301C54.85101,26.49799,52.65302,26.73199,50.84399,26.75z"/>
					<g id="Group_8" transform="translate(108.317 9.429)">
						<path id="Path_80" class="st5" d="M10.41101,21.51703c-0.04102,1.01599-1.46198,0.34698-3.32397,2.216
							S3.88702,22.83301,3.95306,21.255c0.04102-1.01599,1.46198-0.34601,3.32397-2.216S10.47504,19.94104,10.41101,21.51703z"/>
						<path id="Path_81" class="st5" d="M13.36603,1.95599c0.71149,0.57883,1.18896,1.396,1.34399,2.29999
							c0.0412,1.27899-0.96222,2.34918-2.24121,2.39038c-0.10541,0.00339-0.21094-0.0004-0.3158-0.01138
							c-0.49304-0.03976-0.97314-0.17783-1.41199-0.40601c-0.64264-0.25906-1.3313-0.38458-2.02399-0.36899
							c-1.39032-0.09256-2.59247,0.95953-2.685,2.34985c-0.00488,0.07361-0.00659,0.1474-0.005,0.22116
							c0.00598,2.48401,1.74799,3.043,2.69,3.026c0.69269,0.01556,1.38135-0.10999,2.02399-0.36899
							c0.43878-0.22836,0.91895-0.36642,1.41199-0.40601c1.27271-0.13324,2.41241,0.79047,2.54565,2.06317
							c0.01099,0.10522,0.01483,0.21109,0.01135,0.31683c-0.15509,0.90396-0.63257,1.7211-1.34399,2.29999
							c-1.45502,1.26254-3.31757,1.95624-5.24402,1.953C3.59998,16.79309,0.14355,13.0358,0,8.48599
							c0.22198-5.285,5.28003-8.61099,8.12201-8.48901C10.04919-0.00458,11.91187,0.69125,13.36603,1.95599z"/>
					</g>
					<path id="Path_82" class="st6" d="M68.31799,16.01999c-2.51501,0-2.66901,1.763-2.65201,1.763
						c-0.06396,2.05179,0.11191,4.104,0.52399,6.11499c0.37506,1.14291-0.24738,2.37347-1.39029,2.74854
						c-0.2417,0.07935-0.49545,0.11569-0.74973,0.10745c-1.69998-0.05469-3.16452-1.21396-3.608-2.85599
						c-0.69052-3.37177-0.71429-6.8461-0.07001-10.22699c0.44498-1.73969,2.00436-2.96259,3.79999-2.98001
						c0.89917-0.09778,1.75491,0.40994,2.10001,1.246c0.92151-0.8851,2.13016-1.40994,3.40601-1.479h0.47601
						c1.591,0,1.979,1.15601,1.64099,2.77701c-0.323,1.54199-1.255,2.78601-2.84399,2.785H68.31799z"/>
					<g id="Group_9" transform="translate(72.206 3.079)">
						<path id="Path_83" class="st7" d="M0.173,10.987c-0.36099-2.48001,0.836-3.37799,1.909-3.379
							c1.79575,0.01706,3.35532,1.24011,3.79999,2.98001C6.52634,13.9689,6.50253,17.44324,5.81198,20.815
							c-0.44348,1.64203-1.90802,2.8013-3.608,2.85599c-1.20224,0.039-2.20847-0.90402-2.24747-2.10626
							c-0.00824-0.25427,0.02814-0.508,0.10745-0.74973c0.41168-1.80875,0.5878-3.66312,0.52399-5.517
							C0.60699,15.297,0.45901,12.97101,0.173,10.987z"/>
						<path id="Path_84" class="st7" d="M6.35199,3.17499C6.35199,4.815,5.02798,7.202,3.177,7.246
							C1.32501,7.202,0.00101,4.81601,0.00201,3.17499c0-1.75378,1.42172-3.17551,3.17551-3.17551S6.35303,1.4212,6.35303,3.17499
							H6.35199z"/>
					</g>
					<path id="Path_85" class="st3" d="M92.88403,17.90802v5.74399c0.00055,1.5856-1.28436,2.87146-2.87,2.87201
						c-0.00067,0-0.00134,0-0.00201,0c-0.93378,0.01294-1.8125-0.44052-2.34302-1.20901
						c-0.95032,0.9725-2.26953,1.49466-3.62799,1.436c-0.75598,0-5.40002-0.22699-5.40002-5.366
						c0-2.83401,1.88898-4.383,5.177-4.383c1.25964,0.02405,2.49347,0.36154,3.59003,0.98199v-0.86899
						c-0.18903-0.75601-0.67999-1.39999-3.09998-1.39999c-0.70856,0.01959-1.41522,0.0827-2.11603,0.189
						c-1.26471,0.00552-2.29443-1.01526-2.29999-2.27997c0-0.00668,0-0.01334,0-0.02002
						c-0.00592-1.2244,0.93341-2.24615,2.15399-2.34299c1.08887-0.1582,2.18683-0.2464,3.28699-0.26401
						C89.974,10.99301,92.88403,13.71301,92.88403,17.90802z M86.81403,21.87103c0.20001-0.67401-0.41699-1.22101-2-1.47198
						c-1.28302-0.20001-1.50897,0.38901-1.58002,0.83499s0.13501,1.082,1.24298,1.284C86.64899,22.914,86.815,21.871,86.815,21.871
						L86.81403,21.87103z"/>
					<path id="Path_86" class="st8" d="M137.55103,17.90802v5.74399c0.00055,1.5856-1.28436,2.87146-2.87,2.87201
						c-0.00067,0-0.00134,0-0.00201,0c-0.93378,0.01294-1.8125-0.44052-2.34302-1.20901
						c-0.95032,0.9725-2.26953,1.49466-3.62799,1.436c-0.75598,0-5.40002-0.22699-5.40002-5.366
						c0-2.83401,1.88898-4.383,5.177-4.383c1.25964,0.02411,2.49347,0.36157,3.59003,0.98199v-0.86899
						c-0.18903-0.75601-0.67999-1.39999-3.09998-1.39999c-0.70856,0.01956-1.41522,0.0827-2.11603,0.189
						c-1.26471,0.00552-2.29443-1.01526-2.29999-2.27997c0-0.00668,0-0.01334,0-0.02002
						c-0.00592-1.2244,0.93341-2.24615,2.15399-2.34299c1.08923-0.15823,2.1875-0.24643,3.28802-0.26401
						C134.64099,10.99301,137.55103,13.71301,137.55103,17.90802z M131.48102,21.87103c0.20001-0.67401-0.41699-1.22101-2-1.47198
						c-1.28302-0.20001-1.50897,0.38901-1.58002,0.83499s0.13501,1.082,1.24298,1.284
						c2.17102,0.39597,2.33801-0.64703,2.33801-0.64703L131.48102,21.87103z"/>
					<path id="Path_87" class="st4" d="M108.48001,23.91699c0.37286,1.14246-0.25098,2.37088-1.39349,2.74374
						c-0.34692,0.11325-0.7168,0.13739-1.0755,0.07025c-1.56012-0.20264-2.84216-1.32974-3.24298-2.85101
						c-0.44836-2.20529-0.61035-4.45923-0.48199-6.70599c0.02069-0.57401-0.4278-1.05612-1.00183-1.07681
						c-0.04474-0.00162-0.08954-0.00034-0.13416,0.00381c-0.88959,0.04834-1.71332,0.48395-2.25403,1.19199
						c-0.11511,2.18942,0.04547,4.38464,0.47803,6.534c0.29199,1.478-0.37299,2.75-1.79303,2.90701
						c-1.80084,0.10178-3.42603-1.07382-3.89301-2.81601c-0.68542-3.34534-0.70923-6.79251-0.07001-10.147
						c0.43274-1.66995,1.89917-2.86591,3.62201-2.95401c0.94818-0.17429,1.89789,0.29672,2.33301,1.15701
						c1.30475-0.94858,2.88757-1.43713,4.5-1.38901c3.04199,0,4.33002,2.29999,4.01501,5.35901
						C107.81027,18.60605,107.94247,21.29498,108.48001,23.91699z"/>
				</g>
				<g id="Top_1_">
					<g id="Back_1_" transform="translate(11.415)">
						<g id="Grid_1_" transform="translate(73.829 39.643)">
							<path id="Path_88" class="st9" d="M0,4.68901l39.02399,0.155"/>
							<path id="Path_89" class="st9" d="M0,7.032l39.02399,0.155"/>
							<path id="Path_90" class="st9" d="M0,9.375L39.02399,9.53"/>
							<path id="Path_91" class="st9" d="M0,11.71901l39.02399,0.155"/>
							<path id="Path_92" class="st9" d="M0,16.562C0.04733,11.04132,0.095,5.52066,0.14301,0"/>
							<path id="Path_93" class="st9" d="M2.16101,16.562C2.20834,11.04132,2.25601,5.52066,2.30402,0"/>
							<path id="Path_94" class="st9" d="M4.32001,16.562C4.36737,11.04132,4.41501,5.52066,4.46301,0"/>
							<path id="Path_95" class="st9" d="M6.48001,16.562C6.52734,11.04132,6.57504,5.52066,6.62302,0"/>
							<path id="Path_96" class="st9" d="M8.64102,16.562C8.68835,11.04132,8.73605,5.52066,8.78403,0"/>
							<path id="Path_97" class="st9" d="M10.80002,16.562c0.04736-5.52068,0.095-11.04134,0.14301-16.562"/>
							<path id="Path_98" class="st9" d="M12.96103,16.562c0.04733-5.52068,0.095-11.04134,0.14301-16.562"/>
							<path id="Path_99" class="st9" d="M15.121,16.562C15.16837,11.04132,15.216,5.52066,15.26401,0"/>
							<path id="Path_100" class="st9" d="M17.28098,16.562C17.32831,11.04132,17.37601,5.52066,17.42398,0"/>
							<path id="Path_101" class="st9" d="M19.44101,16.562C19.48834,11.04132,19.53604,5.52066,19.58401,0"/>
							<path id="Path_102" class="st9" d="M21.60098,16.562c0.04736-5.52068,0.095-11.04134,0.14301-16.562"/>
							<path id="Path_103" class="st9" d="M23.75699,16.562C23.80435,11.04132,23.85196,5.52066,23.89999,0"/>
							<path id="Path_104" class="st9" d="M25.92099,16.562C25.96829,11.04132,26.01596,5.52066,26.064,0"/>
							<path id="Path_105" class="st9" d="M28.08099,16.562C28.12836,11.04132,28.17596,5.52066,28.224,0"/>
							<path id="Path_106" class="st9" d="M30.24103,16.562L30.38403,0"/>
							<path id="Path_107" class="st9" d="M32.401,16.562C32.4483,11.04132,32.49603,5.52066,32.54401,0"/>
							<path id="Path_108" class="st9" d="M34.56201,16.562C34.60931,11.04132,34.65698,5.52066,34.70502,0"/>
							<path id="Path_109" class="st9" d="M36.72101,16.562L36.86401,0"/>
							<path id="Path_110" class="st9" d="M38.88202,16.562C38.92932,11.04132,38.97699,5.52066,39.02502,0"/>
							<path id="Path_111" class="st9" d="M0,2.34399l39.02399,0.155"/>
							<path id="Path_112" class="st9" d="M0,0l39.02399,0.155"/>
							<path id="Path_113" class="st9" d="M0,14.063l39.02399,0.155"/>
							<path id="Path_114" class="st9" d="M0,16.407l39.02399,0.155"/>
						</g>
						<g id="Group_10" transform="translate(61.092 31.146)">
							<path id="Wall_1_" class="st10" d="M1.047,1.048v41.886h61.38101V1.048H1.047z M43.82401,21.05701
								c0,1.36359-1.10541,2.46899-2.46899,2.46899H20.931c-1.36359,0-2.46899-1.10541-2.46899-2.46899v-8.35899
								c0-1.36359,1.10541-2.46899,2.46899-2.46899h20.427c1.36359,0,2.46899,1.10541,2.46899,2.46899L43.82401,21.05701z"/>
							<path id="Path_115" class="st2" d="M63.47601,43.981H0V0h63.47601V43.981z M2.095,41.881h59.28601V2.095H2.095V41.881z
								 M41.35501,24.569h-20.423c-1.94147-0.00221-3.5148-1.57553-3.517-3.517v-8.35899
								c0.0022-1.94147,1.57553-3.51479,3.517-3.517h20.423c1.94147,0.00221,3.5148,1.57553,3.517,3.517V21.052
								c0,1.94304-1.57397,3.51878-3.517,3.521V24.569z M20.93201,11.269c-0.78488,0.0011-1.4209,0.6371-1.422,1.422v8.35899
								c0.0011,0.7849,0.63712,1.4209,1.422,1.422h20.423c0.78488-0.0011,1.4209-0.6371,1.422-1.422v-8.35899
								c-0.0011-0.7849-0.63712-1.4209-1.422-1.422H20.93201z"/>
						</g>
						<g id="_x30_3_Tower_1_" transform="translate(111.116)">
							<path id="Path_116" class="st2" d="M19.77002,23.232c-2.32318-1.92594-5.229-3.01027-8.24597-3.077
								c-1.74695-0.03518-3.45709,0.50488-4.867,1.537c-1.92902,1.462-2.98602,3.748-3.14099,6.8
								c-0.45898,9.021-0.17499,22.918,0.79999,39.131c0.1662,3.91089,3.43158,6.96957,7.34497,6.88
								c4.00934,0.08138,7.3255-3.10284,7.40686-7.11217c0.00336-0.16496,0.00104-0.33-0.00684-0.49483
								c0-7.10001,0.77502-28.53,2.21002-36.094C21.85901,27.691,21.35498,25.145,19.77002,23.232z"/>
							<path id="Path_117" class="st2" d="M25.15497,24.729c-0.10968-1.50982-0.39429-3.0018-0.84802-4.446l-0.008-0.027
								c-0.08899-0.322-0.177-0.643-0.26001-0.965c-0.64099-2.494-4.31897-14.861-4.68597-16.046
								c-0.6778-2.37556-3.15308-3.75184-5.52863-3.07402c-1.23053,0.3511-2.25171,1.21238-2.80536,2.36602l-9.453,16.386
								l-0.04401,0.08c-0.57556,1.06531-1.01752,2.19752-1.31598,3.371c-0.49841,2.03815-0.0177,4.19214,1.29999,5.825
								c1.935,2.649,5.25598,4.388,9.35199,4.9c0.61298,0.076,1.229,0.124,1.83197,0.143
								c0.20001,0.006,0.39996,0.00933,0.59998,0.01c1.97449,0.01067,3.93622-0.31708,5.79999-0.969
								c2.02399-0.719,4.23999-1.732,5.33099-3.791C25.00208,27.32737,25.25586,26.02668,25.15497,24.729z"/>
							<path id="Path_118" class="st11" d="M12.71198,22.986c0,0,7.32599-0.3,5.88202,7.3
								c-1.54498,8.14-2.258,30.185-2.258,36.60001S7.38501,73.299,7.03601,67.45c-0.91901-15.3-1.271-29.524-0.79999-38.83
								C6.59198,21.614,12.71198,22.986,12.71198,22.986z"/>
							<path id="Path_119" class="st2" d="M13.23895,32.021c-0.18396,0-0.36798-0.003-0.552-0.009
								c-0.55402-0.018-1.12097-0.062-1.68597-0.132c-3.76099-0.467-6.80701-2.059-8.578-4.484
								c-1.245-1.7-0.36401-3.226,0.09998-5.025c0.27393-1.07914,0.67999-2.12035,1.20898-3.1l0.02002-0.038l8.53601-14.215
								c0.75403-1.431,1.078-2.283,2.59998-2.283c1.76202,0,2.28198,0.912,2.81799,2.649c0.34003,1.1,3.5,11.557,4.091,13.865
								c0.58105,1.6296,1.01184,3.30893,1.28699,5.017c0.05798,1.337,0.35101,2.453-0.15601,3.412
								c-0.93176,1.68479-2.49951,2.92622-4.35303,3.447C16.8606,31.72674,15.05579,32.02981,13.23895,32.021z"/>
							<path id="top_7_" class="st6" d="M16.75,4.048c0.34399,1.115,4.026,13.493,4.65002,15.921
								c0.51276,1.58566,0.85864,3.22052,1.03198,4.878c0.06909,0.81297-0.07751,1.62979-0.42499,2.368
								c-0.69098,1.3-2.5,2.026-3.836,2.5c-1.73462,0.60006-3.56592,0.87136-5.40002,0.8
								c-0.52869-0.01667-1.05603-0.058-1.58197-0.124c-2.79199-0.347-5.771-1.449-7.48798-3.8
								c-0.82623-0.98169-1.1452-2.29355-0.862-3.545c0.24463-0.96518,0.60876-1.89604,1.08398-2.771L13.40002,3.85
								c0.3457-0.90787,1.36194-1.36357,2.26984-1.01784C16.20691,3.03667,16.61017,3.49061,16.75,4.048z"/>
						</g>
						<g id="_x30_4_Tower_1_" transform="translate(48.147)">
							<path id="Path_120" class="st2" d="M21.64902,28.48801c-0.155-3.048-1.21201-5.334-3.14099-6.8
								c-1.40991-1.03213-3.12003-1.57218-4.867-1.537c-3.01697,0.06673-5.92282,1.15105-8.246,3.077
								c-1.58402,1.913-2.08899,4.459-1.5,7.565c1.436,7.565,2.20999,29,2.20999,36.09399
								c-0.19135,4.00612,2.90112,7.40884,6.90726,7.6002c0.16412,0.00783,0.32846,0.0101,0.49274,0.00679l0,0
								c3.91302,0.08904,7.17783-2.9695,7.34399-6.88C21.823,51.40701,22.108,37.51,21.64902,28.48801z"/>
							<path id="Path_121" class="st2" d="M24.95999,22.374c-0.29858-1.17454-0.74094-2.30776-1.31699-3.374l-0.026-0.049
								l-9.46399-16.4c-0.75885-1.5465-2.32443-2.53335-4.047-2.551C8.11523,0.01566,6.37,1.33423,5.81101,3.245
								c-0.367,1.189-4.048,13.567-4.685,16.046C1.043,19.613,0.95502,19.934,0.866,20.256l-0.008,0.027
								c-0.4537,1.44386-0.73828,2.93551-0.84799,4.445c-0.099,1.29715,0.15646,2.59681,0.73901,3.76
								c1.09,2.059,3.30701,3.072,5.33099,3.791c1.86374,0.65208,3.8255,0.97982,5.79999,0.969
								c0.19998,0,0.39999-0.00333,0.60001-0.01c0.60001-0.019,1.21899-0.067,1.832-0.143c4.10001-0.508,7.41699-2.247,9.35199-4.9
								C24.979,26.56241,25.45816,24.41028,24.95999,22.374z"/>
							<path id="Path_122" class="st6" d="M12.452,22.986c0,0-7.32599-0.3-5.88199,7.3c1.54501,8.14,2.258,30.185,2.258,36.60001
								s8.95099,6.41299,9.29999,0.564c0.92001-15.3,1.271-29.524,0.79999-38.83C18.57199,21.614,12.452,22.986,12.452,22.986z"/>
							<path id="Path_123" class="st2" d="M11.92599,32.026c0.18399,0,0.36801-0.003,0.552-0.009
								c0.55399-0.018,1.121-0.062,1.686-0.132c3.31747-0.33835,6.33871-2.05918,8.32199-4.74c1.245-1.7,0.62-3.226,0.16-5.025
								c-0.27396-1.07914-0.68002-2.12034-1.20901-3.1l-0.01999-0.038L12.625,4.51101c-0.754-1.431-1.07901-2.027-2.60001-2.027
								c-1.76199,0-2.026,1.168-2.56201,2.905c-0.34,1.1-3.754,11.813-4.34698,14.121c-0.07901,0.308-0.164,0.616-0.24899,0.924
								c-0.41574,1.33009-0.6781,2.70333-0.78201,4.093c-0.09048,1.17684,0.14041,2.35616,0.668,3.412
								c0.74344,1.58089,2.15064,2.74994,3.841,3.191C8.30707,31.73119,10.1105,32.03425,11.92599,32.026z"/>
							<path id="top_6_" class="st3" d="M8.41299,4.048C8.069,5.163,4.38699,17.541,3.763,19.969
								c-0.51279,1.58566-0.85867,3.22052-1.03201,4.878c-0.06909,0.81297,0.07751,1.62979,0.42499,2.368
								c0.69101,1.3,2.5,2.026,3.836,2.5c1.73462,0.60006,3.56592,0.87136,5.39999,0.8c0.52933-0.01667,1.05667-0.058,1.582-0.124
								c2.79099-0.347,5.771-1.449,7.48801-3.8c0.8262-0.98169,1.1452-2.29355,0.862-3.545
								c-0.2446-0.96518-0.60876-1.89604-1.08401-2.771L11.76297,3.85C11.41724,2.94213,10.401,2.48643,9.49313,2.83216
								C8.95609,3.03667,8.55283,3.49061,8.41299,4.048z"/>
						</g>
						<g id="Group_11" transform="translate(0 38.955)">
							<path id="Stairs_2_" class="st8" d="M1.281,32.80901l33.52-21.411l-4.922-7.70599c0,0.005,0,0.013,0,0.01801
								c-2.42236-0.41107-4.90144-0.34857-7.3,0.18401l-0.007,0.006c-0.28485,2.42983-0.22223,4.88783,0.186,7.3
								c-2.4225-0.41016-4.90154-0.34698-7.3,0.186c-0.28452,2.42984-0.22189,4.8878,0.186,7.3
								c-2.42242-0.41122-4.90166-0.34805-7.3,0.186c-0.28452,2.42984-0.22189,4.8878,0.186,7.3
								c-2.42243-0.41112-4.90165-0.34795-7.3,0.186C0.97298,28.50182,0.99012,30.66957,1.281,32.80901z"/>
							<path id="Path_124" class="st2" d="M0.459,34.578l-0.216-1.631c-0.3026-2.2242-0.32277-4.47774-0.06-6.707l0.09-0.73801
								l0.726-0.159c2.06654-0.46005,4.19308-0.58865,6.3-0.381c-0.2438-2.06349-0.2438-4.14851,0-6.21201l0.09-0.73801l0.726-0.159
								c2.06657-0.45985,4.19307-0.58846,6.3-0.381c-0.24381-2.06349-0.24381-4.14851,0-6.21201l0.09-0.73801l0.727-0.159
								c2.06669-0.45901,4.19306-0.58762,6.3-0.381c-0.24391-2.06248-0.24391-4.14651,0-6.209l0.053-0.431l0.53-0.41499
								l0.241-0.05701c2.11526-0.46866,4.2925-0.59125,6.447-0.36301l-0.046-2.509l7.484,11.71899L0.459,34.578z M2.184,27.244
								c-0.11069,1.25282-0.1214,2.51248-0.032,3.767l6-3.83C6.17317,26.86768,4.15577,26.88898,2.184,27.244z M9.302,19.754
								c-0.17825,2.08856-0.09122,4.1913,0.259,6.258L9.6,26.252L33.355,11.08l-4.09-6.39999
								c-1.90133-0.27422-3.83441-0.24045-5.725,0.10001c-0.17469,2.08861-0.08802,4.19086,0.258,6.258l0.235,1.44099l-1.441-0.239
								c-2.04362-0.3465-4.13184-0.33635-6.172,0.03c-0.1783,2.08856-0.09128,4.1913,0.259,6.258l0.23499,1.43199l-1.44-0.239
								c-2.04343-0.34593-4.13139-0.33476-6.171,0.033H9.302z"/>
						</g>
						<g id="Group_12" transform="translate(147.292 38.955)">
							<path id="Stairs_1_" class="st8" d="M34.96704,32.81L1.44702,11.399l4.922-7.70599c0,0.005,0,0.013,0,0.01801
								c2.42236-0.41104,4.90143-0.34856,7.29999,0.18401l0.00702,0.006c0.28485,2.42983,0.22223,4.88783-0.18597,7.3
								c2.42249-0.41019,4.90155-0.34702,7.29999,0.186c0.28455,2.42984,0.22192,4.8878-0.18597,7.3
								c2.42242-0.41122,4.90167-0.34805,7.29999,0.186c0.28455,2.42984,0.22192,4.8878-0.18597,7.3
								c2.42242-0.41112,4.90161-0.34795,7.29999,0.186C35.27509,28.50281,35.25793,30.67056,34.96704,32.81z"/>
							<path id="Path_125" class="st2" d="M35.789,34.57899L0,11.71899L7.48401,0l-0.047,2.509
								c2.15485-0.22813,4.3324-0.10555,6.448,0.36301l0.23102,0.05l0.534,0.412l0.06,0.44099
								c0.2439,2.06248,0.2439,4.14651,0,6.209c2.10693-0.2065,4.23328-0.07791,6.29999,0.381l0.72699,0.159l0.09003,0.73801
								c0.2439,2.06349,0.2439,4.14851,0,6.21201c2.10693-0.20724,4.2334-0.07864,6.29999,0.381l0.72601,0.159l0.09003,0.73801
								c0.2439,2.06349,0.2439,4.14851,0,6.21201c2.10693-0.20744,4.2334-0.07884,6.29999,0.381l0.72601,0.159l0.09003,0.73801
								c0.26263,2.22926,0.24249,4.48279-0.06,6.707L35.789,34.57899z M28.09998,27.179l6,3.83
								c0.08917-1.25453,0.07849-2.51416-0.03198-3.767c-1.97162-0.35362-3.98865-0.3739-5.96698-0.06001L28.09998,27.179z
								 M2.89301,11.07899l23.75403,15.173l0.039-0.24001c0.35016-2.06671,0.43713-4.16943,0.25897-6.258
								c-2.0401-0.36711-4.12842-0.37726-6.172-0.03l-1.44,0.239l0.23499-1.44099c0.35016-2.06671,0.43713-4.16943,0.25897-6.258
								c-2.04016-0.36635-4.12836-0.3765-6.172-0.03l-1.44098,0.239l0.23499-1.44099c0.34613-2.06712,0.4328-4.16939,0.258-6.258
								C10.81635,4.4337,8.8833,4.39993,6.982,4.67401L2.89301,11.07899z"/>
						</g>
						<path id="Path_126" class="st12" d="M56.61102,32.929c1.36301,12.34799,1.483,24.73,1.70001,34.01801
							c0.97537-11.24995,0.94458-22.56451-0.09201-33.80899L56.61102,32.929z"/>
						<path id="Path_127" class="st12" d="M120.39096,33.349c-0.89398,12.33701-0.85498,24.746-1.06897,34.01801
							c0,0-1.245-16.427-0.74597-34.647L120.39096,33.349z"/>
						<path id="Path_128" class="st12" d="M52.08701,24.365c0,0,4.44101-15.832,5.14801-17.761c0.71799-1.957,2.01001-1.675,2.69,0
							c0,0-1.43799-0.255-2.84299,3.5C56.65601,11.23,52.08701,24.365,52.08701,24.365z"/>
						<path id="Path_129" class="st12" d="M115.40402,22.765c0,0,8.01099-14.36,9.14899-16.07
							c1.15399-1.736,2.34497-1.16,2.61603,0.628c0,0-1.33899-0.583-3.58099,2.739
							C122.91202,11.063,115.40402,22.765,115.40402,22.765z"/>
						<g id="Group_13" transform="translate(26.774 14.513)">
							<path id="Path_130" class="st8" d="M106.30899,12.958l1.20001-3.393c0.20813-0.80699-0.27731-1.62991-1.08432-1.83805
								c-0.00122-0.00031-0.00247-0.00063-0.00369-0.00095c-3.19601-1.08867-6.42267-2.04733-9.67999-2.876
								c-0.78467-0.26571-1.63614,0.15498-1.90186,0.93964C94.83807,5.79276,94.83704,5.79588,94.836,5.799l-0.845,3.5
								c-0.24084,0.77133-1.05295,1.20978-1.82999,0.988c-2.39334-0.54467-4.79834-1.01633-7.215-1.415
								C84.14395,8.78375,83.55936,8.07081,83.63,7.267c0.18066-1.18667,0.36133-2.37333,0.54199-3.56
								c0.05695-0.82647-0.56689-1.54261-1.39334-1.59956C82.77643,2.10729,82.77423,2.10715,82.772,2.107
								c-3.31198-0.46066-6.63531-0.79134-9.97-0.992c-0.82123-0.10818-1.57471,0.46979-1.68301,1.291
								c-0.05667,1.2-0.11365,2.4-0.17099,3.6c-0.08826,0.79983-0.79825,1.38335-1.60001,1.315
								c-2.43933-0.08533-4.87965-0.097-7.321-0.035c-0.80328,0.06218-1.50928-0.52836-1.59-1.33
								c-0.04532-1.2-0.09067-2.4-0.136-3.6c-0.10049-0.82194-0.84799-1.40697-1.67-1.307c-3.33,0.168-6.65201,0.46567-9.966,0.893
								c-0.82712,0.04668-1.45978,0.75502-1.4131,1.58213C47.25192,3.52476,47.25197,3.52537,47.252,3.526l0.507,3.565
								c0.06218,0.8044-0.52925,1.51128-1.332,1.592c-2.41934,0.37466-4.82901,0.823-7.229,1.345
								c-0.77921,0.21458-1.58722-0.23204-1.82001-1.006l-0.81-3.508c-0.25191-0.7892-1.0959-1.22475-1.88509-0.97285
								C34.67793,4.54275,34.67296,4.54436,34.668,4.546c-3.25867,0.796-6.49034,1.72134-9.69501,2.776
								c-0.80791,0.20125-1.30016,1.01882-1.10001,1.827l1.17101,3.405c0.20705,0.7837-0.24599,1.59012-1.02299,1.821
								C16.14217,17.19815,8.5752,20.82564,1.44,25.2l6.62801,10.816c34.9959-21.44542,79.0641-21.44541,114.06001,0l6.62799-10.816
								c-6.79019-4.16257-13.97223-7.64925-21.44299-10.41C106.53821,14.55107,106.09351,13.73966,106.30899,12.958z"/>
							<path id="Path_131" class="st2" d="M122.47501,37.456l-0.89301-0.547c-34.6601-21.2402-78.30591-21.2402-112.966,0
								l-0.89301,0.547l-7.72301-12.6l0.89301-0.547c7.19751-4.40983,14.82928-8.06805,22.77499-10.917
								c0.282-0.1,0.436-0.346,0.384-0.5l-1.17-3.4c-0.19792-0.58411-0.15178-1.22338,0.12801-1.773
								c0.3399-0.66252,0.92972-1.16235,1.63901-1.389c3.20599-1.056,6.495-2,9.774-2.8c0.71817-0.182,1.47926-0.07044,2.11501,0.31
								c0.5302,0.31934,0.90886,0.83936,1.05,1.442l0.81,3.506c0.036,0.153,0.291,0.279,0.577,0.218
								c2.39999-0.522,4.855-0.979,7.291-1.356c0.287-0.044,0.476-0.254,0.45399-0.412l-0.505-3.564
								c-0.08487-0.61315,0.08176-1.23457,0.46201-1.723c0.45444-0.58186,1.12201-0.95866,1.855-1.047
								c3.321-0.429,6.7-0.732,10.047-0.9c0.73575-0.04267,1.45822,0.20919,2.008,0.7c0.46126,0.41438,0.73567,0.99745,0.761,1.617
								l0.136,3.6c0.006,0.157,0.228,0.33,0.517,0.322c2.44901-0.062,4.933-0.05,7.383,0.036c0.28799,0.012,0.51199-0.16,0.52-0.32
								l0.17101-3.594c0.0321-0.61842,0.31223-1.19778,0.77699-1.607c0.55472-0.48525,1.27968-0.7299,2.015-0.68
								c3.34999,0.2,6.731,0.538,10.05199,1c0.73215,0.0955,1.39612,0.47876,1.845,1.065c0.375,0.49331,0.5351,1.11707,0.444,1.73
								l-0.54099,3.557c-0.02301,0.155,0.16501,0.367,0.452,0.414c2.42899,0.4,4.87799,0.881,7.27701,1.428
								c0.28699,0.065,0.54199-0.059,0.57999-0.214l0.84399-3.5c0.14734-0.60038,0.53107-1.11573,1.064-1.429
								c0.63983-0.37418,1.40231-0.47817,2.11899-0.289c3.276,0.834,6.55899,1.809,9.759,2.9
								c0.70786,0.23343,1.29343,0.73946,1.62701,1.406c0.27496,0.55322,0.31464,1.19409,0.10999,1.777l-1.20001,3.389
								c-0.05301,0.151,0.10001,0.4,0.38101,0.5c7.53403,2.78668,14.7775,6.30341,21.62701,10.5l0.89301,0.547L122.47501,37.456z
								 M2.883,25.549l5.534,9.03c34.89073-20.92669,78.47324-20.92669,113.36398,0l5.534-9.03
								c-6.46826-3.88627-13.28558-7.1595-20.36301-9.777c-1.31061-0.43797-2.03391-1.84018-1.63101-3.162l0,0l1.20001-3.394
								c0.01349-0.05527,0.00528-0.11362-0.02301-0.163c-0.08981-0.16091-0.23862-0.28065-0.41501-0.334
								c-3.14801-1.072-6.37799-2.032-9.60001-2.852c-0.17325-0.05018-0.35916-0.03155-0.51901,0.052
								c-0.05124,0.02615-0.09058,0.07085-0.10999,0.125l-0.845,3.5c-0.37915,1.32586-1.74564,2.10823-3.08099,1.764
								c-2.35999-0.537-4.76599-1.009-7.15399-1.4c-1.36475-0.18536-2.33286-1.425-2.18201-2.794l0.54199-3.562
								c0.00357-0.05894-0.01578-0.11698-0.05399-0.162c-0.11401-0.13607-0.27646-0.2225-0.453-0.241
								c-3.267-0.454-6.59399-0.785-9.88901-0.984c-0.17542-0.01608-0.35025,0.03623-0.48801,0.146
								c-0.04605,0.03636-0.07646,0.08895-0.08501,0.147l-0.17101,3.6c-0.11688,1.37325-1.31065,2.40079-2.686,2.312
								c-2.409-0.084-4.851-0.1-7.258-0.035c-1.37509,0.07469-2.55792-0.9629-2.66299-2.336l-0.136-3.6
								c-0.00746-0.05901-0.03758-0.11281-0.084-0.15c-0.1362-0.11163-0.31052-0.16579-0.48599-0.151
								c-3.29201,0.166-6.617,0.464-9.88499,0.886c-0.17653,0.01672-0.33966,0.10133-0.455,0.236
								c-0.03838,0.04385-0.05843,0.10078-0.056,0.159l0.507,3.567c0.13893,1.3709-0.84093,2.60239-2.20799,2.775
								c-2.394,0.371-4.806,0.82-7.16699,1.333c-1.33771,0.33215-2.69641-0.46232-3.063-1.791l-0.811-3.511
								c-0.0183-0.05547-0.05736-0.1017-0.10899-0.129c-0.15837-0.08551-0.34381-0.10595-0.517-0.057
								c-3.226,0.788-6.46201,1.714-9.616,2.754c-0.17621,0.05125-0.3257,0.16882-0.41701,0.328
								c-0.02869,0.04846-0.03798,0.10598-0.026,0.161l1.17101,3.408c0.39088,1.32522-0.34476,2.72068-1.659,3.147
								C16.89078,18.04568,9.69374,21.45713,2.883,25.549z"/>
						</g>
						<path id="castle_7_" class="st13" d="M107.94299,18.105l-4.72101-0.523c-0.92358-0.2262-1.8912-0.19787-2.79999,0.082
							c-0.974,0.5-0.72299,2.052-0.82199,2.956c-0.04065,0.77797-0.31723,1.52512-0.793,2.142
							c-0.94501,1.079-2.34299,0.909-3.62601,0.9c-1.17401-0.00534-2.34833-0.008-3.52301-0.008c-1.052,0-2.10367,0-3.155,0
							c-0.57501,0-1.17499,0.054-1.74899,0.009c1.49268,0.118,2.98566,0.23167,4.479,0.341c1.13501,0.083,2.271,0.165,3.40799,0.238
							c1.13535,0.16898,2.29132,0.14057,3.41699-0.084c0.33978-0.09501,0.65866-0.2531,0.94-0.466
							c0.60287-0.52467,1.00858-1.23941,1.14999-2.026c0.17801-0.772,0.211-1.569,0.34-2.351
							c0.0285-0.3091,0.14047-0.60464,0.32401-0.855c0.34631-0.32391,0.82034-0.47421,1.29001-0.409
							C104.03799,18.145,105.996,18.068,107.94299,18.105z"/>
						<path id="castle_6_" class="st13" d="M84.23401,17.418L79.5,17.805c-0.94983-0.04581-1.89435,0.16672-2.733,0.615
							c-0.86099,0.676-0.31799,2.152-0.24301,3.059c0.1084,0.77147-0.02063,1.55767-0.37,2.254
							c-0.72198,1.239-2.12701,1.34-3.388,1.579c-1.15399,0.21867-2.30731,0.44-3.45999,0.664c-1.03268,0.2-2.06601,0.4-3.10001,0.6
							c-0.564,0.111-1.14301,0.277-1.715,0.342c1.48801-0.16867,2.97531-0.34166,4.46201-0.519
							c1.13336-0.13333,2.26367-0.272,3.39099-0.416c1.14664-0.05061,2.27591-0.29893,3.33801-0.734
							c0.31537-0.15792,0.59827-0.37366,0.83401-0.636c0.49197-0.62987,0.75409-1.40885,0.74301-2.208
							c0.02701-0.792-0.09299-1.581-0.11401-2.373c-0.03079-0.3085,0.0228-0.61957,0.155-0.9
							c0.27802-0.38411,0.71454-0.62222,1.18799-0.648C80.409,18.202,82.31601,17.753,84.23401,17.418z"/>
						<path id="castle_5_" class="st13" d="M60.98799,21.25l-4.60001,1.2c-0.94339,0.11845-1.83704,0.49029-2.586,1.076
							c-0.73099,0.815,0.05701,2.175,0.28699,3.055c0.23981,0.74123,0.24817,1.5379,0.02399,2.284
							c-0.5,1.345-1.86401,1.686-3.065,2.138c-1.09866,0.41399-2.19669,0.83034-3.29401,1.249
							c-0.98267,0.37466-1.965,0.75034-2.94699,1.127c-0.53699,0.206-1.07901,0.47-1.63101,0.632
							c1.43668-0.422,2.87201-0.84834,4.306-1.279c1.09067-0.32734,2.17999-0.65833,3.26801-0.993
							c1.12103-0.24789,2.19077-0.6877,3.16199-1.3c0.28354-0.21011,0.52509-0.47166,0.71201-0.771
							c0.37549-0.70432,0.49966-1.51562,0.35199-2.3c-0.10901-0.785-0.36301-1.541-0.521-2.318
							c-0.08279-0.29904-0.08279-0.61496,0-0.914c0.20798-0.42599,0.59711-0.73537,1.05899-0.842
							C57.356,22.681,59.157,21.91,60.98799,21.25z"/>
						<path id="castle_4_" class="st13" d="M131.586,23.67599l-4.53101-1.425c-0.86249-0.4002-1.81738-0.55917-2.763-0.46
							c-1.052,0.3-1.10602,1.874-1.37799,2.742c-0.19012,0.75514-0.60553,1.43456-1.19098,1.948
							c-1.13599,0.876-2.47498,0.44-3.73297,0.186c-1.15137-0.232-2.30298-0.46133-3.45502-0.688
							c-1.03131-0.20399-2.06464-0.40667-3.09998-0.608c-0.565-0.11-1.16302-0.174-1.71802-0.329
							c1.44202,0.404,2.88501,0.804,4.32898,1.2c1.09796,0.30133,2.19794,0.59866,3.29999,0.892
							c1.08136,0.38496,2.22113,0.58016,3.36902,0.577c0.35168-0.02771,0.69501-0.12134,1.01202-0.276
							c0.69305-0.39835,1.22931-1.02139,1.52002-1.766c0.32397-0.723,0.51001-1.5,0.78802-2.241
							c0.08759-0.298,0.25452-0.56657,0.48297-0.777c0.40216-0.2508,0.896-0.30666,1.34399-0.152
							C127.74799,22.962,129.68298,23.264,131.586,23.67599z"/>
					</g>
					<g id="Front_1_" transform="translate(0 12.449)">
						<path id="_x30_1_BG_1_" class="st2" d="M187.21799,48.803c-1.54164,0.0198-3.08029,0.14107-4.606,0.363
							c-0.50288,0.06027-0.99693,0.17943-1.472,0.355c-1.00008-0.82126-2.2646-1.25094-3.558-1.209h-0.62199
							c-1.38864,0.02489-2.75146,0.37965-3.976,1.035c-0.95003-0.50205-2.01163-0.75559-3.086-0.737
							c-0.86586,0.00063-1.72571,0.14388-2.545,0.424c0.3-5.611,0.78101-12.8,1.481-17.04
							c1.36729-0.63728,2.50293-1.68346,3.25-2.994c0.61205-1.21771,0.88133-2.57898,0.77901-3.938
							c-0.11307-1.54276-0.40297-3.06741-0.86401-4.544c-0.088-0.322-0.177-0.643-0.25999-0.965
							c-0.642-2.495-4.32401-14.876-4.69-16.062c-0.73541-2.55956-3.40652-4.03832-5.96608-3.3029
							c-1.31529,0.37791-2.40807,1.2969-3.00592,2.5279l-9.481,16.433l-0.021,0.04c-0.58864,1.08966-1.04071,2.24773-1.34599,3.448
							c-0.52605,2.13921-0.02383,4.40135,1.358,6.117c0.53528,0.72676,1.1606,1.38267,1.86099,1.952
							c-0.2,5.285-0.175,11.891,0.064,19.652c-2.53151-1.552-5.44362-2.37202-8.41299-2.369c-0.38699,0-0.77499,0.014-1.151,0.042
							c-1.7769,0.09765-3.5098,0.58954-5.073,1.44c-0.08067-1.14442-0.2202-2.28393-0.418-3.414L135.446,46
							c-0.6373-3.00182-3.30243-5.1382-6.371-5.107c-0.47952-0.00078-0.9577,0.05086-1.42599,0.154
							c-3.22488,0.57452-5.59422,3.34797-5.658,6.623v0.044c0.019,0.511,0.035,1.043,0.048,1.589
							c-0.365-0.038-0.753-0.061-1.186-0.07c-0.14066-0.004-0.28167-0.006-0.423-0.006c-3.18556-0.11354-6.26814,1.13798-8.473,3.44
							c-2.577-2.61025-6.13503-4.01313-9.8-3.864c-1.54163,0.0198-3.0803,0.14106-4.606,0.363
							c-1.31118,0.15107-2.5416,0.71083-3.517,1.6c-0.1986-0.20004-0.40897-0.38805-0.63-0.563l-0.033-0.026
							c-2.37788-2.02316-5.3969-3.13629-8.519-3.141c-0.093,0-0.187,0-0.282,0c-3.022,0-6.566,1.728-9.187,4.446
							c-0.144-0.193-0.295-0.378-0.452-0.552c-1.57349-1.69697-3.81064-2.62062-6.123-2.528
							c-1.83025-0.02163-3.64532,0.3341-5.332,1.045c-1.00978-0.5006-2.12297-0.75714-3.25-0.749c-0.092,0-0.185,0-0.282,0
							c-0.78796,0.02438-1.56744,0.17009-2.311,0.432c0.207-7.336,0.214-13.6,0.02-18.627
							c0.60143-0.51968,1.14249-1.10537,1.613-1.746c1.38215-1.71589,1.88437-3.97848,1.358-6.118
							c-0.30478-1.19997-0.75653-2.35773-1.345-3.447l-0.031-0.058l-9.462-16.4c-1.15349-2.40034-4.03444-3.41113-6.43478-2.25764
							c-1.24009,0.59592-2.16656,1.6932-2.54622,3.01564c-0.366,1.187-4.048,13.567-4.69,16.062
							c-0.084,0.329-0.175,0.656-0.266,0.987c-0.45882,1.46979-0.74737,2.98739-0.86,4.523
							c-0.31349,3.05717,1.44778,5.94886,4.308,7.073c0.666,4.131,1.135,10.945,1.419,16.177H40.639
							c-1.38863,0.02505-2.75142,0.3798-3.976,1.035c-0.95003-0.50205-2.01163-0.75559-3.086-0.737
							c-1.55995,0.00925-3.08454,0.46562-4.393,1.315c-0.2931-3.03767-1.88819-5.79926-4.373-7.571
							c-2.38791-1.53645-5.18352-2.31742-8.022-2.241H8.825c-3.49867,0.09902-6.52459,2.46607-7.463,5.838
							c-1.8196,7.60197-1.8196,15.52604,0,23.12801c0.9426,3.36543,3.96734,5.72449,7.461,5.819h8.816
							c3.34677,0.12381,6.62133-0.993,9.195-3.136c1.47432,2.20755,3.93022,3.56009,6.584,3.62601
							c1.76742,0.04031,3.45642-0.72905,4.586-2.089c1.16241-1.49068,1.59277-3.42509,1.172-5.268
							c-0.4319-2.10996-0.64172-4.25935-0.626-6.41301c0.11618-0.01328,0.23306-0.01963,0.35-0.019h0.817
							c0.5135,0.00066,1.02531-0.05875,1.525-0.177c0.061,2.315,0.094,4.362,0.094,5.818
							c-0.1975,4.19271,3.04126,7.75169,7.23397,7.9492c0.17122,0.00806,0.34266,0.01033,0.51403,0.00681
							c2.05046,0.00095,4.02161-0.79218,5.5-2.213c1.4599,1.45033,3.42255,2.2823,5.48,2.323
							c0.24655,0.00021,0.49292-0.01314,0.738-0.03999c1.58321-0.15352,3.02706-0.97121,3.973-2.25
							c0.23879-0.32567,0.44258-0.6756,0.608-1.04401c1.32785,1.81473,3.34267,3.00453,5.573,3.291
							c0.25967,0.02888,0.52072,0.04358,0.782,0.04401c1.76121,0.03996,3.44409-0.72725,4.569-2.08299
							c0.2294-0.2829,0.43037-0.58771,0.6-0.91c2.22022,1.84885,4.97385,2.93867,7.858,3.11h0.034
							c3.08402,0.00592,6.07181-1.07344,8.43999-3.04903c0.57692,0.56894,1.22856,1.05675,1.937,1.45
							c1.63814,0.88177,3.46764,1.34808,5.328,1.358c1.58343,0.02783,3.15038-0.32507,4.569-1.02901
							c2.97469,1.51315,6.60793,0.64128,8.572-2.05701c1.92462,1.95059,4.54288,3.06038,7.283,3.08701
							c1.47997,0.04906,2.94827-0.27742,4.268-0.94901c0.89376,0.43492,1.87504,0.65999,2.869,0.658
							c2.02097-0.01686,3.92352-0.95599,5.166-2.55c2.112,2.358,5.17599,3.55299,9.119,3.55299c0.479,0,0.978-0.01801,1.483-0.05299
							c2.72459-0.13087,5.38179-0.89145,7.763-2.222c0.54787-0.29372,1.06107-0.64792,1.53-1.056
							c2.9359,3.25708,7.95511,3.52066,11.216,0.589c1.45744,1.39299,3.38434,2.18874,5.39999,2.23
							c1.76775,0.04047,3.45711-0.7289,4.58701-2.089c1.1622-1.49078,1.59221-3.42525,1.17101-5.268
							c-0.43192-2.10996-0.64174-4.25935-0.62601-6.41301c0.11618-0.01329,0.23306-0.01963,0.35001-0.019h0.817
							c0.06668,0,0.13535,0,0.20599,0c-0.47124,1.15074-0.7059,2.38461-0.69,3.628c0,3.869,1.664,6.926,4.685,8.607
							c1.63815,0.88174,3.46765,1.34804,5.328,1.358c1.58353,0.02773,3.15053-0.32553,4.569-1.03
							c3.33942,1.69885,7.42372,0.36891,9.12257-2.97049c0.48102-0.94553,0.73358-1.99068,0.73743-3.05151v-7.379
							C199.99899,53.608,194.86299,48.803,187.21799,48.803z M86.944,61.513c-0.46716,0.18047-0.96672,0.26186-1.467,0.239
							c-0.155,0-0.33,0-0.332-0.8c0-0.206,0-0.243,0.352-0.243c0.49437-0.02203,0.98789,0.05938,1.449,0.239
							c0.27381,0.10986,0.55521,0.19976,0.842,0.269C87.50163,61.30066,87.21989,61.39947,86.944,61.513z"/>
						<g id="_x30_1_Brincadeira_1_" transform="translate(3.064 43.185)">
							<path id="Path_132" class="st3" d="M13.725,0c4.121,0,9.4,1.591,9.455,8.686c0.03293,1.90344-0.73006,3.73428-2.105,5.05099
								c2.031,0.92499,3.48,3.20599,3.476,6.31201c-0.044,3.35101-2.335,8.60001-10,8.59299H5.763
								c-2.08059-0.09531-3.8752-1.49167-4.479-3.48499c-1.71263-7.12216-1.71263-14.54883,0-21.67099
								c0.6038-1.99332,2.39841-3.38968,4.479-3.48499L13.725,0z M10.134,11.43201c1.582,0,3.851,0.02301,3.851-2.444
								c0-2.44199-1.865-2.66901-3.851-2.67599l0,0C8.68112,6.22855,7.43568,7.33869,7.35222,8.79157
								C7.3508,8.81635,7.34972,8.84116,7.349,8.866l0,0c0.088,1.72299,1.224,2.414,2.785,2.565
								C10.115,11.42999,10.153,11.43201,10.134,11.43201z M11.58,22.716c1.582-0.005,3.823-0.60001,3.716-2.95499
								c-0.086-2.03101-2.3-2.87399-4.051-2.871h-1.178c-1.64414,0.05566-2.94635,1.40793-2.94,3.05301l0,0
								c0.28351,1.6058,1.67936,2.77603,3.31,2.77499L11.58,22.716z"/>
							<path id="Path_133" class="st4" d="M35.83599,15.34302c-3.231,0-3.429,2.26401-3.407,2.26501
								c-0.08226,2.63562,0.1436,5.27182,0.673,7.85501c0.412,2.03299-0.709,3.66901-2.75,3.66901
								c-2.18419-0.07001-4.06606-1.55933-4.636-3.66901c-0.88754-4.33176-0.91846-8.79538-0.091-13.13901
								c0.57214-2.23593,2.5771-3.8071,4.88499-3.828c1.15573-0.12674,2.2562,0.52539,2.7,1.60001
								c1.18393-1.13715,2.73682-1.8114,4.37601-1.89999h0.61099c2.04401,0,2.54201,1.48499,2.108,3.56699
								c-0.414,1.98001-1.61301,3.57901-3.65401,3.577L35.83599,15.34302z"/>
							<path id="Path_134" class="st3" d="M172.15796,15.34302c-3.23102,0-3.42902,2.26401-3.40601,2.26501
								c-0.08234,2.63562,0.14355,5.27182,0.67297,7.85501c0.41199,2.03299-0.70898,3.66901-2.75,3.66901
								c-2.1842-0.07001-4.06604-1.55933-4.63599-3.66901c-0.88721-4.33182-0.91779-8.79544-0.09003-13.13901
								c0.57184-2.23615,2.57697-3.80743,4.88501-3.828c1.15576-0.12674,2.25623,0.52536,2.70001,1.60001
								c1.1839-1.13715,2.73682-1.81137,4.37598-1.89999h0.61102c2.04303,0,2.54199,1.48499,2.10797,3.56699
								c-0.414,1.98001-1.61298,3.57901-3.65399,3.577L172.15796,15.34302z"/>
							<path id="Path_135" class="st8" d="M71.40601,25.41098c0.439,2.16-0.87,3.86801-3.17099,3.61499
								c-2.00439-0.26007-3.65155-1.70834-4.16599-3.66299c-0.57611-2.83307-0.78415-5.72867-0.61899-8.61499
								c0.02637-0.7374-0.55002-1.35654-1.28741-1.3829c-0.05725-0.00204-0.11456-0.0004-0.1716,0.00491
								c-1.14432,0.06073-2.20438,0.62036-2.89999,1.531c-0.14789,2.81235,0.05841,5.63211,0.61401,8.39301
								c0.375,1.89999-0.479,3.53201-2.29999,3.73401c-2.31311,0.1301-4.40033-1.38019-5-3.61801
								c-0.88077-4.29779-0.91135-8.72647-0.09-13.03601c0.55603-2.14526,2.43976-3.68164,4.65302-3.79501
								c1.465-0.04199,2.55099,0.39099,3,1.48599c1.67615-1.21878,3.7095-1.84662,5.78101-1.785
								c3.90701,0,5.56201,2.95099,5.15799,6.884C70.54788,18.58505,70.71616,22.04099,71.40601,25.41098z"/>
							<path id="Path_136" class="st3" d="M88.43799,9.42902c0.91507,0.7446,1.52875,1.79605,1.72699,2.95901
								c0.0531,1.64328-1.23602,3.01849-2.8793,3.07159c-0.13541,0.00436-0.27097-0.00049-0.4057-0.01459
								c-0.63379-0.05109-1.25092-0.22858-1.815-0.522c-0.82553-0.33276-1.71014-0.49405-2.60001-0.474
								c-1.78662-0.11798-3.3306,1.23471-3.44858,3.0213c-0.00613,0.09277-0.00827,0.18576-0.00641,0.27869
								c0.008,3.19101,2.246,3.909,3.45499,3.888c0.88992,0.01965,1.77454-0.14197,2.60001-0.47501
								c0.56403-0.29355,1.18118-0.47104,1.815-0.522c1.63525-0.17096,3.09946,1.01605,3.27042,2.65131
								c0.0141,0.13474,0.01895,0.27029,0.01459,0.4057c-0.19833,1.16293-0.81198,2.21436-1.72699,2.95901
								c-1.86926,1.62201-4.26212,2.51318-6.737,2.509c-3.30499-0.01801-10.13599-3.61499-10.435-11.34299
								c0.28601-6.79001,6.78299-11.06201,10.435-10.906C84.17636,6.91306,86.56924,7.80563,88.43799,9.42902z"/>
							<path id="Path_137" class="st6" d="M108.80002,17.573v7.383c0.00055,2.03683-1.65018,3.68845-3.68701,3.689
								c-0.00067,0-0.00131,0-0.00198,0c-1.1994,0.01611-2.32806-0.56619-3.01001-1.55301
								c-1.22061,1.24921-2.91507,1.92007-4.66,1.845c-0.97101,0-6.94199-0.29099-6.94199-6.89301
								c0-3.64099,2.427-5.63101,6.651-5.63101c1.61829,0.03113,3.20334,0.46484,4.612,1.26199V16.556
								c-0.24301-0.97101-0.87399-1.79999-3.98099-1.79999c-0.91046,0.02518-1.81851,0.10632-2.71899,0.24301
								c-1.62479,0.01053-2.95047-1.2981-2.961-2.92288c-0.00009-0.0127-0.00009-0.02542,0-0.03812
								c-0.00757-1.57288,1.19904-2.88547,2.767-3.01001c1.39896-0.20349,2.80951-0.31705,4.22299-0.34
								C105.06201,8.69,108.80002,12.185,108.80002,17.573z M101.229,22.77301c0.271-0.91-0.56299-1.64899-2.70001-1.98901
								c-1.73401-0.276-2.039,0.526-2.13501,1.129s0.18301,1.46201,1.67999,1.73499
								c2.93204,0.54004,3.15503-0.87097,3.15503-0.87097V22.77301z"/>
							<path id="Path_138" class="st6" d="M193.86401,17.573v7.383c0.00055,2.03683-1.65021,3.68845-3.68701,3.689
								c-0.00067,0-0.00134,0-0.00201,0c-1.1994,0.01611-2.32806-0.56619-3.01001-1.55301
								c-1.22064,1.24918-2.91504,1.92004-4.65997,1.845c-0.97101,0-6.94202-0.29099-6.94202-6.89301
								c0-3.64099,2.427-5.63101,6.651-5.63101c1.61829,0.03113,3.20331,0.46484,4.612,1.26199V16.556
								c-0.24298-0.97101-0.87402-1.79999-3.98102-1.79999c-0.91046,0.02518-1.81848,0.10635-2.71899,0.24301
								c-1.62482,0.01053-2.9505-1.2981-2.961-2.92288c-0.00006-0.0127-0.00006-0.02542,0-0.03812
								c-0.00757-1.57288,1.1991-2.88547,2.76703-3.01001c1.39899-0.20349,2.80951-0.31705,4.22302-0.34
								C190.12604,8.69,193.86401,12.185,193.86401,17.573z M186.06403,22.664c0.258-0.86499-0.53497-1.56799-2.56897-1.892
								c-1.64899-0.26199-1.93903,0.5-2.03003,1.073s0.17401,1.39001,1.59998,1.64999
								c2.78802,0.51102,3.00098-0.83099,3.00098-0.83099H186.06403z"/>
							<path id="Path_139" class="st7" d="M121.99902,4.41501c0.10718-1.79739,1.45435-3.27618,3.23401-3.54999
								c1.82208-0.45383,3.66711,0.65536,4.12091,2.47748c0.00562,0.02246,0.01099,0.04498,0.01611,0.06754
								c1.224,6.94199-0.216,14.306-0.70001,21.51901c-0.06445,2.00589-1.66302,3.62366-3.66803,3.71201
								c-1.1593,0.00949-2.242-0.57794-2.86603-1.55499c-1.02502,1.2919-2.62872,1.98486-4.27197,1.84601
								c-3.33899-0.01001-7.47198-2.34-8.43799-10.55499c-0.76202-7.06699,3.97699-9.38699,8.271-9.26001
								c1.58301-0.04788,3.13342,0.45584,4.38599,1.42499C122.09003,8.43903,122.06903,6.38901,121.99902,4.41501z
								 M121.21405,21.065c0.88013-1.34332,0.91895-3.0705,0.09998-4.452c-0.48413-0.65219-1.26288-1.01831-2.07397-0.97501
								c-1.4389,0.05078-2.56421,1.25842-2.51343,2.69733c0.0022,0.06271,0.00671,0.12531,0.01343,0.18768
								c0.07599,2.88101,2.03998,3.573,2.75403,3.569c0.69556-0.07217,1.32367-0.44809,1.71594-1.02701H121.21405z"/>
							<path id="Path_140" class="st5" d="M140.55698,29.59802c-7.84497,0.54999-10.31201-3.89999-10.62097-10.05099
								c-0.23401-6,1.948-11.20801,8.15698-11.638c5.914-0.43799,11.82001,3.336,12.255,8.47699
								c0.0238,1.94849-1.27881,3.66425-3.16199,4.16501c-1.61108,0.33652-3.25439,0.4938-4.90002,0.46899
								c-1.54901,0.05899-3.495-0.129-4.19098,0.241c-0.54199,0.289-0.70001,0.85699-0.33099,1.215
								c0.5,0.439,1.51099,0.65399,3.74103,0.492c1.52106-0.23996,3.02692-0.56784,4.51001-0.98199
								c1.32294-0.42325,2.73853,0.30606,3.16174,1.629c0.08777,0.27414,0.12775,0.56131,0.11829,0.849
								c-0.0542,1.42456-0.91418,2.69418-2.21698,3.27301C145.07974,28.85855,142.84628,29.49591,140.55698,29.59802z
								 M142.08096,16.59103c0.48438-0.11157,0.78656-0.5947,0.67499-1.07907c-0.03137-0.13617-0.09399-0.26318-0.18298-0.37094
								c-0.61676-0.79691-1.62488-1.18558-2.617-1.009c-0.93201-0.01794-1.77661,0.5462-2.117,1.414
								c-0.20923,0.42148-0.03711,0.93277,0.38434,1.14197c0.12891,0.06396,0.27191,0.09427,0.41565,0.08804
								c1.14008-0.00003,2.30304-0.10001,3.44208-0.18402L142.08096,16.59103z"/>
						</g>
						<g id="_x30_2_Tower_1_" transform="translate(148.414 1.693)">
							<path id="Path_141" class="st4" d="M11.65698,21.646c0,0,7.32599-0.3,5.88202,7.3c-1.54498,8.14-2.258,30.185-2.258,36.59999
								s-8.95099,6.41299-9.29999,0.564c-0.91901-15.3-1.271-29.524-0.79999-38.83C5.53302,20.271,11.65698,21.646,11.65698,21.646z
								"/>
							<path id="Path_142" class="st2" d="M12.18402,30.561c-0.18402,0-0.36798-0.003-0.552-0.009
								c-0.55402-0.018-1.12097-0.062-1.68597-0.132c-3.76099-0.467-6.80701-2.059-8.578-4.484
								c-1.19672-1.47932-1.63458-3.43234-1.18402-5.281c0.27386-1.07915,0.67993-2.12035,1.20898-3.1l0.02002-0.038l8.79199-15.238
								c0.94678-1.99596,3.3324-2.84648,5.32837-1.89968c1.04126,0.49393,1.81891,1.41299,2.13361,2.52168
								c0.34003,1.1,3.75403,12.581,4.34698,14.888c0.07898,0.308,0.164,0.616,0.24902,0.924
								c0.41571,1.33009,0.6781,2.70334,0.78198,4.093c0.09045,1.17685-0.14044,2.35616-0.66803,3.412
								c-0.98798,1.866-3.01398,2.79-4.86499,3.447C15.80017,30.26575,13.99817,30.56881,12.18402,30.561z"/>
							<path id="top_4_" class="st5" d="M15.698,2.704c0.34399,1.115,4.026,13.493,4.65002,15.921
								c0.51416,1.58551,0.86133,3.22038,1.03595,4.878c0.06915,0.81298-0.07745,1.62981-0.42499,2.368
								c-0.69098,1.305-2.5,2.026-3.836,2.5c-1.73462,0.60006-3.56592,0.87137-5.40002,0.8
								c-0.52863-0.01667-1.05597-0.058-1.58197-0.124c-2.79199-0.347-5.771-1.449-7.48798-3.8
								c-0.82623-0.98169-1.1452-2.29355-0.862-3.545c0.24463-0.96517,0.60876-1.89603,1.08398-2.771l9.47699-16.425
								c0.34918-0.90655,1.36713-1.35838,2.27368-1.00921C15.15759,1.70167,15.55725,2.15162,15.698,2.704z"/>
						</g>
						<g id="_x30_1_Tower_1_" transform="translate(36.379 1.693)">
							<path id="Path_143" class="st5" d="M11.65401,21.646c0,0-7.326-0.3-5.882,7.3c1.545,8.14,2.258,30.185,2.258,36.59999
								s8.951,6.41299,9.3,0.564c0.92-15.3,1.271-29.524,0.8-38.83C17.77499,20.271,11.65401,21.646,11.65401,21.646z"/>
							<path id="Path_144" class="st2" d="M10.87199,30.561c-1.81418,0.00949-3.61658-0.29187-5.329-0.891
								c-1.851-0.657-3.877-1.581-4.86501-3.447c-0.52771-1.05615-0.75861-2.23583-0.668-3.413
								c0.10397-1.38966,0.36635-2.76289,0.782-4.093c0.08501-0.308,0.17-0.616,0.24899-0.924
								c0.593-2.307,4.007-13.787,4.347-14.888c0.60326-2.12518,2.81508-3.35894,4.94026-2.75569
								c1.10872,0.31472,2.0278,1.09238,2.52174,2.13369L21.642,17.521l0.02,0.038c0.52902,0.97965,0.93509,2.02086,1.209,3.1
								c0.45058,1.84865,0.01271,3.80167-1.18401,5.281c-1.771,2.425-4.817,4.018-8.577,4.484c-0.565,0.07-1.132,0.115-1.686,0.132
								C11.23999,30.55934,11.05598,30.561,10.87199,30.561z"/>
							<path id="top_3_" class="st4" d="M7.36,2.704c-0.34399,1.115-4.026,13.493-4.64999,15.921
								c-0.51282,1.58566-0.85869,3.22052-1.032,4.878c-0.06909,0.81298,0.07751,1.62979,0.425,2.368
								c0.69099,1.305,2.5,2.026,3.836,2.5c1.7346,0.60006,3.56592,0.87137,5.39999,0.8c0.52867-0.01667,1.056-0.058,1.582-0.124
								c2.791-0.347,5.771-1.449,7.48801-3.8c0.8262-0.98169,1.1452-2.29355,0.862-3.545
								c-0.2446-0.96518-0.60875-1.89605-1.084-2.771L10.71001,2.506C10.3643,1.59812,9.34808,1.14239,8.4402,1.48809
								C7.90312,1.6926,7.49982,2.14658,7.36,2.704z"/>
						</g>
					</g>
				</g>
			</g>
			<g id="Shine_1_" transform="translate(3.893 17.938)">
				<path id="B_1_" class="st12" d="M14.702,39.30101c-1.87148-0.2327-3.75357-0.37021-5.639-0.41199
					c-1.20678-0.06717-2.41691-0.04279-3.62,0.073c-0.76779,0.06989-1.51483,0.28754-2.2,0.64099
					c-0.64934,0.37134-1.18892,0.90781-1.564,1.55499c-0.8076,1.5947-1.27836,3.33853-1.383,5.12299
					c-0.23225,1.86115-0.32651,3.73694-0.282,5.612c0.032,1.362,0.145,2.72299,0.277,4.07901
					c0.12867,1.31934,0.30833,2.63199,0.539,3.93799c0.148,0.83701,0.316,1.67099,0.5,2.5c0,0-0.366-4.65201-0.44-9.134
					c-0.0163-2.06564,0.11738-4.12973,0.4-6.17599C2.137,40.8,3.79,39.933,8.714,39.57298
					C10.126,39.47401,12.651,39.39201,14.702,39.30101z"/>
				<path id="r_5_" class="st12" d="M26.374,49.29498c-2.48399,4.31201-0.3,14.008-0.3,14.008
					c0.06799-5.47101-0.243-11.29999,2-13.694c0.76788-0.92068,2.02649-1.26822,3.158-0.87201
					C30.45499,46.98599,27.549,47.263,26.374,49.29498z"/>
				<path id="r_4_" class="st12" d="M162.76501,49.29401c-2.25201,4.43799-0.29999,14.008-0.29999,14.008
					c0.06799-5.47101-0.24298-11.51199,2-13.89999c0.81061-0.85934,2.07025-1.12378,3.15802-0.66299
					C167.37299,47.48599,164.14001,46.58401,162.76501,49.29401z"/>
				<path id="r_3_" class="st12" d="M87.33301,79.83002c-1.73499,3.42001-0.233,10.79999-0.233,10.79999
					c0.052-4.21701-0.18701-8.87201,1.539-10.715c0.62476-0.66235,1.59561-0.86618,2.43399-0.51099
					C90.88602,78.436,88.39301,77.741,87.33301,79.83002z"/>
				<path id="tower_5_" class="st12" d="M40.25,27.98c1.36501,12.362,1.48399,24.746,1.7,34.01801
					c0.97539-11.24995,0.9446-22.56451-0.092-33.80899L40.25,27.98z"/>
				<path id="tower_4_" class="st12" d="M152.84497,27.981c-0.89398,12.33701-0.85498,24.746-1.06897,34.01801
					c0,0-1.245-16.427-0.74597-34.647L152.84497,27.981z"/>
				<path id="cone_3_" class="st12" d="M147.67102,18.014c0,0,8.01099-14.36,9.14899-16.07
					c1.15399-1.736,2.34497-1.16,2.61603,0.628c0,0-1.33899-0.583-3.58099,2.739C155.17902,6.312,147.67102,18.014,147.67102,18.014
					z"/>
				<path id="cone_2_" class="st12" d="M35.166,19.126c0,0,4.44099-15.832,5.14799-17.761c0.718-1.957,2.00999-1.675,2.69,0
					c0,0-1.438-0.255-2.843,3.5C39.73399,5.99499,35.166,19.126,35.166,19.126z"/>
				<path id="n_3_" class="st12" d="M53.40399,49.71399C51.323,53.90298,53.104,63.30298,53.104,63.30298
					c0.06799-5.47101-0.07901-10.25101,1.64001-13.039c0.54147-1.047,1.78076-1.52313,2.88397-1.108
					C56.85199,47.405,54.44699,47.61298,53.40399,49.71399z"/>
				<path id="n_2_" class="st12" d="M120.70099,79.88602c-1.48602,3.52301-0.323,10.70001-0.323,10.70001
					c0.05603-4.505,0.00897-7.948,1.42499-10.24399c0.44476-0.87064,1.4212-1.3313,2.37598-1.121
					C123.53998,77.77499,121.35901,78.32599,120.70099,79.88602z"/>
				<path id="c_5_" class="st12" d="M71.974,58.79102c-0.81055-2.017-0.83731-4.26425-0.07501-6.29999
					c1.27914-3.34167,4.10672-5.85019,7.577-6.72202c2.18051-0.57123,4.50262-0.04932,6.229,1.39999
					c0,0-6.28299-2.23499-10.34299,2.147C70.93402,54.091,71.974,58.79102,71.974,58.79102z"/>
				<path id="c_4_" class="st12" d="M66.99902,84.63202c-0.87125-2.16708-0.90012-4.5817-0.08099-6.76901
					c1.37424-3.58984,4.41193-6.28461,8.14001-7.22101c2.34192-0.61487,4.83661-0.05569,6.69199,1.5
					c0,0-6.5-2.60001-11.12601,2.29099C65.815,79.51801,66.99902,84.63202,66.99902,84.63202z"/>
				<path id="c_3_" class="st12" d="M135.25098,86.85501c-0.6394-1.54333-0.66052-3.2735-0.05902-4.832
					c1.03638-2.58646,3.26447-4.50836,5.97498-5.15399c1.71466-0.44183,3.53729-0.04407,4.91199,1.07199
					c0,0-4.92499-1.79401-8.32098,1.70001C134.22797,83.263,135.25098,86.85501,135.25098,86.85501z"/>
				<path id="a_7_" class="st12" d="M92.086,49.655c0,0-0.52399-1.53699,2.18799-2.10001s9.492-0.59399,11.35001,3.60001
					c0,0-1.823-2.884-7.69299-2.97501C93.34201,48.11398,92.086,49.655,92.086,49.655z"/>
				<path id="a_6_" class="st12" d="M177.14398,50.07397c0,0-0.52399-1.95599,2.18799-2.517s9.492-0.59399,11.34998,3.60001
					c0,0-1.823-2.884-7.69299-2.97501C178.39996,48.11398,177.14398,50.07397,177.14398,50.07397z"/>
				<path id="a_5_" class="st12" d="M106.39798,80.327c0,0-0.40002-1.5,1.677-1.92999s7.276-0.45599,8.70001,2.76199
					c0,0-1.40002-2.211-5.90002-2.28C107.36002,78.82501,106.39798,80.327,106.39798,80.327z"/>
				<path id="a_4_" class="st12" d="M151.14099,80.327c0,0-0.40002-1.5,1.677-1.92999s7.276-0.45599,8.70001,2.76199
					c0,0-1.40002-2.211-5.90002-2.28C152.10303,78.82501,151.14099,80.327,151.14099,80.327z"/>
				<path id="d_9_" class="st12" d="M109.78503,57.34201c0,0-1.47998-7.36899,5.01703-9.064c0,0,3.755-0.77701,5.83002,1.66101
					C116.32599,47.68701,110.21704,49.901,109.78503,57.34201z"/>
				<path id="d_8_" class="st12" d="M122.26498,43.72099v-0.97c-0.078-3.586,4.422-3.28,4.875-1.341
					C124.70102,39.881,122.60397,41.24001,122.26498,43.72099z"/>
				<path id="d_7_" class="st12" d="M29.74101,86.043c0,0-1.177-5.85999,3.99001-7.20801c0,0,2.98601-0.61801,4.636,1.32101
					C34.94101,78.37,30.08301,80.12598,29.74101,86.043z"/>
				<path id="d_6_" class="st12" d="M39.45499,75.21301v-0.772c-0.062-2.85199,3.51601-2.60901,3.877-1.06601
					C41.39099,72.15903,39.72299,73.24002,39.45499,75.21301z"/>
				<path id="Path_145" class="st12" d="M130.15897,56.71201c0,0-0.93402-8.78601,6.88501-10.20001
					c0,0,4.35901-0.41699,6.78101,1.763C143.82498,48.272,132.96097,42.496,130.15897,56.71201z"/>
				<path id="Path_146" class="st12" d="M45.19,85.314c0,0-0.757-7.11899,5.57899-8.26801c0,0,3.532-0.33801,5.494,1.42801
					C56.263,78.474,47.461,73.79401,45.19,85.314z"/>
				<path id="d_5_" class="st12" d="M98.67999,73.306c-0.216-3.53699,3.97198-3.04501,4.453-1.116
					C100.98297,70.26901,98.84399,71.362,98.67999,73.306z"/>
				<path id="tower_3_" class="st12" d="M99.41602,81.298c0.43988,2.89163,0.42368,5.83438-0.048,8.72101
					c0.6694-2.91626,0.87195-5.92026,0.60001-8.89999C99.67401,79.92001,99.23502,80.33801,99.41602,81.298z"/>
			</g>
		</g>
	</g>
</g>
</svg>
