<?xml version="1.0" encoding="utf-8"?>
<!-- Generator: Adobe Illustrator 24.0.3, SVG Export Plug-In . SVG Version: 6.00 Build 0)  -->
<svg version="1.1" id="Layer_1" xmlns="http://www.w3.org/2000/svg" xmlns:xlink="http://www.w3.org/1999/xlink" x="0px" y="0px"
	 viewBox="0 0 512 512" style="enable-background:new 0 0 512 512;" xml:space="preserve">
<style type="text/css">
	.st0{clip-path:url(#SVGID_2_);}
	.st1{fill:#9EC12F;}
	.st2{fill:#3E0538;}
	.st3{fill:#E7134E;}
	.st4{fill:#3FB94E;}
	.st5{fill:#1A86C9;}
	.st6{fill:#F76E1B;}
	.st7{fill:#FAC329;}
	.st8{fill:#FBC22C;}
	.st9{fill:none;stroke:#3E0538;stroke-miterlimit:10;}
	.st10{fill:#8918B3;}
	.st11{fill:#DC1947;}
	.st12{opacity:0.8;fill:#FFFFFF;enable-background:new    ;}
	.st13{opacity:0.7;fill:#FFFFFF;enable-background:new    ;}
</style>
<g>
	<defs>
		<rect id="SVGID_1_" width="512" height="512"/>
	</defs>
	<clipPath id="SVGID_2_">
		<use xlink:href="#SVGID_1_"  style="overflow:visible;"/>
	</clipPath>
	<g id="logo" class="st0">
		<rect class="st1" width="512" height="512"/>
		<g id="Logo_1_" transform="translate(-0.001 101)">
			<g id="Group_14" transform="translate(0.001)">
				<g id="Bottom_1_" transform="translate(76.121 216.157)">
					<g id="Group_7">
						<path id="Path_75" class="st2" d="M92.901,52.21198c2.53705-3.00104,3.79967-6.87537,3.51801-10.79501
							c-1.118-13.20001-14.64301-23.944-30.14999-23.944c-0.813,0-1.62199,0.03-2.39999,0.08801
							c-2.87717,0.17886-5.70433,0.83658-8.36501,1.94601c-0.138-1.116-0.3-2.17899-0.481-3.22299l-0.02699-0.14301
							c-1.41078-6.68521-7.33882-11.44907-14.17101-11.388c-1.0619-0.00186-2.12083,0.11215-3.158,0.34
							c-7.373,1.58801-12.614,7.76801-12.463,14.70001c0,0,0.03799,1.10001,0.054,1.60001
							c-0.24866-0.01065-0.50601-0.01898-0.772-0.02499c-0.3-0.009-0.591-0.01199-0.888-0.01199
							c-7.351,0-13.75999,2.62799-18.045,7.39999C2.51501,32.13901-0.879,38.28,0.205,48.33401
							c3.022,25.707,19.41299,27.75299,24.39101,27.76801c2.93452,0.08038,5.84854-0.51175,8.519-1.73099
							c1.80211,0.76672,3.74159,1.15802,5.7,1.14999c4.12056-0.02457,8.03799-1.79291,10.782-4.867
							c4.34599,3.616,10.118,5.44699,17.175,5.44699c1,0,2.02699-0.03699,3.05901-0.10999
							c5.64348-0.272,11.14714-1.84827,16.07899-4.60501c5.5-2.96301,8.642-8.035,8.41699-13.57001
							C94.25073,55.86856,93.76483,53.95905,92.901,52.21198z"/>
						<path id="Path_76" class="st2" d="M332.78198,20.51498c-3.13593,0.03677-6.26593,0.28299-9.36902,0.737
							c-2.33844,0.27332-4.57129,1.12762-6.495,2.48499c-0.23132-0.20734-0.46466-0.40298-0.70001-0.58701l-0.07898-0.06
							c-7.40802-5.66901-13.19299-6.5-17.849-6.56799c-0.20001-0.008-0.40002-0.01099-0.59998-0.01099
							c-5.91699,0-12.79999,3.121-18.215,8.20001c-2.32999-2.45999-6.43201-5.24799-13.056-5.24799
							c-3.60559-0.03397-7.18466,0.61902-10.54601,1.92401c-2.06122-0.91849-4.29874-1.37387-6.55499-1.33401
							c-0.20001,0-0.39401,0-0.60001,0.009c-4.80994,0.21045-9.3317,2.35199-12.54199,5.94
							c-4.69101-3.60001-10.79999-5.491-17.73901-5.491c-3.13593,0.03683-6.26587,0.28305-9.36899,0.737
							c-0.44266,0.05334-0.88065,0.12601-1.314,0.21799c3.01822-8.16043-1.15036-17.2225-9.31079-20.24069
							c-8.16043-3.01822-17.2225,1.15036-20.24069,9.31079c-1.01956,2.75659-1.24765,5.74344-0.65851,8.62289
							c-2.457,0.15424-4.86044,0.78568-7.07599,1.85901c-1.93738-0.87537-4.04321-1.31503-6.16901-1.28799
							c-1.31793,0.00336-2.63092,0.16144-3.91199,0.47101c-0.94965-4.5871-3.4502-8.70715-7.08099-11.66699l-0.082-0.06299
							c-9.52701-7.29199-16.655-8.37701-22.91299-8.46399c-0.23401-0.009-0.47101-0.01199-0.711-0.01199
							c-13.47,0-34.492,14.79999-35.48199,37.10001l-0.01401,0.32199l0.01199,0.323c1.07599,26.62201,24.358,38.29001,36,38.366
							h0.13599c5.65701-0.069,12.03-0.927,20.323-6.55399c3.27173,4.06638,8.18158,6.46817,13.39999,6.55499
							c3.97318,0.08356,7.76672-1.65302,10.29999-4.715c1.83859-2.29208,2.87515-5.12363,2.95099-8.061
							c0.07678,2.93756,1.11401,5.76901,2.953,8.061c2.53467,3.06354,6.33078,4.80023,10.306,4.715
							c4.12515-0.05185,8.09744-1.56888,11.207-4.28c3.90912,2.82611,8.62054,4.32602,13.444,4.28
							c3.13788,0.04544,6.24768-0.59659,9.11099-1.88101c1.94223,0.86719,4.047,1.31039,6.17401,1.29999
							c3.08646,0.00809,6.09799-0.95041,8.612-2.741c2.89264,2.12622,6.38113,3.28812,9.97101,3.32101
							c0.54691-0.00031,1.09335-0.03033,1.63699-0.09c3.57401-0.35065,6.83168-2.20044,8.964-5.09
							c0.08398-0.11401,0.16602-0.22964,0.246-0.34698c2.81561,3.01086,6.60184,4.93372,10.694,5.431
							c0.57208,0.06467,1.14728,0.09805,1.72299,0.10001c3.96167,0.08496,7.74469-1.64633,10.26999-4.70001
							c0.14899-0.18201,0.29999-0.37299,0.43701-0.57001c0.25601,0.22601,0.492,0.44699,0.72601,0.66501
							c0.39999,0.379,0.79999,0.74799,1.24899,1.10001c-1.435,0.75201-3.23099,1.96201-3.79999,3.51401
							c-1.069,2.64499,1.04599,8.983,3.664,12.905c2.026,3.03601,4.25,4.64001,6.43103,4.64001
							c1.02136-0.01117,2.0116-0.35327,2.82202-0.97501c1.70001-1.246,2.716-2.10001,3.61603-2.862
							c1.07483-0.94116,2.21832-1.80087,3.42102-2.57199l0.052-0.03299l0.047-0.039c1.32672-0.94162,2.8324-1.6012,4.42401-1.93799
							c1.72498-0.48999,3.354-0.953,4.20001-2.26401c1.07098-1.664,0.5-6.237-0.37-9.341
							c1.80176-0.83957,3.52527-1.83783,5.15002-2.983c4.12811,3.57684,9.42322,5.5181,14.88501,5.457
							c3.13794,0.04514,6.24774-0.59723,9.11102-1.88199c7.5838,3.37894,16.47089-0.02979,19.84979-7.61362
							c0.85034-1.90842,1.29346-3.97311,1.30121-6.06238V45.85611C359.755,30.69299,348.91302,20.51498,332.78198,20.51498z
							 M132.22096,42.44498c-2.53601,0-3.827-1.754-3.836-5.207c0.00601-1.62701,0.66699-3.56601,3.77899-3.56699h0.14301
							c1.79202-0.06329,3.57779,0.24481,5.245,0.905c2.2963,1.14011,4.798,1.80795,7.35699,1.96399h0.41599
							c0.414,0,0.83099-0.01599,1.24899-0.047c-0.15601,1.03201-0.29001,2.06699-0.39999,3.095
							c-0.30533-0.01666-0.60831-0.02499-0.909-0.02499h-0.358c-2.56058,0.15646-5.06369,0.82535-7.36099,1.96701
							c-1.65591,0.65649-3.42981,0.96292-5.20999,0.89999L132.22096,42.44498z M177.23595,62.21399
							c-0.03238-0.86496-0.13541-1.72583-0.30801-2.57401c-0.74146-3.62558-1.14618-7.31192-1.20901-11.01199h0.81601
							c0.74545-0.00031,1.48975-0.05917,2.22601-0.17599c0.03207,3.76807-0.37668,7.52695-1.21799,11.20001
							c-0.172,0.84421-0.27466,1.70105-0.30695,2.56198H177.23595z"/>
					</g>
					<path id="Path_77" class="st3" d="M32.82899,19.62299c-0.07401-3.41599,2.832-6.29999,6.446-7.07401
						c3.6375-0.9003,7.3161,1.31863,8.2164,4.95612c0.00954,0.03854,0.01874,0.07718,0.0276,0.11588
						c2.439,13.83401-0.42999,28.509-1.39,42.88199c-0.3,4.10999-3.431,7.39999-7.31,7.39999
						c-2.31047,0.01904-4.46815-1.15219-5.711-3.10001c-2.614,3.39099-6.01401,3.67801-8.513,3.67899
						c-6.655-0.01999-14.89-4.664-16.814-21.03299c-1.51801-14.08099,7.925-18.70599,16.48199-18.452
						c3.15439-0.09567,6.24396,0.9079,8.74001,2.83899C33.01801,27.642,32.976,23.556,32.82899,19.62299z M31.265,52.80099
						c1.619-2.41101,1.97099-6.43399,0.2-8.87201c-0.96454-1.29993-2.51663-2.0296-4.133-1.94299
						c-1.505,0.009-5.10001,1.173-4.987,5.74899c0.151,5.742,4.06599,7.12,5.48801,7.112
						C29.22375,54.70752,30.4809,53.95807,31.265,52.80099z"/>
					<path id="Path_78" class="st4" d="M69.30701,68.388c-15.633,1.10001-20.549-7.76401-21.164-20.02798
						c-0.467-11.95801,3.882-22.33398,16.256-23.19199c11.784-0.87299,23.55499,6.64801,24.422,16.89301
						c0.33899,3.806-2.73499,7.237-6.29999,8.29999c-2.63101,0.784-6.39999,0.806-9.77301,0.93399
						c-3.08701,0.117-6.964-0.258-8.351,0.48001c-1.08,0.57501-1.386,1.70801-0.66,2.42001
						c0.993,0.87399,3.01199,1.29999,7.45399,0.98001c2.845-0.207,6.47699-1.45801,8.98801-1.957
						c3.67001-0.80701,6.37601,1.29999,6.53699,4.93701c0.117,2.86801-1.94601,5.19-4.418,6.52301
						C78.31715,66.91309,73.86778,68.18375,69.30701,68.388z M72.34401,42.46899c0.96304-0.21582,1.56879-1.17148,1.35297-2.13452
						c-0.06219-0.27753-0.18973-0.53616-0.37198-0.75449c-1.287-1.75101-3.10001-2.168-5.214-2.01099
						c-1.8573-0.03549-3.54045,1.08871-4.21899,2.81799c-0.4165,0.84143-0.07202,1.86121,0.76942,2.27771
						c0.25308,0.12527,0.53339,0.18552,0.81558,0.17532c2.28-0.00403,4.60001-0.20203,6.867-0.371V42.46899z"/>
					<path id="Path_79" class="st5" d="M130.16101,68.478c-8.01901-0.05301-27.53799-9.052-28.42599-31.04901
						c0.82101-18.492,18.495-29.80701,27.86401-29.80701c0.168,0,0.33469,0.00333,0.5,0.01001
						c4.68701,0.05801,10.31799,0.642,18.492,6.89999c2.27762,1.86646,3.81589,4.48318,4.33899,7.38101
						c0.17917,1.63589-0.3613,3.26895-1.48099,4.47501c-1.60019,1.65762-3.81741,2.5755-6.121,2.534h-0.194
						c-1.5983-0.1452-3.15207-0.60501-4.57199-1.353l-0.04999-0.02301l-0.05099-0.01999
						c-2.5639-1.02914-5.30881-1.53143-8.07101-1.47699H132.216c-7.84,0-11.43399,5.78601-11.45499,11.16199
						c0.02701,10.15601,7.21701,12.862,11.461,12.862h0.17499c2.75897,0.05338,5.50043-0.44928,8.061-1.478l0.05099-0.01999
						l0.04999-0.02399c1.42514-0.75095,2.98541-1.21085,4.59-1.353h0.17401c2.30359-0.0415,4.52081,0.87637,6.121,2.534
						c1.1185,1.20322,1.65961,2.83273,1.483,4.466c-0.52377,2.90933-2.06967,5.53583-4.35901,7.40601
						C140.41599,67.836,134.793,68.42398,130.16101,68.478z"/>
					<g id="Group_8" transform="translate(277.292 24.137)">
						<path id="Path_80" class="st5" d="M26.65302,55.08301c-0.10602,2.59998-3.74298,0.88702-8.51001,5.67297
							S9.95703,58.448,10.12,54.41199c0.10602-2.59998,3.74298-0.88702,8.51099-5.67297S26.81702,51.047,26.65302,55.08301z"/>
						<path id="Path_81" class="st5" d="M34.21802,5.00699c1.82367,1.48492,3.04608,3.58148,3.44,5.89999
							c0.36102,3.52802-2.836,6.168-6.54498,6.091c-1.2627-0.10184-2.49219-0.45547-3.61603-1.04001
							c-1.64563-0.66348-3.40912-0.98502-5.18298-0.94501c-2.62299-0.04199-6.86499,1.49399-6.88501,6.58099
							c0.01703,6.358,4.47601,7.789,6.88501,7.74701c1.77393,0.03961,3.53741-0.28226,5.18298-0.94601
							c1.12366-0.58505,2.35327-0.93869,3.61603-1.04001c3.71002-0.077,6.90698,2.56299,6.54498,6.09201
							c-0.3941,2.31845-1.61652,4.41495-3.44,5.89999c-5.88702,4.5-10.00897,4.95901-13.42499,5
							c-6.586-0.035-20.20001-7.20001-20.79297-22.60001c0.57001-13.53,13.51599-22.04401,20.79297-21.73199
							C24.20801,0.04898,28.33002,0.50299,34.21802,5.00699z"/>
					</g>
					<path id="Path_82" class="st6" d="M174.90698,41.00198c-6.439,0-6.83301,4.51199-6.78799,4.51401
						c-0.16412,5.25204,0.28558,10.50528,1.34,15.65298c0.82101,4.05099-1.41299,7.311-5.479,7.311s-8.41699-3.26001-9.23801-7.311
						c-1.76816-8.63196-1.82928-17.52655-0.17999-26.18201c0.828-4.36401,5.38199-7.62701,9.73499-7.62799
						c2.745,0,4.508,1.08701,5.37399,3.19101c4.20001-3.5,7.42401-3.78101,8.72101-3.785h1.21799
						c4.07199,0,5.065,2.95901,4.20001,7.108c-0.82599,3.94601-3.21399,7.13101-7.28101,7.129H174.90698z"/>
					<g id="Group_9" transform="translate(184.848 7.883)">
						<path id="Path_83" class="st7" d="M0.444,28.12601c-0.92499-6.34799,2.14099-8.64899,4.88599-8.64999
							c4.353,0,8.90701,3.26401,9.73499,7.62799c1.64941,8.65543,1.58829,17.55008-0.17999,26.18201
							c-0.82101,4.05099-5.185,7.311-9.23801,7.311s-6.29999-3.259-5.479-7.311c1.05338-4.63025,1.50375-9.37726,1.34-14.12299
							C1.55402,39.16101,1.176,33.20599,0.444,28.12601z"/>
						<path id="Path_84" class="st7" d="M16.259,8.129c0,4.20001-3.388,10.31-8.129,10.422c-4.741-0.112-8.13-6.22198-8.129-10.422
							c0.00302-4.48953,3.64493-8.12656,8.13446-8.12354C12.62073,0.00848,16.25598,3.64374,16.259,8.129z"/>
					</g>
					<path id="Path_85" class="st3" d="M237.78204,45.841v14.70001c0.00165,4.05875-3.28729,7.35034-7.34601,7.35199
						c-0.00201,0-0.00397,0-0.00598,0c-2.39215,0.03333-4.64307-1.12964-6-3.10001
						c-3.09998,3.48199-7.54602,3.67599-9.28601,3.67599c-1.935,0-13.83301-0.58099-13.83301-13.737
						c0-7.255,4.83698-11.22198,13.25299-11.22198c3.22467,0.06198,6.38312,0.92636,9.19,2.51501V43.811
						c-0.48401-1.935-1.74103-3.57901-7.93201-3.57901c-1.81384,0.04984-3.62292,0.21115-5.41699,0.483
						c-3.23743,0.02106-5.87897-2.5863-5.90002-5.82373c-0.00018-0.02542-0.00018-0.05084,0-0.07626
						c-0.01611-3.13507,2.38867-5.75186,5.51398-6c2.78796-0.40543,5.59906-0.63153,8.41602-0.677
						C230.33301,28.14099,237.78204,35.10498,237.78204,45.841z M222.24402,55.98599c0.513-1.724-1.06702-3.125-5.11902-3.76901
						c-3.28497-0.522-3.86401,1-4.04602,2.13901s0.34601,2.76999,3.18298,3.28799c5.55707,1.017,5.98206-1.655,5.98206-1.655
						V55.98599z"/>
					<path id="Path_86" class="st8" d="M352.13101,45.841v14.70001c0.00165,4.05875-3.28729,7.35034-7.34601,7.35199
						c-0.00201,0-0.00397,0-0.00598,0c-2.39221,0.03351-4.64319-1.12952-6-3.10001
						c-3.09998,3.48199-7.54602,3.67599-9.28699,3.67599c-1.935,0-13.83398-0.58099-13.83398-13.737
						c0-7.255,4.83698-11.22198,13.25299-11.22198c3.22467,0.06204,6.38312,0.92639,9.19,2.51501V43.811
						c-0.48401-1.935-1.742-3.57901-7.93201-3.57901c-1.81384,0.04984-3.62292,0.21115-5.41699,0.483
						c-3.23743,0.02106-5.87897-2.5863-5.90002-5.82373c-0.00018-0.02542-0.00018-0.05084,0-0.07626
						c-0.01611-3.13507,2.38867-5.75186,5.51398-6c2.78796-0.40543,5.59906-0.63156,8.41602-0.677
						C344.68198,28.14099,352.13101,35.10498,352.13101,45.841z M336.59299,55.98599c0.513-1.724-1.06702-3.125-5.11902-3.76901
						c-3.28497-0.522-3.86401,1-4.04602,2.13901s0.34601,2.76999,3.18298,3.28799c5.56006,1.017,5.98206-1.655,5.98206-1.655
						V55.98599z"/>
					<path id="Path_87" class="st4" d="M277.70901,61.22598c0.87402,4.29999-1.73401,7.70901-6.32001,7.20001
						c-3.81897-0.422-7.56097-3.60001-8.29999-7.29999c-1.14783-5.64545-1.56256-11.41541-1.23401-17.16699
						c0.05273-1.46979-1.09601-2.70404-2.5658-2.75674c-0.1142-0.00409-0.22852-0.00085-0.34222,0.00974
						c-2.27692,0.12418-4.38519,1.23953-5.76898,3.052c-0.2948,5.60455,0.11609,11.22394,1.22302,16.72601
						c0.74799,3.784-0.95502,7.039-4.58899,7.44101c-4.23297,0.47101-9.09998-2.922-9.96503-7.20999
						c-1.75458-8.564-1.81543-17.38867-0.17902-25.97601c0.77399-4.11499,5.12701-7.44101,9.27301-7.56201
						c2.91901-0.08401,5.08301,0.77802,5.97198,2.961c3.992-3.17499,8.91998-3.55301,11.52002-3.55701
						c7.78601-0.00601,11.08398,5.88101,10.27802,13.71899C275.9971,47.62363,276.33371,54.51047,277.70901,61.22598z"/>
				</g>
				<g id="Top_1_">
					<g id="Back_1_" transform="translate(29.222)">
						<g id="Grid_1_" transform="translate(189.003 101.486)">
							<path id="Path_88" class="st9" d="M0,12.002l99.89999,0.39999"/>
							<path id="Path_89" class="st9" d="M0,18.00101L99.89999,18.401"/>
							<path id="Path_90" class="st9" d="M0,24.00099l99.89999,0.39999"/>
							<path id="Path_91" class="st9" d="M0,30.002l99.89999,0.39999"/>
							<path id="Path_92" class="st9" d="M0,42.39899C0.12201,28.26566,0.24368,14.13232,0.36499-0.00102"/>
							<path id="Path_93" class="st9" d="M5.53101,42.39899C5.65302,28.26566,5.77469,14.13232,5.896-0.00102"/>
							<path id="Path_94" class="st9" d="M11.06,42.39899c0.12201-14.13333,0.24368-28.26666,0.36499-42.40001"/>
							<path id="Path_95" class="st9" d="M16.59,42.39899c0.12201-14.13333,0.24368-28.26666,0.36499-42.40001"/>
							<path id="Path_96" class="st9" d="M22.12003,42.39899c0.12201-14.13333,0.24365-28.26666,0.36499-42.40001"/>
							<path id="Path_97" class="st9" d="M27.64902,42.39899c0.12201-14.13333,0.24368-28.26666,0.36499-42.40001"/>
							<path id="Path_98" class="st9" d="M33.17902,42.39899c0.12201-14.13333,0.24368-28.26666,0.36499-42.40001"/>
							<path id="Path_99" class="st9" d="M38.70901,42.39899c0.12198-14.13333,0.24365-28.26666,0.36499-42.40001"/>
							<path id="Path_100" class="st9" d="M44.23898,42.39899c0.12201-14.13333,0.24368-28.26666,0.36499-42.40001"/>
							<path id="Path_101" class="st9" d="M49.76901,42.39899c0.12201-14.13333,0.24365-28.26666,0.36499-42.40001"/>
							<path id="Path_102" class="st9" d="M55.29898,42.39899c0.12201-14.13333,0.24368-28.26666,0.36499-42.40001"/>
							<path id="Path_103" class="st9" d="M60.82397,42.39899c0.12195-14.13333,0.24365-28.26666,0.36499-42.40001"/>
							<path id="Path_104" class="st9" d="M66.358,42.39899c0.12201-14.13333,0.24365-28.26666,0.36499-42.40001"/>
							<path id="Path_105" class="st9" d="M71.888,42.39899c0.12195-14.13333,0.24365-28.26666,0.36499-42.40001"/>
							<path id="Path_106" class="st9" d="M77.41803,42.39899c0.12195-14.13333,0.24365-28.26666,0.36499-42.40001"/>
							<path id="Path_107" class="st9" d="M82.94702,42.39899c0.12201-14.13333,0.24365-28.26666,0.36499-42.40001"/>
							<path id="Path_108" class="st9" d="M88.478,42.39899c0.12201-14.13333,0.24365-28.26666,0.36499-42.40001"/>
							<path id="Path_109" class="st9" d="M94.00699,42.39899c0.12201-14.13333,0.24365-28.26666,0.36499-42.40001"/>
							<path id="Path_110" class="st9" d="M99.53702,42.39899l0.36499-42.40001"/>
							<path id="Path_111" class="st9" d="M0,6l99.89999,0.39999"/>
							<path id="Path_112" class="st9" d="M0,0l99.89999,0.39999"/>
							<path id="Path_113" class="st9" d="M0,36.002l99.89999,0.39999"/>
							<path id="Path_114" class="st9" d="M0,42.00299l99.89999,0.39999"/>
						</g>
						<g id="Group_10" transform="translate(156.395 79.735)">
							<path id="Wall_1_" class="st10" d="M2.68198,2.68201V109.914h157.13501V2.68201H2.68198z M112.19299,53.90501
								c0,3.49155-2.83044,6.32201-6.32199,6.32201H53.586c-3.49155,0-6.32199-2.83046-6.32199-6.32201V32.50502
								c0-3.49155,2.83044-6.32201,6.32199-6.32201h52.28299c3.49155,0,6.32199,2.83046,6.32199,6.32201L112.19299,53.90501z"/>
							<path id="Path_115" class="st2" d="M162.49802,112.59h-162.5V0h162.5V112.59z M5.36301,107.23199h151.772V5.36301H5.36301
								V107.23199z M105.86801,62.91299H53.586c-4.96759-0.00716-8.99283-4.03241-9-9V32.513c0.00717-4.96759,4.03241-8.99284,9-9
								h52.28201c4.96759,0.00716,8.99283,4.03241,9,9v21.39999c-0.00992,4.96526-4.03372,8.9873-8.99899,8.99501
								L105.86801,62.91299z M53.586,28.871c-2.0094,0.0022-3.63782,1.63058-3.64001,3.64V53.911
								c0.0022,2.00941,1.63062,3.6378,3.64001,3.64h52.28201c2.0094-0.0022,3.63782-1.63058,3.64001-3.64V32.511
								c-0.0022-2.00941-1.63062-3.6378-3.64001-3.64H53.586z"/>
						</g>
						<g id="_x30_3_Tower_1_" transform="translate(284.457)">
							<path id="Path_116" class="st2" d="M50.612,59.473c-5.68903-6.87-14.70001-7.56-17.46503-7.6
								c-1.20612-0.18522-2.42474-0.27749-3.64502-0.276c-4.47241-0.08994-8.85046,1.29268-12.46002,3.935
								c-4.93903,3.742-7.64398,9.6-8.04102,17.40001c-1.17401,23.093-0.44702,58.67,2.047,100.17599
								c0.69501,11.563,9.98499,17.612,18.79999,17.612c9.41302,0,18.94098-6.689,18.94098-19.474
								c0-18.164,1.98297-73.03601,5.65802-92.40001C55.95898,70.888,54.66803,64.371,50.612,59.473z"/>
							<path id="Path_117" class="st2" d="M64.396,63.307c-0.28119-3.86493-1.01007-7.68415-2.172-11.381l-0.01898-0.07
								c-0.22699-0.824-0.453-1.647-0.66498-2.47C59.89801,43,50.48297,11.341,49.54498,8.306
								c-1.73755-6.08142-8.07605-9.60285-14.15747-7.86533C32.24036,1.33985,29.62836,3.54269,28.211,6.493L4.01099,48.442
								l-0.11298,0.2c-1.47351,2.72758-2.60504,5.62646-3.36902,8.631c-1.29999,5.088-0.17999,10.1,3.33099,14.912
								c4.953,6.782,13.45502,11.234,23.94,12.536c1.56897,0.195,3.14697,0.318,4.68903,0.367
								c0.51135,0.016,1.02301,0.02434,1.53497,0.025c5.05139,0.02601,10.06989-0.81312,14.83801-2.481
								c5.18103-1.841,10.85498-4.433,13.646-9.7C63.99744,69.95387,64.64996,66.62711,64.396,63.307z"/>
							<path id="Path_118" class="st11" d="M32.54199,58.844c0,0,18.755-0.779,15.05902,18.70001
								c-3.95502,20.84-5.78003,77.27301-5.78003,93.7s-22.91602,16.41701-23.81598,1.444
								c-2.354-39.168-3.25403-75.58101-2.04303-99.40001C16.875,55.333,32.54199,58.844,32.54199,58.844z"/>
							<path id="Path_119" class="st2" d="M33.88599,81.975c-0.47131,0-0.94232-0.00767-1.41302-0.023
								c-1.41803-0.045-2.87-0.159-4.31598-0.338C18.52997,80.42,10.73199,76.342,6.198,70.134
								c-3.18799-4.365-0.93103-8.258,0.24597-12.863c0.70197-2.75916,1.74146-5.42125,3.09497-7.926l0.052-0.1l21.85303-36.389
								c1.93103-3.664,2.76099-5.844,6.646-5.844c4.51001,0,5.84198,2.334,7.21503,6.782
								c0.87097,2.819,8.95502,29.587,10.474,35.493c0.20001,0.788,3.13,9.039,3.29498,12.844
								c0.14899,3.42299,0.90002,6.28099-0.40002,8.736c-2.53003,4.778-6.40503,7.141-11.14398,8.824
								C43.14587,81.22636,38.53107,81.99888,33.88599,81.975z"/>
							<path id="top_7_" class="st6" d="M42.88501,10.363c0.88098,2.854,10.30603,34.543,11.90002,40.759
								c1.05798,4.114,2.45801,8.209,2.64301,12.488c0.17664,2.08086-0.19867,4.17149-1.08801,6.061
								c-1.76898,3.341-6.40997,5.186-9.81903,6.4c-4.43866,1.53941-9.12543,2.23767-13.82001,2.059
								c-1.354-0.04266-2.70398-0.14867-4.04999-0.318c-7.14697-0.887-14.77399-3.709-19.17102-9.728
								c-2-2.732-3.06598-5.716-2.20801-9.075c0.62628-2.47059,1.55847-4.85335,2.77502-7.093L34.31403,9.864
								C36.52106,5.523,41.65503,6.374,42.88501,10.363z"/>
						</g>
						<g id="_x30_4_Tower_1_" transform="translate(123.256)">
							<path id="Path_120" class="st2" d="M55.41998,72.92801c-0.39999-7.8-3.10001-13.655-8.04099-17.40001
								c-3.60956-2.64231-7.98755-4.02493-12.45999-3.935c-1.22028-0.00149-2.43884,0.09078-3.64499,0.276
								c-2.76199,0.041-11.776,0.731-17.46399,7.6c-4.056,4.9-5.34799,11.415-3.83801,19.36701
								C13.647,98.20201,15.63,153.07401,15.63,171.23602c0,12.782,9.52798,19.472,18.94,19.474l0,0
								c8.81699,0,18.10599-6.049,18.79999-17.612C55.86697,131.601,56.59399,96.02501,55.41998,72.92801z"/>
							<path id="Path_121" class="st2" d="M63.89902,57.278c-0.76428-3.00522-1.89618-5.90475-3.37-8.633l-0.06799-0.126
								L36.23102,6.53C34.28833,2.57167,30.28113,0.04566,25.87201,0c-5.09784,0.03792-9.56799,3.41329-11,8.306
								c-0.939,3.043-10.362,34.732-11.995,41.078c-0.21201,0.824-0.43799,1.647-0.66599,2.471l-0.01901,0.07
								c-1.16196,3.6965-1.89084,7.51539-2.172,11.38c-0.25354,3.32041,0.40009,6.64731,1.89099,9.625
								c2.79199,5.272,8.465,7.864,13.647,9.7c4.76868,1.67036,9.7883,2.5112,14.841,2.486c0.51266,0,1.02435-0.00833,1.535-0.025
								c1.543-0.048,3.12-0.172,4.689-0.367c10.48499-1.3,18.98801-5.753,23.94101-12.535
								C64.077,67.382,65.19901,62.364,63.89902,57.278z"/>
							<path id="Path_122" class="st6" d="M31.875,58.844c0,0-18.755-0.779-15.05899,18.70001
								c3.95499,20.84,5.78,77.27301,5.78,93.7s22.91602,16.41701,23.81601,1.444c2.354-39.168,3.254-75.58101,2.043-99.40001
								C47.54602,55.333,31.875,58.844,31.875,58.844z"/>
							<path id="Path_123" class="st2" d="M30.53,81.975c0.47134,0,0.94232-0.00767,1.41299-0.023
								c1.418-0.045,2.87-0.159,4.31601-0.338c8.49124-0.86758,16.22388-5.27299,21.29999-12.135
								c3.18799-4.365,1.586-8.258,0.409-12.863c-0.70203-2.75915-1.74152-5.42123-3.095-7.926l-0.052-0.1L32.31799,11.549
								c-1.931-3.664-2.76099-5.189-6.646-5.189c-4.51001,0-5.18701,2.989-6.56,7.437c-0.871,2.819-9.60999,30.242-11.129,36.149
								c-0.20001,0.788-0.42001,1.576-0.63699,2.365c-1.06369,3.4054-1.73471,6.92122-2,10.479
								c-0.23154,3.01323,0.35983,6.03275,1.711,8.736c2.53,4.778,5.095,6.486,9.83401,8.168
								C21.27377,81.22745,25.88678,81.99893,30.53,81.975z"/>
							<path id="top_6_" class="st3" d="M21.53702,10.363c-0.88101,2.854-10.306,34.543-11.89999,40.759
								c-1.05801,4.114-2.45801,8.209-2.64301,12.488c-0.18008,2.08105,0.19211,4.17278,1.07898,6.064
								c1.76901,3.341,6.41,5.186,9.819,6.4c4.43863,1.53941,9.1254,2.23767,13.82001,2.059
								c1.354-0.04267,2.70401-0.14867,4.04999-0.318c7.146-0.887,14.77399-3.709,19.17001-9.728
								c2-2.732,3.06601-5.716,2.20801-9.075c-0.62656-2.47065-1.55908-4.8534-2.776-7.093L30.108,9.864
								C27.901,5.523,22.767,6.374,21.53702,10.363z"/>
						</g>
						<g id="Group_11" transform="translate(0 99.725)">
							<path id="Stairs_2_" class="st8" d="M3.281,83.993l85.811-54.811L76.492,9.45499c0,0.01401,0.005,0.033,0.006,0.047
								c-6.19862-1.05128-12.54224-0.89134-18.68,0.47099L57.8,9.98698c-0.72935,6.22067-0.56908,12.51352,0.476,18.689
								c-6.2055-1.05167-12.55605-0.89001-18.7,0.476c-0.72955,6.22433-0.56927,12.52084,0.476,18.7
								c-6.2053-1.05435-12.55637-0.8927-18.7,0.476c-0.72954,6.22433-0.56927,12.52084,0.476,18.7
								c-6.20532-1.05411-12.55634-0.89243-18.7,0.47601C2.47967,72.98457,2.53108,78.52538,3.281,83.993z"/>
							<path id="Path_124" class="st2" d="M1.175,88.521L0.623,84.345c-0.77448-5.694-0.82588-11.4631-0.153-17.17l0.231-1.888
								L2.559,64.881c5.29166-1.17805,10.73698-1.50716,16.132-0.97501c-0.62392-5.28163-0.62392-10.61836,0-15.89999l0.23-1.88901
								l1.859-0.407c5.29168-1.17784,10.73692-1.50728,16.132-0.976c-0.62395-5.28163-0.62395-10.61836,0-15.89999l0.231-1.89
								l1.861-0.40601c5.29137-1.17522,10.73559-1.5043,16.13-0.97501c-0.62482-5.28159-0.62482-10.61841,0-15.89999l0.135-1.10001
								l1.358-1.062l0.618-0.145c5.41529-1.19974,10.98928-1.51347,16.505-0.929l-0.119-6.423l19.16,30L1.175,88.521z M5.591,69.746
								c-0.28167,3.20685-0.30741,6.43106-0.077,9.642l15.349-9.8C15.79937,68.78552,10.63694,68.83894,5.591,69.746z
								 M23.814,50.571c-0.45647,5.34724-0.23369,10.73076,0.663,16.022l0.1,0.61501l60.811-38.843L74.91399,11.97
								c-4.86723-0.70305-9.81593-0.61763-14.656,0.25301c-0.44707,5.34703-0.22501,10.72896,0.661,16.021l0.6,3.69l-3.688-0.61301
								c-5.2316-0.88695-10.5773-0.8609-15.8,0.077c-0.45644,5.34657-0.23366,10.72943,0.663,16.02l0.6,3.69l-3.687-0.61301
								C34.37785,49.60718,29.03436,49.6329,23.814,50.571z"/>
						</g>
						<g id="Group_12" transform="translate(377.067 99.724)">
							<path id="Stairs_1_" class="st8" d="M89.51398,83.99399L3.703,29.18298L16.30298,9.45598
								c0,0.01401-0.005,0.033-0.00598,0.047c6.19861-1.05125,12.54224-0.89131,18.67999,0.47099L34.995,9.98798
								c0.72925,6.22067,0.56897,12.5135-0.47601,18.689c6.20551-1.0517,12.55603-0.89005,18.70001,0.476
								c0.72961,6.22433,0.56934,12.52084-0.47601,18.7c6.20532-1.05434,12.5564-0.89267,18.70001,0.476
								c0.72961,6.22433,0.56934,12.52084-0.47601,18.7c6.20532-1.05411,12.55634-0.89243,18.70001,0.47601
								C90.31537,72.98557,90.26392,78.52637,89.51398,83.99399z"/>
							<path id="Path_125" class="st2" d="M91.62103,88.52199L0,30L19.15997,0l-0.11902,6.423
								c5.51575-0.58394,11.08966-0.2702,16.505,0.929l0.591,0.12801l1.36603,1.054l0.15399,1.12801
								c0.62488,5.28159,0.62488,10.61841,0,15.89999c5.39441-0.52898,10.83856-0.19989,16.13,0.97501l1.85999,0.40601l0.23102,1.89
								c0.62421,5.28162,0.62421,10.61838,0,15.89999c5.39508-0.53076,10.84027-0.20132,16.13202,0.976l1.85901,0.407
								l0.22998,1.88901c0.62408,5.28163,0.62408,10.61836,0,15.89999c5.39502-0.5316,10.84027-0.20248,16.13202,0.97501
								l1.85797,0.407l0.23102,1.888c0.67255,5.70692,0.62115,11.47597-0.15302,17.17L91.62103,88.52199z M71.93805,69.58499
								l15.349,9.8c0.22821-3.21143,0.20081-6.43591-0.08197-9.64301C82.16064,68.83655,77.00006,68.78348,71.93805,69.58499z
								 M7.40704,28.362l60.81097,38.843L68.31799,66.59c0.89661-5.29124,1.11945-10.67476,0.66302-16.022
								c-5.2226-0.93948-10.5686-0.96519-15.79999-0.076L49.49402,51.105l0.59998-3.69
								c0.89636-5.2906,1.11914-10.67343,0.66302-16.02c-5.22272-0.9379-10.56842-0.96394-15.79999-0.077L31.26904,31.931
								l0.59998-3.69c0.88629-5.29201,1.1084-10.67397,0.66101-16.021c-4.84015-0.87003-9.78876-0.95544-14.65601-0.25301
								L7.40704,28.362z"/>
						</g>
						<path id="Path_126" class="st12" d="M144.92302,84.298c3.48999,31.61,3.79999,63.308,4.345,87.08701
							c2.49683-28.79988,2.41785-57.76515-0.23599-86.55099L144.92302,84.298z"/>
						<path id="Path_127" class="st12" d="M308.202,85.37099c-2.289,31.58299-2.19,63.35099-2.73602,87.08698
							c0,0-3.18597-42.052-1.909-88.69999L308.202,85.37099z"/>
						<path id="Path_128" class="st12" d="M133.339,62.374c0,0,11.366-40.53,13.177-45.47c1.83701-5.011,5.146-4.288,6.88699,0
							c0,0-3.68201-0.653-7.27899,8.958C145.03899,28.761,133.339,62.374,133.339,62.374z"/>
						<path id="Path_129" class="st12" d="M295.43402,58.278c0,0,20.50897-36.76,23.422-41.14c2.95502-4.444,6-2.97,6.70001,1.607
							c0,0-3.42902-1.494-9.16803,7.012C314.65503,28.322,295.43402,58.278,295.43402,58.278z"/>
						<g id="Group_13" transform="translate(68.542 37.154)">
							<path id="Path_130" class="st8" d="M272.15097,33.173l3.08301-8.687c0.65601-1.836-0.586-3.959-2.785-4.707
								c-8.18201-2.78667-16.44235-5.24067-24.78099-7.362c-2.23801-0.571-4.42499,0.533-4.87799,2.429
								c-0.72067,2.98666-1.44131,5.97366-2.16199,8.961c-0.61633,1.97542-2.69644,3.09804-4.686,2.529
								c-6.12732-1.39467-12.28467-2.60233-18.47202-3.623c-2.05353-0.22588-3.55038-2.05099-3.37-4.109
								c0.46201-3.03799,0.92398-6.07566,1.38599-9.113c0.29999-1.927-1.29999-3.774-3.57999-4.089
								c-8.47934-1.17933-16.9873-2.02533-25.52399-2.538c-2.29099-0.138-4.21899,1.357-4.30801,3.3
								c-0.146,3.06667-0.29199,6.13567-0.43799,9.207c-0.22839,2.04771-2.04709,3.54036-4.10001,3.365
								c-6.24533-0.218-12.49231-0.24834-18.741-0.091c-2.05435,0.15776-3.86017-1.35041-4.07101-3.4
								c-0.11667-3.07066-0.233-6.141-0.349-9.211c-0.069-1.948-1.98401-3.462-4.27499-3.346
								c-8.52466,0.43-17.02933,1.19233-25.51401,2.287c-2.27899,0.294-3.89999,2.124-3.61801,4.054
								c0.43201,3.042,0.86533,6.084,1.29999,9.126c0.16037,2.05938-1.3537,3.86969-3.409,4.076
								c-6.194,0.95934-12.36301,2.10667-18.50699,3.442c-1.99454,0.54881-4.06256-0.59418-4.659-2.575l-2.07401-8.981
								c-0.43399-1.9-2.60901-3.025-4.85199-2.477c-8.34134,2.03667-16.61435,4.40567-24.819,7.107
								c-2.2,0.726-3.466,2.836-2.828,4.678l3,8.717c0.53639,2.00663-0.62532,4.07491-2.618,4.661
								C41.32985,44.02721,21.95586,53.31091,3.687,64.507l16.968,27.69c89.58986-54.90069,202.40511-54.90068,291.99496,0
								l16.96802-27.69c-17.38214-10.65442-35.76709-19.57879-54.89099-26.645
								C272.7384,37.2567,271.59534,35.17603,272.15097,33.173z"/>
							<path id="Path_131" class="st2" d="M313.53601,95.888L311.25,94.48801c-88.73019-54.37379-200.4628-54.37379-289.19299,0
								l-2.286,1.39999L0,63.62399L2.287,62.224c18.42442-11.28838,37.96043-20.65292,58.3-27.946
								c0.722-0.259,1.116-0.885,0.98399-1.272l-2.994-8.711c-0.507-1.49569-0.38873-3.13272,0.328-4.54
								c0.87109-1.69695,2.38263-2.97671,4.2-3.556c8.207-2.7,16.62599-5.116,25.02101-7.165
								c1.83832-0.46588,3.7865-0.18053,5.414,0.793c1.35806,0.81759,2.32788,2.14951,2.689,3.693l2.07199,8.975
								c0.091,0.391,0.74399,0.715,1.478,0.558c6.14999-1.337,12.42999-2.505,18.66501-3.472
								c0.73401-0.114,1.22-0.651,1.16299-1.054l-1.29999-9.12c-0.21741-1.56959,0.20889-3.16043,1.18201-4.411
								c1.16333-1.48947,2.87253-2.45366,4.74899-2.679c8.5-1.1,17.15701-1.873,25.72101-2.306
								c1.88342-0.11007,3.73322,0.53399,5.14099,1.79c1.18121,1.06031,1.88373,2.55301,1.948,4.139l0.349,9.2
								c0.01599,0.4,0.58401,0.844,1.32401,0.825c6.26901-0.158,12.62799-0.127,18.89999,0.091
								c0.73901,0.031,1.31201-0.411,1.332-0.818l0.43799-9.2c0.08112-1.58344,0.79837-3.06698,1.98901-4.114
								c1.42014-1.2425,3.27643-1.86859,5.159-1.74c8.57501,0.516,17.23199,1.377,25.73199,2.559
								c1.87418,0.24449,3.57376,1.22546,4.72299,2.726c0.96133,1.26196,1.37173,2.85891,1.138,4.428l-1.38599,9.106
								c-0.06,0.4,0.422,0.939,1.15601,1.06c6.21899,1.026,12.487,2.256,18.63,3.655c0.73401,0.167,1.38901-0.152,1.48599-0.549
								l2.16-8.955c0.37692-1.53705,1.35892-2.85658,2.72299-3.659c1.63779-0.95782,3.58951-1.22409,5.42401-0.74
								c8.38599,2.135,16.79099,4.632,24.983,7.422c1.81146,0.59859,3.30991,1.89407,4.164,3.6
								c0.70355,1.41633,0.8049,3.05685,0.28101,4.549l-3.07901,8.675c-0.13599,0.386,0.25201,1.016,0.97501,1.282
								c19.28952,7.1338,37.83511,16.13699,55.37201,26.88101l2.28601,1.39999L313.53601,95.888z M7.381,65.405l14.16699,23.119
								c89.31966-53.57356,200.89134-53.57357,290.211,0l14.16699-23.118c-16.55865-9.94875-34.01089-18.32819-52.129-25.029
								c-3.35501-1.12093-5.20654-4.71043-4.17499-8.094v-0.006l3.08301-8.687c0.03467-0.14174,0.01355-0.29138-0.05899-0.418
								c-0.22998-0.41153-0.61072-0.7177-1.06201-0.854c-8.05899-2.744-16.328-5.2-24.578-7.3
								c-0.4429-0.12878-0.91846-0.08112-1.327,0.133c-0.13092,0.06709-0.23138,0.18151-0.28101,0.32l-2.16299,8.967
								c-0.9707,3.39392-4.46881,5.39645-7.88699,4.515c-6.04099-1.375-12.20001-2.584-18.315-3.592
								c-3.49347-0.47459-5.97174-3.64761-5.586-7.152l1.38699-9.119c0.00885-0.15077-0.04095-0.29912-0.13901-0.414
								c-0.29153-0.34769-0.70673-0.56855-1.15799-0.616c-8.36301-1.163-16.88-2.01-25.31699-2.518
								c-0.44931-0.04113-0.89713,0.09286-1.25,0.374c-0.1178,0.09265-0.19577,0.22679-0.21799,0.375l-0.43799,9.213
								c-0.30014,3.51447-3.35501,6.14407-6.875,5.918c-6.168-0.215-12.41901-0.245-18.582-0.09
								c-3.51999,0.19135-6.54813-2.46417-6.81799-5.979l-0.349-9.216c-0.0192-0.15075-0.09631-0.28811-0.215-0.383
								c-0.34897-0.28578-0.79556-0.42426-1.245-0.386c-8.42599,0.425-16.94,1.188-25.306,2.268
								c-0.45102,0.04182-0.86829,0.25689-1.164,0.6c-0.09805,0.11234-0.14923,0.25802-0.14301,0.407l1.29999,9.132
								c0.35327,3.50784-2.15427,6.65779-5.65201,7.1c-6.13,0.95-12.29999,2.1-18.34799,3.413
								c-3.42471,0.84976-6.90277-1.18446-7.841-4.586l-2.07599-8.988c-0.04706-0.14156-0.14703-0.25945-0.27899-0.329
								c-0.40527-0.21874-0.87979-0.2711-1.323-0.146c-8.259,2.017-16.541,4.389-24.616,7.049
								c-0.45151,0.1314-0.83438,0.43291-1.06799,0.841c-0.07275,0.12426-0.09596,0.27139-0.065,0.412l3,8.723
								c1.00102,3.39305-0.8828,6.96601-4.248,8.057C43.24933,46.18862,24.82039,54.92545,7.381,65.405z"/>
						</g>
						<path id="castle_7_" class="st13" d="M276.33401,46.349l-12.08499-1.34c-2.172-0.241-5.11801-0.841-7.168,0.211
							c-2.49301,1.28-1.85101,5.253-2.10501,7.568c-0.10379,1.99132-0.81149,3.90382-2.02899,5.483
							c-2.42001,2.762-6,2.328-9.284,2.313c-3.00598-0.01333-6.01233-0.02-9.01901-0.02c-2.69266,0-5.38467,0-8.07599,0
							c-1.47299,0-3.008,0.138-4.47699,0.022c3.82132,0.30267,7.64331,0.59399,11.466,0.874c2.90701,0.213,5.815,0.422,8.72299,0.61
							c2.87,0.185,5.94601,0.606,8.746-0.215c0.86938-0.24337,1.68521-0.64807,2.405-1.193
							c1.54355-1.3429,2.58249-3.17242,2.94501-5.186c0.45599-1.976,0.539-4.018,0.871-6.018
							c0.07278-0.79133,0.35934-1.54798,0.82901-2.189c0.88605-0.82841,2.09842-1.21307,3.29999-1.047
							C266.33902,46.453,271.35098,46.253,276.33401,46.349z"/>
						<path id="castle_6_" class="st13" d="M215.64101,44.591l-12.11899,0.99c-2.17801,0.178-5.18399,0.15-7,1.574
							c-2.20001,1.732-0.815,5.51-0.62299,7.83c0.2774,1.97455-0.05289,3.98676-0.94699,5.769
							c-1.849,3.172-5.44501,3.429-8.672,4.041c-2.95334,0.56067-5.90564,1.12733-8.85699,1.7
							c-2.64334,0.51134-5.28568,1.02567-7.927,1.543c-1.44501,0.284-2.927,0.70999-4.39001,0.875
							c3.80933-0.43201,7.61667-0.87468,11.422-1.328c2.89465-0.34467,5.78802-0.69966,8.67999-1.065
							c2.853-0.366,5.952-0.539,8.54501-1.879c0.80704-0.40463,1.53091-0.9572,2.134-1.629
							c1.25851-1.61264,1.92883-3.6066,1.89999-5.652c0.07001-2.027-0.237-4.047-0.293-6.074
							c-0.07834-0.79105,0.05994-1.5885,0.39999-2.307c0.71219-0.983,1.8299-1.59219,3.04199-1.658
							C205.84898,46.599,210.73,45.45,215.64101,44.591z"/>
						<path id="castle_5_" class="st13" d="M156.13101,54.399l-11.76801,3.061c-2.11499,0.55-5.08099,1.04-6.621,2.755
							c-1.87201,2.085,0.14499,5.568,0.73401,7.821c0.61353,1.89726,0.6348,3.93635,0.061,5.846
							c-1.27499,3.443-4.77301,4.315-7.84702,5.474c-2.81332,1.06-5.62399,2.12666-8.43201,3.2
							c-2.51599,0.95866-5.03033,1.92-7.543,2.884c-1.375,0.528-2.76099,1.2-4.17401,1.618
							c3.67731-1.08067,7.35168-2.17233,11.02301-3.27499c2.79199-0.83801,5.58099-1.68567,8.367-2.543
							c2.74701-0.851,5.76999-1.555,8.09399-3.322c0.72556-0.53772,1.34363-1.207,1.82199-1.973
							c0.96371-1.80659,1.28125-3.88824,0.89999-5.9c-0.27899-2.009-0.92999-3.945-1.33401-5.933
							c-0.21472-0.7652-0.21747-1.57436-0.008-2.341c0.53204-1.09111,1.52823-1.88372,2.711-2.157
							C146.83099,58.063,151.44101,56.088,156.13101,54.399z"/>
						<path id="castle_4_" class="st13" d="M336.862,60.612l-11.59998-3.648c-2.08502-0.655-4.85901-1.814-7.07397-1.177
							c-2.69299,0.774-2.83099,4.8-3.52698,7.018c-0.48663,1.93377-1.55048,3.67356-3.04999,4.988
							c-2.90802,2.242-6.33502,1.126-9.55603,0.477c-2.94733-0.59399-5.89569-1.18134-8.84497-1.762
							c-2.64069-0.522-5.28235-1.041-7.92499-1.557c-1.44501-0.282-2.97803-0.445-4.40002-0.843
							c3.69135,1.03466,7.38531,2.05867,11.08197,3.072c2.81067,0.77067,5.62469,1.53166,8.44202,2.283
							c2.78003,0.736,5.71698,1.743,8.62402,1.478c0.89996-0.07088,1.77856-0.31038,2.59003-0.706
							c1.77393-1.01958,3.14661-2.61417,3.89099-4.52c0.82898-1.851,1.29999-3.838,2.01703-5.737
							c0.22418-0.76247,0.65143-1.44965,1.23602-1.988c1.02972-0.6426,2.29462-0.78591,3.44202-0.39
							C327.03497,58.785,331.98999,59.556,336.862,60.612z"/>
					</g>
					<g id="Front_1_" transform="translate(0 31.87)">
						<path id="_x30_1_BG_1_" class="st2" d="M479.27899,124.937c-3.94684,0.05124-7.88602,0.36224-11.79199,0.931
							c-1.28726,0.15439-2.55194,0.45949-3.76801,0.909c-2.55933-2.10417-5.79645-3.20596-9.108-3.10001h-1.59299
							c-3.55502,0.06348-7.04401,0.97145-10.17899,2.649c-2.4321-1.28497-5.14972-1.93376-7.89999-1.886
							c-2.21628,0.00223-4.41708,0.36948-6.51401,1.08701c0.75699-14.36501,2-32.758,3.79199-43.62199
							c3.95499-2.05701,6.67999-4.57001,8.319-7.666c1.56671-3.11728,2.25598-6.60201,1.99399-10.081
							c-0.29153-3.95085-1.0361-7.85512-2.21899-11.636c-0.22601-0.824-0.453-1.647-0.664-2.469
							c-1.64801-6.383-11.07001-38.076-12.008-41.116c-1.88159-6.55203-8.71835-10.33818-15.27039-8.45661
							c-3.36801,0.96721-6.16617,3.32037-7.69662,6.47261L380.39899,49.02l-0.05399,0.1
							c-1.50668,2.7896-2.66373,5.75429-3.44501,8.827c-1.37,5.358-0.20001,10.627,3.47501,15.66
							c1.37036,1.86157,2.9715,3.54167,4.76501,5c-0.5,13.53-0.448,30.44099,0.16501,50.31
							c-6.4808-3.9734-13.9361-6.07277-21.53799-6.065c-0.991,0-1.98401,0.036-2.94699,0.10699
							c-4.54895,0.25015-8.9852,1.5096-12.987,3.687c-0.20615-2.93007-0.56296-5.8476-1.069-8.741l-0.02701-0.145
							c-1.63116-7.68439-8.4538-13.15327-16.30899-13.073c-1.22772-0.00211-2.452,0.13-3.651,0.394
							c-8.56699,1.845-14.66,8.972-14.48599,16.95399v0.11301c0.04901,1.308,0.08899,2.67,0.12201,4.06799
							c-0.93399-0.10001-1.92899-0.15601-3.03699-0.17999c-0.36066-0.01067-0.72202-0.01601-1.08401-0.01601
							c-8.858,0-16.55801,3.127-21.69199,8.808c-5.89999-6.392-14.74399-9.89301-25.086-9.89301
							c-3.94647,0.05092-7.88533,0.3616-11.791,0.92999c-3.35422,0.38466-6.50262,1.81403-9,4.086
							c-0.5085-0.51202-1.04712-0.99321-1.61301-1.44099l-0.08501-0.06599c-9.049-6.925-15.842-7.957-21.808-8.041
							c-0.23801-0.009-0.478-0.01199-0.72099-0.01199c-7.735,0-16.80901,4.424-23.517,11.381
							c-0.367-0.494-0.754-0.966-1.157-1.41299c-2.664-2.952-7.547-6.47099-15.675-6.47099
							c-4.68544-0.05545-9.33206,0.85515-13.64999,2.675c-2.58508-1.28123-5.43492-1.93752-8.32001-1.916
							c-0.235,0-0.47501,0-0.72099,0.00999c-2.01678,0.06255-4.01187,0.43559-5.91499,1.106c0.53-18.78,0.548-34.81,0.05-47.68401
							c1.53964-1.33041,2.92468-2.82983,4.129-4.47c3.677-5.033,4.84599-10.3,3.476-15.661
							c-0.78044-3.07219-1.93719-6.03628-3.444-8.825l-0.07899-0.148L127.447,6.995
							c-2.95568-6.14459-10.33291-8.72971-16.4775-5.77402c-3.17136,1.52549-5.54099,4.33188-6.5135,7.71403
							c-0.938,3.038-10.363,34.731-12.006,41.119c-0.216,0.841-0.448,1.68-0.681,2.527c-1.17403,3.76276-1.91219,7.64787-2.2,11.579
							c-0.26155,3.47929,0.4277,6.96422,1.994,10.082c1.731,3.267,4.69,5.89999,9.033,8.024
							c1.705,10.576,2.9,28.01801,3.634,41.41299h-0.191c-3.55533,0.06366-7.04459,0.97162-10.18,2.649
							c-2.43201-1.28517-5.14971-1.93399-7.9-1.886c-3.99341,0.02357-7.89631,1.19174-11.246,3.366
							c-1.378-10.444-6.76-16.28-11.194-19.382c-6.777-4.741-14.908-5.73599-20.536-5.73599H22.592
							c-8.95718,0.25418-16.70351,6.31502-19.105,14.948c-4.65409,19.46176-4.64998,39.74713,0.012,59.207
							c2.066,8.345,10.455,14.88699,19.1,14.89999h22.558c9.486,0,17.584-2.769,23.539-8.02701
							c3.77425,5.65138,10.06129,9.11401,16.855,9.283c4.52493,0.10349,8.84916-1.8662,11.741-5.34801
							c2.97595-3.81602,4.07759-8.76825,3-13.48599c-1.10487-5.40182-1.64113-10.9045-1.6-16.418
							c0.29875-0.0343,0.59929-0.05066,0.9-0.049h2.092c1.31325,0.00108,2.62212-0.15128,3.9-0.45399
							c0.156,5.927,0.241,11.16699,0.241,14.89301c0,13.371,9.978,20.367,19.834,20.367
							c5.25304,0.00597,10.30389-2.02461,14.091-5.66499c3.73746,3.71295,8.76178,5.84315,14.02901,5.948
							c0.63136,0.00134,1.26231-0.03204,1.89-0.10001c4.05266-0.39337,7.7485-2.48659,10.17-5.75999
							c0.61115-0.83385,1.13271-1.7298,1.556-2.673c3.39963,4.64589,8.558,7.69182,14.26801,8.425
							c0.66414,0.07367,1.33179,0.11105,2,0.112c4.5098,0.10353,8.81944-1.86049,11.7-5.332
							c0.58998-0.72368,1.10716-1.50378,1.54401-2.32899c6.181,4.907,13.73599,7.927,20.11501,7.961h0.07201
							c5.94901-0.07201,12.681-1.07201,21.60001-7.78999c1.47704,1.45619,3.14534,2.70464,4.959,3.711
							c4.19383,2.25827,8.87788,3.45255,13.64101,3.478c4.05478,0.07158,8.06738-0.83211,11.70001-2.63499
							c7.61536,3.87331,16.91635,1.64088,21.944-5.267c4.92737,4.99237,11.62988,7.83241,18.64401,7.89999
							c3.78906,0.12553,7.54825-0.71043,10.927-2.42999c2.28787,1.11311,4.79971,1.68909,7.34399,1.68401
							c5.17368-0.04327,10.04419-2.44742,13.22501-6.528c5.40601,6.037,13.24899,9.10001,23.345,9.10001
							c1.22699,0,2.5-0.04601,3.79999-0.136c6.97528-0.33513,13.77792-2.28242,19.87399-5.689
							c1.40277-0.75076,2.71698-1.65642,3.918-2.7c7.51566,8.33771,20.36429,9.01254,28.71201,1.508
							c3.72876,3.5641,8.65799,5.60109,13.815,5.709c4.52536,0.1031,8.84985-1.8669,11.742-5.349
							c2.97565-3.81578,4.07727-8.76756,3-13.485c-1.10489-5.40182-1.64114-10.9045-1.60001-16.418
							c0.29874-0.0343,0.59927-0.05066,0.89999-0.049h2.09201c0.17532,0,0.35068-0.00299,0.526-0.009
							c-1.2066,2.94597-1.80756,6.10477-1.767,9.28799c0,9.905,4.26001,17.729,11.99399,22.033
							c4.19391,2.25803,8.8779,3.45229,13.64099,3.478c4.0549,0.07178,8.06766-0.83229,11.70001-2.636
							c8.5524,4.34209,19.00546,0.92894,23.34753-7.62347c1.22824-2.41919,1.87259-5.09248,1.88141-7.80557v-18.89
							C511.99899,137.23599,498.849,124.937,479.27899,124.937z M222.577,157.47699c-1.19574,0.46199-2.47446,0.67039-3.755,0.612
							c-0.39999,0-0.84599,0-0.851-2.058c0-0.52699,0-0.623,0.89999-0.623c1.26512-0.05623,2.52805,0.15222,3.70799,0.612
							c0.70113,0.28104,1.42168,0.51097,2.15601,0.688C224.00255,156.92595,223.28221,157.18265,222.577,157.47699z"/>
						<g id="_x30_1_Brincadeira_1_" transform="translate(7.844 110.554)">
							<path id="Path_132" class="st3" d="M35.135,0c10.551-0.01199,24.068,4.07199,24.2,22.237
								c-0.028,4.35101-1.548,9.57001-5.39,12.92999c5.2,2.36801,8.91,8.20599,8.9,16.159c-0.114,8.577-5.977,22.026-25.6,22H14.754
								c-4.919,0-10.246-3.99399-11.466-8.922c-4.38451-18.23312-4.38451-37.24588,0-55.479c1.22-4.927,6.548-8.918,11.466-8.922
								L35.135,0z M25.943,29.26501c4.049,0.008,9.858,0.06,9.858-6.25601c0-6.25201-4.774-6.83401-9.858-6.85001l0,0
								c-3.853-0.01099-7.129,2.69-7.129,6.539l0,0c0.226,4.41101,3.134,6.17899,7.129,6.56699
								C25.895,29.26001,25.991,29.26501,25.943,29.26501z M29.643,58.15302c4.05-0.013,9.788-1.53601,9.513-7.564
								c-0.221-5.20001-5.886-7.358-10.371-7.35001c-1.442,0-1.574,0.005-3.015,0.008c-4.042,0.00601-7.837,3.871-7.527,7.815l0,0
								c0.31,3.94299,4.527,7.11801,8.472,7.10501c1.414-0.005,1.516-0.01001,2.929-0.01401H29.643z"/>
							<path id="Path_133" class="st4" d="M91.742,39.27802c-8.272,0-8.77901,5.79999-8.72099,5.79999
								c-0.21098,6.7475,0.36693,13.49658,1.722,20.10999c1.054,5.20499-1.815,9.39301-7.039,9.392
								c-5.207,0-10.813-4.18799-11.867-9.392c-2.2717-11.08908-2.35051-22.51566-0.23199-33.63501
								c1.064-5.60599,6.914-9.79999,12.507-9.79999c3.52699,0,5.79199,1.39999,6.89999,4.10001
								c5.39999-4.5,9.537-4.85699,11.2-4.86301h1.569c5.231,0,6.507,3.79999,5.39999,9.13199
								c-1.061,5.069-4.12801,9.16101-9.354,9.15799L91.742,39.27802z"/>
							<path id="Path_134" class="st3" d="M440.72397,39.27802c-8.27197,0-8.77802,5.79999-8.72101,5.79999
								c-0.211,6.7475,0.36694,13.49658,1.72198,20.10999c1.05499,5.20499-1.815,9.39301-7.039,9.392
								c-5.20697,0-10.81299-4.18799-11.867-9.392c-2.27167-11.08908-2.35052-22.51566-0.23199-33.63501
								c1.06403-5.60599,6.914-9.79999,12.50702-9.79999c3.52802,0,5.79199,1.39999,6.90002,4.10001
								c5.40002-4.5,9.53699-4.85699,11.20001-4.86301h1.565c5.23102,0,6.50702,3.79999,5.40002,9.13199
								c-1.06097,5.069-4.12799,9.16101-9.354,9.15799L440.72397,39.27802z"/>
							<path id="Path_135" class="st8" d="M182.79901,65.05002c1.12299,5.53-2.228,9.89999-8.11801,9.254
								c-4.90601-0.54199-9.71399-4.62299-10.66501-9.37701c-1.47476-7.25253-2.00751-14.66507-1.58499-22.05399
								c0.16-2.616-2.17499-3.52802-3.73499-3.52802c-4.55499,0-7.43799,3.91901-7.41199,3.92099
								c-0.37881,7.19986,0.14899,14.41879,1.57101,21.487c0.961,4.86099-1.22699,9.043-5.89999,9.56
								c-5.43701,0.60501-11.685-3.754-12.79999-9.26199c-2.25418-11.00201-2.33231-22.33896-0.23001-33.371
								c0.995-5.28601,6.586-9.55801,11.91299-9.715c3.75-0.108,6.53,1,7.672,3.79999c5.129-4.078,11.45999-4.564,14.79999-4.569
								c10-0.008,14.23901,7.55499,13.20001,17.62399C180.59476,47.57776,181.02948,56.42416,182.79901,65.05002z"/>
							<path id="Path_136" class="st3" d="M226.40099,24.14099c2.34229,1.90665,3.9129,4.59866,4.42001,7.57599
								c0.46399,4.53201-3.64301,7.92401-8.409,7.82501c-1.62231-0.1308-3.202-0.58508-4.646-1.336
								c-2.11392-0.85233-4.37927-1.26538-6.65799-1.21399c-3.37-0.05399-8.819,1.91901-8.84601,8.45401
								c0.021,8.168,5.74899,10.00601,8.84601,9.953c2.27878,0.05084,4.54407-0.36252,6.65799-1.215
								c1.44385-0.75128,3.02362-1.20557,4.646-1.336c4.76599-0.10001,8.87299,3.293,8.409,7.82599
								c-0.50729,2.97726-2.07785,5.66922-4.42001,7.57599c-7.56299,5.78601-12.85901,6.371-17.24701,6.42401
								c-8.461-0.04501-25.948-9.254-26.71201-29.03799c0.73199-17.38101,17.36401-28.319,26.71201-27.91901
								C213.54298,17.76599,218.838,18.349,226.40099,24.14099z"/>
							<path id="Path_137" class="st6" d="M278.52798,44.987v18.88998c0.00223,5.21411-4.22287,9.44278-9.43698,9.44501
								c-0.00235,0-0.00467,0-0.00702,0c-3.06943,0.04196-5.95758-1.44974-7.70001-3.97699
								c-3.97699,4.474-9.69398,4.72299-11.93098,4.72299c-2.48599,0-17.772-0.746-17.772-17.647
								c0-9.32101,6.21399-14.41602,17.026-14.41602c4.14258,0.07983,8.20003,1.19025,11.80598,3.23099v-2.858
								c-0.62201-2.48499-2.237-4.60001-10.19099-4.60001c-2.3302,0.06418-4.65427,0.27158-6.95901,0.621
								c-4.15973,0.02658-7.55341-3.32397-7.57999-7.4837c-0.00021-0.03244-0.00021-0.06485,0-0.09729
								c-0.01892-4.02643,3.07016-7.38629,7.08401-7.70499c3.58173-0.52054,7.19315-0.81079,10.81201-0.86899
								C268.95898,22.245,278.52798,31.19202,278.52798,44.987z M259.14697,58.31201
								c0.69299-2.32999-1.44101-4.22202-6.91499-5.09201c-4.439-0.70599-5.22,1.34601-5.466,2.89001s0.46799,3.742,4.29999,4.44199
								C258.57199,61.92001,259.14697,58.31201,259.14697,58.31201z"/>
							<path id="Path_138" class="st6" d="M496.29001,44.987v18.88998c0.0022,5.21411-4.2229,9.44278-9.43701,9.44501
								c-0.00262,0-0.00531,0-0.008,0c-3.0694,0.04196-5.95758-1.44974-7.70001-3.97699
								c-3.97699,4.474-9.69397,4.72299-11.93103,4.72299c-2.48602,0-17.77197-0.746-17.77197-17.647
								c0-9.32101,6.21399-14.41602,17.026-14.41602c4.14258,0.07983,8.20007,1.19025,11.80603,3.23099v-2.858
								c-0.62201-2.48499-2.237-4.60001-10.19098-4.60001c-2.3302,0.06418-4.65424,0.27158-6.95898,0.621
								c-4.15918,0.02716-7.55286-3.32248-7.58002-7.48166c-0.00024-0.03311-0.00024-0.06622,0-0.09933
								c-0.01971-4.02432,3.06555-7.38376,7.07697-7.70596c3.58173-0.52054,7.19312-0.81079,10.81201-0.86899
								C486.72104,22.245,496.29001,31.19202,496.29001,44.987z M476.32901,58.01999c0.659-2.216-1.37-4.01501-6.57599-4.84299
								c-4.21997-0.67099-4.96399,1.28-5.20001,2.74799s0.44501,3.55899,4.08801,4.224
								c7.14197,1.30502,7.68799-2.12799,7.68799-2.12799V58.01999z"/>
							<path id="Path_139" class="st7" d="M312.30701,11.30301c-0.09998-4.388,3.638-8.08801,8.28003-9.08801
								c4.58502-1.01801,9.61798,1.59299,10.591,6.51599c3.13397,17.772-0.552,36.62399-1.78497,55.08801
								c-0.38501,5.28-4.40802,9.5-9.39001,9.5c-2.96802,0.02481-5.74011-1.47873-7.33801-3.98001
								c-3.35699,4.35599-7.72699,4.724-10.93701,4.72601c-8.54901-0.02499-19.12903-5.991-21.59998-27.021
								c-1.95001-18.09,10.18103-24.03101,21.17401-23.70001c4.05243-0.12259,8.02148,1.16696,11.22803,3.64801
								C312.54999,21.604,312.49597,16.35599,312.30701,11.30301z M310.29803,53.927
								c2.07898-3.10001,2.53198-8.26501,0.26001-11.39999c-1.23853-1.67139-3.23267-2.61026-5.31-2.5
								c-1.935,0.01199-6.55103,1.50699-6.40601,7.38599c0.19397,7.37601,5.22302,9.147,7.05103,9.13599
								c1.78394-0.17999,3.39667-1.14035,4.40491-2.62299L310.29803,53.927z"/>
							<path id="Path_140" class="st5" d="M359.82498,75.77298c-20.08301,1.409-26.40002-9.974-27.18903-25.729
								c-0.59998-15.36301,4.987-28.69101,20.883-29.79401c15.13898-1.12201,30.26001,8.54099,31.37402,21.70001
								c0.43597,4.88901-3.513,9.29999-8.09998,10.66101c-3.37903,1.00699-8.22803,1.035-12.55499,1.20001
								c-3.96503,0.151-8.94702-0.33099-10.72803,0.616c-1.38702,0.73901-1.78101,2.19501-0.84698,3.10999
								c1.27502,1.12299,3.86902,1.67499,9.57599,1.259c3.65399-0.26599,8.32098-1.87299,11.547-2.513
								c4.71399-1.03699,8.19098,1.66699,8.40002,6.34299c0.15002,3.68399-2.5,6.668-5.67499,8.38
								C371.39786,73.8768,365.68301,75.50946,359.82498,75.77298z M363.72501,42.47299
								c1.909-0.29999,2.14301-2.51001,1.26001-3.71201c-1.65302-2.24899-3.98199-2.785-6.70001-2.58301
								c-2.42297,0.181-4.56702,1.20999-5.41998,3.621c-0.44,1.23999-0.09998,3.15399,2.03998,3.14999
								c2.93201-0.00198,5.90698-0.25699,8.82202-0.47299L363.72501,42.47299z"/>
						</g>
						<g id="_x30_2_Tower_1_" transform="translate(379.939 4.334)">
							<path id="Path_141" class="st4" d="M29.84497,55.40399c0,0,18.755-0.77901,15.05902,18.7
								c-3.95502,20.84-5.78003,77.27301-5.78003,93.70001s-22.91602,16.41699-23.81598,1.444
								c-2.354-39.168-3.25403-75.58099-2.04303-99.39999C14.177,51.89299,29.84497,55.40399,29.84497,55.40399z"/>
							<path id="Path_142" class="st2" d="M31.19098,78.236c-0.47131,0-0.94232-0.00766-1.41302-0.02299
								c-1.41803-0.045-2.87-0.159-4.31598-0.338c-9.62701-1.194-17.42499-5.272-21.95898-11.48
								c-3.18799-4.36501-4.20801-8.913-3.03003-13.518c0.7019-2.75918,1.74139-5.42127,3.09497-7.926l0.05103-0.1l22.50897-39.01
								c2.43213-5.10815,8.54474-7.2775,13.65289-4.84537c2.65588,1.26453,4.63995,3.60973,5.44708,6.43837
								c0.87097,2.819,9.61102,32.208,11.12903,38.114c0.20001,0.788,0.41901,1.576,0.63702,2.365
								c1.06366,3.40541,1.73468,6.92122,2,10.479c0.23157,3.01323-0.35986,6.03276-1.711,8.73601
								c-2.53003,4.778-7.716,7.14101-12.45502,8.82401C40.44598,77.48629,35.83368,78.25878,31.19098,78.236z"/>
							<path id="top_4_" class="st5" d="M40.185,6.923c0.88098,2.854,10.30499,34.543,11.90002,40.759
								c1.05798,4.114,2.45801,8.209,2.64301,12.48801c0.1767,2.08086-0.19861,4.17151-1.08801,6.061
								c-1.76898,3.341-6.40997,5.186-9.81897,6.39999c-4.43866,1.53941-9.12543,2.23769-13.82001,2.05901
								c-1.354-0.04266-2.70398-0.14833-4.04999-0.317c-7.14697-0.88699-14.77399-3.709-19.17102-9.728
								c-2-2.73199-3.06598-5.716-2.20801-9.075c0.62659-2.47064,1.55914-4.85339,2.776-7.093l24.26099-42.048
								C33.82202,2.083,38.95502,2.938,40.185,6.923z"/>
						</g>
						<g id="_x30_1_Tower_1_" transform="translate(93.129 4.334)">
							<path id="Path_143" class="st5" d="M29.836,55.40399c0,0-18.755-0.77901-15.05901,18.7
								c3.955,20.84,5.78,77.27301,5.78,93.70001s22.916,16.41699,23.81599,1.444c2.354-39.168,3.254-75.58099,2.043-99.39999
								C45.5,51.89299,29.836,55.40399,29.836,55.40399z"/>
							<path id="Path_144" class="st2" d="M27.832,78.236c-4.64456,0.02434-9.25896-0.74716-13.64301-2.28101
								c-4.74001-1.68201-9.925-4.047-12.455-8.823c-1.3512-2.7036-1.94258-5.72345-1.711-8.737
								c0.26556-3.55775,0.93658-7.07353,2-10.479c0.217-0.788,0.43401-1.576,0.63699-2.365
								c1.519-5.906,10.258-35.295,11.129-38.114c1.55232-5.44048,7.2211-8.59245,12.66158-7.04014
								c2.82867,0.8071,5.1739,2.79124,6.43843,5.44714l22.509,39.01l0.05099,0.1c1.35347,2.50442,2.39299,5.16617,3.095,7.925
								c1.17799,4.605,0.158,9.154-3.03,13.519c-4.534,6.20801-12.332,10.285-21.95799,11.48
								c-1.446,0.179-2.89999,0.293-4.317,0.338C28.77234,78.22933,28.30333,78.236,27.832,78.236z"/>
							<path id="top_3_" class="st4" d="M18.839,6.923c-0.881,2.854-10.306,34.543-11.89999,40.759
								c-1.058,4.114-2.45799,8.209-2.64301,12.48801c-0.17668,2.08086,0.19861,4.17151,1.088,6.061
								c1.769,3.341,6.41,5.186,9.819,6.39999c4.43864,1.53938,9.1254,2.23766,13.82001,2.05901
								c1.354-0.04266,2.70399-0.14833,4.05-0.317c7.146-0.88699,14.774-3.709,19.17101-9.728
								c2-2.73199,3.06599-5.716,2.20799-9.075c-0.62622-2.4706-1.55843-4.85336-2.77499-7.093L27.41,6.424
								C25.203,2.083,20.069,2.938,18.839,6.923z"/>
						</g>
					</g>
				</g>
			</g>
			<g id="Shine_1_" transform="translate(9.965 45.921)">
				<path id="B_1_" class="st12" d="M37.637,100.61101c-4.79071-0.59579-9.60858-0.94791-14.435-1.05499
					c-3.08931-0.1716-6.18719-0.10873-9.267,0.18799c-1.96808,0.177-3.8833,0.73322-5.64,1.638
					c-1.66096,0.95117-3.04093,2.32458-4,3.98099c-2.342,3.91599-2.986,8.66599-3.541,13.11401
					c-0.59461,4.76465-0.83594,9.56674-0.722,14.367c0.083,3.48801,0.372,6.97202,0.71,10.44299
					c0.32867,3.37799,0.789,6.73865,1.381,10.082c0.38,2.14401,0.809,4.27802,1.274,6.405c0,0-0.937-11.91-1.127-23.38199
					c-0.04501-5.2876,0.29388-10.57147,1.014-15.81c2.169-16.12601,6.4-18.34799,19.005-19.26801
					C25.92,101.05299,32.387,100.843,37.637,100.61101z"/>
				<path id="r_5_" class="st12" d="M67.528,126.19402c-6.36,11.03799-0.774,35.85901-0.774,35.85901
					c0.173-14.00699-0.62199-28.93399,5.11101-35.05701c1.724-1.84201,4.7-3.548,8.086-2.233
					C77.97,120.28401,70.52499,120.99199,67.528,126.19402z"/>
				<path id="r_4_" class="st12" d="M416.67801,126.19099c-5.76501,11.35999-0.77399,35.85901-0.77399,35.85901
					c0.17297-14.00699-0.62201-29.47,5.11102-35.59299c2.07458-2.20193,5.30035-2.88013,8.086-1.70001
					C428.48099,121.56499,420.19998,119.25499,416.67801,126.19099z"/>
				<path id="r_3_" class="st12" d="M223.57199,204.36603c-4.44299,8.755-0.60001,27.638-0.60001,27.638
					c0.134-10.79999-0.479-22.71301,3.939-27.43201c1.59964-1.69592,4.08548-2.21765,6.23199-1.30801
					C232.66901,200.798,226.28699,199.013,223.57199,204.36603z"/>
				<path id="tower_5_" class="st12" d="M103.03999,71.63c3.494,31.647,3.8,63.35101,4.345,87.08701
					c2.49681-28.7999,2.41785-57.76515-0.23599-86.55099L103.03999,71.63z"/>
				<path id="tower_4_" class="st12" d="M391.28299,71.62999c-2.289,31.58299-2.19,63.351-2.73602,87.08699
					c0,0-3.18597-42.052-1.909-88.7L391.28299,71.62999z"/>
				<path id="cone_3_" class="st12" d="M378.03799,46.116c0,0,20.50897-36.75999,23.422-41.14c2.95502-4.444,6-2.97,6.70001,1.607
					c0,0-3.42902-1.494-9.16803,7.012C397.25803,16.16,378.03799,46.116,378.03799,46.116z"/>
				<path id="cone_2_" class="st12" d="M90.02401,48.961c0,0,11.368-40.53,13.179-45.469c1.83701-5.011,5.146-4.288,6.88699,0
					c0,0-3.68201-0.653-7.27901,8.958C101.72601,15.348,90.02401,48.961,90.02401,48.961z"/>
				<path id="n_3_" class="st12" d="M136.71501,127.267c-5.327,10.72299-0.77399,34.78699-0.77399,34.78699
					c0.173-14.00699-0.20001-26.24301,4.20001-33.38101c1.35199-2.19199,4.00699-4.151,7.388-2.836
					C145.54298,121.35602,139.386,121.89001,136.71501,127.267z"/>
				<path id="n_2_" class="st12" d="M308.99301,204.508c-3.79999,9.01901-0.82703,27.383-0.82703,27.383
					c0.14301-11.534,0.02197-20.34702,3.64801-26.22501c1.13806-2.23032,3.63892-3.41043,6.08398-2.871
					C316.259,199.108,310.67703,200.51599,308.99301,204.508z"/>
				<path id="c_5_" class="st12" d="M184.252,150.505c-2.0762-5.16431-2.14505-10.91852-0.19299-16.13101
					c3.04401-7.83301,10.20001-15.20898,19.39999-17.20801c10.12-2.20001,15.94699,3.57901,15.94699,3.57901
					s-16.08499-5.72299-26.47699,5.5C181.59898,138.47198,184.252,150.505,184.252,150.505z"/>
				<path id="c_4_" class="st12" d="M171.51599,216.66c-2.23004-5.54758-2.30389-11.72876-0.207-17.328
					c3.26999-8.41501,10.957-16.33801,20.83701-18.48502c10.87201-2.362,17.13101,3.845,17.13101,3.845
					s-16.63901-6.64999-28.483,5.86401C168.48599,203.56198,171.51599,216.66,171.51599,216.66z"/>
				<path id="c_3_" class="st12" d="M346.24097,222.34999c-1.63629-3.94958-1.69104-8.37717-0.15295-12.366
					c2.65228-6.6246,8.35815-11.54733,15.29999-13.20001c7.97998-1.686,12.57501,2.745,12.57501,2.745
					s-12.60699-4.59399-21.29999,4.33899C343.62299,213.15401,346.24097,222.34999,346.24097,222.34999z"/>
				<path id="a_7_" class="st12" d="M235.73901,127.116c0,0-1.34-3.93399,5.60001-5.37201s24.29999-1.522,29.05499,9.22299
					c0,0-4.66599-7.384-19.69299-7.61499C238.95401,123.173,235.73901,127.116,235.73901,127.116z"/>
				<path id="a_6_" class="st12" d="M453.48798,128.19101c0,0-1.34003-5.00699,5.59998-6.44501s24.29999-1.522,29.05499,9.22299
					c0,0-4.66602-7.384-19.69299-7.61499C456.703,123.173,453.48798,128.19101,453.48798,128.19101z"/>
				<path id="a_5_" class="st12" d="M272.37802,205.63699c0,0-1.02698-3.83801,4.29303-4.94s18.62701-1.16599,22.271,7.07001
					c0,0-3.57599-5.66-15.09497-5.83701C274.84299,201.79099,272.37802,205.63699,272.37802,205.63699z"/>
				<path id="a_4_" class="st12" d="M386.91901,205.63699c0,0-1.02698-3.83801,4.29303-4.94s18.62701-1.16599,22.271,7.07001
					c0,0-3.57599-5.66-15.09497-5.83701C389.38702,201.79099,386.91901,205.63699,386.91901,205.63699z"/>
				<path id="d_9_" class="st12" d="M281.04999,146.793c0,0-3.78802-18.86499,12.84302-23.20001
					c0,0,9.61401-1.98999,14.92603,4.25101C297.79102,122.07901,282.15601,127.746,281.04999,146.793z"/>
				<path id="d_8_" class="st12" d="M312.99799,111.927v-2.48401c-0.20001-9.17999,11.31897-8.39999,12.47998-3.43301
					C319.23401,102.09698,313.86499,105.57401,312.99799,111.927z"/>
				<path id="d_7_" class="st12" d="M76.13401,220.272c0,0-3.01199-15,10.213-18.452c0,0,7.645-1.582,11.869,3.38101
					C89.44601,200.61801,77.01301,205.12399,76.13401,220.272z"/>
				<path id="d_6_" class="st12" d="M101.00199,192.54399v-1.97501c-0.158-7.29999,9-6.67801,9.924-2.73001
					C105.962,184.72801,101.69199,187.494,101.00199,192.54399z"/>
				<path id="Path_145" class="st12" d="M333.20798,145.18602c0,0-2.39099-22.491,17.625-26.12201
					c0,0,11.159-1.06799,17.35901,4.51199C368.19296,123.575,340.38199,108.78902,333.20798,145.18602z"/>
				<path id="Path_146" class="st12" d="M115.68501,218.40399c0,0-1.938-18.224,14.28101-21.16699
					c0,0,9.043-0.86499,14.06601,3.65601C144.032,200.89401,121.49801,188.91299,115.68501,218.40399z"/>
				<path id="d_5_" class="st12" d="M252.62201,187.66499c-0.55301-9.05399,10.168-7.79999,11.39999-2.85599
					C258.51599,179.88899,253.039,182.688,252.62201,187.66499z"/>
				<path id="tower_3_" class="st12" d="M254.506,208.12299c1.022,8.42099,1.18701,11.61099-0.12299,22.327
					c0,0,2.56902-9.18201,1.54199-22.78299C255.16701,204.59399,254.04201,205.66599,254.506,208.12299z"/>
			</g>
		</g>
	</g>
</g>
</svg>
