<svg xmlns="http://www.w3.org/2000/svg" viewBox="0 0 46 46"><path d="M33.988 22.434c-.202-5.956-5.193-10.62-11.15-10.419A10.79 10.79 0 0012.43 22.234c-.02.154-.028.31-.024.465a10.7 10.7 0 001.55 5.533L12 33.977l5.986-1.9c5.248 2.865 11.826.933 14.691-4.315A10.827 10.827 0 0034 22.7c0-.1-.012-.167-.012-.262v-.004zm-5.843 2.433c-.274-.131-1.561-.775-1.8-.871-.263-.071-.429-.131-.608.143a11.3 11.3 0 01-.834 1.013c-.155.191-.311.2-.561.083a6.7 6.7 0 01-2.135-1.311 7.8 7.8 0 01-1.478-1.8c-.143-.286-.025-.4.107-.56.15-.137.286-.29.406-.453a.458.458 0 00.1-.119 2.6 2.6 0 00.167-.31.41.41 0 00-.024-.453 84.048 84.048 0 00-.816-1.957c-.214-.536-.441-.441-.584-.441-.168 0-.334-.023-.513-.023a.911.911 0 00-.7.334 2.829 2.829 0 00-.942 2.194c.003.3.056.6.155.883.2.658.516 1.275.931 1.824A10.735 10.735 0 0023.531 27c2.707 1.049 2.707.691 3.184.656.749-.14 1.4-.598 1.785-1.256.172-.394.222-.83.143-1.252a1.5 1.5 0 00-.5-.286l.002.005zM23.2 31.711a9.045 9.045 0 01-4.984-1.49l-3.485 1.109 1.121-3.351a8.925 8.925 0 01-1.73-5.279 9.08 9.08 0 0118.125-.703 9.059 9.059 0 01-9.047 9.714z" fill-rule="evenodd" clip-rule="evenodd" fill="#9ec12f"/></svg>