<?xml version="1.0" encoding="utf-8"?>
<!-- Generator: Adobe Illustrator 24.0.3, SVG Export Plug-In . SVG Version: 6.00 Build 0)  -->
<svg version="1.1" id="Layer_1" xmlns="http://www.w3.org/2000/svg" xmlns:xlink="http://www.w3.org/1999/xlink" x="0px" y="0px"
	 viewBox="0 0 46 46" style="enable-background:new 0 0 46 46;" xml:space="preserve">
<style type="text/css">
	.st0{fill-rule:evenodd;clip-rule:evenodd;fill:#FFFFFF;}
</style>
<path id="whatsapp_1_" class="st0" d="M33.988,22.434c-0.20172-5.95574-5.19333-10.62029-11.14907-10.41856
	C17.24334,12.20497,12.72231,16.64289,12.429,22.234c-0.02023,0.15413-0.02825,0.30961-0.024,0.465
	c0.00253,1.95116,0.53852,3.86448,1.55,5.533L12,33.977l5.986-1.9c5.24849,2.86511,11.82586,0.93299,14.69096-4.31549
	C33.52509,26.20786,33.97936,24.46995,34,22.7c0-0.1-0.012-0.167-0.012-0.262V22.434z M28.145,24.867
	c-0.274-0.131-1.561-0.775-1.8-0.871c-0.263-0.071-0.429-0.131-0.608,0.143c-0.25814,0.35353-0.53661,0.69177-0.834,1.013
	c-0.155,0.191-0.311,0.2-0.561,0.083c-0.78777-0.29887-1.5121-0.74364-2.135-1.311c-0.57998-0.52265-1.07819-1.12941-1.478-1.8
	c-0.143-0.286-0.025-0.4,0.107-0.56c0.14973-0.13745,0.28571-0.28916,0.406-0.453c0.03987-0.03368,0.07369-0.07393,0.1-0.119
	c0.06261-0.09944,0.1184-0.20301,0.167-0.31c0.08387-0.14207,0.07441-0.32058-0.024-0.453c-0.052-0.129-0.585-1.444-0.816-1.957
	c-0.214-0.536-0.441-0.441-0.584-0.441c-0.168,0-0.334-0.023-0.513-0.023c-0.27144,0.00149-0.52808,0.12394-0.7,0.334
	c-0.62236,0.55651-0.96712,1.3595-0.942,2.194c0.00315,0.30082,0.0555,0.59909,0.155,0.883
	c0.20071,0.65799,0.51587,1.27545,0.931,1.824c1.09804,1.72156,2.6643,3.09425,4.515,3.957c2.707,1.049,2.707,0.691,3.184,0.656
	c0.74889-0.14023,1.40011-0.59846,1.785-1.256c0.1717-0.39367,0.22151-0.82975,0.143-1.252
	c-0.14663-0.12674-0.31642-0.22386-0.5-0.286L28.145,24.867z M23.2,31.711c-1.77139,0.00209-3.50441-0.51601-4.984-1.49
	l-3.485,1.109l1.121-3.351c-1.12357-1.53082-1.7296-3.3801-1.73-5.279c-0.00212-0.29069,0.01358-0.58123,0.047-0.87
	c0.51987-4.98773,4.98466-8.60964,9.97239-8.08976c4.33267,0.4516,7.73413,3.91649,8.10561,8.25676
	c0.01984,0.23278,0.02785,0.46641,0.024,0.7C32.24622,27.68725,28.19031,31.71767,23.2,31.711z"/>
</svg>
