<svg xmlns="http://www.w3.org/2000/svg" width="511.123" height="309.281" viewBox="0 0 511.123 309.281">
  <defs>
    <style>
      .cls-1 {
        fill: #3e0538;
      }

      .cls-2 {
        fill: #e7134e;
      }

      .cls-3 {
        fill: #3fb94e;
      }

      .cls-4 {
        fill: #1a86c9;
      }

      .cls-5 {
        fill: #f76e1b;
      }

      .cls-6 {
        fill: #fac329;
      }

      .cls-11, .cls-7 {
        fill: #fbc22c;
      }

      .cls-8 {
        fill: none;
        stroke-width: 0.868px;
      }

      .cls-11, .cls-8, .cls-9 {
        stroke: #3e0538;
        stroke-miterlimit: 10;
      }

      .cls-9 {
        fill: #8918b3;
      }

      .cls-11, .cls-9 {
        stroke-width: 8.685px;
      }

      .cls-10 {
        fill: #dc1947;
      }

      .cls-12, .cls-13 {
        fill: #fff;
      }

      .cls-12 {
        opacity: 0.8;
      }

      .cls-13 {
        opacity: 0.7;
      }
    </style>
  </defs>
  <g id="Logo_1_" transform="translate(0)">
    <g id="Group_4" data-name="Group 4" transform="translate(0)">
      <g id="Bottom_1_" transform="translate(75.99 215.784)">
        <g id="Group_1" data-name="Group 1">
          <path id="Path_7" data-name="Path 7" class="cls-1" d="M216,405.095a15.025,15.025,0,0,0,3.512-10.776c-1.116-13.18-14.618-23.9-30.1-23.9-.812,0-1.619.03-2.393.088a25.872,25.872,0,0,0-8.35,1.943c-.138-1.114-.3-2.176-.48-3.218l-.027-.142a14.328,14.328,0,0,0-14.147-11.369,14.611,14.611,0,0,0-3.153.339c-7.36,1.586-12.593,7.754-12.442,14.676,0,0,.038,1.1.054,1.6q-.373-.016-.771-.025c-.3-.009-.59-.012-.887-.012-7.338,0-13.736,2.624-18.014,7.387-3.033,3.377-6.421,9.508-5.339,19.544,3.017,25.663,19.38,27.706,24.349,27.721a19.222,19.222,0,0,0,8.5-1.727,14.379,14.379,0,0,0,5.693,1.148,14.545,14.545,0,0,0,10.764-4.859c4.339,3.61,10.1,5.438,17.146,5.438,1,0,2.024-.037,3.054-.11a36.5,36.5,0,0,0,16.052-4.6c5.486-2.959,8.628-8.021,8.4-13.547A13.831,13.831,0,0,0,216,405.095Z" transform="translate(-123.261 -352.969)"/>
          <path id="Path_8" data-name="Path 8" class="cls-1" d="M513.915,370.5a70.337,70.337,0,0,0-9.352.735,14.083,14.083,0,0,0-6.483,2.481q-.346-.31-.7-.586l-.079-.06c-7.4-5.66-13.17-6.491-17.819-6.557-.2-.007-.4-.01-.6-.01-5.907,0-12.783,3.116-18.184,8.19-2.326-2.456-6.421-5.239-13.033-5.239a28.354,28.354,0,0,0-10.529,1.92,15.407,15.407,0,0,0-6.543-1.332c-.2,0-.394,0-.6.009a17.847,17.847,0,0,0-12.52,5.93c-4.684-3.59-10.78-5.482-17.709-5.482a70.34,70.34,0,0,0-9.352.736q-.663.079-1.312.218a15.726,15.726,0,1,0-30.158-2.3A18.94,18.94,0,0,0,351.876,371a14.512,14.512,0,0,0-6.159-1.286,16.814,16.814,0,0,0-3.906.47,20.351,20.351,0,0,0-7.069-11.647l-.081-.064c-9.51-7.279-16.626-8.363-22.873-8.45q-.351-.013-.709-.012c-13.447,0-34.433,14.77-35.422,37.032l-.014.322.012.322c1.075,26.577,24.316,38.224,35.942,38.3h.136c5.648-.069,12.009-.925,20.288-6.543a17.543,17.543,0,0,0,13.381,6.544,12.989,12.989,0,0,0,10.286-4.707,13.42,13.42,0,0,0,2.946-8.048,13.419,13.419,0,0,0,2.948,8.048,12.993,12.993,0,0,0,10.288,4.707,17.353,17.353,0,0,0,11.188-4.274,22.539,22.539,0,0,0,13.421,4.274,21.476,21.476,0,0,0,9.1-1.878,14.933,14.933,0,0,0,6.163,1.3,14.75,14.75,0,0,0,8.6-2.737,17.071,17.071,0,0,0,9.954,3.316,14.991,14.991,0,0,0,1.634-.089,12.656,12.656,0,0,0,8.948-5.081c.083-.114.165-.229.245-.346a17.51,17.51,0,0,0,10.675,5.422,15.719,15.719,0,0,0,1.719.1,12.946,12.946,0,0,0,10.252-4.694c.149-.182.295-.372.436-.57.256.226.492.446.724.663.4.378.8.746,1.247,1.1-1.432.751-3.226,1.959-3.793,3.507-1.067,2.641,1.044,8.968,3.658,12.883,2.023,3.031,4.243,4.632,6.42,4.632a4.714,4.714,0,0,0,2.817-.973c1.695-1.244,2.712-2.1,3.61-2.857a28.582,28.582,0,0,1,3.415-2.568l.051-.033.047-.039a11.877,11.877,0,0,1,4.416-1.935c1.722-.489,3.348-.952,4.19-2.26,1.069-1.661.5-6.227-.369-9.325a33.492,33.492,0,0,0,5.142-2.977,22.312,22.312,0,0,0,14.859,5.448,21.469,21.469,0,0,0,9.1-1.878,15.007,15.007,0,0,0,21.115-13.653V395.784C540.841,380.66,530.021,370.5,513.915,370.5ZM313.7,392.392c-2.532,0-3.82-1.751-3.83-5.2.006-1.624.666-3.56,3.772-3.561h.142a12.979,12.979,0,0,1,5.237.9,19.128,19.128,0,0,0,7.344,1.96l.415,0q.62,0,1.247-.047c-.155,1.031-.289,2.063-.4,3.089q-.457-.025-.907-.025l-.358,0a19.123,19.123,0,0,0-7.348,1.964,12.873,12.873,0,0,1-5.2.9Zm44.938,19.734a15.851,15.851,0,0,0-.307-2.57,59.881,59.881,0,0,1-1.207-10.993h.814a14.239,14.239,0,0,0,2.222-.176,48.248,48.248,0,0,1-1.216,11.185A15.659,15.659,0,0,0,358.635,412.126Z" transform="translate(-181.7 -350.016)"/>
        </g>
        <path id="Path_9" data-name="Path 9" class="cls-2" d="M160.766,377.3c-.074-3.41,2.827-6.285,6.434-7.063a6.773,6.773,0,0,1,8.23,5.063c2.435,13.811-.429,28.46-1.387,42.808-.3,4.1-3.425,7.385-7.3,7.385a6.7,6.7,0,0,1-5.7-3.093c-2.609,3.385-6,3.671-8.5,3.672-6.643-.02-14.864-4.656-16.785-21-1.515-14.057,7.912-18.674,16.454-18.42a13.584,13.584,0,0,1,8.725,2.835C160.955,385.3,160.913,381.223,160.766,377.3ZM159.2,410.418c1.616-2.407,1.967-6.423.2-8.857a4.814,4.814,0,0,0-4.126-1.939c-1.5.009-5.09,1.171-4.978,5.74.151,5.732,4.059,7.108,5.479,7.1A4.708,4.708,0,0,0,159.2,410.418Z" transform="translate(-127.992 -357.705)"/>
        <path id="Path_10" data-name="Path 10" class="cls-3" d="M222.327,433.879c-15.606,1.095-20.514-7.751-21.128-19.994-.465-11.938,3.875-22.3,16.228-23.152,11.764-.871,23.515,6.637,24.38,16.864.339,3.8-2.73,7.225-6.291,8.284-2.626.783-6.394.8-9.756.932-3.081.117-6.952-.258-8.337.479-1.078.574-1.384,1.705-.658,2.417.991.872,3.007,1.3,7.441.979,2.84-.206,6.466-1.456,8.973-1.953,3.663-.806,6.365,1.3,6.526,4.929.116,2.863-1.943,5.182-4.41,6.511A29.157,29.157,0,0,1,222.327,433.879Zm3.031-25.874a1.784,1.784,0,0,0,.979-2.885c-1.285-1.748-3.094-2.164-5.205-2.007a4.433,4.433,0,0,0-4.211,2.814,1.7,1.7,0,0,0,1.586,2.447C220.78,408.371,223.093,408.173,225.359,408.005Z" transform="translate(-153.137 -365.605)"/>
        <path id="Path_11" data-name="Path 11" class="cls-4" d="M316.379,423.119c-8-.052-27.49-9.037-28.378-31,.819-18.46,18.463-29.756,27.816-29.756.168,0,.333,0,.5.01,4.679.058,10.3.641,18.46,6.884a12.367,12.367,0,0,1,4.332,7.369,5.663,5.663,0,0,1-1.478,4.467,8.288,8.288,0,0,1-6.11,2.53l-.194,0a12.148,12.148,0,0,1-4.564-1.35l-.05-.023-.052-.02a20.542,20.542,0,0,0-8.057-1.475h-.17c-7.826,0-11.414,5.776-11.436,11.143.027,10.138,7.2,12.84,11.442,12.84h.174a20.518,20.518,0,0,0,8.047-1.476l.052-.02.051-.023a12.121,12.121,0,0,1,4.582-1.35h.174a8.291,8.291,0,0,1,6.111,2.529,5.655,5.655,0,0,1,1.48,4.458,12.383,12.383,0,0,1-4.351,7.394C326.619,422.475,321,423.062,316.379,423.119Z" transform="translate(-186.439 -354.753)"/>
        <g id="Group_2" data-name="Group 2" transform="translate(276.82 24.099)">
          <path id="Path_12" data-name="Path 12" class="cls-4" d="M605.168,473.368c-.105,2.6-3.737.885-8.5,5.663s-8.173-2.3-8.009-6.333c.105-2.6,3.736-.885,8.5-5.663S605.332,469.339,605.168,473.368Z" transform="translate(-578.561 -418.379)"/>
          <path id="Path_13" data-name="Path 13" class="cls-4" d="M606.439,394.105a9.688,9.688,0,0,1,3.435,5.888c.361,3.522-2.83,6.158-6.534,6.08a9.469,9.469,0,0,1-3.61-1.038,13.059,13.059,0,0,0-5.174-.944c-2.618-.042-6.853,1.492-6.873,6.569.016,6.347,4.468,7.776,6.873,7.734a13.05,13.05,0,0,0,5.174-.944,9.462,9.462,0,0,1,3.61-1.038c3.7-.076,6.895,2.559,6.534,6.081a9.692,9.692,0,0,1-3.435,5.888c-5.877,4.5-9.992,4.951-13.4,4.992-6.575-.035-20.164-7.192-20.758-22.565.569-13.507,13.493-22.006,20.758-21.695C596.447,389.155,600.562,389.608,606.439,394.105Z" transform="translate(-572.28 -389.106)"/>
        </g>
        <path id="Path_14" data-name="Path 14" class="cls-5" d="M393.113,407.574c-6.428,0-6.822,4.5-6.777,4.506a67.343,67.343,0,0,0,1.338,15.627c.819,4.045-1.411,7.3-5.47,7.3s-8.4-3.254-9.222-7.3a67.388,67.388,0,0,1-.18-26.137c.827-4.356,5.373-7.614,9.718-7.614,2.741,0,4.5,1.085,5.365,3.185,4.195-3.5,7.411-3.774,8.706-3.779h1.216c4.065,0,5.056,2.954,4.194,7.1-.824,3.939-3.208,7.119-7.268,7.116Z" transform="translate(-218.504 -366.639)"/>
        <g id="Group_3" data-name="Group 3" transform="translate(184.533 7.872)">
          <path id="Path_15" data-name="Path 15" class="cls-6" d="M423.029,402.959c-.923-6.337,2.137-8.634,4.878-8.635,4.346,0,8.892,3.258,9.719,7.614a67.376,67.376,0,0,1-.18,26.137c-.819,4.044-5.176,7.3-9.222,7.3s-6.289-3.253-5.47-7.3a54.993,54.993,0,0,0,1.338-14.1C424.137,413.976,423.759,408.03,423.029,402.959Z" transform="translate(-422.585 -374.88)"/>
          <path id="Path_16" data-name="Path 16" class="cls-6" d="M438.816,370.9c0,4.192-3.383,10.292-8.116,10.4-4.733-.112-8.116-6.211-8.116-10.4a8.116,8.116,0,1,1,16.231,0Z" transform="translate(-422.585 -362.785)"/>
        </g>
        <path id="Path_17" data-name="Path 17" class="cls-2" d="M485.654,413.262v14.679a7.337,7.337,0,0,1-7.339,7.339,7.15,7.15,0,0,1-5.987-3.09c-3.091,3.476-7.532,3.67-9.271,3.67-1.932,0-13.81-.579-13.81-13.713,0-7.243,4.828-11.2,13.23-11.2a19.381,19.381,0,0,1,9.175,2.511v-2.221c-.483-1.931-1.739-3.573-7.919-3.573a44.174,44.174,0,0,0-5.408.483,5.852,5.852,0,0,1-5.891-5.891,5.978,5.978,0,0,1,5.5-5.987,65.755,65.755,0,0,1,8.4-.676C478.218,395.589,485.654,402.542,485.654,413.262ZM470.142,423.39c.512-1.721-1.065-3.119-5.11-3.763-3.28-.521-3.857,1-4.039,2.135s.345,2.765,3.177,3.282C469.718,426.058,470.142,423.39,470.142,423.39Z" transform="translate(-248.277 -367.494)"/>
        <path id="Path_18" data-name="Path 18" class="cls-7" d="M670.816,413.262v14.679a7.337,7.337,0,0,1-7.34,7.339,7.151,7.151,0,0,1-5.987-3.09c-3.09,3.476-7.532,3.67-9.271,3.67-1.931,0-13.81-.579-13.81-13.713,0-7.243,4.828-11.2,13.23-11.2a19.381,19.381,0,0,1,9.175,2.511v-2.221c-.483-1.931-1.739-3.573-7.919-3.573a44.175,44.175,0,0,0-5.408.483,5.853,5.853,0,0,1-5.891-5.891,5.978,5.978,0,0,1,5.5-5.987,65.751,65.751,0,0,1,8.4-.676C663.38,395.589,670.816,402.542,670.816,413.262ZM655.3,423.39c.512-1.721-1.065-3.119-5.11-3.763-3.28-.521-3.857,1-4.039,2.135s.345,2.765,3.177,3.282C654.88,426.058,655.3,423.39,655.3,423.39Z" transform="translate(-319.286 -367.494)"/>
        <path id="Path_19" data-name="Path 19" class="cls-3" d="M548.6,427.968c.872,4.3-1.732,7.7-6.309,7.191-3.812-.42-7.548-3.592-8.287-7.287a66.863,66.863,0,0,1-1.232-17.137,2.657,2.657,0,0,0-2.9-2.742,7.778,7.778,0,0,0-5.759,3.047,66.845,66.845,0,0,0,1.221,16.7c.747,3.778-.953,7.027-4.581,7.428-4.226.47-9.08-2.918-9.948-7.2a66.842,66.842,0,0,1-.178-25.932c.773-4.108,5.118-7.428,9.257-7.549,2.914-.084,5.074.777,5.961,2.956,3.986-3.169,8.9-3.547,11.5-3.55,7.773-.006,11.065,5.871,10.261,13.7A66.814,66.814,0,0,0,548.6,427.968Z" transform="translate(-271.36 -366.843)"/>
      </g>
      <g id="Top_1_">
        <g id="Back_1_" transform="translate(31.846)">
          <g id="Grid_1_" transform="translate(186.007 101.312)">
            <path id="Path_20" data-name="Path 20" class="cls-8" d="M353.371,183.767l99.732.4" transform="translate(-353.371 -171.787)"/>
            <path id="Path_21" data-name="Path 21" class="cls-8" d="M353.371,193.484l99.732.4" transform="translate(-353.371 -175.514)"/>
            <path id="Path_22" data-name="Path 22" class="cls-8" d="M353.371,203.2l99.732.4" transform="translate(-353.371 -179.24)"/>
            <path id="Path_23" data-name="Path 23" class="cls-8" d="M353.371,212.916l99.732.4" transform="translate(-353.371 -182.966)"/>
            <path id="Path_24" data-name="Path 24" class="cls-8" d="M353.371,206.661q.182-21.163.365-42.326" transform="translate(-353.371 -164.335)"/>
            <path id="Path_25" data-name="Path 25" class="cls-8" d="M362.325,206.661q.182-21.163.365-42.326" transform="translate(-356.805 -164.335)"/>
            <path id="Path_26" data-name="Path 26" class="cls-8" d="M371.28,206.661q.182-21.163.365-42.326" transform="translate(-360.239 -164.335)"/>
            <path id="Path_27" data-name="Path 27" class="cls-8" d="M380.234,206.661q.182-21.163.365-42.326" transform="translate(-363.673 -164.335)"/>
            <path id="Path_28" data-name="Path 28" class="cls-8" d="M389.188,206.661q.182-21.163.365-42.326" transform="translate(-367.107 -164.335)"/>
            <path id="Path_29" data-name="Path 29" class="cls-8" d="M398.143,206.661q.182-21.163.365-42.326" transform="translate(-370.541 -164.335)"/>
            <path id="Path_30" data-name="Path 30" class="cls-8" d="M407.1,206.661q.182-21.163.365-42.326" transform="translate(-373.975 -164.335)"/>
            <path id="Path_31" data-name="Path 31" class="cls-8" d="M416.052,206.661q.182-21.163.365-42.326" transform="translate(-377.409 -164.335)"/>
            <path id="Path_32" data-name="Path 32" class="cls-8" d="M425.006,206.661q.182-21.163.365-42.326" transform="translate(-380.843 -164.335)"/>
            <path id="Path_33" data-name="Path 33" class="cls-8" d="M433.96,206.661q.182-21.163.365-42.326" transform="translate(-384.277 -164.335)"/>
            <path id="Path_34" data-name="Path 34" class="cls-8" d="M442.915,206.661q.182-21.163.365-42.326" transform="translate(-387.711 -164.335)"/>
            <path id="Path_35" data-name="Path 35" class="cls-8" d="M451.869,206.661q.182-21.163.365-42.326" transform="translate(-391.145 -164.335)"/>
            <path id="Path_36" data-name="Path 36" class="cls-8" d="M460.823,206.661q.182-21.163.365-42.326" transform="translate(-394.579 -164.335)"/>
            <path id="Path_37" data-name="Path 37" class="cls-8" d="M469.778,206.661q.182-21.163.365-42.326" transform="translate(-398.013 -164.335)"/>
            <path id="Path_38" data-name="Path 38" class="cls-8" d="M478.732,206.661q.182-21.163.365-42.326" transform="translate(-401.447 -164.335)"/>
            <path id="Path_39" data-name="Path 39" class="cls-8" d="M487.687,206.661q.182-21.163.365-42.326" transform="translate(-404.882 -164.335)"/>
            <path id="Path_40" data-name="Path 40" class="cls-8" d="M496.641,206.661q.182-21.163.365-42.326" transform="translate(-408.315 -164.335)"/>
            <path id="Path_41" data-name="Path 41" class="cls-8" d="M505.6,206.661q.182-21.163.365-42.326" transform="translate(-411.749 -164.335)"/>
            <path id="Path_42" data-name="Path 42" class="cls-8" d="M514.55,206.661q.182-21.163.365-42.326" transform="translate(-415.183 -164.335)"/>
            <path id="Path_43" data-name="Path 43" class="cls-8" d="M353.371,174.051l99.732.4" transform="translate(-353.371 -168.061)"/>
            <path id="Path_44" data-name="Path 44" class="cls-8" d="M353.371,164.335l99.732.4" transform="translate(-353.371 -164.335)"/>
            <path id="Path_45" data-name="Path 45" class="cls-8" d="M353.371,222.632l99.732.4" transform="translate(-353.371 -186.692)"/>
            <path id="Path_46" data-name="Path 46" class="cls-8" d="M353.371,232.349l99.732.4" transform="translate(-353.371 -190.418)"/>
          </g>
          <path id="Wall_1_" class="cls-9" d="M304.91,133.456V240.5H461.776V133.456Zm109.322,51.136a6.311,6.311,0,0,1-6.311,6.311H355.727a6.311,6.311,0,0,1-6.311-6.311V163.23a6.311,6.311,0,0,1,6.311-6.311h52.193a6.311,6.311,0,0,1,6.311,6.311Z" transform="translate(-148.779 -51.181)"/>
          <g id="_x30_3_Tower_1_" transform="translate(281.297)">
            <path id="Path_47" data-name="Path 47" class="cls-1" d="M563.713,91.413c-5.679-6.859-14.678-7.547-17.435-7.588a23.809,23.809,0,0,0-3.639-.276A20.361,20.361,0,0,0,530.2,87.477c-4.931,3.736-7.632,9.579-8.027,17.367-1.173,23.054-.447,58.569,2.043,100,.693,11.543,9.968,17.582,18.771,17.582,9.4,0,18.909-6.677,18.909-19.441,0-18.133,1.98-72.911,5.648-92.244C569.05,102.808,567.761,96.3,563.713,91.413Z" transform="translate(-513.188 -32.041)"/>
            <path id="Path_48" data-name="Path 48" class="cls-1" d="M572.223,63.2a49.986,49.986,0,0,0-2.168-11.362l-.019-.07c-.226-.823-.452-1.644-.664-2.467C567.732,42.926,558.333,11.32,557.4,8.291a11.432,11.432,0,0,0-21.3-1.808L511.938,48.361l-.113.2a37.6,37.6,0,0,0-3.363,8.616c-1.3,5.079-.18,10.087,3.326,14.887,4.944,6.77,13.432,11.215,23.9,12.514,1.566.194,3.142.318,4.681.366q.766.024,1.533.025a44.163,44.163,0,0,0,14.812-2.477c5.173-1.837,10.837-4.425,13.623-9.687A18.351,18.351,0,0,0,572.223,63.2Z" transform="translate(-507.938)"/>
            <path id="Path_49" data-name="Path 49" class="cls-10" d="M550,95.114s18.723-.778,15.033,18.665c-3.948,20.8-5.771,77.141-5.771,93.541s-22.877,16.389-23.775,1.441c-2.349-39.1-3.249-75.451-2.04-99.234C534.362,91.608,550,95.114,550,95.114Z" transform="translate(-517.517 -36.37)"/>
            <path id="Path_50" data-name="Path 50" class="cls-1" d="M544.607,86.191q-.706,0-1.411-.022c-1.415-.045-2.865-.158-4.309-.337-9.61-1.192-17.4-5.262-21.921-11.46-3.182-4.357-.93-8.243.246-12.84a34.569,34.569,0,0,1,3.089-7.912l.051-.1,21.816-36.327c1.928-3.657,2.756-5.834,6.635-5.834,4.5,0,5.832,2.33,7.2,6.77.869,2.815,8.94,29.536,10.456,35.433.2.787,3.125,9.023,3.289,12.822.148,3.417.9,6.27-.4,8.72-2.526,4.769-6.394,7.129-11.125,8.809A40.613,40.613,0,0,1,544.607,86.191Z" transform="translate(-510.775 -4.357)"/>
            <path id="top_4_" class="cls-5" d="M555.082,14.673c.88,2.849,10.288,34.484,11.884,40.689,1.056,4.106,2.454,8.2,2.639,12.466a11.85,11.85,0,0,1-1.086,6.05c-1.766,3.335-6.4,5.177-9.8,6.386a37.724,37.724,0,0,1-13.8,2.055q-2.028-.064-4.044-.317c-7.134-.885-14.749-3.7-19.137-9.712-1.992-2.727-3.061-5.707-2.2-9.059a30.554,30.554,0,0,1,2.771-7.082l24.22-41.976C548.729,9.842,553.854,10.7,555.082,14.673Z" transform="translate(-512.272 -4.329)"/>
          </g>
          <g id="_x30_4_Tower_1_" transform="translate(120.372)">
            <path id="Path_51" data-name="Path 51" class="cls-1" d="M308.046,104.845c-.4-7.789-3.1-13.632-8.027-17.367A20.362,20.362,0,0,0,287.58,83.55a23.73,23.73,0,0,0-3.639.276c-2.757.041-11.756.73-17.435,7.588-4.049,4.89-5.338,11.395-3.832,19.335,3.669,19.333,5.648,74.11,5.648,92.244,0,12.76,9.511,19.439,18.907,19.441h0c8.8,0,18.075-6.039,18.769-17.582C308.492,163.418,309.218,127.9,308.046,104.845Z" transform="translate(-252.721 -32.042)"/>
            <path id="Path_52" data-name="Path 52" class="cls-1" d="M310.7,57.18a37.661,37.661,0,0,0-3.365-8.618l-.068-.126L283.076,6.519A11.652,11.652,0,0,0,272.735,0a11.532,11.532,0,0,0-10.977,8.292c-.938,3.038-10.344,34.672-11.974,41.008-.211.823-.438,1.644-.665,2.467l-.019.07A49.972,49.972,0,0,0,246.933,63.2a18.338,18.338,0,0,0,1.888,9.609c2.787,5.262,8.451,7.85,13.624,9.687a44.152,44.152,0,0,0,14.811,2.477q.768,0,1.533-.025c1.541-.048,3.115-.171,4.681-.366,10.467-1.3,18.955-5.743,23.9-12.513C310.874,67.267,311.994,62.258,310.7,57.18Z" transform="translate(-246.907 0)"/>
            <path id="Path_53" data-name="Path 53" class="cls-5" d="M288.877,95.114s-18.723-.778-15.033,18.665c3.948,20.8,5.77,77.141,5.77,93.541s22.877,16.389,23.775,1.441c2.349-39.1,3.249-75.451,2.04-99.234C304.517,91.608,288.877,95.114,288.877,95.114Z" transform="translate(-257.053 -36.37)"/>
            <path id="Path_54" data-name="Path 54" class="cls-1" d="M280.689,85.784q.705,0,1.411-.022c1.415-.045,2.865-.158,4.309-.337A30.278,30.278,0,0,0,307.676,73.31c3.182-4.357,1.584-8.243.408-12.84a34.569,34.569,0,0,0-3.089-7.912l-.051-.1L282.473,15.48c-1.928-3.657-2.756-5.18-6.635-5.18-4.5,0-5.178,2.984-6.548,7.424-.869,2.815-9.594,30.19-11.111,36.087-.2.787-.419,1.573-.636,2.361a46.784,46.784,0,0,0-2,10.461,16.654,16.654,0,0,0,1.708,8.72c2.526,4.769,5.086,6.475,9.817,8.154A40.62,40.62,0,0,0,280.689,85.784Z" transform="translate(-250.211 -3.95)"/>
            <path id="top_3_" class="cls-2" d="M272.737,14.673c-.88,2.849-10.288,34.484-11.884,40.689-1.056,4.106-2.454,8.2-2.639,12.466a11.852,11.852,0,0,0,1.086,6.05c1.766,3.335,6.4,5.177,9.8,6.386a37.723,37.723,0,0,0,13.8,2.055q2.028-.064,4.044-.317c7.134-.885,14.749-3.7,19.137-9.712,1.992-2.727,3.061-5.707,2.2-9.059a30.557,30.557,0,0,0-2.771-7.082l-24.22-41.976C279.09,9.842,273.965,10.7,272.737,14.673Z" transform="translate(-251.236 -4.329)"/>
          </g>
          <path id="Stairs_2_" class="cls-11" d="M52.258,250.808l85.664-54.718L125.344,176.4c0,.014.006.033.006.046a48.593,48.593,0,0,0-18.648.47l-.019.014a65.866,65.866,0,0,0,.475,18.657,48.577,48.577,0,0,0-18.666.475,65.906,65.906,0,0,0,.475,18.666A48.493,48.493,0,0,0,70.3,215.2a65.907,65.907,0,0,0,.475,18.666,48.491,48.491,0,0,0-18.666.475A64.934,64.934,0,0,0,52.258,250.808Z" transform="translate(-51.656 -67.404)"/>
          <path id="Stairs_1_" class="cls-11" d="M749.562,250.808,663.9,196.09,676.477,176.4c0,.014-.006.033-.006.046a48.594,48.594,0,0,1,18.648.47l.018.014a65.865,65.865,0,0,1-.475,18.657,48.577,48.577,0,0,1,18.666.475,65.905,65.905,0,0,1-.475,18.666,48.493,48.493,0,0,1,18.666.475,65.908,65.908,0,0,1-.475,18.666,48.49,48.49,0,0,1,18.666.475A64.915,64.915,0,0,1,749.562,250.808Z" transform="translate(-286.452 -67.404)"/>
          <path id="Path_55" data-name="Path 55" class="cls-12" d="M281.993,136.5c3.484,31.556,3.791,63.2,4.338,86.938a484.976,484.976,0,0,0-.236-86.4Z" transform="translate(-139.99 -52.349)"/>
          <path id="Path_56" data-name="Path 56" class="cls-12" d="M543.315,137.242c-2.285,31.53-2.186,63.242-2.732,86.938,0,0-3.181-41.98-1.906-88.544Z" transform="translate(-238.314 -52.017)"/>
          <path id="Path_57" data-name="Path 57" class="cls-12" d="M263.232,70.6s11.348-40.461,13.156-45.391c1.834-5,5.137-4.281,6.875,0,0,0-3.676-.652-7.267,8.942C274.914,37.041,263.232,70.6,263.232,70.6Z" transform="translate(-132.796 -8.33)"/>
          <path id="Path_58" data-name="Path 58" class="cls-12" d="M525.714,67.16s20.474-36.7,23.381-41.07c2.951-4.437,5.994-2.965,6.686,1.6,0,0-3.423-1.491-9.152,7C544.9,37.254,525.714,67.16,525.714,67.16Z" transform="translate(-233.458 -8.981)"/>
          <path id="Path_59" data-name="Path 59" class="cls-11" d="M432.284,94.945l3.078-8.672c.655-1.833-.585-3.952-2.78-4.7q-12.253-4.172-24.738-7.349c-2.235-.57-4.417.531-4.87,2.425q-1.079,4.473-2.158,8.945a3.8,3.8,0,0,1-4.678,2.524Q386.963,86.03,377.7,84.5a3.794,3.794,0,0,1-3.364-4.1q.692-4.549,1.384-9.1c.3-1.923-1.3-3.767-3.574-4.082q-12.7-1.766-25.481-2.534c-2.287-.138-4.212,1.354-4.3,3.3q-.218,4.6-.437,9.191a3.79,3.79,0,0,1-4.1,3.359q-9.352-.326-18.709-.091a3.79,3.79,0,0,1-4.064-3.4q-.174-4.6-.348-9.2c-.069-1.945-1.981-3.456-4.267-3.34q-12.764.644-25.47,2.283c-2.276.293-3.891,2.121-3.612,4.047l1.295,9.111a3.794,3.794,0,0,1-3.4,4.069q-9.275,1.437-18.475,3.436a3.8,3.8,0,0,1-4.652-2.57l-2.07-8.966c-.433-1.9-2.6-3.02-4.843-2.473q-12.491,3.05-24.776,7.1c-2.2.724-3.46,2.831-2.823,4.67l2.991,8.7a3.821,3.821,0,0,1-2.613,4.653,311.345,311.345,0,0,0-57.708,27.662l16.94,27.643a278.945,278.945,0,0,1,291.5,0l16.939-27.643a311.392,311.392,0,0,0-54.8-26.6A3.824,3.824,0,0,1,432.284,94.945Z" transform="translate(-94.847 -24.738)"/>
          <path id="castle_4_" class="cls-13" d="M461.1,73.978l-12.065-1.337c-2.168-.24-5.109-.84-7.156.21-2.489,1.278-1.848,5.244-2.1,7.555a9.8,9.8,0,0,1-2.026,5.473c-2.415,2.757-5.988,2.324-9.268,2.309q-4.5-.019-9-.02-4.031,0-8.062,0c-1.47,0-3,.138-4.469.022q5.722.453,11.447.872c2.9.213,5.8.422,8.709.608,2.865.185,5.936.6,8.732-.215a7.191,7.191,0,0,0,2.4-1.19,8.964,8.964,0,0,0,2.94-5.177c.455-1.973.538-4.011.869-6.008a4.376,4.376,0,0,1,.827-2.185,4.017,4.017,0,0,1,3.3-1.046C451.121,74.082,456.124,73.882,461.1,73.978Z" transform="translate(-187.911 -27.709)"/>
          <path id="castle_3_" class="cls-13" d="M365.123,72.205l-12.1.988c-2.174.178-5.175.149-6.984,1.571-2.2,1.729-.814,5.5-.623,7.817a9.8,9.8,0,0,1-.945,5.759c-1.846,3.167-5.435,3.423-8.658,4.034q-4.423.839-8.842,1.7-3.958.766-7.914,1.54c-1.443.283-2.922.708-4.383.874q5.7-.646,11.4-1.327,4.334-.516,8.665-1.063c2.848-.365,5.942-.538,8.531-1.876a7.2,7.2,0,0,0,2.131-1.626,8.972,8.972,0,0,0,1.9-5.643c.071-2.023-.237-4.04-.292-6.063a4.378,4.378,0,0,1,.4-2.3,4.017,4.017,0,0,1,3.036-1.655C355.348,74.21,360.221,73.061,365.123,72.205Z" transform="translate(-152.524 -27.691)"/>
          <path id="castle_2_" class="cls-13" d="M271.83,88.088l-11.747,3.056c-2.111.549-5.073,1.038-6.609,2.75-1.869,2.082.145,5.558.732,7.807a9.8,9.8,0,0,1,.06,5.836c-1.273,3.437-4.765,4.307-7.834,5.465q-4.212,1.588-8.418,3.193-3.767,1.435-7.531,2.88c-1.372.527-2.756,1.2-4.167,1.615q5.507-1.618,11-3.269,4.181-1.255,8.352-2.539c2.742-.85,5.761-1.553,8.08-3.316a7.2,7.2,0,0,0,1.819-1.969,8.971,8.971,0,0,0,.9-5.886c-.279-2.005-.928-3.939-1.332-5.923a4.379,4.379,0,0,1-.007-2.337,4.017,4.017,0,0,1,2.706-2.153C262.546,91.746,267.148,89.774,271.83,88.088Z" transform="translate(-118.639 -33.782)"/>
          <path id="castle_1_" class="cls-13" d="M558.038,95.037l-11.579-3.642c-2.081-.655-4.851-1.811-7.062-1.175-2.689.773-2.826,4.788-3.521,7.007a9.8,9.8,0,0,1-3.045,4.979c-2.9,2.239-6.325,1.124-9.54.477q-4.413-.889-8.83-1.759-3.955-.781-7.911-1.554c-1.443-.281-2.973-.445-4.389-.842q5.527,1.549,11.062,3.066,4.209,1.154,8.427,2.279c2.775.735,5.707,1.74,8.609,1.475a7.182,7.182,0,0,0,2.586-.7,8.965,8.965,0,0,0,3.884-4.512c.827-1.848,1.3-3.832,2.013-5.727a4.376,4.376,0,0,1,1.234-1.985,4.019,4.019,0,0,1,3.436-.39C548.227,93.212,553.174,93.982,558.038,95.037Z" transform="translate(-224.425 -34.529)"/>
        </g>
        <g id="Front_1_" transform="translate(0 31.814)">
          <path id="_x30_1_BG_1_" class="cls-1" d="M478.46,176.329a89.76,89.76,0,0,0-11.771.929,16.516,16.516,0,0,0-3.762.907,13.632,13.632,0,0,0-9.093-3.09h-1.591a22.384,22.384,0,0,0-10.162,2.645,16.281,16.281,0,0,0-7.887-1.883,20.173,20.173,0,0,0-6.5,1.084c.755-14.34,2-32.7,3.785-43.548,3.948-2.054,6.669-4.562,8.3-7.653a19.2,19.2,0,0,0,1.991-10.063,51.629,51.629,0,0,0-2.215-11.616c-.226-.822-.453-1.644-.663-2.465-1.639-6.375-11.049-38.016-11.986-41.05a12.322,12.322,0,0,0-22.928-1.981l-24.23,42-.054.1a38.527,38.527,0,0,0-3.439,8.812c-1.368,5.349-.2,10.609,3.47,15.633a27.3,27.3,0,0,0,4.756,4.989c-.5,13.507-.448,30.39.164,50.224a41.055,41.055,0,0,0-21.5-6.055c-.989,0-1.981.036-2.941.107a30.638,30.638,0,0,0-12.964,3.681,85.415,85.415,0,0,0-1.068-8.726l-.027-.145a16.473,16.473,0,0,0-16.281-13.051,16.851,16.851,0,0,0-3.645.393c-8.553,1.841-14.634,8.956-14.461,16.925l0,.113c.049,1.305.089,2.666.121,4.061-.932-.1-1.925-.155-3.032-.18-.36-.011-.72-.016-1.082-.016-8.842,0-16.529,3.122-21.655,8.792-5.894-6.381-14.719-9.876-25.043-9.876a89.76,89.76,0,0,0-11.771.929,16.072,16.072,0,0,0-8.989,4.079,18.177,18.177,0,0,0-1.61-1.439l-.084-.066c-9.034-6.913-15.815-7.944-21.771-8.027q-.356-.012-.72-.012c-7.722,0-16.78,4.417-23.478,11.361-.367-.493-.753-.965-1.155-1.411-2.66-2.947-7.534-6.46-15.648-6.46a34.038,34.038,0,0,0-13.626,2.67,18.391,18.391,0,0,0-8.306-1.913c-.235,0-.473,0-.72.01a19.575,19.575,0,0,0-5.905,1.1c.529-18.748.546-34.751.051-47.6a27.078,27.078,0,0,0,4.122-4.462c3.671-5.025,4.838-10.285,3.47-15.634a38.439,38.439,0,0,0-3.438-8.81l-.079-.147-24.182-41.91a12.324,12.324,0,0,0-22.952,1.937c-.936,3.033-10.345,34.671-11.985,41.049-.216.84-.447,1.677-.68,2.522a51.409,51.409,0,0,0-2.2,11.559A19.212,19.212,0,0,0,91.4,125.722c1.727,3.261,4.682,5.886,9.018,8.01,1.7,10.558,2.9,27.97,3.627,41.342h-.19a22.394,22.394,0,0,0-10.162,2.645,16.277,16.277,0,0,0-7.887-1.883,20.849,20.849,0,0,0-11.226,3.36c-1.376-10.427-6.749-16.252-11.175-19.349-6.765-4.733-14.882-5.727-20.5-5.727H22.554A20.4,20.4,0,0,0,3.481,169.041a126.959,126.959,0,0,0,.012,59.106c2.063,8.33,10.437,14.862,19.066,14.871H45.08c9.469,0,17.554-2.764,23.5-8.013A20.856,20.856,0,0,0,85.4,244.271a14.8,14.8,0,0,0,11.721-5.339,16.073,16.073,0,0,0,2.994-13.463,78.859,78.859,0,0,1-1.6-16.39,7.52,7.52,0,0,1,.9-.049H101.5a16.829,16.829,0,0,0,3.9-.453c.155,5.917.24,11.148.24,14.868,0,13.348,9.961,20.331,19.8,20.331a20.269,20.269,0,0,0,14.067-5.655,20.448,20.448,0,0,0,14,5.938,17.058,17.058,0,0,0,1.886-.1,14.352,14.352,0,0,0,10.152-5.75,14.7,14.7,0,0,0,1.554-2.668,20.956,20.956,0,0,0,14.244,8.41,18.345,18.345,0,0,0,2,.111,14.737,14.737,0,0,0,11.678-5.323,14.138,14.138,0,0,0,1.541-2.325c6.171,4.9,13.712,7.914,20.081,7.948h.072c5.939-.072,12.66-1.07,21.561-7.777a22.839,22.839,0,0,0,4.951,3.705,29.051,29.051,0,0,0,13.618,3.472,25.274,25.274,0,0,0,11.677-2.631,17.36,17.36,0,0,0,21.906-5.258,26.508,26.508,0,0,0,18.613,7.888,22.407,22.407,0,0,0,10.908-2.426,16.686,16.686,0,0,0,7.331,1.681,16.919,16.919,0,0,0,13.2-6.516c5.4,6.028,13.227,9.08,23.305,9.08,1.225,0,2.5-.046,3.79-.136a45.109,45.109,0,0,0,19.84-5.68,21.244,21.244,0,0,0,3.911-2.7A20.311,20.311,0,0,0,420,238.57a20.584,20.584,0,0,0,13.791,5.7,14.8,14.8,0,0,0,11.721-5.34,16.071,16.071,0,0,0,2.993-13.462,78.856,78.856,0,0,1-1.6-16.39,7.517,7.517,0,0,1,.9-.049h2.088q.263,0,.525-.008a23.669,23.669,0,0,0-1.764,9.272c0,9.888,4.253,17.7,11.974,22a29.051,29.051,0,0,0,13.618,3.472,25.261,25.261,0,0,0,11.677-2.631,17.338,17.338,0,0,0,25.2-15.391V206.879C511.122,188.607,498,176.329,478.46,176.329ZM222.2,208.811a9.23,9.23,0,0,1-3.748.612c-.4,0-.845,0-.85-2.055,0-.526,0-.621.9-.622a9.084,9.084,0,0,1,3.7.612,15.6,15.6,0,0,0,2.152.687A21.478,21.478,0,0,0,222.2,208.811Z" transform="translate(0 -51.605)"/>
          <g id="_x30_1_Brincadeira_1_" transform="translate(7.831 110.367)">
            <path id="Path_60" data-name="Path 60" class="cls-2" d="M47.778,230.627c10.533-.012,24.027,4.065,24.163,22.2-.028,4.344-1.546,9.553-5.38,12.908,5.19,2.364,8.895,8.193,8.884,16.131-.113,8.563-5.967,21.989-25.557,21.959H27.432c-4.91,0-10.228-3.987-11.447-8.907a118.436,118.436,0,0,1,0-55.384c1.218-4.918,6.537-8.9,11.447-8.907ZM38.6,259.842c4.042.007,9.841.059,9.841-6.245,0-6.241-4.766-6.822-9.841-6.838h0c-3.846-.011-7.117,2.685-7.117,6.527h0c.226,4.4,3.129,6.168,7.117,6.556C38.553,259.837,38.65,259.842,38.6,259.842ZM42.3,288.68c4.043-.013,9.771-1.533,9.5-7.552-.221-5.19-5.876-7.345-10.353-7.338-1.44,0-1.571,0-3.01.007-4.036.006-7.823,3.865-7.515,7.8h0c.309,3.936,4.519,7.105,8.458,7.093C40.783,288.689,40.886,288.684,42.3,288.68Z" transform="translate(-12.703 -230.627)"/>
            <path id="Path_61" data-name="Path 61" class="cls-3" d="M144.076,282.872c-8.258,0-8.763,5.787-8.706,5.789a86.548,86.548,0,0,0,1.719,20.075c1.052,5.2-1.812,9.376-7.027,9.376-5.2,0-10.795-4.18-11.847-9.376a86.563,86.563,0,0,1-.231-33.578c1.062-5.6,6.9-9.781,12.485-9.782,3.521,0,5.782,1.394,6.892,4.092,5.388-4.491,9.521-4.849,11.185-4.855h1.562c5.222,0,6.5,3.8,5.388,9.116-1.059,5.061-4.121,9.145-9.337,9.143Z" transform="translate(-52.492 -243.661)"/>
            <path id="Path_62" data-name="Path 62" class="cls-2" d="M709.181,282.872c-8.258,0-8.763,5.787-8.705,5.789a86.547,86.547,0,0,0,1.719,20.075c1.053,5.2-1.812,9.376-7.027,9.376-5.2,0-10.794-4.18-11.847-9.376a86.561,86.561,0,0,1-.231-33.578c1.062-5.6,6.9-9.781,12.485-9.782,3.522,0,5.783,1.394,6.892,4.092,5.388-4.491,9.521-4.849,11.184-4.855h1.562c5.221,0,6.5,3.8,5.388,9.116-1.059,5.061-4.121,9.145-9.338,9.143Z" transform="translate(-269.21 -243.661)"/>
            <path id="Path_63" data-name="Path 63" class="cls-7" d="M277.414,308.73c1.121,5.521-2.224,9.886-8.1,9.238-4.9-.541-9.7-4.615-10.647-9.362a85.88,85.88,0,0,1-1.583-22.016c.16-2.611-2.171-3.523-3.729-3.523-4.547,0-7.425,3.912-7.4,3.914a85.877,85.877,0,0,0,1.569,21.45c.959,4.853-1.224,9.027-5.886,9.543-5.428.6-11.665-3.748-12.78-9.246a85.888,85.888,0,0,1-.229-33.314c.993-5.277,6.575-9.542,11.892-9.7,3.743-.108,6.519,1,7.659,3.8,5.121-4.071,11.44-4.556,14.775-4.561,9.986-.007,14.215,7.542,13.182,17.594A85.854,85.854,0,0,0,277.414,308.73Z" transform="translate(-94.927 -243.791)"/>
            <path id="Path_64" data-name="Path 64" class="cls-2" d="M352.012,265.715a12.45,12.45,0,0,1,4.412,7.563c.464,4.525-3.636,7.91-8.394,7.812a12.167,12.167,0,0,1-4.637-1.334,16.763,16.763,0,0,0-6.646-1.212c-3.364-.054-8.8,1.916-8.83,8.44.022,8.154,5.74,9.989,8.83,9.935a16.765,16.765,0,0,0,6.646-1.213,12.161,12.161,0,0,1,4.637-1.334c4.758-.1,8.858,3.287,8.394,7.812a12.449,12.449,0,0,1-4.412,7.563c-7.55,5.777-12.837,6.36-17.218,6.413-8.447-.045-25.9-9.239-26.667-28.988.731-17.351,17.335-28.271,26.667-27.871C339.175,259.356,344.463,259.938,352.012,265.715Z" transform="translate(-125.999 -241.62)"/>
            <path id="Path_65" data-name="Path 65" class="cls-5" d="M434.624,289.351v18.858a9.425,9.425,0,0,1-9.429,9.429,9.187,9.187,0,0,1-7.692-3.97c-3.97,4.466-9.677,4.714-11.91,4.714-2.481,0-17.741-.745-17.741-17.617,0-9.3,6.2-14.392,17-14.392a24.9,24.9,0,0,1,11.786,3.226v-2.854c-.62-2.481-2.233-4.59-10.173-4.59a56.854,56.854,0,0,0-6.948.62,7.519,7.519,0,0,1-7.568-7.568,7.68,7.68,0,0,1,7.072-7.692,84.563,84.563,0,0,1,10.794-.868C425.071,266.648,434.624,275.58,434.624,289.351Zm-19.348,13.3c.692-2.326-1.439-4.215-6.9-5.084-4.431-.7-5.211,1.344-5.456,2.885s.467,3.736,4.293,4.434C414.7,306.255,415.276,302.65,415.276,302.65Z" transform="translate(-156.573 -244.441)"/>
            <path id="Path_66" data-name="Path 66" class="cls-5" d="M787.245,289.351v18.858a9.425,9.425,0,0,1-9.429,9.429,9.187,9.187,0,0,1-7.692-3.97c-3.97,4.466-9.677,4.714-11.91,4.714-2.481,0-17.741-.745-17.741-17.617,0-9.3,6.2-14.392,17-14.392a24.9,24.9,0,0,1,11.786,3.226v-2.854c-.62-2.481-2.233-4.59-10.173-4.59a56.856,56.856,0,0,0-6.948.62,7.518,7.518,0,0,1-7.567-7.568,7.68,7.68,0,0,1,7.072-7.692,84.564,84.564,0,0,1,10.794-.868C777.692,266.648,787.245,275.58,787.245,289.351Zm-19.927,13.011c.658-2.211-1.368-4.008-6.564-4.834-4.213-.67-4.955,1.278-5.188,2.743s.444,3.552,4.081,4.217C766.773,305.79,767.318,302.363,767.318,302.363Z" transform="translate(-291.804 -244.441)"/>
            <path id="Path_67" data-name="Path 67" class="cls-6" d="M498.305,243.15c-.1-4.381,3.632-8.075,8.266-9.073,4.578-1.016,9.6,1.59,10.572,6.5,3.128,17.742-.551,36.561-1.782,54.994-.384,5.271-4.4,9.487-9.374,9.487a8.606,8.606,0,0,1-7.325-3.973c-3.351,4.349-7.714,4.716-10.918,4.718-8.534-.025-19.1-5.981-21.564-26.975-1.946-18.059,10.164-23.99,21.137-23.664a17.448,17.448,0,0,1,11.209,3.642C498.549,253.434,498.494,248.194,498.305,243.15ZM496.3,285.7c2.076-3.092,2.528-8.251.26-11.378a6.189,6.189,0,0,0-5.3-2.491c-1.931.012-6.54,1.5-6.4,7.374.194,7.363,5.214,9.131,7.039,9.121A6.055,6.055,0,0,0,496.3,285.7Z" transform="translate(-186.533 -231.867)"/>
            <path id="Path_68" data-name="Path 68" class="cls-4" d="M578.453,318.789C558.4,320.2,552.1,308.832,551.311,293.1c-.6-15.337,4.979-28.642,20.848-29.743,15.113-1.12,30.208,8.526,31.321,21.664.435,4.881-3.507,9.281-8.082,10.643-3.373,1.005-8.214,1.033-12.533,1.2-3.959.15-8.932-.331-10.71.615-1.385.738-1.778,2.191-.846,3.1,1.273,1.121,3.862,1.673,9.56,1.258,3.648-.266,8.307-1.87,11.527-2.509,4.706-1.036,8.177,1.664,8.383,6.332.15,3.678-2.5,6.656-5.666,8.365A37.462,37.462,0,0,1,578.453,318.789Zm3.894-33.24c1.906-.295,2.139-2.5,1.258-3.705-1.65-2.246-3.975-2.78-6.687-2.579-2.418.18-4.559,1.208-5.41,3.614-.439,1.239-.1,3.148,2.037,3.145C576.465,286.019,579.438,285.765,582.348,285.549Z" transform="translate(-219.244 -243.147)"/>
          </g>
          <g id="_x30_2_Tower_1_" transform="translate(379.29 4.328)">
            <path id="Path_69" data-name="Path 69" class="cls-3" d="M652.928,148.168s18.723-.778,15.033,18.665c-3.948,20.8-5.77,77.141-5.77,93.541s-22.877,16.389-23.775,1.441c-2.349-39.1-3.249-75.451-2.04-99.234C637.287,144.662,652.928,148.168,652.928,148.168Z" transform="translate(-623.135 -92.859)"/>
            <path id="Path_70" data-name="Path 70" class="cls-1" d="M646.371,136.727q-.706,0-1.411-.022c-1.416-.045-2.865-.158-4.309-.337-9.611-1.192-17.4-5.262-21.922-11.46-3.182-4.357-4.2-8.9-3.025-13.5a34.574,34.574,0,0,1,3.089-7.912l.051-.1,22.47-38.944a10.227,10.227,0,0,1,19.071,1.591c.869,2.815,9.594,32.152,11.111,38.049.2.787.419,1.573.636,2.361a46.78,46.78,0,0,1,2,10.461,16.652,16.652,0,0,1-1.708,8.72c-2.526,4.769-7.7,7.129-12.434,8.809A40.6,40.6,0,0,1,646.371,136.727Z" transform="translate(-615.232 -58.626)"/>
            <path id="top_2_" class="cls-4" d="M658.007,67.727c.88,2.849,10.288,34.484,11.884,40.689,1.056,4.107,2.454,8.2,2.639,12.466a11.852,11.852,0,0,1-1.086,6.05c-1.766,3.335-6.4,5.177-9.8,6.386a37.723,37.723,0,0,1-13.8,2.055q-2.028-.064-4.044-.317c-7.134-.885-14.749-3.7-19.137-9.712-1.992-2.727-3.061-5.707-2.2-9.059a30.568,30.568,0,0,1,2.771-7.082l24.22-41.976C651.654,62.9,656.779,63.75,658.007,67.727Z" transform="translate(-617.89 -60.818)"/>
          </g>
          <g id="_x30_1_Tower_1_" transform="translate(92.971 4.328)">
            <path id="Path_71" data-name="Path 71" class="cls-4" d="M189.465,148.168s-18.723-.778-15.033,18.665c3.948,20.8,5.77,77.141,5.77,93.541s22.877,16.389,23.775,1.441c2.349-39.1,3.249-75.451,2.04-99.234C205.106,144.662,189.465,148.168,189.465,148.168Z" transform="translate(-159.681 -92.858)"/>
            <path id="Path_72" data-name="Path 72" class="cls-1" d="M178.589,136.727a40.592,40.592,0,0,1-13.62-2.277c-4.731-1.68-9.908-4.039-12.434-8.808a16.66,16.66,0,0,1-1.708-8.722,46.783,46.783,0,0,1,2-10.461c.217-.787.434-1.573.636-2.361,1.517-5.9,10.241-35.234,11.11-38.049a10.227,10.227,0,0,1,19.071-1.591l22.47,38.944.051.1a34.58,34.58,0,0,1,3.089,7.912c1.176,4.6.158,9.138-3.025,13.5-4.526,6.2-12.311,10.268-21.921,11.46-1.444.179-2.894.293-4.309.337Q179.294,136.727,178.589,136.727Z" transform="translate(-150.804 -58.625)"/>
            <path id="top_1_2" data-name="top_1_" class="cls-3" d="M172.264,67.727c-.88,2.849-10.288,34.484-11.884,40.689-1.056,4.107-2.454,8.2-2.639,12.466a11.851,11.851,0,0,0,1.086,6.05c1.766,3.335,6.4,5.177,9.8,6.386a37.723,37.723,0,0,0,13.8,2.055q2.028-.064,4.044-.317c7.134-.885,14.749-3.7,19.137-9.712,1.992-2.727,3.061-5.707,2.2-9.059a30.555,30.555,0,0,0-2.771-7.082l-24.22-41.976C178.617,62.9,173.492,63.75,172.264,67.727Z" transform="translate(-153.457 -60.817)"/>
          </g>
        </g>
      </g>
    </g>
    <g id="Shine_1_" transform="translate(9.948 45.843)">
      <path id="B_1_" class="cls-12" d="M53.709,236.57A142.56,142.56,0,0,0,39.3,235.517a61.143,61.143,0,0,0-9.251.187,15.287,15.287,0,0,0-5.63,1.639,10.835,10.835,0,0,0-4,3.975c-2.338,3.91-2.981,8.651-3.535,13.092a97.135,97.135,0,0,0-.721,14.342c.083,3.482.371,6.96.708,10.425q.493,5.058,1.378,10.066c.379,2.14.808,4.271,1.272,6.394,0,0-.936-11.89-1.125-23.342a109.125,109.125,0,0,1,1.012-15.783c2.165-16.1,6.39-18.316,18.973-19.235C42.016,237.012,48.467,236.8,53.709,236.57Z" transform="translate(-16.135 -136.132)"/>
      <path id="r_3_" class="cls-12" d="M123.594,275.978c-6.349,11.019-.772,35.8-.772,35.8.173-13.983-.621-28.884,5.1-35,1.721-1.838,4.7-3.542,8.072-2.229C134.014,270.077,126.587,270.784,123.594,275.978Z" transform="translate(-56.181 -150)"/>
      <path id="r_2_" class="cls-12" d="M689.132,275.9c-5.755,11.34-.773,35.8-.773,35.8.173-13.983-.621-29.42,5.1-35.532a7.222,7.222,0,0,1,8.072-1.694C700.914,271.274,692.647,268.968,689.132,275.9Z" transform="translate(-273.167 -149.917)"/>
      <path id="r_1_" class="cls-12" d="M376.835,403.122c-4.435,8.74-.6,27.59-.6,27.59.133-10.776-.478-22.674,3.932-27.385a5.566,5.566,0,0,1,6.221-1.305C385.916,399.56,379.544,397.783,376.835,403.122Z" transform="translate(-153.644 -199.106)"/>
      <path id="tower_3_" class="cls-12" d="M182.987,190.349c3.489,31.592,3.793,63.242,4.338,86.938a484.975,484.975,0,0,0-.235-86.4Z" transform="translate(-80.123 -118.842)"/>
      <path id="tower_2_" class="cls-12" d="M646.663,189.35c-2.285,31.53-2.186,63.242-2.732,86.938,0,0-3.181-41.98-1.906-88.544Z" transform="translate(-256.05 -117.843)"/>
      <path id="cone_2_" class="cls-12" d="M628.289,121.826s20.474-36.7,23.382-41.07c2.951-4.437,5.994-2.965,6.686,1.6,0,0-3.423-1.491-9.153,7C647.477,91.92,628.289,121.826,628.289,121.826Z" transform="translate(-250.897 -75.788)"/>
      <path id="cone_1_" class="cls-12" d="M161.911,123.237s11.349-40.461,13.156-45.391c1.834-5,5.137-4.281,6.875,0,0,0-3.676-.652-7.267,8.942C173.593,89.681,161.911,123.237,161.911,123.237Z" transform="translate(-72.041 -74.36)"/>
      <path id="n_2_" class="cls-12" d="M235.91,277.679c-5.318,10.7-.772,34.727-.772,34.727.173-13.983-.2-26.2,4.192-33.324,1.35-2.189,4-4.143,7.375-2.83C244.723,271.778,238.577,272.311,235.91,277.679Z" transform="translate(-99.429 -150.63)"/>
      <path id="n_1_" class="cls-12" d="M515.284,403.124c-3.8,9-.825,27.336-.825,27.336.142-11.514.022-20.312,3.641-26.18a5.492,5.492,0,0,1,6.073-2.866C522.541,397.729,516.966,399.138,515.284,403.124Z" transform="translate(-206.819 -198.966)"/>
      <path id="c_3_" class="cls-12" d="M313.489,297.057a22.253,22.253,0,0,1-.192-16.1c3.039-7.82,10.182-15.183,19.364-17.178,10.1-2.2,15.92,3.573,15.92,3.573s-16.057-5.712-26.432,5.487C310.84,285.044,313.489,297.057,313.489,297.057Z" transform="translate(-129.552 -146.81)"/>
      <path id="c_2_" class="cls-12" d="M292.79,402.621a23.9,23.9,0,0,1-.206-17.3c3.264-8.4,10.938-16.31,20.8-18.454,10.853-2.358,17.1,3.838,17.1,3.838s-16.61-6.639-28.434,5.854C289.766,389.546,292.79,402.621,292.79,402.621Z" transform="translate(-121.568 -186.332)"/>
      <path id="c_1_" class="cls-12" d="M576.007,418.295a16.629,16.629,0,0,1-.152-12.348,21.922,21.922,0,0,1,15.269-13.173c7.967-1.683,12.554,2.74,12.554,2.74s-12.586-4.586-21.265,4.332C573.394,409.114,576.007,418.295,576.007,418.295Z" transform="translate(-230.359 -196.325)"/>
      <path id="a_4_" class="cls-12" d="M397.8,276.44s-1.338-3.927,5.592-5.363,24.259-1.519,29.005,9.207c0,0-4.658-7.371-19.659-7.6C401.011,272.5,397.8,276.44,397.8,276.44Z" transform="translate(-162.465 -149.54)"/>
      <path id="a_3_" class="cls-12" d="M750.4,277.511s-1.338-5,5.592-6.434,24.259-1.519,29,9.207c0,0-4.658-7.371-19.659-7.6C753.61,272.5,750.4,277.511,750.4,277.511Z" transform="translate(-297.687 -149.54)"/>
      <path id="a_2_" class="cls-12" d="M457.144,403.953s-1.025-3.831,4.286-4.931,18.595-1.165,22.233,7.058c0,0-3.57-5.65-15.069-5.827C459.6,400.113,457.144,403.953,457.144,403.953Z" transform="translate(-185.233 -198.668)"/>
      <path id="a_1_" class="cls-12" d="M642.62,403.953s-1.025-3.831,4.286-4.931,18.6-1.165,22.234,7.058c0,0-3.57-5.65-15.069-5.827C645.08,400.113,642.62,403.953,642.62,403.953Z" transform="translate(-256.363 -198.668)"/>
      <path id="d_5_" class="cls-12" d="M471.008,297.465s-3.781-18.833,12.821-23.165c0,0,9.6-1.986,14.9,4.244C487.72,272.792,472.111,278.449,471.008,297.465Z" transform="translate(-190.438 -150.922)"/>
      <path id="d_4_" class="cls-12" d="M522.968,249.669v-2.48c-.2-9.164,11.3-8.384,12.459-3.427C529.194,239.856,523.835,243.329,522.968,249.669Z" transform="translate(-210.506 -137.934)"/>
      <path id="d_3_" class="cls-12" d="M139.236,419.435s-3.007-14.976,10.2-18.421c0,0,7.632-1.579,11.848,3.375C152.525,399.815,140.113,404.314,139.236,419.435Z" transform="translate(-63.232 -199.54)"/>
      <path id="d_2_" class="cls-12" d="M179.687,381.427v-1.972c-.158-7.288,8.985-6.667,9.907-2.726C184.638,373.624,180.376,376.386,179.687,381.427Z" transform="translate(-78.857 -189.212)"/>
      <path id="Path_73" data-name="Path 73" class="cls-12" d="M555.642,293.184s-2.387-22.453,17.595-26.078c0,0,11.14-1.066,17.33,4.5C590.566,271.61,562.8,256.85,555.642,293.184Z" transform="translate(-223.003 -148.247)"/>
      <path id="Path_74" data-name="Path 74" class="cls-12" d="M203.419,414.833s-1.935-18.193,14.257-21.13c0,0,9.027-.864,14.042,3.65C231.718,397.353,209.222,385.392,203.419,414.833Z" transform="translate(-87.931 -196.803)"/>
      <path id="d_1_" class="cls-12" d="M425.191,374.086c-.552-9.039,10.15-7.783,11.38-2.851C431.076,366.324,425.609,369.118,425.191,374.086Z" transform="translate(-173.001 -186.743)"/>
      <path id="tower_1_" class="cls-12" d="M428.179,409.918c1.02,8.407,1.185,11.591-.123,22.289,0,0,2.564-9.166,1.539-22.744C428.839,406.395,427.716,407.465,428.179,409.918Z" transform="translate(-174.108 -202.151)"/>
    </g>
  </g>
</svg>
